<svg width="208" height="72" viewBox="0 0 208 72" fill="none" xmlns="http://www.w3.org/2000/svg">
<path d="M44.9142 16.1525C44.6868 15.9492 44.4579 15.7523 44.2322 15.5442C44.0593 15.6771 44.4547 15.6915 44.8982 16.1973L45.2904 16.4935L45.3352 16.4711C45.3352 16.4711 45.4025 16.5127 45.5017 16.5703C45.3544 16.3862 45.2424 16.1909 45.1575 15.9732L45.1447 15.9604C44.8726 15.89 44.4419 15.6755 44.9142 16.1525Z" fill="black"/>
<path d="M31.3126 53.0087L31.9242 53.8203C32.1211 53.7274 31.7161 53.6122 31.3366 52.967L30.946 52.5172C30.9332 52.5268 30.898 52.5492 30.8516 52.5764C30.9316 52.7557 30.9924 52.9382 31.0341 53.1271L31.0453 53.1447C31.3158 53.292 31.7273 53.6298 31.3126 53.0087Z" fill="black"/>
<path d="M30.8884 52.4916C30.8756 52.4948 30.8516 52.506 30.8228 52.5189C30.8292 52.5333 30.8372 52.5477 30.8436 52.5637L30.8708 52.5429L30.8948 52.5221C30.8948 52.5221 30.9028 52.5141 30.9044 52.5092C30.914 52.4948 30.914 52.4852 30.8868 52.4916H30.8884Z" fill="black"/>
<path d="M31.1013 52.4003C31.0885 52.4115 31.0725 52.4259 31.0485 52.4435L31.1285 52.4067C31.1269 52.3987 31.1253 52.3891 31.1237 52.3811C31.1157 52.3875 31.1093 52.3939 31.1013 52.4003Z" fill="black"/>
<path d="M38.8499 46.6053C38.8131 46.8199 38.7971 47.0488 38.8019 47.3497C38.8403 47.1785 38.8435 46.8839 38.8499 46.6053Z" fill="black"/>
<path d="M61.3847 46.6053C61.3479 46.8199 61.3318 47.0488 61.3366 47.3497C61.3751 47.1785 61.3783 46.8839 61.3847 46.6053Z" fill="black"/>
<path d="M53.6921 33.3231C53.452 33.1822 53.0774 32.9629 52.5827 32.6715C51.6605 33.195 50.1797 34.0354 48.8013 34.8182C47.591 35.5082 46.4719 36.1501 46.0268 36.4207C46.1805 36.3743 46.4943 36.1646 46.648 36.1437C46.3854 36.3326 46.2318 36.3711 46.1261 36.4719C45.9756 36.4591 45.5017 36.8081 45.2472 36.8545L45.1912 36.9426L45.0375 36.997C44.9206 37.0706 44.8245 37.1315 44.7445 37.1811C44.7045 37.2067 44.6676 37.2291 44.6356 37.2499L44.4771 37.346C44.2738 37.4676 44.1698 37.5317 44.1041 37.5717C43.9712 37.6501 43.992 37.6341 43.6831 37.8054C43.6831 37.9815 43.6783 38.3001 43.6735 38.8492C43.6751 38.9468 43.6767 39.0397 43.6783 39.1245C43.6815 39.2046 43.6847 39.2782 43.6879 39.3502L43.7103 39.7296C43.7247 39.957 43.7359 40.1443 43.7231 40.3476C43.7231 40.2867 43.7535 40.1266 43.7663 40.3155C43.7231 40.3476 43.7967 40.8166 43.7535 40.9095C43.7583 41.0936 43.7535 41.6923 43.8127 41.489C43.7839 41.5898 43.7711 42.1245 43.7455 41.8059C43.7439 41.9852 43.7343 42.1597 43.7487 42.2894L43.7647 42.0589C43.7727 42.6672 43.7279 42.997 43.7807 43.394L43.8047 43.1699C43.8079 43.5332 43.8127 43.8374 43.7551 43.9799L43.7375 43.6069C43.7375 44.2088 43.7423 44.5722 43.7743 45.0749V44.8956C43.7919 45.0749 43.8079 45.4655 43.824 45.9489C43.832 46.1907 43.8384 46.4548 43.848 46.7269C43.856 46.903 43.864 47.5258 43.872 47.9772C44.1874 48.1517 44.4979 48.323 44.7909 48.4847C44.967 48.5775 45.1335 48.6656 45.284 48.7456C45.585 48.9025 45.8203 49.0226 45.9404 49.0722L45.7275 48.8977L46.1853 49.1186C46.1341 49.0882 45.9004 49.1234 45.8635 49.0866C46.2958 49.3331 47.5621 50.0567 48.8861 50.8123C49.5473 51.1917 50.2229 51.5791 50.8152 51.9201C51.5469 52.3459 52.176 52.7109 52.5843 52.9478C52.8564 52.7941 53.0261 52.6981 53.1494 52.6277C53.2999 52.5476 53.3927 52.5028 53.4264 52.4932C53.452 52.4868 53.4536 52.4964 53.444 52.5108C53.4408 52.514 53.4392 52.5188 53.4344 52.5236L53.4104 52.5444L53.3543 52.5876C53.3175 52.6149 53.2855 52.6389 53.2839 52.6421C53.3767 52.586 53.4648 52.5316 53.484 52.5188L53.564 52.4644C53.6041 52.4356 53.6233 52.4179 53.6393 52.4035C53.6729 52.3731 53.6985 52.3507 53.881 52.2467C53.9835 52.197 53.8778 52.2899 53.8266 52.3267C53.9835 52.2306 54.1388 52.1586 54.1404 52.133C53.9339 52.2338 53.9899 52.1362 53.8874 52.1538L54.3565 51.8881L54.3533 51.9313C54.4574 51.8721 54.5678 51.6944 55.0369 51.4462C55.8182 51.0124 56.6506 50.5177 57.4335 50.0759C57.4335 50.1015 57.275 50.2072 57.1181 50.3112C57.2222 50.252 57.3791 50.1559 57.4831 50.1127C57.2766 50.188 57.7969 49.903 57.6416 49.9735C58.1683 49.57 58.9448 49.2131 59.4171 48.8721C59.4187 48.832 59.4939 48.4991 59.5756 48.1245L60.5361 47.5706C60.8531 47.6426 61.1829 47.5274 61.303 46.8438L61.3382 46.8678L61.3334 46.5765C61.351 46.2275 61.3094 46.0658 61.3446 46.0898L61.3398 46.5669C61.3494 46.2163 61.3686 46.4612 61.3894 46.5941C61.3926 46.4484 61.3974 46.3059 61.4086 46.1891C61.3942 46.1202 61.3942 46.2403 61.3862 46.2947C61.3734 46.1058 61.3398 45.8433 61.3574 45.6144C61.3606 45.2558 61.415 45.5919 61.4182 45.1725C61.4326 44.0679 61.4471 42.981 61.4615 41.8924C61.4663 41.3481 61.4711 40.8022 61.4759 40.2531C61.4759 39.6112 61.4759 38.9676 61.4775 38.3161C61.4919 38.212 61.4919 38.3305 61.4983 38.4554C61.4967 38.2264 61.4935 38.0023 61.4919 37.8006C61.0948 37.5749 60.7154 37.3588 60.3424 37.1459C60.1199 37.021 59.9005 36.8993 59.6796 36.7761C59.5403 36.6768 59.5115 36.6352 59.4747 36.5968C59.5115 36.6352 58.7751 36.219 58.0243 35.79C57.6496 35.5738 57.2702 35.3561 56.982 35.1912C56.6939 35.0248 56.497 34.9095 56.4857 34.9015L56.4169 34.9351C55.8438 34.6053 56.2872 34.775 55.7493 34.4837C55.4964 34.442 54.8736 33.9666 54.6671 33.9026C54.6751 33.8994 54.4173 33.7473 54.4478 33.7313C54.3437 33.7281 54.1756 33.5872 54.0059 33.504C53.9403 33.4815 54.0427 33.5424 54.0795 33.5808L53.6953 33.3791C53.556 33.2814 53.5352 33.235 53.6969 33.3215L53.6921 33.3231Z" fill="black"/>
<path d="M50.2373 28.1748C50.2005 28.3893 50.1845 28.6182 50.1893 28.9192C50.2277 28.7479 50.2309 28.4534 50.2373 28.1748Z" fill="black"/>
<path d="M31.0359 53.1409C31.0359 53.1409 31.0427 53.1443 31.0445 53.146L31.0325 53.1272C31.0325 53.1272 31.0359 53.1358 31.0359 53.1409Z" fill="black"/>
<path d="M44.2659 8.44278C44.3715 8.44278 44.49 8.44278 44.6116 8.44278C44.4964 8.43157 44.3779 8.42677 44.2659 8.44278Z" fill="black"/>
<path d="M80.5015 40.7915C80.5079 40.7753 80.5128 40.7591 80.5144 40.7462C80.5095 40.7608 80.5063 40.7769 80.5015 40.7915Z" fill="black"/>
<path d="M76.4127 19.0596C76.4192 19.071 76.4274 19.0856 76.4339 19.097C76.4339 19.0823 76.4257 19.071 76.4127 19.0596Z" fill="black"/>
<path d="M80.7352 36.5744C80.7608 35.1 81.0378 34.2868 80.6952 33.3263C80.652 33.5088 80.6136 33.6929 80.5655 33.8738C80.5287 32.9917 80.4743 32.2601 80.7961 31.8903C80.8505 32.1929 80.9081 32.4955 80.9482 32.798C80.8761 31.322 80.7753 30.4272 80.4295 29.2281L80.4775 29.6652C80.4086 29.4763 80.327 29.1833 80.2341 28.8167C80.1461 28.4501 80.018 28.0083 79.8963 27.5184C79.8371 27.2735 79.7571 27.0174 79.6818 26.7516C79.6034 26.4875 79.5313 26.2121 79.4433 25.9336C79.2624 25.3781 79.0863 24.7986 78.8701 24.2287C78.8173 24.0862 78.7661 23.9437 78.7133 23.8013L78.6348 23.5884L78.5404 23.361C78.4139 23.0601 78.289 22.7623 78.1657 22.4726C78.0409 22.1844 77.8984 21.9219 77.7687 21.6609C77.6342 21.4048 77.5142 21.1487 77.3765 20.9277C77.2436 20.7036 77.1155 20.4923 76.9938 20.297C76.8738 20.1033 76.7601 19.9224 76.6464 19.7735C76.4239 19.4694 76.2366 19.2389 76.1005 19.106L76.1854 19.8264L75.7867 19.3349L75.5866 19.0916L75.3785 18.8579C75.4137 18.9219 75.6843 18.9315 75.9372 18.9571C76.1454 18.9779 76.3471 19.0035 76.4079 19.0548C76.0685 18.4464 75.3497 17.2858 74.3491 15.9571C73.3325 14.5996 72.0117 13.0916 70.6061 11.7117C69.2053 10.3269 67.7244 9.06708 66.4725 8.07775C66.1587 7.83282 65.8609 7.5991 65.584 7.38299C65.3038 7.17328 65.0429 6.97797 64.8091 6.80188C64.3449 6.44329 63.9686 6.18235 63.7429 5.99665C63.0497 5.34191 63.8422 5.54201 63.8774 5.5132C63.3747 5.22825 63.2242 5.23145 63.1089 5.22024C62.9921 5.21224 62.9024 5.20263 62.4974 4.93049C62.2989 4.74479 62.6575 4.78001 62.8048 4.82804C62.6158 4.72558 62.4494 4.60072 62.3181 4.51267C62.1852 4.42782 62.0875 4.3798 62.0411 4.42462C62.4494 4.78481 62.0747 4.9577 62.1484 5.26187C61.8058 5.02814 61.4504 4.81523 61.1014 4.59111L61.2583 4.43583C61.1398 4.36219 60.9157 4.39421 60.5955 4.36219C60.2721 4.33177 59.8574 4.23572 59.3547 3.88834C57.5889 2.82698 55.5093 1.95612 53.5466 1.19091C53.6202 1.08366 54.0653 1.1621 54.5087 1.25175C54.2478 1.14129 53.8267 1.02603 53.6122 0.848332C54.0156 1.23574 52.7269 0.685046 53.0711 0.910765C52.658 0.910765 52.2418 0.846731 51.8255 0.747479C51.4061 0.653029 50.9786 0.537768 50.5624 0.411301C50.1414 0.291238 49.7187 0.185582 49.3169 0.100737C48.9134 0.019094 48.5164 -0.012923 48.1578 0.00468635C48.105 0.116746 47.8056 0.619411 47.4038 1.3558C47.0019 2.08899 46.5168 3.03509 46.083 3.99239C45.6459 4.96251 45.2665 5.94543 45.0056 6.71864C44.7414 7.48704 44.5973 8.06655 44.5877 8.20422C44.3124 8.18341 44.0386 8.1594 43.9553 8.10817C43.9906 8.17541 44.1427 8.23304 44.3204 8.26345C44.4997 8.29707 44.7014 8.29227 44.8567 8.27626L44.9335 7.9849C45.2873 7.9689 45.3241 8.01532 45.3562 8.07455C45.3898 8.13698 45.4138 8.18981 45.7612 8.23784C45.7644 8.36591 45.5995 8.40433 45.3802 8.43154C45.1609 8.46036 44.8679 8.44115 44.6069 8.43634C45.084 8.50678 45.5355 8.7261 45.7788 8.50198C46.2287 8.67167 45.686 8.79013 46.2223 8.97423C46.6305 8.98223 47.2149 8.84296 47.6583 9.1103L47.6391 9.15032C47.7752 9.21596 47.9049 9.26558 48.0313 9.3024C48.1578 9.34562 48.2811 9.37924 48.4027 9.40325C48.6445 9.45448 48.875 9.46569 49.1056 9.4913C49.565 9.54733 50.0229 9.58575 50.5144 9.90912L50.3719 9.94274C50.6985 10.2069 51.5102 10.3205 52.1265 10.7528C51.9552 10.6215 51.856 10.3846 52.2738 10.5399C52.991 11.0201 53.5818 11.1434 54.0589 11.5916L54.7056 11.6588C55.0402 11.8301 55.4869 12.0943 56.0328 12.3904C56.3018 12.5473 56.5931 12.7186 56.9037 12.9011C57.2143 13.082 57.5361 13.2917 57.8771 13.4982C58.2181 13.7079 58.5607 13.9449 58.9241 14.1786C59.2811 14.4203 59.6429 14.6764 60.0143 14.9358C60.7412 15.4705 61.4936 16.034 62.206 16.6359C63.6388 17.8285 64.9676 19.1172 65.9618 20.2762C66.9608 21.432 67.6668 22.4325 68.0158 23.0168L67.9262 22.9448C68.5009 23.8205 69.1188 24.9603 69.5415 26.1833L69.5847 26.2986C69.5991 26.3354 69.6135 26.3754 69.6263 26.4235C69.6536 26.5163 69.6824 26.6091 69.7096 26.702C69.7656 26.8893 69.8233 27.0782 69.8793 27.2687C69.9289 27.4624 69.9801 27.6577 70.0298 27.8546C70.0554 27.9523 70.081 28.0515 70.1066 28.1508L70.1723 28.4533C70.2171 28.655 70.2619 28.8583 70.3067 29.0616C70.3452 29.2682 70.382 29.4747 70.4204 29.6828C70.5053 30.0958 70.5517 30.5232 70.6205 30.9442C70.8366 32.6427 70.9119 34.3813 70.8575 35.9821C70.8046 37.5845 70.6445 39.0461 70.4892 40.2179C70.3948 40.3844 70.3147 40.5717 70.2443 40.7686C70.1675 40.9639 70.0986 41.1721 70.0362 41.3802C70.0058 41.4842 69.9754 41.5899 69.9465 41.6939L69.8505 42.0013C69.7864 42.203 69.724 42.3967 69.6584 42.5744C69.8633 42.1966 69.9866 42.3791 69.8905 42.6961C69.7128 43.2467 69.6296 43.5349 69.5959 43.6934C69.5575 43.8487 69.5735 43.8759 69.5943 43.9047C69.6135 43.9335 69.6376 43.9655 69.6135 44.1304C69.5863 44.2937 69.5271 44.5995 69.3318 45.155C69.1461 45.8113 68.7186 46.8919 68.083 48.1261C67.7677 48.744 67.3866 49.3908 66.9752 50.0487C66.7607 50.3705 66.5429 50.7003 66.314 51.0221C66.0755 51.3374 65.8497 51.6672 65.5952 51.9714C64.609 53.2152 63.5044 54.3278 62.5038 55.1586C62.246 55.3555 62.0011 55.5444 61.7722 55.7221C61.6569 55.8102 61.5464 55.895 61.4392 55.9783C61.3335 56.0615 61.2294 56.14 61.1238 56.204C60.7075 56.4713 60.3665 56.6875 60.1232 56.8363C60.0271 56.9676 59.9055 57.0685 59.7854 57.1789C59.6621 57.2862 59.5324 57.3902 59.398 57.4911C59.2635 57.5919 59.1242 57.6912 58.9817 57.7872C58.8376 57.8785 58.684 57.9585 58.5335 58.0418C58.383 58.125 58.2325 58.2083 58.082 58.2899C57.9315 58.3699 57.789 58.4644 57.6369 58.5332C57.3392 58.6821 57.0574 58.8406 56.8045 59.0199L56.8813 58.8934C56.8109 58.935 56.7196 58.9863 56.6075 59.0439C56.4923 59.0951 56.3562 59.1496 56.2041 59.212C56.052 59.2728 55.8823 59.3401 55.6982 59.4137C55.6054 59.4489 55.5125 59.4905 55.4116 59.5242L55.0995 59.6234C54.8849 59.6906 54.6592 59.7627 54.4255 59.8379C54.1901 59.91 53.9388 59.9644 53.6858 60.0316L53.3016 60.1293C53.1719 60.1629 53.0375 60.1837 52.9046 60.2109C52.6372 60.2621 52.3699 60.323 52.0977 60.3678C51.8255 60.4094 51.5518 60.451 51.2828 60.4927C51.0123 60.5279 50.7417 60.5535 50.4792 60.5839C50.3479 60.6015 50.2166 60.6111 50.0885 60.6191L49.8964 60.6335L49.802 60.6399H49.7667C49.7171 60.6447 49.6931 60.6447 49.6595 60.6447H49.5666C49.445 60.6463 49.3361 60.6479 49.2448 60.6495C49.1984 60.6511 49.1568 60.6527 49.1184 60.6575L49.0639 60.664C49.0495 60.6608 49.0415 60.6495 49.0303 60.6447C49.0351 60.672 49.0335 60.7152 49.0479 60.7248L49.0271 60.7344L49.0127 60.7296C49.0031 60.7264 48.9935 60.7232 48.9855 60.72C48.9679 60.7136 48.9535 60.704 48.9391 60.696C48.9118 60.6768 48.891 60.6559 48.8766 60.6303C48.8478 60.5823 48.8414 60.5247 48.8462 60.4638C48.8542 60.3422 48.9038 60.2029 48.8766 60.0748C48.8078 60.1453 48.7373 60.1965 48.6637 60.2253C48.6445 60.2333 48.6269 60.2381 48.6077 60.2429L48.5788 60.2493H48.5644L48.558 60.2525L48.5436 60.2445C48.4684 60.2013 48.3883 60.1485 48.3083 60.0909C47.9849 59.8571 47.6439 59.529 47.471 59.3353L47.5494 59.2984C47.0115 58.7269 45.6459 57.5503 44.8022 56.5722L45.0008 56.4793C44.1523 55.7782 42.9676 54.1341 42.4681 53.5434C41.4371 52.1026 40.0299 49.735 38.3377 48.0573L38.192 47.5754C38.4385 47.5578 38.6643 47.3721 38.7603 46.8326L38.7955 46.8567L38.7907 46.5653C38.8083 46.2163 38.7667 46.0546 38.8019 46.0786L38.7971 46.5557C38.8067 46.2051 38.826 46.45 38.8468 46.5829C38.85 46.4372 38.8548 46.2948 38.866 46.1779C38.8516 46.1091 38.8516 46.2291 38.8436 46.2836C38.8308 46.0947 38.7971 45.8321 38.8147 45.6032C38.8179 45.2446 38.8724 45.5808 38.8756 45.1614C38.89 44.0568 38.9044 42.9698 38.9188 41.8812C38.9236 41.3369 38.9284 40.791 38.9332 40.242C38.9332 39.6 38.9332 38.9565 38.9348 38.3049C38.9492 38.2009 38.9492 38.3193 38.9556 38.4442C38.954 38.2153 38.9508 37.9912 38.9492 37.7895C38.5522 37.5637 38.1728 37.3476 37.7998 37.1347C37.5772 37.0098 37.3579 36.8882 37.137 36.7649C36.9977 36.6657 36.9689 36.624 36.932 36.5856C36.9689 36.624 36.2324 36.2078 35.4816 35.7788C35.107 35.5627 34.7276 35.345 34.4394 35.1801C34.1512 35.0136 33.9543 34.8983 33.9431 34.8903L33.8743 34.9239C33.3011 34.5942 33.7446 34.7639 33.2067 34.4725C32.9537 34.4309 32.331 33.9554 32.1244 33.8914C32.1324 33.8882 31.8747 33.7361 31.9051 33.7201C31.801 33.7169 31.633 33.576 31.4633 33.4928C31.3976 33.4704 31.5001 33.5312 31.5369 33.5696L31.1527 33.3679C31.0134 33.2703 30.9926 33.2238 31.1543 33.3103C30.9141 33.1694 30.5395 32.9501 30.0448 32.6587C29.1227 33.1822 27.6418 34.0227 26.2634 34.8055C25.0531 35.4954 23.9341 36.1374 23.489 36.4079C23.6427 36.3615 23.9565 36.1518 24.1102 36.131C23.8476 36.3199 23.6939 36.3583 23.5883 36.4592C23.4378 36.4464 22.9639 36.7953 22.7093 36.8418L22.6533 36.9298L22.4996 36.9842L22.2066 37.1683L22.0978 37.2372C22.0385 37.2724 21.9857 37.3044 21.9393 37.3332C21.736 37.4549 21.6319 37.5189 21.5663 37.5589C21.4334 37.6374 21.4542 37.6214 21.1452 37.7927C21.1452 37.9688 21.1404 38.2873 21.1356 38.8364C21.1372 38.9341 21.1388 39.0269 21.1404 39.1118C21.1436 39.1918 21.1468 39.2654 21.15 39.3375C21.158 39.4784 21.166 39.6016 21.1724 39.7169C21.1868 39.9442 21.1981 40.1315 21.1852 40.3348C21.1852 40.274 21.2157 40.1139 21.2285 40.3028C21.1852 40.3348 21.2589 40.8039 21.2157 40.8967C21.2205 41.0808 21.2157 41.6795 21.2749 41.4762C21.2461 41.5771 21.2333 42.1117 21.2077 41.7932C21.2061 41.9725 21.1965 42.147 21.2109 42.2766L21.2269 42.0461C21.2349 42.6544 21.1901 42.9842 21.2429 43.3812L21.2669 43.1571C21.2701 43.5205 21.2749 43.8247 21.2173 43.9671L21.1997 43.5941C21.1997 44.196 21.2045 44.5594 21.2365 45.0621V44.8828C21.2541 45.0621 21.2701 45.4527 21.2861 45.9362C21.2941 46.1779 21.3005 46.442 21.3101 46.7142C21.3181 46.8903 21.3261 47.513 21.3341 47.9644C21.6495 48.1389 21.9601 48.3102 22.2531 48.4719C22.4292 48.5648 22.5957 48.6528 22.7462 48.7328C23.0471 48.8897 23.2825 49.0098 23.4025 49.0594L23.1896 48.8849L23.6475 49.1058C23.5963 49.0754 23.3625 49.1106 23.3257 49.0738C23.758 49.3204 25.0243 50.0439 26.3483 50.7995C27.0095 51.1789 27.685 51.5663 28.2774 51.9073C29.009 52.3331 29.6382 52.6981 30.0464 52.9351C30.3186 52.7814 30.4883 52.6853 30.6116 52.6149C30.6324 52.6037 30.65 52.5941 30.6692 52.5845C30.7829 52.7606 30.9093 52.9399 31.0326 53.116C30.991 52.9255 30.9301 52.7446 30.8501 52.5653C30.8965 52.5365 30.9317 52.514 30.9445 52.506L31.3352 52.9559C31.7146 53.601 32.1212 53.7163 31.9227 53.8091L31.3112 52.9975C31.7258 53.6186 31.3144 53.2824 31.0438 53.1336C31.2215 53.3897 31.3896 53.6426 31.4921 53.8764C31.6474 53.9404 31.4937 53.7371 31.4584 53.617C31.7658 53.8844 32.2701 54.1965 32.4959 54.64C32.9553 55.2499 32.2573 54.8929 32.792 55.6037C34.1832 57.4959 35.552 59.3593 36.9256 61.2275C37.6156 62.1575 38.3137 63.086 39.0245 64.0113C39.3831 64.4724 39.7417 64.9334 40.1019 65.3977C40.5742 65.9884 41.048 66.5823 41.5235 67.1794C41.5908 67.4051 41.4371 67.2082 41.2402 67.0225C41.6948 67.5572 42.1287 68.0807 42.5513 68.5929C42.9852 69.0764 43.411 69.5502 43.8305 70.0177C43.9345 70.1346 44.0402 70.2514 44.1443 70.3667L44.2995 70.5412L44.378 70.6276C44.3828 70.6372 44.3924 70.6372 44.4036 70.6372H44.4933C44.8103 70.642 45.1256 70.6468 45.441 70.65C46.067 70.6548 46.6897 70.6596 47.3189 70.642C47.9929 70.7445 48.169 70.8886 48.3707 70.9622C48.3195 70.9414 48.5052 70.9158 48.867 70.8838C49.0463 70.8709 49.2721 70.8533 49.533 70.8341C49.6643 70.8261 49.8036 70.8165 49.9509 70.8069C50.0997 70.7957 50.2566 70.7829 50.4103 70.7653C50.6425 70.7381 50.8954 70.7077 51.1628 70.6772C51.3949 70.6532 51.6398 70.6148 51.8928 70.5764C52.1473 70.538 52.4099 70.4995 52.6788 70.4595C52.9462 70.4147 53.2184 70.3619 53.4905 70.3123C53.7627 70.2594 54.038 70.2178 54.3054 70.1554C54.5728 70.0945 54.8369 70.0353 55.0947 69.9761C55.6086 69.8672 56.0856 69.7295 56.4971 69.6191C57.3248 69.4062 57.8787 69.2061 57.9187 69.2109L57.9027 68.8123C58.3029 68.6778 58.5399 68.6266 58.6952 68.6154C58.8505 68.6025 58.9209 68.6266 58.9881 68.6554C59.1226 68.7082 59.2395 68.7578 59.9567 68.4233C60.048 68.2392 60.2481 68.0967 60.4978 67.9622C60.7444 67.8229 61.0437 67.7013 61.3447 67.586C61.6457 67.4708 61.9499 67.3651 62.1996 67.2514C62.4445 67.1282 62.6367 67.0065 62.7231 66.8784C62.7327 66.9233 63.4179 66.5711 63.4579 66.7424C63.49 66.5567 63.6549 66.4478 63.8614 66.3454C64.0647 66.2381 64.3032 66.1292 64.4905 65.9692C64.5962 65.8059 64.3353 65.9628 64.1784 65.9564L65.0589 65.2808C65.4751 65.1303 65.664 65.2152 65.2814 65.4953C65.6032 65.3208 66.0435 65.0167 66.5942 64.6389C66.8679 64.4484 67.1721 64.2434 67.4907 64.0145C67.7981 63.7712 68.1263 63.5103 68.4705 63.2365C69.8601 62.1463 71.3762 60.6768 72.7386 59.0807C74.1042 57.4879 75.2969 55.7622 76.1774 54.2478C77.0675 52.7366 77.6438 51.4399 77.932 50.7387C77.5622 50.998 77.3124 51.9137 76.8274 52.069C76.925 51.672 77.0579 51.4159 77.1748 51.2078C77.29 51.0012 77.3797 50.8428 77.3605 50.6411C77.9672 50.577 78.1705 49.0978 78.8669 48.7232L78.6732 48.4047C78.7757 48.3022 78.883 48.2014 78.9822 48.0973C79.2015 47.2441 79.3152 46.7686 79.3696 46.4853C79.4289 46.2035 79.4481 46.1187 79.4753 46.0482C79.5265 45.9074 79.6274 45.8337 80.066 44.3481C80.1621 43.9095 80.2197 43.5237 80.2582 43.1779C80.2966 42.8321 80.303 42.5216 80.3174 42.2398C80.3478 41.6939 80.3574 41.2441 80.5015 40.7846C80.4439 40.9431 80.2421 41.1961 80.2453 40.775C80.3766 40.7574 80.391 40.4501 80.3878 40.1235C80.3878 39.7969 80.3878 39.4543 80.5335 39.3599C80.5703 38.9117 80.74 37.4677 80.3398 37.9239C80.5479 37.6998 80.7048 36.4079 80.8041 37.1907C80.8457 36.7537 80.9305 36.3327 80.8601 36.0125C80.8185 36.1982 80.7817 36.3855 80.7336 36.5696L80.7352 36.5744ZM30.9045 52.5092C30.9045 52.5092 30.8997 52.5172 30.8949 52.522L30.8709 52.5429L30.8437 52.5637C30.8373 52.5493 30.8293 52.5349 30.8229 52.5188C30.8533 52.5044 30.8773 52.4948 30.8885 52.4916C30.9141 52.4852 30.9157 52.4948 30.9061 52.5092H30.9045ZM31.047 52.4436C31.071 52.426 31.087 52.4116 31.0998 52.4004C31.1062 52.394 31.1142 52.3876 31.1223 52.3812C31.1239 52.3892 31.1255 52.3988 31.1271 52.4068L31.047 52.4436Z" fill="black"/>
<path d="M45.1533 15.9637C45.1533 15.9637 45.1465 15.962 45.1448 15.9603L45.1584 15.974C45.1584 15.974 45.155 15.9671 45.1533 15.962V15.9637Z" fill="black"/>
<path d="M33.3138 61.943C33.4323 61.9238 33.5507 61.8998 33.6596 61.8534C33.5555 61.8806 33.4355 61.911 33.3138 61.943Z" fill="black"/>
<path d="M0.0256583 33.6737C0.0224262 33.6882 0.0191942 33.7044 0.0175781 33.7157C0.0208102 33.7012 0.0224262 33.6866 0.0256583 33.6737Z" fill="black"/>
<path d="M4.93276 53.5969C4.92624 53.5855 4.91971 53.5725 4.91482 53.561C4.91156 53.5741 4.92134 53.5855 4.93276 53.5969Z" fill="black"/>
<path d="M33.1153 62.1623L33.1185 62.4633C32.792 62.5706 32.7439 62.5337 32.6991 62.4857C32.6767 62.4617 32.6543 62.4345 32.5966 62.4233C32.539 62.4121 32.4478 62.4121 32.2861 62.4345C32.2204 62.204 32.8 62.0647 33.3139 61.943C32.8384 62.0007 32.3565 61.9046 32.2044 62.1848C31.7578 62.1367 32.214 61.8822 31.6873 61.8422C31.5096 61.8918 31.3063 61.9831 31.0902 62.0519C30.874 62.1223 30.6515 62.1399 30.4402 62.0775L30.4466 62.0343C29.9423 61.9142 29.5661 61.9959 29.1899 62.0583C29.0954 62.0759 29.0009 62.0935 28.9065 62.1063C28.812 62.1143 28.7176 62.1191 28.6199 62.1175C28.4246 62.1143 28.2213 62.0887 28.0084 61.9831L28.1172 61.919C27.8275 61.7285 27.1711 61.8134 26.6556 61.5076C26.7997 61.5972 26.8973 61.8054 26.5515 61.7445C26.4763 61.7045 26.401 61.6725 26.3306 61.6405C26.2601 61.6053 26.1913 61.5764 26.1241 61.5492C25.9896 61.4964 25.8615 61.4548 25.7382 61.4147C25.4965 61.3171 25.274 61.2339 25.0819 61.053L24.5503 61.0882C24.0108 60.8336 23.0647 60.395 21.9616 59.673C21.4109 59.3128 20.8234 58.879 20.223 58.3956C19.6275 57.9025 19.0239 57.3486 18.438 56.7595C17.8536 56.1672 17.2933 55.53 16.7666 54.8961C16.512 54.5695 16.2511 54.259 16.0158 53.9356C15.8957 53.7755 15.7788 53.6186 15.6636 53.4649C15.5515 53.3065 15.4426 53.1512 15.3354 52.9975C14.9063 52.3876 14.5333 51.8065 14.2227 51.3022C14.1843 51.2398 14.1459 51.1789 14.1074 51.1181L14.0098 50.9484C13.9457 50.838 13.8849 50.7339 13.8273 50.6347C13.712 50.4361 13.6096 50.2633 13.5327 50.1096L13.6144 50.188C13.1021 49.2835 12.5289 48.0829 12.0118 46.6934C11.4979 45.3038 11.0465 43.7254 10.7183 42.1069C10.3821 40.4901 10.1932 38.8316 10.0939 37.3044C9.99624 35.7756 10.0042 34.3749 10.0283 33.2511C10.1035 33.0846 10.1627 32.8989 10.2092 32.7052C10.2604 32.5115 10.3068 32.3098 10.3452 32.1065C10.4157 31.6982 10.4909 31.2884 10.5806 30.941C10.4189 31.3172 10.2764 31.1572 10.3372 30.8498C10.5486 29.7724 10.5278 29.7308 10.4765 29.678C10.4285 29.6267 10.3629 29.5691 10.5742 28.4709C10.6878 27.8386 10.9472 26.7692 11.4003 25.5382C11.8501 24.3071 12.4985 22.924 13.2734 21.6433C13.371 21.4832 13.4687 21.3248 13.5647 21.1647C13.6608 21.0062 13.7696 20.8557 13.8705 20.702C13.973 20.5499 14.0754 20.3979 14.1763 20.249C14.2867 20.1065 14.3956 19.964 14.5029 19.8232C14.7174 19.543 14.9271 19.2677 15.1304 19.0019C15.353 18.7538 15.5659 18.5137 15.7708 18.2832C16.1646 17.8109 16.5873 17.4491 16.9219 17.1209C17.0067 17.0409 17.0868 16.9641 17.1636 16.8904C17.2421 16.82 17.3237 16.7591 17.3958 16.6999C17.543 16.5831 17.6711 16.4822 17.7784 16.3974C18.0714 15.8595 18.5837 15.4416 19.0815 15.0174C19.6099 14.63 20.1286 14.2394 20.564 13.8504L20.5112 13.9817C20.889 13.6599 22.1169 12.9219 23.6074 12.2928C23.9756 12.1263 24.3694 11.9902 24.7569 11.8413C24.8529 11.8029 24.9522 11.7725 25.0514 11.7405L25.1987 11.6925L25.2355 11.6797L25.2532 11.6733H25.258L25.2788 11.6685C25.33 11.6508 25.3844 11.6396 25.4373 11.6268C25.5429 11.6012 25.6438 11.582 25.7382 11.5628L25.8759 11.5372L25.94 11.526C25.9592 11.526 25.9848 11.5068 25.9976 11.5292C26.1321 11.6428 26.2361 11.7165 26.3066 11.7453L26.289 11.6669C26.4747 11.6829 26.5227 11.7741 26.5211 11.883V11.9278C26.5259 11.9454 26.5131 11.9486 26.5387 11.9886C26.5755 12.0527 26.6139 12.1183 26.6604 12.1903C26.7516 12.3344 26.8733 12.4993 27.0686 12.7058C27.2111 12.3136 28.2917 12.9667 28.6679 13.2645L28.5975 13.3157C29.1786 13.7448 30.6243 14.5948 31.5528 15.3792L31.3735 15.5041C32.2717 16.018 33.6164 17.3867 34.18 17.8701C34.292 17.9838 34.4089 18.1071 34.5306 18.2335C34.3753 18.3184 34.212 18.4016 34.0967 18.4224L34.0407 18.5105L33.887 18.5649C33.7701 18.6385 33.6741 18.6994 33.594 18.749C33.554 18.7746 33.5172 18.797 33.4852 18.8178C33.4259 18.8531 33.3731 18.8851 33.3267 18.9139C33.1234 19.0355 33.0193 19.0996 32.9537 19.1396C32.8208 19.218 32.8416 19.202 32.5326 19.3733C32.5326 19.5494 32.5278 19.868 32.523 20.4171C32.5246 20.5147 32.5262 20.6076 32.5278 20.6924C32.531 20.7725 32.5342 20.8461 32.5374 20.9181L32.5598 21.2975C32.5742 21.5249 32.5854 21.7122 32.5726 21.9155C32.5726 21.8546 32.603 21.6946 32.6159 21.8835C32.5726 21.9155 32.6463 22.3845 32.603 22.4774C32.6078 22.6615 32.603 23.2602 32.6623 23.0569C32.6335 23.1577 32.6207 23.6924 32.595 23.3738C32.5934 23.5531 32.5838 23.7276 32.5982 23.8573L32.6143 23.6268C32.6223 24.2351 32.5774 24.5649 32.6303 24.9619L32.6543 24.7378C32.6575 25.1012 32.6623 25.4053 32.6046 25.5478L32.587 25.1748C32.587 25.7767 32.5918 26.1401 32.6239 26.6428V26.4635C32.6415 26.6428 32.6575 27.0334 32.6735 27.5168C32.6815 27.7586 32.6879 28.0227 32.6975 28.2948C32.7055 28.4709 32.7135 29.0937 32.7215 29.5451C33.0369 29.7196 33.3475 29.8909 33.6405 30.0526C33.8166 30.1454 33.9831 30.2335 34.1335 30.3135C34.4345 30.4704 34.6699 30.5905 34.7899 30.6401L34.577 30.4656L35.0349 30.6865C34.9836 30.6561 34.7499 30.6913 34.7131 30.6545C35.1453 30.901 36.4117 31.6246 37.7356 32.3802C38.3968 32.7596 39.0724 33.147 39.6648 33.488C40.3964 33.9138 41.0256 34.2788 41.4338 34.5157C41.706 34.3621 41.8757 34.266 41.9989 34.1956C42.1494 34.1155 42.2423 34.0707 42.2759 34.0611C42.3015 34.0547 42.3031 34.0643 42.2935 34.0787C42.2903 34.0819 42.2887 34.0867 42.2839 34.0915L42.2599 34.1123L42.2039 34.1555C42.167 34.1828 42.135 34.2068 42.1334 34.21C42.2263 34.1539 42.3143 34.0995 42.3335 34.0867L42.4136 34.0323C42.4536 34.0035 42.4728 33.9859 42.4888 33.9714C42.5224 33.941 42.5481 33.9186 42.7306 33.8146C42.833 33.7649 42.7274 33.8578 42.6761 33.8946C42.833 33.7986 42.9883 33.7265 42.9899 33.7009C42.7834 33.8018 42.8394 33.7041 42.737 33.7217L43.206 33.456L43.2028 33.4992C43.3069 33.44 43.4174 33.2623 43.8864 33.0141C44.6677 32.5803 45.5002 32.0856 46.283 31.6438C46.283 31.6694 46.1245 31.7751 45.9677 31.8791C46.0717 31.8199 46.2286 31.7239 46.3327 31.6806C46.1261 31.7559 46.6465 31.4709 46.4912 31.5414C47.0179 31.1379 47.7943 30.781 48.2666 30.44C48.2682 30.4 48.3434 30.067 48.4251 29.6924L49.3857 29.1385C49.7026 29.2105 50.0324 29.0953 50.1525 28.4117L50.1877 28.4357L50.1829 28.1444C50.2005 27.7954 50.1589 27.6337 50.1941 27.6577L50.1893 28.1348C50.1989 27.7842 50.2181 28.0291 50.2389 28.162C50.2422 28.0163 50.247 27.8738 50.2582 27.757C50.2438 27.6881 50.2438 27.8082 50.2358 27.8626C50.2229 27.6737 50.1893 27.4112 50.2069 27.1823C50.2101 26.8237 50.2646 27.1598 50.2678 26.7404C50.2822 25.6358 50.2966 24.5505 50.311 23.4603C50.3158 22.916 50.3206 22.3701 50.3254 21.821C50.3254 21.1807 50.3254 20.5355 50.327 19.884C50.3414 19.7799 50.3414 19.8984 50.3478 20.0233C50.3462 19.7943 50.343 19.5702 50.3414 19.3685C49.9444 19.1428 49.565 18.9267 49.1919 18.7138C48.9694 18.5889 48.7501 18.4672 48.5292 18.344C48.3899 18.2447 48.3611 18.2031 48.3242 18.1647C48.3611 18.2031 47.6246 17.7869 46.8738 17.3579C46.5424 17.1674 46.2126 16.9769 45.9404 16.82C45.7611 16.5334 45.4506 16.2565 45.1592 15.9699C45.244 16.1876 45.3561 16.3829 45.5034 16.567C45.4041 16.5094 45.3417 16.4726 45.3369 16.4678L45.2921 16.4902L44.8998 16.194C44.4564 15.6882 44.0609 15.6738 44.2338 15.5409C44.4596 15.749 44.6885 15.9459 44.9158 16.1492C44.442 15.6722 44.8742 15.8867 45.1464 15.9571C44.9463 15.7618 44.7557 15.5697 44.6277 15.3776C44.474 15.3536 44.6437 15.5089 44.6949 15.6097C44.3715 15.4368 43.8592 15.2543 43.5871 14.8942C43.078 14.4235 43.7792 14.606 43.1868 14.0553C40.0858 11.1114 37.1609 7.92728 33.5876 4.88727C33.5636 4.7512 33.6581 4.83604 33.7877 4.89528C33.6469 4.78642 33.5076 4.68076 33.3699 4.57511C33.3027 4.52228 33.2338 4.46785 33.1666 4.41502L33.0673 4.33498L32.9008 4.19731C32.4269 3.8035 31.9339 3.4209 31.4648 3.0415C30.5218 2.28269 29.5917 1.55111 28.6519 0.851537C28.5655 0.760289 28.4902 0.677045 28.4374 0.60981C28.0404 0.603406 27.9075 0.532969 27.7618 0.489746C27.8499 0.51536 27.0782 0.720268 25.8887 1.01482C25.2932 1.17331 24.5888 1.32379 23.8331 1.57032C23.4553 1.68718 23.0631 1.79924 22.6644 1.92731C22.4659 1.99134 22.2658 2.06338 22.0641 2.13702C21.9168 2.19145 21.7695 2.24587 21.6222 2.3003C21.3741 2.38835 21.1307 2.4876 20.8906 2.58685C20.6505 2.68451 20.4135 2.78216 20.183 2.87661C19.7267 3.07351 19.3041 3.27202 18.9359 3.4353C18.2074 3.78269 17.716 4.03722 17.6791 4.04042L17.7672 4.42623C17.5895 4.51427 17.4502 4.58631 17.3381 4.63914C17.2245 4.69037 17.1364 4.72238 17.066 4.73999C16.9235 4.77521 16.8514 4.7576 16.7826 4.73999C16.6465 4.70637 16.5249 4.66956 15.9069 5.08578C15.8028 5.47478 15.2825 5.79175 14.7478 6.0831C14.2227 6.38566 13.696 6.68502 13.5743 6.94916C13.5567 6.90594 12.9628 7.32216 12.9003 7.16848C12.9083 7.54147 12.3624 7.69516 12.055 8.04574C11.9798 8.21383 12.2055 8.03614 12.3576 8.02493L11.9894 8.39633L11.8053 8.58202L11.6308 8.77733C11.269 8.98223 11.0769 8.92461 11.3826 8.59643C11.1217 8.81895 10.7391 9.15193 10.2684 9.56975C10.1483 9.6722 10.0299 9.78746 9.90979 9.90913C9.78812 10.0308 9.66164 10.1573 9.53037 10.2885C9.26941 10.5527 8.98925 10.8344 8.69628 11.1322C8.41292 11.4379 8.13275 11.7725 7.83498 12.1135C7.54361 12.4593 7.22022 12.8035 6.94326 13.1925C6.65669 13.5751 6.36532 13.9657 6.06915 14.3611L5.84822 14.6588C5.77617 14.7597 5.71054 14.8637 5.6401 14.9662C5.50241 15.1727 5.36633 15.3808 5.22865 15.5873C4.14482 17.2554 3.23549 19.0227 2.58871 20.5515C2.41741 20.931 2.28453 21.3023 2.14685 21.6465C2.08122 21.8194 2.01398 21.9859 1.95474 22.1476C1.89871 22.3109 1.84588 22.4662 1.79305 22.6166C1.69219 22.916 1.60094 23.1881 1.52569 23.4299C1.45685 23.6732 1.39922 23.8829 1.35439 24.0574C1.51769 23.9149 1.62175 23.6204 1.75302 23.3386C1.8875 23.0569 2.03479 22.7847 2.25572 22.6871C2.2237 23.0745 2.11644 23.329 2.02839 23.5355C1.94514 23.7436 1.8811 23.9037 1.93073 24.091C1.64256 24.1503 1.48247 24.5361 1.33038 24.9587C1.18149 25.3829 1.023 25.8391 0.693205 26.0521L0.930143 26.3338L0.669191 26.6556C0.54752 27.48 0.515501 27.9411 0.488285 28.2116C0.46267 28.4821 0.453065 28.5638 0.435454 28.6326C0.398633 28.7703 0.320187 28.8503 0.0608355 30.2895C0.0128075 30.7105 0 31.0787 0 31.4069C0.00480281 31.7367 0.0304178 32.0264 0.049629 32.2922C0.0816477 32.8076 0.118469 33.2303 0.025615 33.6737C0.0656383 33.52 0.236938 33.2623 0.280164 33.6577C0.148887 33.6865 0.176103 33.9762 0.20492 34.282C0.24014 34.5878 0.276962 34.9079 0.142483 35.0088C0.148887 35.4314 0.126474 36.7969 0.477079 36.3343C0.390628 36.4496 0.323389 36.8113 0.270558 37.0547C0.219328 37.298 0.166497 37.4229 0.0784458 37.0611C0.0800468 37.4725 0.0416243 37.8743 0.129676 38.1657L0.211323 37.6342C0.308981 39.0141 0.108864 39.7937 0.517102 40.6614L0.608355 40.1395C0.70121 40.9591 0.826083 41.6347 0.518703 42.0061L0.302577 41.1721C0.395431 41.8572 0.469074 42.4047 0.590745 42.9186C0.648379 43.1747 0.707613 43.4244 0.779655 43.6758C0.858101 43.9271 0.944552 44.1832 1.04541 44.4554L0.976571 44.052C1.27595 44.7387 1.8907 46.9303 2.77442 49.0098C2.88489 49.2691 2.99535 49.5285 3.10581 49.7846C3.21628 50.0391 3.33955 50.2873 3.45322 50.5306C3.67735 51.0189 3.91909 51.4719 4.14162 51.8785C4.35775 52.2867 4.58188 52.6389 4.76759 52.9255C4.95329 53.212 5.11339 53.4281 5.23986 53.5514C5.22705 53.3305 5.22385 53.1064 5.22065 52.8838C5.44318 53.196 5.68972 53.497 5.92506 53.7995C5.87383 53.6923 5.05896 53.7019 4.93248 53.5962C5.07657 53.87 5.27988 54.2782 5.55685 54.7776C5.70413 55.0354 5.86743 55.3203 6.04193 55.6277C6.21803 55.9303 6.41014 56.2328 6.61186 56.5642C7.42674 57.8705 8.48015 59.4121 9.66805 60.8737C10.8495 62.34 12.1543 63.728 13.3214 64.8069C13.6176 65.0743 13.8977 65.3256 14.1587 65.5609C14.4276 65.7899 14.6758 66.0012 14.8999 66.1917C15.3594 66.5647 15.7164 66.8624 15.9437 67.0529C16.6401 67.7285 15.8365 67.506 15.798 67.5316C16.8258 68.1287 16.3728 67.594 17.202 68.1607C17.407 68.3512 17.0404 68.3096 16.8883 68.2584C17.0836 68.3656 17.2549 68.4937 17.391 68.5849C17.5286 68.673 17.6311 68.721 17.6775 68.6762C17.4614 68.4937 17.4534 68.3576 17.487 68.2296C17.519 68.1031 17.5927 67.9846 17.5543 67.8309C17.7272 67.951 17.9081 68.0647 18.089 68.1751L18.6317 68.5097L18.478 68.6666C18.5981 68.7434 18.8334 68.7002 19.1616 68.7274C19.3265 68.7402 19.5154 68.769 19.7283 68.8379C19.9445 68.9019 20.1878 68.9996 20.4584 69.1596C21.3997 69.6431 22.4323 70.0657 23.5049 70.3795C24.5744 70.6965 25.6678 70.9526 26.7308 71.1287C26.6796 71.2487 26.2169 71.2551 25.7526 71.2439C26.0392 71.3064 26.4843 71.3416 26.7356 71.4777C26.4923 71.324 26.7244 71.324 26.9662 71.34C27.2095 71.348 27.464 71.372 27.2671 71.3016C27.677 71.2167 28.0996 71.2055 28.5335 71.1927C28.7496 71.1895 28.9673 71.1959 29.1867 71.2055C29.4044 71.2071 29.6237 71.2119 29.8414 71.2199C30.2769 71.2407 30.7043 71.2327 31.1094 71.2087C31.5144 71.1911 31.8906 71.1127 32.222 71.0022C32.2412 70.8806 32.3933 70.3155 32.571 69.5022C32.7487 68.6906 32.9473 67.65 33.0945 66.6143C33.2418 65.5641 33.3379 64.5204 33.3811 63.7072C33.4259 62.8971 33.4227 62.2984 33.3971 62.1639C33.6757 62.1143 33.9542 62.0663 34.0487 62.0935C33.9462 61.9782 33.3923 62.0391 33.1202 62.1639L33.1153 62.1623Z" fill="black"/>
<g clip-path="url(#clip0_61_1902)">
<path d="M109.24 7.32746C108.068 6.76667 106.732 6.48145 105.268 6.48145C102.474 6.48145 99.9034 7.49666 98.0307 9.33613C96.1846 11.1514 95.1674 13.6073 95.1674 16.2469C95.1674 18.8864 96.1846 21.3664 98.0307 23.1914C99.9034 25.043 102.474 26.063 105.268 26.063C106.766 26.063 108.102 25.7875 109.238 25.2412C109.322 25.2001 109.375 25.1155 109.375 25.0236V20.8903C109.375 20.8008 109.327 20.7211 109.25 20.6775C109.213 20.6582 109.175 20.6485 109.134 20.6485C109.088 20.6485 109.042 20.6606 109.003 20.6872C108.058 21.2939 106.858 21.6154 105.533 21.6154C102.469 21.6154 99.9758 19.1982 99.9758 16.2251C99.9758 13.252 102.469 10.9315 105.533 10.9315C106.858 10.9315 108.058 11.253 109.003 11.8597C109.042 11.8863 109.088 11.8983 109.134 11.8983C109.172 11.8983 109.213 11.8887 109.25 11.8693C109.327 11.8258 109.375 11.7461 109.375 11.6566V7.545C109.375 7.45315 109.322 7.36613 109.238 7.32746H109.24Z" fill="black"/>
<path d="M120.394 6.43311C117.62 6.43311 115.032 7.45074 113.113 9.3023C111.202 11.1442 110.149 13.6097 110.149 16.2469C110.149 18.884 111.202 21.3737 113.113 23.2253C115.034 25.0841 117.62 26.109 120.394 26.109C123.168 26.109 125.724 25.0841 127.645 23.2253C129.561 21.3713 130.615 18.8913 130.615 16.2469C130.615 13.6025 129.559 11.1466 127.645 9.3023C125.724 7.45074 123.151 6.43311 120.394 6.43311ZM120.394 21.6855C117.344 21.6855 114.957 19.307 114.957 16.271C114.957 13.2351 117.344 10.8565 120.394 10.8565C123.443 10.8565 125.806 13.2351 125.806 16.271C125.806 19.307 123.429 21.6855 120.394 21.6855Z" fill="black"/>
<path d="M151.492 7.01318H147.118C147.039 7.01318 146.961 7.05428 146.918 7.12196L141.918 14.6346L136.636 7.11712C136.59 7.05186 136.518 7.0156 136.438 7.0156H132.016C131.883 7.0156 131.775 7.12437 131.775 7.25732V25.2871C131.775 25.42 131.883 25.5288 132.016 25.5288H136.269C136.402 25.5288 136.511 25.42 136.511 25.2871V15.0479L141.462 21.9731C141.508 22.036 141.58 22.0746 141.657 22.0746H142.068C142.148 22.0746 142.22 22.036 142.266 21.9707L146.997 15.1446V25.2895C146.997 25.4224 147.104 25.5312 147.239 25.5312H151.492C151.625 25.5312 151.733 25.4224 151.733 25.2895V7.2549C151.733 7.12196 151.625 7.01318 151.492 7.01318Z" fill="black"/>
<path d="M164.468 8.36922C163.148 7.47003 161.326 7.01318 159.055 7.01318H153.763C153.63 7.01318 153.522 7.12196 153.522 7.2549V25.2871C153.522 25.42 153.63 25.5288 153.763 25.5288H158.064C158.197 25.5288 158.306 25.42 158.306 25.2871V20.4285H158.982C160.964 20.4285 162.904 19.8557 164.308 18.8574C166.024 17.6367 166.932 15.8311 166.932 13.6363C166.932 11.2553 166.103 9.48354 164.468 8.36922ZM159.055 16.1985H158.306V11.3158H159.055C161.135 11.3158 162.148 12.0748 162.148 13.6363C162.148 15.1978 160.99 16.1985 159.055 16.1985Z" fill="black"/>
<path d="M183.097 7.01318H178.796C178.663 7.01318 178.555 7.12196 178.555 7.2549V18.2772C178.555 19.9427 177.639 21.7338 175.631 21.7338C174.222 21.7338 172.707 20.6509 172.707 18.2772V7.2549C172.707 7.12196 172.598 7.01318 172.466 7.01318H168.164C168.032 7.01318 167.923 7.12196 167.923 7.2549V17.5037C167.923 22.9738 170.733 26.1089 175.631 26.1089C178.091 26.1089 180.014 25.3475 181.348 23.8488C182.67 22.3623 183.339 20.2279 183.339 17.5037V7.2549C183.339 7.12196 183.23 7.01318 183.097 7.01318Z" fill="black"/>
<path d="M195.614 7.01318H184.45C184.318 7.01318 184.209 7.12196 184.209 7.2549V11.1224C184.209 11.2553 184.318 11.3641 184.45 11.3641H187.64V25.2871C187.64 25.42 187.749 25.5288 187.882 25.5288H192.183C192.316 25.5288 192.424 25.42 192.424 25.2871V11.3641H195.614C195.747 11.3641 195.856 11.2553 195.856 11.1224V7.2549C195.856 7.12196 195.747 7.01318 195.614 7.01318Z" fill="black"/>
<path d="M207.599 21.2504H201.51V18.0597H206.777C206.91 18.0597 207.019 17.9509 207.019 17.818V14.3614C207.019 14.2285 206.91 14.1197 206.777 14.1197H201.51V11.2916H207.406C207.539 11.2916 207.647 11.1828 207.647 11.0499V7.2549C207.647 7.12196 207.539 7.01318 207.406 7.01318H196.967C196.834 7.01318 196.725 7.12196 196.725 7.2549V25.2871C196.725 25.42 196.834 25.5288 196.967 25.5288H207.599C207.732 25.5288 207.841 25.42 207.841 25.2871V21.4921C207.841 21.3591 207.732 21.2504 207.599 21.2504Z" fill="black"/>
<path d="M104.267 30.849C99.2944 30.849 95.3993 34.5835 95.3993 39.3502C95.3993 44.1169 99.2944 47.8901 104.265 47.8901C109.235 47.8901 113.111 44.0589 113.111 39.3502C113.111 34.6416 109.143 30.8514 104.265 30.8514L104.267 30.849ZM104.267 43.8148C101.764 43.8148 99.8018 41.8617 99.8018 39.3696C99.8018 36.8774 101.764 34.9244 104.267 34.9244C106.771 34.9244 108.711 36.8774 108.711 39.3696C108.711 41.8617 106.758 43.8148 104.267 43.8148Z" fill="black"/>
<path d="M127.928 31.3422H124.168C124.016 31.3422 123.878 31.4389 123.827 31.5839L120.287 41.5161L116.747 31.5839C116.697 31.4389 116.559 31.3422 116.407 31.3422H112.463C112.345 31.3422 112.234 31.4002 112.166 31.4993C112.098 31.5984 112.084 31.7217 112.125 31.8329L117.876 47.1626C117.929 47.3028 118.064 47.3971 118.214 47.3971H122.158C122.307 47.3971 122.443 47.3028 122.496 47.1626L128.269 31.8329C128.31 31.7217 128.295 31.596 128.227 31.4993C128.16 31.4002 128.049 31.3422 127.93 31.3422H127.928Z" fill="black"/>
<path d="M137.97 43.445H132.951V41.0471H137.272C137.472 41.0471 137.634 40.8852 137.634 40.6845V37.7452C137.634 37.5446 137.472 37.3827 137.272 37.3827H132.951V35.2918H137.806C138.006 35.2918 138.168 35.1299 138.168 34.9292V31.7023C138.168 31.5017 138.006 31.3397 137.806 31.3397H128.933C128.732 31.3397 128.571 31.5017 128.571 31.7023V47.0321C128.571 47.2327 128.732 47.3946 128.933 47.3946H137.97C138.171 47.3946 138.333 47.2327 138.333 47.0321V43.8051C138.333 43.6045 138.171 43.4425 137.97 43.4425V43.445Z" fill="black"/>
<path d="M147.85 41.5958C149.902 40.6145 151.066 38.9249 151.066 36.9041C151.066 33.317 148.561 31.3422 144.008 31.3422H139.736C139.536 31.3422 139.374 31.5041 139.374 31.7047V47.0345C139.374 47.2351 139.536 47.3971 139.736 47.3971H143.392C143.593 47.3971 143.755 47.2351 143.755 47.0345V43.1791L146.649 47.2448C146.717 47.3415 146.828 47.3971 146.944 47.3971H151.32C151.456 47.3971 151.581 47.3197 151.642 47.1989C151.704 47.078 151.692 46.933 151.613 46.8218L147.848 41.5958H147.85ZM146.727 36.9669C146.727 38.1562 145.833 38.8644 144.337 38.8644H143.755V35.316H144.296C146.727 35.316 146.727 36.5584 146.727 36.9669Z" fill="black"/>
<path d="M160.705 31.3422H156.083C155.882 31.3422 155.72 31.5041 155.72 31.7047V47.0345C155.72 47.2351 155.882 47.3971 156.083 47.3971H160.746C164.835 47.3971 169.201 45.282 169.201 39.3503C169.201 33.4185 164.624 31.3446 160.705 31.3446V31.3422ZM160.911 43.3628H160.104V35.3764H160.908C163.796 35.403 164.823 37.5326 164.823 39.3503C164.823 41.168 163.798 43.3652 160.913 43.3652L160.911 43.3628Z" fill="black"/>
<path d="M178.625 31.5742C178.572 31.434 178.436 31.3422 178.286 31.3422H174.672C174.522 31.3422 174.389 31.434 174.333 31.5742L168.396 46.904C168.353 47.0152 168.367 47.1409 168.435 47.24C168.503 47.3391 168.614 47.3971 168.735 47.3971H172.536C172.688 47.3971 172.826 47.3004 172.876 47.1578L173.611 45.1177H179.222L179.956 47.1578C180.007 47.3004 180.145 47.3971 180.297 47.3971H184.221C184.342 47.3971 184.453 47.3391 184.521 47.24C184.588 47.1409 184.603 47.0152 184.559 46.904L178.622 31.5742H178.625ZM177.936 41.5137H174.921L176.436 37.3344L177.936 41.5137Z" fill="black"/>
<path d="M193.294 34.9944V31.7071C193.294 31.5064 193.132 31.3445 192.932 31.3445H183.443C183.242 31.3445 183.08 31.5064 183.08 31.7071V34.9944C183.08 35.1951 183.242 35.357 183.443 35.357H185.997V47.0344C185.997 47.235 186.159 47.397 186.359 47.397H190.015C190.216 47.397 190.378 47.235 190.378 47.0344V35.357H192.932C193.132 35.357 193.294 35.1951 193.294 34.9944Z" fill="black"/>
<path d="M207.976 46.904L202.039 31.5742C201.986 31.434 201.85 31.3422 201.701 31.3422H198.086C197.936 31.3422 197.803 31.434 197.748 31.5742L191.811 46.904C191.767 47.0152 191.782 47.1409 191.849 47.24C191.917 47.3391 192.028 47.3971 192.149 47.3971H195.95C196.102 47.3971 196.24 47.3004 196.29 47.1578L197.025 45.1177H202.636L203.37 47.1578C203.421 47.3004 203.559 47.3971 203.711 47.3971H207.635C207.756 47.3971 207.867 47.3391 207.935 47.24C208.002 47.1409 208.017 47.0152 207.973 46.904H207.976ZM201.35 41.5161H198.337L199.852 37.3368L201.353 41.5161H201.35Z" fill="black"/>
</g>
<g clip-path="url(#clip1_61_1902)">
<path d="M107.929 55.0394H106.624C106.573 55.0394 106.527 55.0744 106.513 55.1234L104.453 62.3787L102.465 55.1257C102.451 55.0744 102.405 55.0394 102.353 55.0394H101.037C100.986 55.0394 100.94 55.0744 100.926 55.1257L98.9265 62.381L96.8666 55.1234C96.8526 55.0744 96.8061 55.0394 96.755 55.0394H95.3856C95.3484 55.0394 95.3135 55.0558 95.2926 55.0861C95.2694 55.1164 95.2647 55.1537 95.274 55.1887L98.0872 64.7574C98.1011 64.8064 98.1476 64.8414 98.1988 64.8414H99.5402C99.5914 64.8414 99.6379 64.8064 99.6518 64.7574L101.675 57.6607L103.66 64.7551C103.674 64.8064 103.72 64.8391 103.772 64.8391H105.113C105.164 64.8391 105.211 64.8041 105.225 64.7551L108.04 55.1887C108.049 55.1537 108.045 55.1164 108.022 55.0861C108.001 55.0558 107.966 55.0394 107.929 55.0394Z" fill="black"/>
<path d="M113.606 54.7316C110.609 54.7316 108.261 57.0147 108.261 59.9276C108.261 62.8404 110.609 65.1492 113.606 65.1492C116.603 65.1492 118.939 62.8078 118.939 59.9276C118.939 57.0474 116.547 54.7316 113.606 54.7316ZM113.606 63.722C111.549 63.722 109.81 61.9775 109.81 59.9136C109.81 57.8496 111.549 56.1565 113.606 56.1565C115.664 56.1565 117.389 57.8776 117.389 59.9136C117.389 61.9495 115.657 63.722 113.606 63.722Z" fill="black"/>
<path d="M123.524 60.8278C124.991 60.4383 125.896 59.3586 125.896 57.9756C125.896 56.1355 124.633 55.0371 122.52 55.0371H120.346C120.281 55.0371 120.23 55.0884 120.23 55.1537V64.7225C120.23 64.7878 120.281 64.8391 120.346 64.8391H121.65C121.715 64.8391 121.767 64.7878 121.767 64.7225V61.0703L125.054 64.7994C125.075 64.8251 125.107 64.8391 125.14 64.8391H126.751C126.798 64.8391 126.837 64.8134 126.858 64.7714C126.877 64.7295 126.87 64.6805 126.839 64.6455L123.526 60.8278H123.524ZM121.764 59.6034V56.4644H122.529C123.875 56.4644 124.356 57.2526 124.356 57.9896C124.356 58.9411 123.594 59.6034 122.504 59.6034H121.764Z" fill="black"/>
<path d="M131.11 59.3142L134.688 55.233C134.719 55.198 134.726 55.149 134.707 55.1071C134.688 55.0651 134.647 55.0394 134.6 55.0394H133.003C132.97 55.0394 132.938 55.0534 132.917 55.0791L129.501 58.9528V55.156C129.501 55.0907 129.45 55.0394 129.385 55.0394H128.081C128.016 55.0394 127.965 55.0907 127.965 55.156V64.7225C127.965 64.7878 128.016 64.8391 128.081 64.8391H129.385C129.45 64.8391 129.501 64.7878 129.501 64.7225V61.1356L130.099 60.4523L133.642 64.7971C133.663 64.8251 133.698 64.8391 133.733 64.8391H135.37C135.414 64.8391 135.456 64.8134 135.474 64.7714C135.493 64.7318 135.488 64.6828 135.46 64.6478L131.113 59.3119L131.11 59.3142Z" fill="black"/>
<path d="M137.941 55.0394H136.637C136.573 55.0394 136.521 55.0916 136.521 55.156V64.7225C136.521 64.7869 136.573 64.8391 136.637 64.8391H137.941C138.005 64.8391 138.057 64.7869 138.057 64.7225V55.156C138.057 55.0916 138.005 55.0394 137.941 55.0394Z" fill="black"/>
<path d="M147.631 55.0394H146.327C146.262 55.0394 146.211 55.0907 146.211 55.156V62.1128L141.231 55.0884C141.21 55.0581 141.173 55.0394 141.135 55.0394H139.78C139.715 55.0394 139.664 55.0907 139.664 55.156V64.7225C139.664 64.7878 139.715 64.8391 139.78 64.8391H141.084C141.149 64.8391 141.2 64.7878 141.2 64.7225V57.6491L146.269 64.7901C146.29 64.8204 146.327 64.8391 146.364 64.8391H147.629C147.694 64.8391 147.745 64.7878 147.745 64.7225V55.156C147.745 55.0907 147.694 55.0394 147.629 55.0394H147.631Z" fill="black"/>
<path d="M159.23 59.3096H155.241C155.194 59.3096 155.152 59.3375 155.134 59.3795L154.622 60.5596C154.606 60.5946 154.611 60.6365 154.632 60.6692C154.652 60.7018 154.69 60.7228 154.729 60.7228L157.754 60.7112C157.496 62.4369 156.073 63.722 154.397 63.722C152.339 63.722 150.6 61.9775 150.6 59.9136C150.6 57.8496 152.339 56.1565 154.397 56.1565C155.359 56.1565 156.238 56.5017 157.005 57.178C157.052 57.22 157.124 57.2176 157.166 57.171L158.035 56.2614C158.056 56.2381 158.068 56.2078 158.068 56.1775C158.068 56.1472 158.054 56.1169 158.031 56.0959C157.084 55.2283 155.759 54.7316 154.399 54.7316C151.402 54.7316 149.054 57.0147 149.054 59.9276C149.054 62.8404 151.402 65.1492 154.399 65.1492C157.129 65.1492 159.349 62.8194 159.349 59.9532V59.4285C159.349 59.3632 159.298 59.3119 159.233 59.3119L159.23 59.3096Z" fill="black"/>
<path d="M173.04 59.3096H169.051C169.004 59.3096 168.962 59.3375 168.944 59.3795L168.432 60.5596C168.416 60.5946 168.421 60.6365 168.442 60.6692C168.463 60.7018 168.504 60.7112 168.539 60.7228L171.564 60.7112C171.304 62.4369 169.883 63.722 168.207 63.722C166.149 63.722 164.41 61.9775 164.41 59.9136C164.41 57.8496 166.149 56.1565 168.207 56.1565C169.169 56.1565 170.048 56.5017 170.815 57.178C170.862 57.22 170.934 57.2176 170.976 57.171L171.845 56.2614C171.866 56.2381 171.878 56.2078 171.878 56.1775C171.878 56.1472 171.864 56.1169 171.841 56.0959C170.894 55.2283 169.569 54.7316 168.209 54.7316C165.212 54.7316 162.864 57.0147 162.864 59.9276C162.864 62.8404 165.212 65.1492 168.209 65.1492C170.939 65.1492 173.159 62.8194 173.159 59.9532V59.4285C173.159 59.3632 173.108 59.3119 173.043 59.3119L173.04 59.3096Z" fill="black"/>
<path d="M177.716 60.8278C179.183 60.4383 180.087 59.3586 180.087 57.9756C180.087 56.1355 178.825 55.0371 176.711 55.0371H174.538C174.472 55.0371 174.421 55.0884 174.421 55.1537V64.7225C174.421 64.7878 174.472 64.8391 174.538 64.8391H175.842C175.907 64.8391 175.958 64.7878 175.958 64.7225V61.0703L179.245 64.7994C179.269 64.8251 179.299 64.8391 179.334 64.8391H180.945C180.991 64.8391 181.031 64.8134 181.052 64.7714C181.071 64.7295 181.064 64.6805 181.033 64.6455L177.72 60.8278H177.716ZM175.956 59.6034V56.4644H176.721C178.067 56.4644 178.548 57.2526 178.548 57.9896C178.548 58.9411 177.785 59.6034 176.695 59.6034H175.956Z" fill="black"/>
<path d="M186.518 54.7316C183.521 54.7316 181.173 57.0147 181.173 59.9276C181.173 62.8404 183.521 65.1492 186.518 65.1492C189.515 65.1492 191.851 62.8078 191.851 59.9276C191.851 57.0474 189.459 54.7316 186.518 54.7316ZM186.518 63.722C184.46 63.722 182.721 61.9775 182.721 59.9136C182.721 57.8496 184.46 56.1565 186.518 56.1565C188.575 56.1565 190.3 57.8776 190.3 59.9136C190.3 61.9495 188.568 63.722 186.518 63.722Z" fill="black"/>
<path d="M200.353 55.0394H199.049C198.984 55.0394 198.933 55.0907 198.933 55.156V61.3245C198.933 62.9804 197.861 63.722 196.799 63.722C195.736 63.722 194.678 62.971 194.678 61.3245V55.156C194.678 55.0907 194.627 55.0394 194.562 55.0394H193.258C193.193 55.0394 193.142 55.0907 193.142 55.156V60.9397C193.142 63.6147 194.474 65.1469 196.799 65.1469C199.124 65.1469 200.47 63.6124 200.47 60.9397V55.156C200.47 55.0907 200.419 55.0394 200.353 55.0394Z" fill="black"/>
<path d="M204.457 55.0394H202.169C202.104 55.0394 202.053 55.0907 202.053 55.156V64.7225C202.053 64.7878 202.104 64.8391 202.169 64.8391H203.474C203.539 64.8391 203.59 64.7878 203.59 64.7225V61.0937H204.38C206.796 61.0937 207.886 59.5544 207.898 58.0269C207.886 56.0726 206.696 55.0394 204.457 55.0394ZM204.534 59.6687H203.59V56.4644H204.534C205.75 56.4644 206.347 56.9774 206.361 58.0269C206.361 59.0087 205.626 59.6664 204.534 59.6664V59.6687Z" fill="black"/>
</g>
<defs>
<clipPath id="clip0_61_1902">
<rect width="112.833" height="41.4571" fill="white" transform="translate(95.1674 6.43311)"/>
</clipPath>
<clipPath id="clip1_61_1902">
<rect width="112.628" height="10.4153" fill="white" transform="translate(95.2694 54.7316)"/>
</clipPath>
</defs>
</svg>
