<svg width="249" height="70" viewBox="0 0 249 70" fill="none" xmlns="http://www.w3.org/2000/svg">
<mask id="mask0_248_559" style="mask-type:alpha" maskUnits="userSpaceOnUse" x="0" y="0" width="70" height="70">
<path fill-rule="evenodd" clip-rule="evenodd" d="M0 0H70V70H0V0Z" fill="black"/>
</mask>
<g mask="url(#mask0_248_559)">
<path fill-rule="evenodd" clip-rule="evenodd" d="M35 69.9995C15.75 69.9995 0 54.2495 0 34.8245C0.175 15.5745 15.75 -0.175509 35.175 -0.000508749C54.425 0.174491 70 15.7495 70 35.3495C69.825 54.4245 54.25 69.9995 35 69.9995Z" fill="white"/>
<path fill-rule="evenodd" clip-rule="evenodd" d="M38.3249 30.8001L37.2749 36.4001L47.2499 37.8001L46.5499 40.4251L36.7499 39.0251C36.0499 41.3001 35.6999 43.7501 34.8249 45.8501C33.9499 48.3001 33.0749 50.7501 32.0249 53.0251C30.6249 56.0001 28.1749 58.1001 24.85 58.6251C22.925 58.9751 20.825 58.8001 19.25 57.5751C18.725 57.2251 18.2 56.5251 18.2 56.0001C18.2 55.3001 18.55 54.4251 19.075 54.0751C19.425 53.9001 20.3 54.0751 20.825 54.2501C21.35 54.7751 21.875 55.4751 22.225 56.1751C23.275 57.5751 24.675 57.7501 26.075 56.7001C27.65 55.3001 28.525 53.3751 29.05 51.4501C30.1 47.2501 31.1499 43.2251 32.0249 39.0251V38.3251L22.75 36.9251L23.1 34.3001L32.725 35.7001L33.9499 30.2751L23.975 28.7001L24.325 25.9001L34.6499 27.3001C34.9999 26.2501 35.1749 25.3751 35.5249 24.5001C36.3999 21.3501 37.275 18.2001 39.3749 15.4001C41.4749 12.6001 43.9249 10.8501 47.5999 11.0251C49.1749 11.0251 50.7499 11.5501 51.7999 12.7751C51.9749 12.9501 52.3249 13.3001 52.3249 13.6501C52.3249 14.3501 52.3249 15.2251 51.7999 15.7501C51.0999 16.2751 50.2249 16.1001 49.5249 15.4001C48.9999 14.8751 48.6499 14.3501 48.1249 13.8251C47.0749 12.4251 45.4999 12.2501 44.2749 13.4751C43.3999 14.3501 42.5249 15.5751 41.9999 16.8001C40.7749 20.4751 39.9 24.3251 38.6749 28.1751L48.2999 29.5751L47.5999 32.2001L38.3249 30.8001Z" fill="black"/>
</g>
<path d="M95.1477 49.2821H100.736V35.2021H116.444V30.5821H100.736V22.0461H117.412V17.3821H95.1477V49.2821Z" fill="white"/>
<path d="M119.967 17.3821V22.6621H125.203V17.3821H119.967ZM119.967 25.6101V49.2821H125.203V25.6101H119.967Z" fill="white"/>
<path d="M135.892 17.3821H130.656V49.2821H135.892V17.3821Z" fill="white"/>
<path d="M162.729 38.9421C163.213 31.0221 158.637 25.0821 151.377 25.0821C144.689 25.0821 139.761 30.1421 139.761 37.2701C139.761 44.0901 144.117 49.8541 151.729 49.8541C157.801 49.8541 161.409 45.9821 162.465 42.1981H157.317C156.393 44.4421 154.281 45.4981 151.509 45.4981C148.517 45.4981 145.437 43.3421 145.085 38.9421H162.729ZM151.377 29.1741C154.457 29.1741 157.273 31.4181 157.405 35.1141H145.085C145.569 30.6701 148.913 29.1741 151.377 29.1741Z" fill="white"/>
<path d="M176.846 25.0821C169.762 25.0821 165.23 30.4501 165.23 37.4901C165.23 44.5301 169.762 49.8541 176.626 49.8541C181.686 49.8541 186.57 46.7301 187.626 41.1861H182.522C181.818 44.3541 179.31 45.4981 176.714 45.4981C173.634 45.4981 170.642 43.0781 170.642 37.4461C170.642 31.8581 173.546 29.4381 176.846 29.4381C179.706 29.4381 181.862 31.1981 182.346 33.7061H187.45C186.526 28.4701 182.038 25.0821 176.846 25.0821Z" fill="white"/>
<path d="M195.168 37.4901C195.168 32.0341 198.072 29.3501 201.416 29.3501C204.76 29.3501 207.664 32.0341 207.664 37.4901C207.664 42.9901 204.76 45.5861 201.416 45.5861C198.072 45.5861 195.168 42.9901 195.168 37.4901ZM201.416 25.0821C195.652 25.0821 189.756 28.9541 189.756 37.4901C189.756 46.0701 195.652 49.8541 201.416 49.8541C207.18 49.8541 213.076 46.0701 213.076 37.4901C213.076 28.9541 207.18 25.0821 201.416 25.0821Z" fill="white"/>
<path d="M216.939 17.3821V22.6621H222.175V17.3821H216.939ZM216.939 25.6101V49.2821H222.175V25.6101H216.939Z" fill="white"/>
<path d="M232.864 25.6101H227.628V49.2821H232.864V36.6981C232.864 32.4301 234.316 29.3501 238.364 29.3501C242.412 29.3501 242.852 32.5181 242.852 35.6861V49.2821H248.088V34.4101C248.088 28.7781 245.756 25.0821 240.036 25.0821C236.692 25.0821 234.228 26.4461 232.864 28.9101V25.6101Z" fill="white"/>
</svg>
