<svg width="252" height="70" viewBox="0 0 252 70" fill="none" xmlns="http://www.w3.org/2000/svg">
<mask id="mask0_248_459" style="mask-type:alpha" maskUnits="userSpaceOnUse" x="0" y="0" width="70" height="70">
<path fill-rule="evenodd" clip-rule="evenodd" d="M0 0H70V70H0V0Z" fill="white"/>
</mask>
<g mask="url(#mask0_248_459)">
<path fill-rule="evenodd" clip-rule="evenodd" d="M35 69.9994C15.75 69.9994 0 54.2494 0 34.8244C0.175 15.5744 15.75 -0.17557 35.175 -0.000569785C54.425 0.17443 70 15.7494 70 35.3494C69.825 54.4244 54.25 69.9994 35 69.9994Z" fill="#0090FF"/>
<path fill-rule="evenodd" clip-rule="evenodd" d="M38.325 30.8001L37.275 36.4001L47.25 37.8001L46.55 40.4251L36.75 39.0251C36.05 41.3001 35.7 43.7501 34.825 45.8501C33.95 48.3001 33.075 50.7501 32.025 53.0251C30.625 56.0001 28.175 58.1001 24.85 58.6251C22.925 58.9751 20.825 58.8001 19.25 57.5751C18.725 57.2251 18.2 56.5251 18.2 56.0001C18.2 55.3001 18.55 54.4251 19.075 54.0751C19.425 53.9001 20.3 54.0751 20.825 54.2501C21.35 54.7751 21.875 55.4751 22.225 56.1751C23.275 57.5751 24.675 57.7501 26.075 56.7001C27.65 55.3001 28.525 53.3751 29.05 51.4501C30.1 47.2501 31.15 43.2251 32.025 39.0251V38.3251L22.75 36.9251L23.1 34.3001L32.725 35.7001L33.95 30.2751L23.975 28.7001L24.325 25.9001L34.65 27.3001C35 26.2501 35.1749 25.3751 35.525 24.5001C36.4 21.3501 37.275 18.2001 39.375 15.4001C41.475 12.6001 43.925 10.8501 47.6 11.0251C49.175 11.0251 50.75 11.5501 51.8 12.7751C51.975 12.9501 52.325 13.3001 52.325 13.6501C52.325 14.3501 52.325 15.2251 51.8 15.7501C51.1 16.2751 50.2249 16.1001 49.525 15.4001C49 14.8751 48.65 14.3501 48.125 13.8251C47.075 12.4251 45.5 12.2501 44.275 13.4751C43.4 14.3501 42.525 15.5751 42 16.8001C40.775 20.4751 39.9 24.3251 38.675 28.1751L48.3 29.5751L47.6 32.2001L38.325 30.8001Z" fill="white"/>
</g>
<path d="M98.1477 50.282H103.736V36.202H119.444V31.582H103.736V23.046H120.412V18.382H98.1477V50.282Z" fill="white"/>
<path d="M122.967 18.382V23.662H128.203V18.382H122.967ZM122.967 26.61V50.282H128.203V26.61H122.967Z" fill="white"/>
<path d="M138.892 18.382H133.656V50.282H138.892V18.382Z" fill="white"/>
<path d="M165.729 39.942C166.213 32.022 161.637 26.082 154.377 26.082C147.689 26.082 142.761 31.142 142.761 38.27C142.761 45.09 147.117 50.854 154.729 50.854C160.801 50.854 164.409 46.982 165.465 43.198H160.317C159.393 45.442 157.281 46.498 154.509 46.498C151.517 46.498 148.437 44.342 148.085 39.942H165.729ZM154.377 30.174C157.457 30.174 160.273 32.418 160.405 36.114H148.085C148.569 31.67 151.913 30.174 154.377 30.174Z" fill="white"/>
<path d="M179.846 26.082C172.762 26.082 168.23 31.45 168.23 38.49C168.23 45.53 172.762 50.854 179.626 50.854C184.686 50.854 189.57 47.73 190.626 42.186H185.522C184.818 45.354 182.31 46.498 179.714 46.498C176.634 46.498 173.642 44.078 173.642 38.446C173.642 32.858 176.546 30.438 179.846 30.438C182.706 30.438 184.862 32.198 185.346 34.706H190.45C189.526 29.47 185.038 26.082 179.846 26.082Z" fill="white"/>
<path d="M198.168 38.49C198.168 33.034 201.072 30.35 204.416 30.35C207.76 30.35 210.664 33.034 210.664 38.49C210.664 43.99 207.76 46.586 204.416 46.586C201.072 46.586 198.168 43.99 198.168 38.49ZM204.416 26.082C198.652 26.082 192.756 29.954 192.756 38.49C192.756 47.07 198.652 50.854 204.416 50.854C210.18 50.854 216.076 47.07 216.076 38.49C216.076 29.954 210.18 26.082 204.416 26.082Z" fill="white"/>
<path d="M219.939 18.382V23.662H225.175V18.382H219.939ZM219.939 26.61V50.282H225.175V26.61H219.939Z" fill="white"/>
<path d="M235.864 26.61H230.628V50.282H235.864V37.698C235.864 33.43 237.316 30.35 241.364 30.35C245.412 30.35 245.852 33.518 245.852 36.686V50.282H251.088V35.41C251.088 29.778 248.756 26.082 243.036 26.082C239.692 26.082 237.228 27.446 235.864 29.91V26.61Z" fill="white"/>
</svg>
