<svg width="70" height="70" viewBox="0 0 70 70" fill="none" xmlns="http://www.w3.org/2000/svg">
<mask id="mask0_248_509" style="mask-type:alpha" maskUnits="userSpaceOnUse" x="0" y="0" width="70" height="70">
<path fill-rule="evenodd" clip-rule="evenodd" d="M0 0H70V69.6111H0V0Z" fill="white"/>
</mask>
<g mask="url(#mask0_248_509)">
<path fill-rule="evenodd" clip-rule="evenodd" d="M35 69.6106C15.75 69.6106 0 53.9481 0 34.631C0.175 15.4879 15.75 -0.174606 35.175 -0.000577808C54.425 0.17345 70 15.6619 70 35.1531C69.825 54.1221 54.25 69.6106 35 69.6106Z" fill="black"/>
<path fill-rule="evenodd" clip-rule="evenodd" d="M38.325 30.629L37.275 36.1979L47.25 37.5901L46.55 40.2005L36.75 38.8083C36.05 41.0706 35.7 43.507 34.825 45.5954C33.95 48.0318 33.075 50.4681 32.025 52.7305C30.625 55.689 28.175 57.7773 24.85 58.2994C22.925 58.6474 20.825 58.4734 19.25 57.2552C18.725 56.9072 18.2 56.2111 18.2 55.689C18.2 54.9929 18.55 54.1227 19.075 53.7747C19.425 53.6006 20.3 53.7747 20.825 53.9487C21.35 54.4708 21.875 55.1669 22.225 55.863C23.275 57.2552 24.675 57.4293 26.075 56.3851C27.65 54.9929 28.525 53.0786 29.05 51.1642C30.1 46.9876 31.15 42.9849 32.025 38.8083V38.1122L22.75 36.72L23.1 34.1095L32.725 35.5018L33.95 30.1069L23.975 28.5406L24.325 25.7562L34.65 27.1484C35 26.1043 35.1749 25.2341 35.525 24.364C36.4 21.2315 37.275 18.099 39.375 15.3145C41.475 12.5301 43.925 10.7898 47.6 10.9639C49.175 10.9639 50.75 11.4859 51.8 12.7041C51.975 12.8782 52.325 13.2262 52.325 13.5743C52.325 14.2704 52.325 15.1405 51.8 15.6626C51.1 16.1847 50.2249 16.0107 49.525 15.3145C49 14.7925 48.65 14.2704 48.125 13.7483C47.075 12.3561 45.5 12.182 44.275 13.4002C43.4 14.2704 42.525 15.4886 42 16.7068C40.775 20.3613 39.9 24.19 38.675 28.0186L48.3 29.4108L47.6 32.0212L38.325 30.629Z" fill="white"/>
</g>
</svg>
