<svg width="70" height="70" viewBox="0 0 70 70" fill="none" xmlns="http://www.w3.org/2000/svg">
<mask id="mask0_248_552" style="mask-type:alpha" maskUnits="userSpaceOnUse" x="0" y="0" width="70" height="70">
<path fill-rule="evenodd" clip-rule="evenodd" d="M0 0H70V69.6123H0V0Z" fill="white"/>
</mask>
<g mask="url(#mask0_248_552)">
<path fill-rule="evenodd" clip-rule="evenodd" d="M35 69.6119C15.75 69.6119 0 53.9491 0 34.6316C0.175 15.4882 15.75 -0.174548 35.175 -0.000516747C54.425 0.173514 70 15.6623 70 35.1537C69.825 54.1231 54.25 69.6119 35 69.6119Z" fill="white"/>
<path fill-rule="evenodd" clip-rule="evenodd" d="M38.325 30.6296L37.275 36.1986L47.25 37.5908L46.55 40.2013L36.75 38.809C36.05 41.0714 35.7 43.5079 34.825 45.5962C33.95 48.0327 33.075 50.4691 32.025 52.7315C30.625 55.69 28.175 57.7784 24.85 58.3005C22.925 58.6485 20.825 58.4745 19.25 57.2563C18.725 56.9082 18.2 56.2121 18.2 55.69C18.2 54.9939 18.55 54.1237 19.075 53.7757C19.425 53.6016 20.3 53.7757 20.825 53.9497C21.35 54.4718 21.875 55.1679 22.225 55.864C23.275 57.2563 24.675 57.4303 26.075 56.3861C27.65 54.9939 28.525 53.0795 29.05 51.1652C30.1 46.9885 31.15 42.9858 32.025 38.809V38.1129L22.75 36.7207L23.1 34.1102L32.725 35.5024L33.95 30.1075L23.975 28.5412L24.325 25.7567L34.65 27.149C35 26.1048 35.1749 25.2346 35.525 24.3645C36.4 21.2319 37.275 18.0994 39.375 15.3149C41.475 12.5304 43.925 10.7901 47.6 10.9641C49.175 10.9641 50.75 11.4862 51.8 12.7044C51.975 12.8784 52.325 13.2265 52.325 13.5746C52.325 14.2707 52.325 15.1408 51.8 15.6629C51.1 16.185 50.2249 16.011 49.525 15.3149C49 14.7928 48.65 14.2707 48.125 13.7486C47.075 12.3563 45.5 12.1823 44.275 13.4005C43.4 14.2707 42.525 15.4889 42 16.7071C40.775 20.3618 39.9 24.1904 38.675 28.0191L48.3 29.4114L47.6 32.0218L38.325 30.6296Z" fill="black"/>
</g>
</svg>
