<?xml version="1.0" encoding="UTF-8"?><svg id="artwork" xmlns="http://www.w3.org/2000/svg" viewBox="0 0 1000 700"><defs><style>.cls-1{fill:#fff;}.cls-2{fill:#999;}.cls-3{fill:#c3cb3e;}.cls-4{fill:#2ea8e2;}</style></defs><g><path class="cls-1" d="M106.07,605.21c-25.58,0-40.33-17.61-40.33-45.09s15.7-44.25,40.8-44.25c20.22,0,34.02,11.54,36.88,29.5h-16.18c-3.21-12.02-11.3-15.94-20.82-15.94-13.09,0-23.08,10.71-23.08,30.69s9.99,31.53,22.48,31.53c10.23,0,18.68-4.64,21.41-16.3h16.18c-2.26,17.37-16.65,29.86-37.35,29.86Z"/><path class="cls-1" d="M183.73,555.13c-8.09,0-13.44,2.97-13.44,14.99v33.55h-16.42v-64h16.18v11.18c3.69-7.85,9.52-11.06,16.89-11.06,1.07,0,2.5,.12,3.57,.24v15.47c-2.38-.24-4.4-.36-6.78-.36Z"/><path class="cls-1" d="M199.67,611.87h6.19c5.47,0,7.97,.12,10.71-6.66l.71-1.78-24.51-63.76h17.96l14.51,46.15,14.87-46.15h16.65l-23.44,62.1c-7.49,19.87-10.82,22.72-26.77,22.72h-6.9v-12.61Z"/><path class="cls-1" d="M264.13,539.66h16.42v8.21c3.45-5.95,10.35-9.64,18.44-9.64,15.47,0,27.84,13.32,27.84,33.43s-12.73,33.55-27.96,33.55c-6.66,0-14.28-2.62-18.32-9.64v28.91h-16.42v-84.82Zm30.81,11.18c-9.04,0-14.99,7.97-14.99,20.82s5.95,20.94,14.99,20.94c8.45,0,14.63-8.33,14.63-20.82s-6.19-20.94-14.63-20.94Z"/><path class="cls-1" d="M356.08,522.3v17.37h13.32v11.3h-13.32v33.07c0,6.54,2.26,7.85,8.09,7.85h5v11.78h-12.02c-14.63,0-17.49-4.52-17.49-17.25v-35.45h-9.04v-11.3h9.04v-17.37h16.42Z"/><path class="cls-1" d="M407.7,538.23c16.18,0,32.12,11.07,32.12,33.55s-15.94,33.43-32.12,33.43-32.12-10.94-32.12-33.43,15.94-33.55,32.12-33.55Zm0,54.13c9.04,0,15.46-7.26,15.46-20.58s-6.42-20.7-15.46-20.7-15.46,7.26-15.46,20.7,6.42,20.58,15.46,20.58Z"/><path class="cls-1" d="M513.45,517.42v13.8h-45.8v21.41h43.3v13.8h-43.3v23.43h45.8v13.8h-62.81v-86.25h62.81Z"/><path class="cls-1" d="M566.73,561.55c-1.19-6.07-7.14-10.59-13.32-10.59-8.57,0-15.35,7.26-15.35,20.58s6.42,20.94,15.46,20.94c5.59,0,11.66-2.86,13.8-10.59h15.7c-3.81,17.49-17.13,23.32-30.33,23.32-19.15,0-31.41-14.15-31.41-33.43s12.97-33.55,32.12-33.55c13.32,0,26.89,7.38,29.03,23.32h-15.7Z"/><path class="cls-1" d="M621.2,538.23c16.18,0,32.12,11.07,32.12,33.55s-15.94,33.43-32.12,33.43-32.12-10.94-32.12-33.43,15.94-33.55,32.12-33.55Zm0,54.13c9.04,0,15.46-7.26,15.46-20.58s-6.42-20.7-15.46-20.7-15.46,7.26-15.46,20.7,6.42,20.58,15.46,20.58Z"/><path class="cls-1" d="M698.75,538.23c15.35,0,22.13,9.4,22.13,25.1v40.33h-16.42v-36.76c0-8.33-1.78-15.47-11.06-15.47-10.82,0-13.2,8.8-13.2,18.92v33.31h-16.42v-64h16.42v8.44c3.69-6.42,10.71-9.87,18.56-9.87Z"/><path class="cls-1" d="M794.03,589.86v13.8h-59v-86.25h17.01v72.45h41.99Z"/><path class="cls-1" d="M799.37,586.42c0-15.11,17.01-19.63,42.11-22.49v-1.07c0-9.87-5.35-13.32-12.01-13.32-6.3,0-11.54,3.33-11.9,10.35h-15.35c1.19-12.61,11.66-21.89,28.08-21.89,15.23,0,27.6,6.54,27.6,28.19,0,2.02-.24,10.47-.24,16.3,0,10.11,.71,15.82,1.9,21.17h-15.11c-.48-2.02-.83-4.88-1.07-7.97-4.52,6.66-11.3,9.52-20.94,9.52-12.25,0-23.08-7.14-23.08-18.79Zm16.89-.83c0,4.64,3.69,8.45,11.07,8.45,10.23,0,14.63-5.59,14.63-14.87v-4.76c-18.32,1.9-25.7,4.05-25.7,11.18Z"/><path class="cls-1" d="M871.57,517.42h16.42v30.45c3.45-5.95,10.35-9.64,18.44-9.64,15.47,0,27.84,13.32,27.84,33.43s-12.61,33.55-27.84,33.55c-6.66,0-14.39-2.62-18.44-9.64v8.09h-16.42v-86.25Zm30.81,33.43c-9.04,0-14.99,7.97-14.99,20.82s5.95,20.94,14.99,20.94c8.44,0,14.63-8.33,14.63-20.82s-6.19-20.94-14.63-20.94Z"/></g><g><path d="M472.95,172.88l-32.89,18.86v-37.83l32.89-18.86v37.83Z"/><path class="cls-1" d="M440.05,153.91l-32.89-18.97,32.89-18.86,32.89,18.86-32.89,18.97Z"/><path d="M440.05,191.74l-32.89,18.86v-37.72l32.89-18.86v37.72Z"/><path class="cls-1" d="M407.16,172.88l-32.89-18.97,32.89-18.86,32.89,18.86-32.89,18.97Z"/><path d="M466.37,318.05l-32.89,18.86v-37.72l32.89-18.86v37.72Z"/><path class="cls-1" d="M433.48,299.19l-32.89-18.86,32.89-18.86,32.89,18.86-32.89,18.86Z"/><path d="M433.48,337.02l-32.89,18.86v-37.83l32.89-18.86v37.83Z"/><path class="cls-1" d="M400.58,318.05l-32.89-18.86,32.89-18.86,32.89,18.86-32.89,18.86Z"/><path class="cls-2" d="M367.69,374.85l-32.89-18.86v-37.83l32.89,18.86v37.83Z"/><path d="M400.58,355.99l-32.89,18.86v-37.83l32.89-18.86v37.83Z"/><path class="cls-1" d="M367.69,337.02l-32.89-18.97,32.89-18.86,32.89,18.86-32.89,18.97Z"/><polygon class="cls-4" points="597.94 280.33 597.94 318.05 565.05 299.19 597.94 280.33"/><polygon class="cls-2" points="630.84 337.02 630.84 374.85 532.16 318.05 532.16 280.33 630.84 337.02"/><polygon class="cls-4" points="597.94 280.33 597.94 318.05 565.05 299.19 597.94 280.33"/><polygon class="cls-1" points="597.94 280.33 565.05 299.19 532.16 280.33 565.05 261.36 597.94 280.33"/><polygon class="cls-1" points="630.84 299.19 597.94 318.05 565.05 299.19 597.94 280.33 630.84 299.19"/><polygon points="663.73 318.05 663.73 355.99 630.84 374.85 630.84 337.02 663.73 318.05"/><polygon class="cls-1" points="663.73 318.05 630.84 337.02 597.94 318.05 630.84 299.19 663.73 318.05"/><path class="cls-4" d="M499.26,263.56l-32.89-18.86v37.83l32.89,18.86,32.89-18.86v-37.83l-32.89,18.86Z"/><path class="cls-2" d="M499.26,301.38l-32.89-18.86v-37.83l32.89,18.86v37.83Z"/><path d="M532.16,282.52l-32.89,18.86v-37.83l32.89-18.86v37.83Z"/><path class="cls-1" d="M499.26,263.56l-32.89-18.86,32.89-18.86,32.89,18.86-32.89,18.86Z"/><path class="cls-2" d="M374.27,304.67l-32.89-18.86v-37.83l32.89,18.86v37.83Z"/><path d="M407.16,285.81l-32.89,18.86v-37.83l32.89-18.86v37.83Z"/><path class="cls-2" d="M374.27,266.85l-32.89-18.97v-37.83l32.89,18.97v37.83Z"/><path d="M407.16,247.88l-32.89,18.86v-37.72l32.89-18.86v37.72Z"/><path class="cls-2" d="M374.27,229.57l-32.89-18.97v-37.72l32.89,18.86v37.83Z"/><path d="M407.16,210.6l-32.89,18.86v-37.72l32.89-18.86v37.72Z"/><path class="cls-1" d="M374.27,191.74l-32.89-18.86,32.89-18.86,32.89,18.86-32.89,18.86Z"/><polygon class="cls-2" points="624.26 229.02 623.82 229.24 624.26 229.57 624.26 304.67 591.36 285.81 591.36 210.6 591.8 210.38 591.36 210.16 591.36 210.6 525.58 172.88 525.58 134.94 591.36 172.88 623.82 191.52 624.26 191.74 624.26 229.02"/><polygon class="cls-1" points="591.36 134.94 558.47 153.91 525.58 134.94 558.47 116.08 591.36 134.94"/><polygon class="cls-4" points="591.36 210.16 591.8 210.38 591.36 210.6 591.36 210.16"/><polygon class="cls-4" points="624.26 153.91 624.26 191.74 623.82 191.52 591.36 172.88 624.26 153.91"/><polygon class="cls-4" points="591.36 210.16 591.8 210.38 591.36 210.6 591.36 210.16"/><polygon class="cls-4" points="624.26 153.91 624.26 191.74 623.82 191.52 591.36 172.88 624.26 153.91"/><polygon class="cls-1" points="624.26 153.91 591.36 172.88 558.47 153.91 591.36 134.94 624.26 153.91"/><polygon points="657.15 247.88 657.15 285.81 624.26 304.67 624.26 266.85 657.15 247.88"/><polygon class="cls-4" points="591.36 210.16 591.8 210.38 591.36 210.6 591.36 210.16"/><polygon class="cls-3" points="591.36 210.16 591.8 210.38 591.36 210.6 591.36 210.16"/><polygon class="cls-3" points="624.26 229.02 624.26 229.57 623.82 229.24 624.26 229.02"/><polygon points="657.15 210.16 657.15 247.88 624.26 266.85 624.26 229.02 657.15 210.16"/><polygon class="cls-4" points="591.36 210.16 591.8 210.38 591.36 210.6 591.36 210.16"/><polygon class="cls-3" points="591.36 210.16 591.8 210.38 591.36 210.6 591.36 210.16"/><polygon class="cls-3" points="624.26 229.02 624.26 229.57 623.82 229.24 624.26 229.02"/><polygon points="657.15 172.88 657.15 210.6 624.7 229.24 624.26 229.57 624.26 191.74 624.7 191.52 657.15 172.88"/><polygon class="cls-1" points="657.15 172.88 624.7 191.52 624.26 191.74 623.82 191.52 591.36 172.88 624.26 153.91 657.15 172.88"/><path class="cls-2" d="M499.26,225.73l-32.89-18.86v-37.94l32.89,18.86v37.94Z"/><path d="M532.16,206.87l-32.89,18.86v-37.83l32.89-18.86v37.83Z"/><path class="cls-2" d="M499.26,188.45l-32.89-18.86v-37.94l32.89,18.86v37.94Z"/><path d="M532.16,169.59l-32.89,18.86v-37.83l32.89-18.86v37.83Z"/><path class="cls-2" d="M499.26,151.17l-32.89-18.86v-37.94l32.89,18.86v37.94Z"/><path d="M532.16,132.31l-32.89,18.86v-37.83l32.89-18.86v37.83Z"/><path class="cls-1" d="M499.26,113.34l-32.89-18.86,32.89-18.97,32.89,18.86-32.89,18.97Z"/><path d="M597.94,384.6l-32.89,18.86v-37.83l32.89-18.86v37.83Z"/><path class="cls-1" d="M565.05,365.74l-32.89-18.86,32.89-18.86,32.89,18.86-32.89,18.86Z"/><polygon class="cls-2" points="499.26 403.57 499.26 441.4 400.58 384.6 400.58 346.78 499.26 403.57"/><polygon class="cls-1" points="466.37 346.78 433.48 365.74 400.58 346.78 433.48 327.92 466.37 346.78"/><path d="M565.05,403.57l-32.89,18.86v-37.83l32.89-18.86v37.83Z"/><path class="cls-1" d="M532.16,384.6l-32.89-18.86,32.89-18.86,32.89,18.86-32.89,18.86Z"/><polygon class="cls-1" points="499.26 365.74 466.37 384.6 433.48 365.74 466.37 346.78 499.26 365.74"/><polygon points="532.16 384.6 532.16 422.43 499.26 441.4 499.26 403.57 532.16 384.6"/><polygon class="cls-1" points="532.16 384.6 499.26 403.57 466.37 384.6 499.26 365.74 532.16 384.6"/></g></svg>