<?xml version="1.0" encoding="UTF-8"?><svg id="artwork" xmlns="http://www.w3.org/2000/svg" viewBox="0 0 1200 440"><defs><style>.cls-1{fill:#bcefff;}.cls-2{fill:#c3cb3e;}.cls-3{fill:#2ea8e2;}</style></defs><g><path d="M439.78,257.93c-21.75,0-34.29-14.97-34.29-38.34s13.35-37.63,34.7-37.63c17.2,0,28.93,9.81,31.36,25.09h-13.76c-2.73-10.22-9.61-13.56-17.7-13.56-11.13,0-19.63,9.1-19.63,26.1s8.5,26.81,19.12,26.81c8.7,0,15.88-3.95,18.21-13.86h13.76c-1.92,14.77-14.16,25.39-31.77,25.39Z"/><path d="M505.83,215.34c-6.88,0-11.43,2.53-11.43,12.75v28.53h-13.96v-54.43h13.76v9.51c3.14-6.68,8.09-9.41,14.37-9.41,.91,0,2.12,.1,3.03,.2v13.15c-2.02-.2-3.74-.3-5.77-.3Z"/><path d="M519.38,263.6h5.26c4.65,0,6.78,.1,9.1-5.67l.61-1.52-20.84-54.22h15.28l12.34,39.25,12.65-39.25h14.16l-19.93,52.81c-6.37,16.9-9.21,19.32-22.76,19.32h-5.87v-10.72Z"/><path d="M574.21,202.19h13.96v6.98c2.93-5.06,8.8-8.2,15.68-8.2,13.15,0,23.67,11.33,23.67,28.43s-10.82,28.53-23.77,28.53c-5.67,0-12.14-2.22-15.58-8.19v24.58h-13.96v-72.13Zm26.2,9.51c-7.69,0-12.75,6.78-12.75,17.7s5.06,17.8,12.75,17.8c7.18,0,12.44-7.08,12.44-17.7s-5.26-17.81-12.44-17.81Z"/><path d="M652.4,187.42v14.77h11.33v9.61h-11.33v28.12c0,5.56,1.92,6.68,6.88,6.68h4.25v10.02h-10.22c-12.44,0-14.87-3.85-14.87-14.67v-30.15h-7.69v-9.61h7.69v-14.77h13.96Z"/><path d="M696.3,200.98c13.76,0,27.31,9.41,27.31,28.53s-13.56,28.43-27.31,28.43-27.31-9.31-27.31-28.43,13.56-28.53,27.31-28.53Zm0,46.03c7.69,0,13.15-6.17,13.15-17.5s-5.46-17.6-13.15-17.6-13.15,6.17-13.15,17.6,5.46,17.5,13.15,17.5Z"/><path d="M786.23,183.27v11.74h-38.95v18.21h36.82v11.74h-36.82v19.93h38.95v11.74h-53.42v-73.34h53.42Z"/><path d="M831.54,220.81c-1.01-5.16-6.07-9.01-11.33-9.01-7.28,0-13.05,6.17-13.05,17.5s5.46,17.8,13.15,17.8c4.76,0,9.92-2.43,11.74-9h13.35c-3.24,14.87-14.57,19.83-25.8,19.83-16.29,0-26.71-12.04-26.71-28.43s11.03-28.53,27.31-28.53c11.33,0,22.86,6.27,24.68,19.83h-13.35Z"/><path d="M877.86,200.98c13.76,0,27.31,9.41,27.31,28.53s-13.56,28.43-27.31,28.43-27.31-9.31-27.31-28.43,13.56-28.53,27.31-28.53Zm0,46.03c7.69,0,13.15-6.17,13.15-17.5s-5.46-17.6-13.15-17.6-13.15,6.17-13.15,17.6,5.46,17.5,13.15,17.5Z"/><path d="M943.81,200.98c13.05,0,18.82,7.99,18.82,21.35v34.29h-13.96v-31.26c0-7.08-1.52-13.15-9.41-13.15-9.21,0-11.23,7.49-11.23,16.09v28.33h-13.96v-54.43h13.96v7.18c3.14-5.46,9.11-8.4,15.78-8.4Z"/><path d="M1024.84,244.88v11.74h-50.18v-73.34h14.47v61.61h35.71Z"/><path d="M1029.38,241.95c0-12.85,14.47-16.69,35.81-19.12v-.91c0-8.4-4.55-11.33-10.22-11.33-5.36,0-9.81,2.83-10.12,8.8h-13.05c1.01-10.72,9.92-18.61,23.88-18.61,12.95,0,23.47,5.56,23.47,23.98,0,1.72-.2,8.9-.2,13.86,0,8.6,.61,13.45,1.62,18.01h-12.85c-.4-1.72-.71-4.15-.91-6.78-3.85,5.67-9.61,8.09-17.81,8.09-10.42,0-19.63-6.07-19.63-15.98Zm14.36-.71c0,3.95,3.14,7.18,9.41,7.18,8.7,0,12.44-4.76,12.44-12.65v-4.05c-15.58,1.62-21.85,3.44-21.85,9.51Z"/><path d="M1090.78,183.27h13.96v25.9c2.93-5.06,8.8-8.2,15.68-8.2,13.15,0,23.67,11.33,23.67,28.43s-10.72,28.53-23.67,28.53c-5.67,0-12.24-2.22-15.68-8.19v6.88h-13.96v-73.34Zm26.2,28.43c-7.69,0-12.75,6.78-12.75,17.7s5.06,17.8,12.75,17.8c7.18,0,12.44-7.08,12.44-17.7s-5.26-17.81-12.44-17.81Z"/></g><g><g><path class="cls-3" d="M139.77,254.56l27.95-16.09v32.17l-27.95,16.09v-32.17Z"/><path class="cls-1" d="M111.81,238.48l27.95-16.09,27.95,16.09-27.95,16.09-27.95-16.09Z"/><path class="cls-3" d="M111.81,270.64l27.95-16.09v32.17l-27.95,16.09v-32.17Z"/><path class="cls-1" d="M83.86,254.56l27.95-16.09,27.95,16.09-27.95,16.09-27.95-16.09Z"/><path class="cls-3" d="M83.86,286.73l27.95-16.09v32.17l-27.95,16.08v-32.17Z"/><path class="cls-2" d="M55.91,270.65l27.95,16.09v32.17l-27.95-16.08v-32.17Z"/><path class="cls-1" d="M55.91,270.65l27.95-16.09,27.95,16.09-27.95,16.09-27.95-16.09Z"/><path class="cls-3" d="M117.4,210.04l-27.95,16.09v32.17l27.95-16.09v-32.17Z"/><path class="cls-3" d="M89.45,226.12l27.95-16.09v32.17l-27.95,16.09v-32.17Z"/><path class="cls-2" d="M61.5,210.04l27.95,16.09v32.17l-27.95-16.09v-32.17Z"/><path class="cls-3" d="M89.45,194.42l27.95-16.08v32.17l-27.95,16.09v-32.17Z"/><path class="cls-2" d="M61.5,178.33l27.95,16.08v32.17l-27.95-16.09v-32.17Z"/><path class="cls-3" d="M145.36,130.55l27.95-16.08v32.17l-27.95,16.08v-32.17Z"/><path class="cls-1" d="M117.4,114.46l27.95-16.08,27.95,16.08-27.95,16.08-27.95-16.08Z"/><path class="cls-3" d="M117.4,146.63l27.95-16.08v32.17l-27.95,16.08v-32.17Z"/><path class="cls-1" d="M89.45,130.54l27.95-16.08,27.95,16.08-27.95,16.08-27.95-16.08Z"/><path class="cls-2" d="M61.5,146.63l27.95,16.09v32.17l-27.95-16.09v-32.17Z"/><path class="cls-1" d="M61.5,146.63l27.95-16.08,27.95,16.08-27.95,16.08-27.95-16.08Z"/><path class="cls-3" d="M89.45,162.71l27.95-16.09v32.17l-27.95,16.09v-32.17Z"/></g><path class="cls-2" d="M251.65,286.73l-27.95-16.09v-32.17l27.95,16.09v32.17Z"/><path class="cls-1" d="M251.65,254.56l-27.95-16.09,27.95-16.09,27.95,16.09-27.95,16.09Z"/><path class="cls-2" d="M279.6,302.81l-27.95-16.09v-32.17l27.95,16.09v32.17Z"/><path class="cls-1" d="M279.6,270.65l-27.95-16.09,27.95-16.09,27.95,16.09-27.95,16.09Z"/><path class="cls-2" d="M195.75,256.43l-27.95-16.09v-32.17l27.95,16.09v32.17Z"/><path class="cls-3" d="M223.7,240.34l-27.95,16.09v-32.17l27.95-16.09v32.17Z"/><path class="cls-1" d="M195.75,224.26l-27.95-16.09,27.95-16.09,27.95,16.09-27.95,16.09Z"/><path class="cls-3" d="M279.8,327.71l-27.95,16.09v-32.17l27.95-16.08v32.17Z"/><path class="cls-1" d="M251.85,311.62l-27.95-16.08,27.95-16.09,27.95,16.09-27.95,16.08Z"/><path class="cls-3" d="M252.37,343.56l-27.95,16.09v-32.17l27.95-16.09v32.17Z"/><path class="cls-1" d="M224.41,327.47l-27.95-16.09,27.95-16.09,27.95,16.09-27.95,16.09Z"/><path class="cls-2" d="M141.7,343.69l-27.95-16.09v-32.17l27.95,16.09v32.17Z"/><path class="cls-1" d="M141.7,311.53l-27.95-16.09,27.95-16.09,27.95,16.09-27.95,16.09Z"/><path class="cls-2" d="M169.4,359.62l-27.95-16.09v-32.17l27.95,16.09v32.17Z"/><path class="cls-1" d="M169.02,327.24l-27.95-16.09,27.95-16.09,27.95,16.09-27.95,16.09Z"/><path class="cls-2" d="M196.98,375.49l-27.95-16.09v-32.17l27.95,16.08v32.17Z"/><path class="cls-3" d="M224.93,359.41l-27.95,16.09v-32.17l27.95-16.08v32.17Z"/><path class="cls-1" d="M196.98,343.32l-27.95-16.08,27.95-16.09,27.95,16.09-27.95,16.08Z"/><path class="cls-2" d="M307.56,318.9l-27.95-16.08v-32.17l27.95,16.09v32.17Z"/><path class="cls-3" d="M335.51,302.82l-27.95,16.08v-32.17l27.95-16.09v32.17Z"/><path class="cls-1" d="M307.56,286.73l-27.95-16.09,27.95-16.09,27.95,16.09-27.95,16.09Z"/><path class="cls-3" d="M274.01,242.21l27.95,16.09v-32.17l-27.95-16.09v32.17Z"/><path class="cls-2" d="M301.97,258.29l-27.95-16.09v-32.17l27.95,16.09v32.17Z"/><path class="cls-3" d="M329.92,242.21l-27.95,16.09v-32.17l27.95-16.09v32.17Z"/><path class="cls-2" d="M301.97,226.59l-27.95-16.09v-32.17l27.95,16.08v32.17Z"/><path class="cls-3" d="M329.92,210.5l-27.95,16.09v-32.17l27.95-16.08v32.17Z"/><path class="cls-2" d="M246.06,162.72l-27.95-16.08v-32.17l27.95,16.08v32.17Z"/><path class="cls-1" d="M246.06,130.55l-27.95-16.08,27.95-16.08,27.95,16.08-27.95,16.08Z"/><path class="cls-2" d="M274.01,178.8l-27.95-16.08v-32.17l27.95,16.08v32.17Z"/><path class="cls-1" d="M274.01,146.63l-27.95-16.08,27.95-16.08,27.95,16.08-27.95,16.08Z"/><path class="cls-3" d="M329.92,178.8l-27.95,16.09v-32.17l27.95-16.09v32.17Z"/><path class="cls-1" d="M301.97,162.71l-27.95-16.08,27.95-16.08,27.95,16.08-27.95,16.08Z"/><path class="cls-2" d="M195.75,192.09l-27.95-16.08v-32.17l27.95,16.08v32.17Z"/><path class="cls-3" d="M223.7,176l-27.95,16.08v-32.17l27.95-16.08v32.17Z"/><path class="cls-2" d="M195.75,160.38l-27.95-16.08v-32.17l27.95,16.09v32.17Z"/><path class="cls-3" d="M223.7,144.3l-27.95,16.08v-32.17l27.95-16.09v32.17Z"/><path class="cls-2" d="M195.75,128.68l-27.95-16.08v-32.17l27.95,16.08v32.17Z"/><path class="cls-3" d="M223.7,112.6l-27.95,16.08v-32.17l27.95-16.08v32.17Z"/><path class="cls-1" d="M195.75,96.51l-27.95-16.08,27.95-16.08,27.95,16.08-27.95,16.08Z"/><path class="cls-2" d="M301.97,194.88l-27.95-16.09v-32.17l27.95,16.09v32.17Z"/></g></svg>