<?xml version="1.0" encoding="UTF-8"?><svg id="artwork" xmlns="http://www.w3.org/2000/svg" viewBox="0 0 1200 440"><defs><style>.cls-1{fill:#fff;}.cls-2{fill:#bcefff;}.cls-3{fill:#c3cb3e;}.cls-4{fill:#2ea8e2;}</style></defs><g><path class="cls-1" d="M439.78,257.93c-21.75,0-34.29-14.97-34.29-38.34s13.35-37.63,34.7-37.63c17.2,0,28.93,9.81,31.36,25.09h-13.76c-2.73-10.22-9.61-13.56-17.7-13.56-11.13,0-19.63,9.1-19.63,26.1s8.5,26.81,19.12,26.81c8.7,0,15.88-3.95,18.21-13.86h13.76c-1.92,14.77-14.16,25.39-31.77,25.39Z"/><path class="cls-1" d="M505.83,215.34c-6.88,0-11.43,2.53-11.43,12.75v28.53h-13.96v-54.43h13.76v9.51c3.14-6.68,8.09-9.41,14.37-9.41,.91,0,2.12,.1,3.03,.2v13.15c-2.02-.2-3.74-.3-5.77-.3Z"/><path class="cls-1" d="M519.38,263.6h5.26c4.65,0,6.78,.1,9.1-5.67l.61-1.52-20.84-54.22h15.28l12.34,39.25,12.65-39.25h14.16l-19.93,52.81c-6.37,16.9-9.21,19.32-22.76,19.32h-5.87v-10.72Z"/><path class="cls-1" d="M574.21,202.19h13.96v6.98c2.93-5.06,8.8-8.2,15.68-8.2,13.15,0,23.67,11.33,23.67,28.43s-10.82,28.53-23.77,28.53c-5.67,0-12.14-2.22-15.58-8.19v24.58h-13.96v-72.13Zm26.2,9.51c-7.69,0-12.75,6.78-12.75,17.7s5.06,17.8,12.75,17.8c7.18,0,12.44-7.08,12.44-17.7s-5.26-17.81-12.44-17.81Z"/><path class="cls-1" d="M652.4,187.42v14.77h11.33v9.61h-11.33v28.12c0,5.56,1.92,6.68,6.88,6.68h4.25v10.02h-10.22c-12.44,0-14.87-3.85-14.87-14.67v-30.15h-7.69v-9.61h7.69v-14.77h13.96Z"/><path class="cls-1" d="M696.3,200.98c13.76,0,27.31,9.41,27.31,28.53s-13.56,28.43-27.31,28.43-27.31-9.31-27.31-28.43,13.56-28.53,27.31-28.53Zm0,46.03c7.69,0,13.15-6.17,13.15-17.5s-5.46-17.6-13.15-17.6-13.15,6.17-13.15,17.6,5.46,17.5,13.15,17.5Z"/><path class="cls-1" d="M786.23,183.27v11.74h-38.95v18.21h36.82v11.74h-36.82v19.93h38.95v11.74h-53.42v-73.34h53.42Z"/><path class="cls-1" d="M831.54,220.81c-1.01-5.16-6.07-9.01-11.33-9.01-7.28,0-13.05,6.17-13.05,17.5s5.46,17.8,13.15,17.8c4.76,0,9.92-2.43,11.74-9h13.35c-3.24,14.87-14.57,19.83-25.8,19.83-16.29,0-26.71-12.04-26.71-28.43s11.03-28.53,27.31-28.53c11.33,0,22.86,6.27,24.68,19.83h-13.35Z"/><path class="cls-1" d="M877.86,200.98c13.76,0,27.31,9.41,27.31,28.53s-13.56,28.43-27.31,28.43-27.31-9.31-27.31-28.43,13.56-28.53,27.31-28.53Zm0,46.03c7.69,0,13.15-6.17,13.15-17.5s-5.46-17.6-13.15-17.6-13.15,6.17-13.15,17.6,5.46,17.5,13.15,17.5Z"/><path class="cls-1" d="M943.81,200.98c13.05,0,18.82,7.99,18.82,21.35v34.29h-13.96v-31.26c0-7.08-1.52-13.15-9.41-13.15-9.21,0-11.23,7.49-11.23,16.09v28.33h-13.96v-54.43h13.96v7.18c3.14-5.46,9.11-8.4,15.78-8.4Z"/><path class="cls-1" d="M1024.84,244.88v11.74h-50.18v-73.34h14.47v61.61h35.71Z"/><path class="cls-1" d="M1029.38,241.95c0-12.85,14.47-16.69,35.81-19.12v-.91c0-8.4-4.55-11.33-10.22-11.33-5.36,0-9.81,2.83-10.12,8.8h-13.05c1.01-10.72,9.92-18.61,23.88-18.61,12.95,0,23.47,5.56,23.47,23.98,0,1.72-.2,8.9-.2,13.86,0,8.6,.61,13.45,1.62,18.01h-12.85c-.4-1.72-.71-4.15-.91-6.78-3.85,5.67-9.61,8.09-17.81,8.09-10.42,0-19.63-6.07-19.63-15.98Zm14.36-.71c0,3.95,3.14,7.18,9.41,7.18,8.7,0,12.44-4.76,12.44-12.65v-4.05c-15.58,1.62-21.85,3.44-21.85,9.51Z"/><path class="cls-1" d="M1090.78,183.27h13.96v25.9c2.93-5.06,8.8-8.2,15.68-8.2,13.15,0,23.67,11.33,23.67,28.43s-10.72,28.53-23.67,28.53c-5.67,0-12.24-2.22-15.68-8.19v6.88h-13.96v-73.34Zm26.2,28.43c-7.69,0-12.75,6.78-12.75,17.7s5.06,17.8,12.75,17.8c7.18,0,12.44-7.08,12.44-17.7s-5.26-17.81-12.44-17.81Z"/></g><g><g><path class="cls-4" d="M145.42,131.08l-27.96-16.12v32.15l27.96,16.12,27.96-16.03v-32.25l-27.96,16.12Z"/><path class="cls-3" d="M145.42,163.23l-27.96-16.03v-32.25l27.96,16.03v32.25Z"/><path class="cls-4" d="M173.38,147.2l-27.96,16.03v-32.15l27.96-16.03v32.15Z"/><path class="cls-1" d="M145.42,131.08l-27.96-16.12,27.96-16.03,27.96,16.03-27.96,16.12Z"/></g><g><path class="cls-4" d="M117.46,147.2l-27.96-16.12v32.15l27.96,16.03,27.96-16.03v-32.15l-27.96,16.12Z"/><path class="cls-3" d="M117.46,179.26l-27.96-16.03v-32.15l27.96,16.03v32.15Z"/><path class="cls-4" d="M145.42,163.23l-27.96,16.03v-32.06l27.96-16.03v32.06Z"/><path class="cls-1" d="M117.46,147.2l-27.96-16.12,27.96-16.03,27.96,16.03-27.96,16.12Z"/></g><g><path class="cls-4" d="M139.82,254.57l-27.96-16.03v32.15l27.96,16.03,27.96-16.03v-32.15l-27.96,16.03Z"/><path class="cls-3" d="M139.82,286.72l-27.96-16.03v-32.15l27.96,16.03v32.15Z"/><path class="cls-4" d="M167.78,270.6l-27.96,16.03v-32.06l27.96-16.03v32.06Z"/><path class="cls-1" d="M139.82,254.57l-27.96-16.03,27.96-16.03,27.96,16.03-27.96,16.03Z"/></g><g><path class="cls-4" d="M111.86,270.6l-27.96-16.03v32.15l27.96,16.03,27.96-16.03v-32.15l-27.96,16.03Z"/><path class="cls-3" d="M111.86,302.85l-27.96-16.03v-32.25l27.96,16.03v32.25Z"/><path class="cls-4" d="M139.82,286.72l-27.96,16.03v-32.15l27.96-16.03v32.15Z"/><path class="cls-1" d="M111.86,270.6l-27.96-16.03,27.96-16.03,27.96,16.03-27.96,16.03Z"/></g><g><path class="cls-4" d="M83.9,286.72l-27.96-16.12v32.15l27.96,16.12,27.96-16.03v-32.15l-27.96,16.03Z"/><path class="cls-3" d="M83.9,318.88l-27.96-16.03v-32.15l27.96,16.03v32.15Z"/><path class="cls-4" d="M111.86,302.85l-27.96,16.03v-32.15l27.96-16.03v32.15Z"/><path class="cls-1" d="M83.9,286.72l-27.96-16.12,27.96-16.03,27.96,16.03-27.96,16.12Z"/></g><g><g><polygon class="cls-4" points="279.63 238.54 279.63 270.6 251.67 254.57 279.63 238.54"/><polygon class="cls-3" points="307.59 286.72 307.59 318.88 223.71 270.6 223.71 238.54 307.59 286.72"/><polygon class="cls-4" points="279.63 238.54 279.63 270.6 251.67 254.57 279.63 238.54"/><polygon class="cls-1" points="279.63 238.54 251.67 254.57 223.71 238.54 251.67 222.41 279.63 238.54"/></g><g><polygon class="cls-4" points="307.59 254.57 307.59 286.72 279.63 270.6 307.59 254.57"/><polygon class="cls-4" points="307.59 254.57 307.59 286.72 279.63 270.6 307.59 254.57"/><polygon class="cls-1" points="307.59 254.57 279.63 270.6 251.67 254.57 279.63 238.54 307.59 254.57"/></g><g><polygon class="cls-4" points="335.55 270.6 335.55 302.85 307.59 318.88 307.59 286.72 335.55 270.6"/><polygon class="cls-4" points="335.55 270.6 335.55 302.85 307.59 318.88 307.59 286.72 335.55 270.6"/><polygon class="cls-1" points="335.55 270.6 307.59 286.72 279.63 270.6 307.59 254.57 335.55 270.6"/></g></g><g><path class="cls-4" d="M195.75,224.28l-27.96-16.03v32.15l27.96,16.03,27.96-16.03v-32.15l-27.96,16.03Z"/><path class="cls-3" d="M195.75,256.43l-27.96-16.03v-32.15l27.96,16.03v32.15Z"/><path class="cls-4" d="M223.71,240.4l-27.96,16.03v-32.15l27.96-16.03v32.15Z"/><path class="cls-1" d="M195.75,224.28l-27.96-16.03,27.96-16.03,27.96,16.03-27.96,16.03Z"/></g><g><path class="cls-4" d="M89.5,227.07l-27.96-16.12v32.15l27.96,16.12,27.96-16.03v-32.15l-27.96,16.03Z"/><path class="cls-3" d="M89.5,259.23l-27.96-16.03v-32.15l27.96,16.03v32.15Z"/><path class="cls-4" d="M117.46,243.2l-27.96,16.03v-32.15l27.96-16.03v32.15Z"/><path class="cls-2" d="M89.5,227.07l-27.96-16.12,27.96-16.03,27.96,16.03-27.96,16.12Z"/></g><g><path class="cls-4" d="M89.5,194.92l-27.96-16.03v32.15l27.96,16.03,27.96-16.03v-32.15l-27.96,16.03Z"/><path class="cls-3" d="M89.5,227.07l-27.96-16.12v-32.15l27.96,16.12v32.15Z"/><path class="cls-4" d="M117.46,210.95l-27.96,16.03v-32.06l27.96-16.03v32.06Z"/><path class="cls-2" d="M89.5,194.92l-27.96-16.03,27.96-16.03,27.96,16.03-27.96,16.03Z"/></g><g><path class="cls-4" d="M89.5,163.23l-27.96-16.03v32.15l27.96,16.03,27.96-16.03v-32.15l-27.96,16.03Z"/><path class="cls-3" d="M89.5,195.39l-27.96-16.12v-32.06l27.96,16.03v32.15Z"/><path class="cls-4" d="M117.46,179.26l-27.96,16.03v-32.06l27.96-16.03v32.06Z"/><path class="cls-1" d="M89.5,163.23l-27.96-16.03,27.96-16.03,27.96,16.03-27.96,16.03Z"/></g><g><g><polygon class="cls-4" points="274.03 114.95 274.03 147.2 246.07 131.08 274.03 114.95"/><polygon class="cls-3" points="302 194.92 301.62 195.11 302 195.39 302 259.23 274.03 243.2 274.03 179.26 274.41 179.08 274.03 178.89 274.03 179.26 218.11 147.2 218.11 114.95 274.03 147.2 301.62 163.04 302 163.23 302 194.92"/><polygon class="cls-4" points="274.03 114.95 274.03 147.2 246.07 131.08 274.03 114.95"/><polygon class="cls-1" points="274.03 114.95 246.07 131.08 218.11 114.95 246.07 98.92 274.03 114.95"/></g><g><polygon class="cls-4" points="274.03 178.89 274.41 179.08 274.03 179.26 274.03 178.89"/><polygon class="cls-4" points="302 131.08 302 163.23 301.62 163.04 274.03 147.2 302 131.08"/><polygon class="cls-4" points="274.03 178.89 274.41 179.08 274.03 179.26 274.03 178.89"/><polygon class="cls-4" points="302 131.08 302 163.23 301.62 163.04 274.03 147.2 302 131.08"/><polygon class="cls-1" points="302 131.08 274.03 147.2 246.07 131.08 274.03 114.95 302 131.08"/></g><g><polygon class="cls-4" points="329.96 210.95 329.96 243.2 302 259.23 302 227.07 329.96 210.95"/><polygon class="cls-4" points="329.96 210.95 329.96 243.2 302 259.23 302 227.07 329.96 210.95"/><polygon class="cls-2" points="302 227.07 302 195.39 301.62 195.11 302 194.92 302.37 195.11 329.96 210.95 302 227.07"/></g><g><polygon class="cls-4" points="274.03 178.89 274.41 179.08 274.03 179.26 274.03 178.89"/><polygon class="cls-4" points="329.96 178.89 329.96 210.95 302 227.07 302 195.39 301.62 195.11 302 194.92 329.96 178.89"/><polygon class="cls-3" points="274.03 178.89 274.41 179.08 274.03 179.26 274.03 178.89"/><polygon class="cls-3" points="302 194.92 302 195.39 301.62 195.11 302 194.92"/><polygon class="cls-4" points="329.96 178.89 329.96 210.95 302 227.07 302 194.92 329.96 178.89"/><polygon class="cls-2" points="302 194.92 302 163.23 301.62 163.04 302 162.77 302.37 163.04 329.96 178.89 302 194.92"/></g><g><polygon class="cls-4" points="274.03 178.89 274.41 179.08 274.03 179.26 274.03 178.89"/><polygon class="cls-4" points="329.96 147.2 329.96 179.26 302.37 195.11 302 195.39 301.62 195.11 302 194.92 302 163.23 302.37 163.04 329.96 147.2"/><polygon class="cls-3" points="274.03 178.89 274.41 179.08 274.03 179.26 274.03 178.89"/><polygon class="cls-3" points="302 194.92 302 195.39 301.62 195.11 302 194.92"/><polygon class="cls-4" points="329.96 147.2 329.96 179.26 302.37 195.11 302 195.39 302 163.23 302.37 163.04 329.96 147.2"/><polygon class="cls-1" points="329.96 147.2 302.37 163.04 302 163.23 301.62 163.04 274.03 147.2 302 131.08 329.96 147.2"/></g></g><path class="cls-4" d="M195.75,159.97l-27.96-16.03v32.15l27.96,16.03,27.96-16.03v-32.25l-27.96,16.12Z"/><path class="cls-3" d="M195.75,192.12l-27.96-16.03v-32.25l27.96,16.03v32.25Z"/><path class="cls-4" d="M223.71,176.09l-27.96,16.03v-32.15l27.96-16.03v32.15Z"/><path class="cls-2" d="M195.75,159.97l-27.96-16.03,27.96-16.12,27.96,16.03-27.96,16.12Z"/><path class="cls-4" d="M195.75,128.28l-27.96-16.03v32.15l27.96,16.03,27.96-16.03v-32.25l-27.96,16.12Z"/><path class="cls-3" d="M195.75,160.44l-27.96-16.03v-32.25l27.96,16.03v32.25Z"/><path class="cls-4" d="M223.71,144.4l-27.96,16.03v-32.15l27.96-16.03v32.15Z"/><path class="cls-2" d="M195.75,128.28l-27.96-16.03,27.96-16.12,27.96,16.03-27.96,16.12Z"/><path class="cls-4" d="M195.75,96.59l-27.96-16.03v32.15l27.96,16.03,27.96-16.03v-32.25l-27.96,16.12Z"/><path class="cls-3" d="M195.75,128.75l-27.96-16.03v-32.25l27.96,16.03v32.25Z"/><path class="cls-4" d="M223.71,112.72l-27.96,16.03v-32.15l27.96-16.03v32.15Z"/><path class="cls-1" d="M195.75,96.59l-27.96-16.03,27.96-16.12,27.96,16.03-27.96,16.12Z"/><g><path class="cls-4" d="M251.67,311.14l-27.96-16.03v32.15l27.96,16.03,27.96-16.03v-32.15l-27.96,16.03Z"/><path class="cls-3" d="M251.67,343.3l-27.96-16.03v-32.15l27.96,16.03v32.15Z"/><path class="cls-4" d="M279.63,327.17l-27.96,16.03v-32.15l27.96-16.03v32.15Z"/><path class="cls-1" d="M251.67,311.14l-27.96-16.03,27.96-16.03,27.96,16.03-27.96,16.03Z"/></g><g><polygon class="cls-4" points="167.78 295.02 167.78 327.17 139.82 311.14 167.78 295.02"/><polygon class="cls-3" points="195.75 343.3 195.75 375.45 111.86 327.17 111.86 295.02 195.75 343.3"/><polygon class="cls-4" points="167.78 295.02 167.78 327.17 139.82 311.14 167.78 295.02"/><polygon class="cls-1" points="167.78 295.02 139.82 311.14 111.86 295.02 139.82 278.99 167.78 295.02"/></g><g><path class="cls-4" d="M223.71,327.17l-27.96-16.03v32.15l27.96,16.03,27.96-16.03v-32.15l-27.96,16.03Z"/><path class="cls-3" d="M223.71,359.33l-27.96-16.03v-32.15l27.96,16.03v32.15Z"/><path class="cls-4" d="M251.67,343.3l-27.96,16.03v-32.15l27.96-16.03v32.15Z"/><path class="cls-1" d="M223.71,327.17l-27.96-16.03,27.96-16.03,27.96,16.03-27.96,16.03Z"/></g><g><polygon class="cls-4" points="195.75 311.14 195.75 343.3 167.78 327.17 195.75 311.14"/><polygon class="cls-4" points="195.75 311.14 195.75 343.3 167.78 327.17 195.75 311.14"/><polygon class="cls-1" points="195.75 311.14 167.78 327.17 139.82 311.14 167.78 295.02 195.75 311.14"/></g><g><polygon class="cls-4" points="223.71 327.17 223.71 359.33 195.75 375.45 195.75 343.3 223.71 327.17"/><polygon class="cls-4" points="223.71 327.17 223.71 359.33 195.75 375.45 195.75 343.3 223.71 327.17"/><polygon class="cls-1" points="223.71 327.17 195.75 343.3 167.78 327.17 195.75 311.14 223.71 327.17"/></g></g></svg>