<svg width="320" height="100" viewBox="0 0 320 100" fill="none" xmlns="http://www.w3.org/2000/svg">
<path d="M13.9978 47.6013L0.54364 54.8225L53.017 84.6052L66.0965 77.2484L13.9978 47.6013Z" fill="url(#paint0_linear_149_277)"/>
<path d="M26.9806 69.7944L13.9268 62.3471V62.36L0.937696 54.9644V69.775H0.957073L53.0299 99.4221H53.0493V84.6115L26.9806 69.7944Z" fill="#1A3A96"/>
<path d="M66.1094 77.248L53.0298 84.6113V99.4219L66.1094 92.0586V77.248Z" fill="#72EA9A"/>
<path d="M52.6488 25.1821L65.7219 32.5195L13.6103 62.173L0.54364 54.8291L52.6488 25.1821Z" fill="url(#paint1_linear_149_277)"/>
<path d="M13.6102 62.1857V76.9834L65.7025 47.3299H65.7219V32.5193L13.6102 62.1857Z" fill="#1A3A96"/>
<path d="M0.54364 54.8287L13.6038 62.1727V77.0285L0.54364 69.6393V54.8287Z" fill="url(#paint2_linear_149_277)"/>
<path d="M52.6423 0.101562L65.7219 7.46488L13.6103 37.1119L0.54364 29.7486L52.6423 0.101562Z" fill="url(#paint3_linear_149_277)"/>
<path d="M65.7025 7.46497L13.6102 37.112V51.9226L65.7025 22.2756H65.7219V7.46497H65.7025Z" fill="#1A3A96"/>
<path d="M0.54364 29.7486L13.5974 37.1119V51.9225L0.54364 44.5592V29.7486Z" fill="#72EA9A"/>
<path d="M115.285 54.4467H111.317L104.186 70.7235L96.5589 54.4467H92.4975L102.822 76.1491H105.488L115.285 54.4467Z" fill="white"/>
<path d="M117.352 76.1491H120.887V60.0273H117.352V76.1491ZM117.042 55.4078C117.042 55.9658 117.228 56.4309 117.6 56.8029C117.972 57.175 118.499 57.33 119.12 57.33C119.678 57.33 120.174 57.175 120.577 56.8029C120.949 56.4309 121.166 55.9658 121.166 55.4078C121.166 54.9117 120.949 54.4777 120.577 54.1056C120.174 53.7336 119.678 53.5476 119.12 53.5476C118.53 53.5476 118.034 53.7336 117.631 54.0746C117.228 54.4467 117.042 54.8807 117.042 55.4078Z" fill="white"/>
<path d="M124.77 76.1491H128.305V65.2359C128.491 64.5228 128.801 63.9647 129.235 63.5617C129.669 63.1896 130.196 62.9726 130.785 62.9726C131.529 62.9726 132.087 63.2206 132.397 63.6857L134.412 61.1124C133.668 60.1823 132.583 59.6863 131.219 59.6863C130.599 59.6863 130.01 59.8413 129.452 60.0893C128.894 60.3683 128.491 60.7094 128.305 61.1124V60.0273H124.77V76.1491Z" fill="white"/>
<path d="M134.793 63.3137H137.583V70.5375C137.583 72.4287 138.017 73.8548 138.947 74.8469C139.847 75.8391 141.087 76.3351 142.668 76.3351C143.722 76.3351 144.714 76.0871 145.582 75.591C146.45 75.095 147.132 74.4749 147.597 73.6688L145.489 71.6846C144.776 72.6147 144.001 73.0487 143.195 73.0487C142.451 73.0487 141.893 72.8007 141.583 72.2737C141.273 71.7466 141.118 70.8475 141.118 69.5454V63.3137H146.326V60.0273H141.118V56.7099H137.583V60.0273H134.793V63.3137Z" fill="white"/>
<path d="M164.094 59.9343H160.559V70.3514C159.629 72.2117 158.234 73.1418 156.405 73.1418C154.049 73.1418 152.902 71.7156 152.902 68.8633V59.9343H149.367V69.2043C149.367 71.6846 149.894 73.4828 151.01 74.6609C152.127 75.8391 153.801 76.4281 156.064 76.4281C157.862 76.4281 159.381 75.777 160.559 74.4439V76.1491H164.094V59.9343Z" fill="white"/>
<path d="M169.43 64.6468C170.919 63.5307 172.438 62.9416 174.05 62.9416C175.29 62.9416 176.189 63.2517 176.747 63.8407C177.274 64.4608 177.522 65.3599 177.522 66.569C176.654 66.29 175.538 66.135 174.205 66.135C171.911 66.135 170.081 66.569 168.717 67.4061C167.353 68.2742 166.671 69.5454 166.671 71.2505C166.671 72.8007 167.198 74.0409 168.252 74.971C169.306 75.9011 170.732 76.3351 172.531 76.3351C174.67 76.3351 176.344 75.684 177.522 74.3819V76.1491H181.057V66.29C181.057 64.1818 180.468 62.5696 179.32 61.3914C178.173 60.2443 176.561 59.6553 174.453 59.6553C173.12 59.6553 171.849 59.8723 170.639 60.3063C169.43 60.7404 168.438 61.2984 167.694 62.0425L169.43 64.6468ZM173.306 73.2658C172.376 73.2658 171.663 73.1108 171.136 72.7387C170.577 72.3667 170.329 71.8706 170.329 71.2195C170.329 69.7934 171.725 69.0803 174.577 69.0803C175.662 69.0803 176.654 69.2353 177.522 69.5143V71.0645C176.53 72.5527 175.135 73.2658 173.306 73.2658Z" fill="white"/>
<path d="M184.566 76.1491H188.1V53.5166H184.566V76.1491Z" fill="white"/>
<path d="M199.852 76.1491H203.603V61.0814L210.362 69.7314H211.323L217.927 61.1124V76.1491H221.678V54.4467H218.392L210.92 64.5228L203.169 54.4467H199.852V76.1491Z" fill="white"/>
<path d="M227.53 64.6468C229.018 63.5307 230.538 62.9416 232.15 62.9416C233.39 62.9416 234.289 63.2517 234.847 63.8407C235.374 64.4608 235.622 65.3599 235.622 66.569C234.754 66.29 233.638 66.135 232.305 66.135C230.011 66.135 228.181 66.569 226.817 67.4061C225.453 68.2742 224.771 69.5454 224.771 71.2505C224.771 72.8007 225.298 74.0409 226.352 74.971C227.406 75.9011 228.832 76.3351 230.631 76.3351C232.77 76.3351 234.444 75.684 235.622 74.3819V76.1491H239.157V66.29C239.157 64.1818 238.568 62.5696 237.42 61.3914C236.273 60.2443 234.661 59.6553 232.553 59.6553C231.22 59.6553 229.949 59.8723 228.739 60.3063C227.53 60.7404 226.538 61.2984 225.794 62.0425L227.53 64.6468ZM231.406 73.2658C230.476 73.2658 229.763 73.1108 229.236 72.7387C228.677 72.3667 228.429 71.8706 228.429 71.2195C228.429 69.7934 229.825 69.0803 232.677 69.0803C233.762 69.0803 234.754 69.2353 235.622 69.5143V71.0645C234.63 72.5527 233.235 73.2658 231.406 73.2658Z" fill="white"/>
<path d="M255.005 70.8475C253.982 72.3977 252.618 73.1418 250.943 73.1418C249.331 73.1418 248.029 72.6767 247.037 71.7156C246.045 70.7545 245.58 69.5454 245.58 68.0572C245.58 66.569 246.045 65.3289 246.975 64.3678C247.905 63.4377 249.083 62.9416 250.571 62.9416C252.246 62.9416 253.641 63.6547 254.695 65.0499L257.33 63.3137C256.772 62.2285 255.904 61.3604 254.664 60.6784C253.424 59.9963 252.029 59.6553 250.416 59.6553C247.874 59.6553 245.828 60.4613 244.278 62.0425C242.697 63.6547 241.921 65.6389 241.921 68.0572C241.921 70.5995 242.697 72.6147 244.309 74.1339C245.89 75.684 247.998 76.4281 250.602 76.4281C252.029 76.4281 253.393 76.0871 254.664 75.405C255.904 74.7229 256.865 73.7308 257.516 72.4597L255.005 70.8475Z" fill="white"/>
<path d="M259.658 76.1491H263.193V65.6389C263.565 64.8328 264.123 64.1818 264.805 63.6857C265.487 63.2206 266.262 62.9726 267.13 62.9726C268.463 62.9726 269.455 63.3137 270.075 63.9957C270.695 64.6778 271.036 65.7939 271.036 67.2821V76.1491H274.571V67.0651C274.571 62.1665 272.339 59.6863 267.874 59.6863C265.89 59.6863 264.34 60.2753 263.193 61.4224V53.5166H259.658V76.1491Z" fill="white"/>
<path d="M278.384 76.1491H281.918V60.0273H278.384V76.1491ZM278.074 55.4078C278.074 55.9658 278.26 56.4309 278.632 56.8029C279.004 57.175 279.531 57.33 280.151 57.33C280.709 57.33 281.205 57.175 281.608 56.8029C281.98 56.4309 282.197 55.9658 282.197 55.4078C282.197 54.9117 281.98 54.4777 281.608 54.1056C281.205 53.7336 280.709 53.5476 280.151 53.5476C279.562 53.5476 279.066 53.7336 278.663 54.0746C278.26 54.4467 278.074 54.8807 278.074 55.4078Z" fill="white"/>
<path d="M285.802 76.1491H289.336V65.7009C289.677 64.8638 290.204 64.2128 290.917 63.7167C291.599 63.2206 292.405 62.9726 293.273 62.9726C294.638 62.9726 295.63 63.3137 296.281 63.9957C296.901 64.6778 297.242 65.7939 297.242 67.3131V76.1491H300.776V67.0341C300.776 62.1355 298.606 59.6863 294.296 59.6863C292.188 59.6863 290.545 60.3063 289.336 61.4845V60.0273H285.802V76.1491Z" fill="white"/>
<path d="M316.555 71.0025C315.501 72.4287 314.044 73.1418 312.246 73.1418C310.85 73.1418 309.703 72.8317 308.804 72.1496C307.874 71.4986 307.347 70.5375 307.223 69.2973H319.19C319.314 68.3362 319.376 67.5921 319.376 67.0341C319.376 64.8328 318.663 63.0656 317.237 61.7015C315.811 60.3373 313.982 59.6553 311.811 59.6553C309.207 59.6553 307.161 60.4613 305.704 62.0115C304.247 63.5927 303.534 65.6079 303.534 68.0572C303.534 70.5995 304.309 72.6457 305.89 74.1649C307.471 75.684 309.579 76.4281 312.184 76.4281C314.912 76.4281 317.082 75.343 318.725 73.1418L316.555 71.0025ZM311.656 62.8486C312.804 62.8486 313.734 63.1586 314.447 63.7167C315.129 64.3058 315.563 65.1429 315.718 66.228H307.254C307.471 65.1739 307.967 64.3678 308.742 63.7477C309.486 63.1586 310.478 62.8486 311.656 62.8486Z" fill="white"/>
<path d="M92.4975 45.7289H96.2489V37.2339H107.658V33.6995H96.2489V27.5609H108.464V24.0265H92.4975V45.7289Z" fill="white"/>
<path d="M111.665 45.7289H115.199V29.6071H111.665V45.7289ZM111.355 24.9876C111.355 25.5456 111.541 26.0107 111.913 26.3827C112.285 26.7548 112.812 26.9098 113.432 26.9098C113.99 26.9098 114.486 26.7548 114.889 26.3827C115.261 26.0107 115.478 25.5456 115.478 24.9876C115.478 24.4915 115.261 24.0575 114.889 23.6854C114.486 23.3134 113.99 23.1274 113.432 23.1274C112.843 23.1274 112.347 23.3134 111.944 23.6544C111.541 24.0265 111.355 24.4605 111.355 24.9876Z" fill="white"/>
<path d="M119.083 45.7289H122.617V23.0964H119.083V45.7289Z" fill="white"/>
<path d="M138.482 40.5823C137.428 42.0085 135.971 42.7215 134.173 42.7215C132.778 42.7215 131.631 42.4115 130.732 41.7294C129.801 41.0784 129.274 40.1173 129.15 38.8771H141.118C141.242 37.916 141.304 37.1719 141.304 36.6139C141.304 34.4126 140.591 32.6454 139.164 31.2813C137.738 29.9171 135.909 29.235 133.739 29.235C131.135 29.235 129.088 30.0411 127.631 31.5913C126.174 33.1725 125.461 35.1877 125.461 37.637C125.461 40.1793 126.236 42.2255 127.817 43.7447C129.398 45.2638 131.507 46.0079 134.111 46.0079C136.839 46.0079 139.009 44.9228 140.653 42.7215L138.482 40.5823ZM133.584 32.4284C134.731 32.4284 135.661 32.7384 136.374 33.2965C137.056 33.8856 137.49 34.7227 137.645 35.8078H129.181C129.398 34.7537 129.894 33.9476 130.669 33.3275C131.414 32.7384 132.406 32.4284 133.584 32.4284Z" fill="white"/>
<path d="M156.203 40.4273C155.18 41.9775 153.816 42.7215 152.142 42.7215C150.529 42.7215 149.227 42.2565 148.235 41.2954C147.243 40.3343 146.778 39.1251 146.778 37.637C146.778 36.1488 147.243 34.9087 148.173 33.9476C149.103 33.0175 150.281 32.5214 151.77 32.5214C153.444 32.5214 154.839 33.2345 155.893 34.6296L158.528 32.8935C157.97 31.8083 157.102 30.9402 155.862 30.2582C154.622 29.5761 153.227 29.235 151.614 29.235C149.072 29.235 147.026 30.0411 145.476 31.6223C143.895 33.2345 143.12 35.2187 143.12 37.637C143.12 40.1793 143.895 42.1945 145.507 43.7137C147.088 45.2638 149.196 46.0079 151.801 46.0079C153.227 46.0079 154.591 45.6669 155.862 44.9848C157.102 44.3027 158.063 43.3106 158.714 42.0395L156.203 40.4273Z" fill="white"/>
<path d="M159.234 37.637C159.234 40.0552 160.04 42.0705 161.652 43.6516C163.265 45.2328 165.342 46.0079 167.853 46.0079C170.395 46.0079 172.473 45.2328 174.085 43.6516C175.697 42.0705 176.503 40.0552 176.503 37.637C176.503 35.2187 175.697 33.2035 174.085 31.6223C172.473 30.0411 170.395 29.235 167.853 29.235C165.311 29.235 163.234 30.0411 161.621 31.6223C160.009 33.2035 159.234 35.2187 159.234 37.637ZM162.892 37.637C162.892 36.0868 163.358 34.8467 164.288 33.9166C165.218 32.9865 166.396 32.5214 167.853 32.5214C169.279 32.5214 170.457 33.0175 171.418 33.9476C172.349 34.8777 172.845 36.1178 172.845 37.637C172.845 39.1872 172.38 40.3963 171.449 41.3264C170.519 42.2565 169.341 42.7215 167.853 42.7215C166.365 42.7215 165.187 42.2565 164.257 41.2954C163.327 40.3343 162.892 39.1251 162.892 37.637Z" fill="white"/>
<path d="M179.673 45.7289H183.207V29.6071H179.673V45.7289ZM179.363 24.9876C179.363 25.5456 179.549 26.0107 179.921 26.3827C180.293 26.7548 180.82 26.9098 181.44 26.9098C181.998 26.9098 182.494 26.7548 182.897 26.3827C183.269 26.0107 183.486 25.5456 183.486 24.9876C183.486 24.4915 183.269 24.0575 182.897 23.6854C182.494 23.3134 181.998 23.1274 181.44 23.1274C180.851 23.1274 180.355 23.3134 179.952 23.6544C179.549 24.0265 179.363 24.4605 179.363 24.9876Z" fill="white"/>
<path d="M187.09 45.7289H190.625V35.2807C190.966 34.4436 191.493 33.7926 192.206 33.2965C192.888 32.8004 193.694 32.5524 194.562 32.5524C195.926 32.5524 196.919 32.8935 197.57 33.5755C198.19 34.2576 198.531 35.3737 198.531 36.8929V45.7289H202.065V36.6139C202.065 31.7153 199.895 29.2661 195.585 29.2661C193.477 29.2661 191.834 29.8861 190.625 31.0643V29.6071H187.09V45.7289Z" fill="white"/>
<defs>
<linearGradient id="paint0_linear_149_277" x1="0.556558" y1="66.1" x2="66.1095" y2="66.1" gradientUnits="userSpaceOnUse">
<stop offset="0.53" stop-color="#5A92ED"/>
<stop offset="1" stop-color="#72EA9A"/>
</linearGradient>
<linearGradient id="paint1_linear_149_277" x1="65.7219" y1="43.6808" x2="0.556559" y2="43.6808" gradientUnits="userSpaceOnUse">
<stop stop-color="#72EA9A"/>
<stop offset="0.43" stop-color="#5D8FE6"/>
</linearGradient>
<linearGradient id="paint2_linear_149_277" x1="13.5199" y1="77.0543" x2="0.646988" y2="54.7706" gradientUnits="userSpaceOnUse">
<stop stop-color="#5A92ED"/>
<stop offset="1" stop-color="#72EA9A"/>
</linearGradient>
<linearGradient id="paint3_linear_149_277" x1="65.7219" y1="18.6067" x2="0.556559" y2="18.6067" gradientUnits="userSpaceOnUse">
<stop offset="0.62" stop-color="#5C99E9"/>
<stop offset="1" stop-color="#72EA9A"/>
</linearGradient>
</defs>
</svg>
