<svg width="158" height="164" viewBox="0 0 158 164" fill="none" xmlns="http://www.w3.org/2000/svg">
<path d="M59.1881 48.8111L45.3772 56.2238L99.2418 86.7961L112.668 79.2442L59.1881 48.8111Z" fill="url(#paint0_linear_149_325)"/>
<path d="M72.5151 71.5925L59.1153 63.9478V63.961L45.7818 56.3693V71.5726H45.8017L99.2551 102.006H99.275V86.8024L72.5151 71.5925Z" fill="#1A3A96"/>
<path d="M112.681 79.244L99.255 86.8026V102.006L112.681 94.4473V79.244Z" fill="#72EA9A"/>
<path d="M98.8639 25.7972L112.284 33.3293L58.7903 63.769L45.3772 56.2303L98.8639 25.7972Z" fill="url(#paint1_linear_149_325)"/>
<path d="M58.7903 63.7821V78.9721L112.264 48.5324H112.284V33.3291L58.7903 63.7821Z" fill="#1A3A96"/>
<path d="M45.3772 56.2302L58.7837 63.7688V79.0185L45.3772 71.4334V56.2302Z" fill="url(#paint2_linear_149_325)"/>
<path d="M98.8572 0.0517578L112.284 7.6103L58.7903 38.0434L45.3772 30.4848L98.8572 0.0517578Z" fill="url(#paint3_linear_149_325)"/>
<path d="M112.264 7.61035L58.7903 38.0434V53.2467L112.264 22.8136H112.284V7.61035H112.264Z" fill="#1A3A96"/>
<path d="M45.3772 30.485L58.7771 38.0436V53.2469L45.3772 45.6883V30.485Z" fill="#72EA9A"/>
<path d="M16.2569 148.249H13.5086L8.57032 159.522L3.2885 148.249H0.47583L7.62561 163.279H9.4721L16.2569 148.249Z" fill="white"/>
<path d="M17.6885 163.279H20.1362V152.114H17.6885V163.279ZM17.4738 148.915C17.4738 149.301 17.6026 149.623 17.8603 149.881C18.1179 150.139 18.483 150.246 18.9124 150.246C19.2988 150.246 19.6424 150.139 19.9215 149.881C20.1791 149.623 20.3294 149.301 20.3294 148.915C20.3294 148.571 20.1791 148.271 19.9215 148.013C19.6424 147.756 19.2988 147.627 18.9124 147.627C18.5044 147.627 18.1609 147.756 17.8818 147.992C17.6027 148.249 17.4738 148.55 17.4738 148.915Z" fill="white"/>
<path d="M22.8256 163.279H25.2733V155.721C25.4021 155.227 25.6168 154.841 25.9174 154.562C26.218 154.304 26.583 154.154 26.9909 154.154C27.5062 154.154 27.8927 154.326 28.1074 154.648L29.503 152.866C28.9877 152.221 28.2362 151.878 27.2915 151.878C26.8621 151.878 26.4542 151.985 26.0677 152.157C25.6812 152.35 25.4021 152.586 25.2733 152.866V152.114H22.8256V163.279Z" fill="white"/>
<path d="M29.7667 154.39H31.6991V159.393C31.6991 160.702 31.9997 161.69 32.6438 162.377C33.2664 163.064 34.1253 163.408 35.2203 163.408C35.9503 163.408 36.6374 163.236 37.2385 162.892C37.8397 162.549 38.3121 162.119 38.6341 161.561L37.1741 160.187C36.6803 160.831 36.1435 161.132 35.5853 161.132C35.07 161.132 34.6835 160.96 34.4688 160.595C34.2541 160.23 34.1467 159.607 34.1467 158.706V154.39H37.7538V152.114H34.1467V149.817H31.6991V152.114H29.7667V154.39Z" fill="white"/>
<path d="M50.0584 152.05H47.6108V159.264C46.9667 160.552 46.0005 161.196 44.7337 161.196C43.1019 161.196 42.3075 160.209 42.3075 158.233V152.05H39.8598V158.469C39.8598 160.187 40.2248 161.432 40.9978 162.248C41.7707 163.064 42.9301 163.472 44.4975 163.472C45.7428 163.472 46.7949 163.021 47.6108 162.098V163.279H50.0584V152.05Z" fill="white"/>
<path d="M53.7541 155.313C54.7847 154.54 55.8368 154.132 56.9533 154.132C57.8121 154.132 58.4347 154.347 58.8212 154.755C59.1862 155.184 59.358 155.807 59.358 156.644C58.7568 156.451 57.9839 156.344 57.0606 156.344C55.4718 156.344 54.205 156.644 53.2603 157.224C52.3156 157.825 51.8432 158.706 51.8432 159.887C51.8432 160.96 52.2082 161.819 52.9382 162.463C53.6682 163.107 54.6559 163.408 55.9012 163.408C57.3827 163.408 58.5421 162.957 59.358 162.055V163.279H61.8057V156.451C61.8057 154.991 61.3977 153.875 60.6033 153.059C59.8089 152.264 58.6924 151.856 57.2324 151.856C56.3091 151.856 55.4288 152.007 54.5915 152.307C53.7541 152.608 53.067 152.994 52.5517 153.51L53.7541 155.313ZM56.438 161.282C55.7938 161.282 55.3 161.175 54.935 160.917C54.5485 160.659 54.3768 160.316 54.3768 159.865C54.3768 158.877 55.343 158.384 57.3183 158.384C58.0697 158.384 58.7568 158.491 59.358 158.684V159.758C58.6709 160.788 57.7047 161.282 56.438 161.282Z" fill="white"/>
<path d="M64.2357 163.279H66.6834V147.605H64.2357V163.279Z" fill="white"/>
<path d="M74.822 163.279H77.42V152.844L82.1006 158.834H82.7662L87.3395 152.866V163.279H89.9374V148.249H87.6615L82.4871 155.227L77.1194 148.249H74.822V163.279Z" fill="white"/>
<path d="M93.99 155.313C95.0206 154.54 96.0727 154.132 97.1892 154.132C98.048 154.132 98.6707 154.347 99.0572 154.755C99.4222 155.184 99.5939 155.807 99.5939 156.644C98.9928 156.451 98.2198 156.344 97.2966 156.344C95.7077 156.344 94.4409 156.644 93.4962 157.224C92.5515 157.825 92.0792 158.706 92.0792 159.887C92.0792 160.96 92.4442 161.819 93.1742 162.463C93.9042 163.107 94.8918 163.408 96.1371 163.408C97.6186 163.408 98.778 162.957 99.5939 162.055V163.279H102.042V156.451C102.042 154.991 101.634 153.875 100.839 153.059C100.045 152.264 98.9283 151.856 97.4683 151.856C96.5451 151.856 95.6648 152.007 94.8274 152.307C93.9901 152.608 93.303 152.994 92.7877 153.51L93.99 155.313ZM96.6739 161.282C96.0298 161.282 95.536 161.175 95.171 160.917C94.7845 160.659 94.6127 160.316 94.6127 159.865C94.6127 158.877 95.5789 158.384 97.5542 158.384C98.3057 158.384 98.9928 158.491 99.5939 158.684V159.758C98.9069 160.788 97.9407 161.282 96.6739 161.282Z" fill="white"/>
<path d="M113.017 159.607C112.309 160.681 111.364 161.196 110.204 161.196C109.088 161.196 108.186 160.874 107.499 160.209C106.812 159.543 106.49 158.706 106.49 157.675C106.49 156.644 106.812 155.786 107.456 155.12C108.1 154.476 108.916 154.132 109.947 154.132C111.106 154.132 112.072 154.626 112.802 155.592L114.627 154.39C114.241 153.639 113.64 153.037 112.781 152.565C111.922 152.093 110.956 151.856 109.839 151.856C108.079 151.856 106.662 152.415 105.588 153.51C104.493 154.626 103.956 156 103.956 157.675C103.956 159.436 104.493 160.831 105.61 161.883C106.705 162.957 108.165 163.472 109.968 163.472C110.956 163.472 111.901 163.236 112.781 162.764C113.64 162.291 114.305 161.604 114.756 160.724L113.017 159.607Z" fill="white"/>
<path d="M116.24 163.279H118.687V156C118.945 155.442 119.331 154.991 119.804 154.648C120.276 154.326 120.813 154.154 121.414 154.154C122.337 154.154 123.024 154.39 123.454 154.862C123.883 155.335 124.119 156.108 124.119 157.138V163.279H126.567V156.988C126.567 153.596 125.021 151.878 121.929 151.878C120.555 151.878 119.482 152.286 118.687 153.08V147.605H116.24V163.279Z" fill="white"/>
<path d="M129.208 163.279H131.655V152.114H129.208V163.279ZM128.993 148.915C128.993 149.301 129.122 149.623 129.379 149.881C129.637 150.139 130.002 150.246 130.431 150.246C130.818 150.246 131.161 150.139 131.44 149.881C131.698 149.623 131.848 149.301 131.848 148.915C131.848 148.571 131.698 148.271 131.44 148.013C131.161 147.756 130.818 147.627 130.431 147.627C130.023 147.627 129.68 147.756 129.401 147.992C129.122 148.249 128.993 148.55 128.993 148.915Z" fill="white"/>
<path d="M134.345 163.279H136.792V156.043C137.028 155.464 137.393 155.013 137.887 154.669C138.36 154.326 138.918 154.154 139.519 154.154C140.464 154.154 141.151 154.39 141.602 154.862C142.031 155.335 142.267 156.108 142.267 157.16V163.279H144.715V156.966C144.715 153.574 143.212 151.878 140.228 151.878C138.768 151.878 137.63 152.307 136.792 153.123V152.114H134.345V163.279Z" fill="white"/>
<path d="M155.642 159.715C154.912 160.702 153.903 161.196 152.658 161.196C151.692 161.196 150.897 160.982 150.275 160.509C149.63 160.058 149.265 159.393 149.18 158.534H157.467C157.553 157.868 157.596 157.353 157.596 156.966C157.596 155.442 157.102 154.218 156.115 153.274C155.127 152.329 153.86 151.856 152.357 151.856C150.554 151.856 149.137 152.415 148.128 153.488C147.118 154.583 146.625 155.979 146.625 157.675C146.625 159.436 147.161 160.853 148.256 161.905C149.351 162.957 150.811 163.472 152.615 163.472C154.504 163.472 156.007 162.721 157.145 161.196L155.642 159.715ZM152.25 154.068C153.044 154.068 153.688 154.283 154.182 154.669C154.655 155.077 154.955 155.657 155.063 156.408H149.201C149.351 155.678 149.695 155.12 150.232 154.691C150.747 154.283 151.434 154.068 152.25 154.068Z" fill="white"/>
<path d="M41.0966 142.255H43.6946V136.372H51.5959V133.925H43.6946V129.673H52.1541V127.226H41.0966V142.255Z" fill="white"/>
<path d="M54.3706 142.255H56.8183V131.09H54.3706V142.255ZM54.1559 127.891C54.1559 128.278 54.2848 128.6 54.5424 128.857C54.8 129.115 55.1651 129.222 55.5945 129.222C55.9809 129.222 56.3245 129.115 56.6036 128.857C56.8612 128.6 57.0115 128.278 57.0115 127.891C57.0115 127.548 56.8612 127.247 56.6036 126.989C56.3245 126.732 55.9809 126.603 55.5945 126.603C55.1865 126.603 54.843 126.732 54.5639 126.968C54.2848 127.226 54.1559 127.526 54.1559 127.891Z" fill="white"/>
<path d="M59.5077 142.255H61.9554V126.582H59.5077V142.255Z" fill="white"/>
<path d="M72.9425 138.691C72.2125 139.679 71.2034 140.173 69.9581 140.173C68.9919 140.173 68.1975 139.958 67.5748 139.485C66.9307 139.035 66.5657 138.369 66.4798 137.51H74.7676C74.8534 136.845 74.8964 136.329 74.8964 135.943C74.8964 134.418 74.4026 133.195 73.4149 132.25C72.4272 131.305 71.1605 130.833 69.6575 130.833C67.854 130.833 66.4369 131.391 65.4278 132.465C64.4186 133.56 63.9248 134.955 63.9248 136.651C63.9248 138.412 64.4616 139.829 65.5566 140.881C66.6516 141.933 68.1116 142.448 69.9152 142.448C71.8046 142.448 73.3075 141.697 74.4455 140.173L72.9425 138.691ZM69.5502 133.044C70.3446 133.044 70.9887 133.259 71.4825 133.645C71.9549 134.053 72.2555 134.633 72.3628 135.385H66.5013C66.6516 134.655 66.9951 134.096 67.5319 133.667C68.0472 133.259 68.7343 133.044 69.5502 133.044Z" fill="white"/>
<path d="M85.2146 138.584C84.5061 139.657 83.5614 140.173 82.4019 140.173C81.2854 140.173 80.3837 139.85 79.6966 139.185C79.0095 138.519 78.6875 137.682 78.6875 136.651C78.6875 135.621 79.0095 134.762 79.6537 134.096C80.2978 133.452 81.1137 133.109 82.1443 133.109C83.3037 133.109 84.2699 133.602 84.9999 134.569L86.8249 133.366C86.4384 132.615 85.8373 132.014 84.9784 131.541C84.1196 131.069 83.1534 130.833 82.0369 130.833C80.2763 130.833 78.8593 131.391 77.7857 132.486C76.6907 133.602 76.1539 134.977 76.1539 136.651C76.1539 138.412 76.6907 139.808 77.8072 140.86C78.9022 141.933 80.3622 142.448 82.1658 142.448C83.1534 142.448 84.0981 142.212 84.9784 141.74C85.8373 141.268 86.5029 140.581 86.9537 139.7L85.2146 138.584Z" fill="white"/>
<path d="M87.3137 136.651C87.3137 138.326 87.872 139.722 88.9884 140.817C90.1049 141.912 91.5435 142.448 93.2826 142.448C95.0432 142.448 96.4817 141.912 97.5982 140.817C98.7147 139.722 99.2729 138.326 99.2729 136.651C99.2729 134.977 98.7147 133.581 97.5982 132.486C96.4817 131.391 95.0432 130.833 93.2826 130.833C91.522 130.833 90.0834 131.391 88.967 132.486C87.8505 133.581 87.3137 134.977 87.3137 136.651ZM89.8473 136.651C89.8473 135.578 90.1693 134.719 90.8135 134.075C91.4576 133.431 92.2735 133.109 93.2826 133.109C94.2703 133.109 95.0861 133.452 95.7517 134.096C96.3959 134.74 96.7394 135.599 96.7394 136.651C96.7394 137.725 96.4173 138.562 95.7732 139.206C95.1291 139.85 94.3132 140.173 93.2826 140.173C92.252 140.173 91.4361 139.85 90.792 139.185C90.1479 138.519 89.8473 137.682 89.8473 136.651Z" fill="white"/>
<path d="M101.468 142.255H103.916V131.09H101.468V142.255ZM101.253 127.891C101.253 128.278 101.382 128.6 101.64 128.857C101.897 129.115 102.262 129.222 102.692 129.222C103.078 129.222 103.422 129.115 103.701 128.857C103.959 128.6 104.109 128.278 104.109 127.891C104.109 127.548 103.959 127.247 103.701 126.989C103.422 126.732 103.078 126.603 102.692 126.603C102.284 126.603 101.94 126.732 101.661 126.968C101.382 127.226 101.253 127.526 101.253 127.891Z" fill="white"/>
<path d="M106.605 142.255H109.053V135.02C109.289 134.44 109.654 133.989 110.148 133.645C110.62 133.302 111.178 133.13 111.78 133.13C112.724 133.13 113.411 133.366 113.862 133.839C114.292 134.311 114.528 135.084 114.528 136.136V142.255H116.975V135.943C116.975 132.55 115.472 130.854 112.488 130.854C111.028 130.854 109.89 131.284 109.053 132.1V131.09H106.605V142.255Z" fill="white"/>
<defs>
<linearGradient id="paint0_linear_149_325" x1="45.3905" y1="67.8003" x2="112.681" y2="67.8003" gradientUnits="userSpaceOnUse">
<stop offset="0.53" stop-color="#5A92ED"/>
<stop offset="1" stop-color="#72EA9A"/>
</linearGradient>
<linearGradient id="paint1_linear_149_325" x1="112.284" y1="44.7864" x2="45.3905" y2="44.7864" gradientUnits="userSpaceOnUse">
<stop stop-color="#72EA9A"/>
<stop offset="0.43" stop-color="#5D8FE6"/>
</linearGradient>
<linearGradient id="paint2_linear_149_325" x1="58.6975" y1="79.045" x2="45.4833" y2="56.1705" gradientUnits="userSpaceOnUse">
<stop stop-color="#5A92ED"/>
<stop offset="1" stop-color="#72EA9A"/>
</linearGradient>
<linearGradient id="paint3_linear_149_325" x1="112.284" y1="19.0476" x2="45.3905" y2="19.0476" gradientUnits="userSpaceOnUse">
<stop offset="0.62" stop-color="#5C99E9"/>
<stop offset="1" stop-color="#72EA9A"/>
</linearGradient>
</defs>
</svg>
