<svg width="158" height="165" viewBox="0 0 158 165" fill="none" xmlns="http://www.w3.org/2000/svg">
<path d="M59.1881 49.6932L45.3772 57.1058L99.2418 87.6781L112.668 80.1262L59.1881 49.6932Z" fill="url(#paint0_linear_149_158)"/>
<path d="M72.5151 72.4746L59.1153 64.8299V64.8431L45.7818 57.2514V72.4547H45.8017L99.2551 102.888H99.275V87.6845L72.5151 72.4746Z" fill="#1A3A96"/>
<path d="M112.681 80.1261L99.255 87.6847V102.888L112.681 95.3294V80.1261Z" fill="#72EA9A"/>
<path d="M98.8639 26.6793L112.284 34.2113L58.7903 64.6511L45.3772 57.1124L98.8639 26.6793Z" fill="url(#paint1_linear_149_158)"/>
<path d="M58.7903 64.6642V79.8542L112.264 49.4145H112.284V34.2112L58.7903 64.6642Z" fill="#1A3A96"/>
<path d="M45.3772 57.1122L58.7837 64.6509V79.9006L45.3772 72.3155V57.1122Z" fill="url(#paint2_linear_149_158)"/>
<path d="M98.8572 0.933838L112.284 8.49238L58.7903 38.9255L45.3772 31.3669L98.8572 0.933838Z" fill="url(#paint3_linear_149_158)"/>
<path d="M112.264 8.49243L58.7903 38.9255V54.1288L112.264 23.6957H112.284V8.49243H112.264Z" fill="#1A3A96"/>
<path d="M45.3772 31.3671L58.7771 38.9257V54.1289L45.3772 46.5704V31.3671Z" fill="#72EA9A"/>
<path d="M16.2569 149.131H13.5086L8.57032 160.404L3.2885 149.131H0.47583L7.62561 164.161H9.4721L16.2569 149.131Z" fill="black"/>
<path d="M17.6885 164.161H20.1362V152.996H17.6885V164.161ZM17.4738 149.797C17.4738 150.184 17.6026 150.506 17.8603 150.763C18.1179 151.021 18.483 151.128 18.9124 151.128C19.2988 151.128 19.6424 151.021 19.9215 150.763C20.1791 150.506 20.3294 150.184 20.3294 149.797C20.3294 149.454 20.1791 149.153 19.9215 148.895C19.6424 148.638 19.2988 148.509 18.9124 148.509C18.5044 148.509 18.1609 148.638 17.8818 148.874C17.6027 149.131 17.4738 149.432 17.4738 149.797Z" fill="black"/>
<path d="M22.8256 164.161H25.2733V156.603C25.4021 156.109 25.6168 155.723 25.9174 155.444C26.218 155.186 26.583 155.036 26.9909 155.036C27.5062 155.036 27.8927 155.208 28.1074 155.53L29.503 153.748C28.9877 153.104 28.2362 152.76 27.2915 152.76C26.8621 152.76 26.4542 152.867 26.0677 153.039C25.6812 153.232 25.4021 153.469 25.2733 153.748V152.996H22.8256V164.161Z" fill="black"/>
<path d="M29.7667 155.272H31.6991V160.275C31.6991 161.585 31.9997 162.572 32.6438 163.259C33.2664 163.946 34.1253 164.29 35.2203 164.29C35.9503 164.29 36.6374 164.118 37.2385 163.775C37.8397 163.431 38.3121 163.002 38.6341 162.443L37.1741 161.069C36.6803 161.713 36.1435 162.014 35.5853 162.014C35.07 162.014 34.6835 161.842 34.4688 161.477C34.2541 161.112 34.1467 160.489 34.1467 159.588V155.272H37.7538V152.996H34.1467V150.699H31.6991V152.996H29.7667V155.272Z" fill="black"/>
<path d="M50.0584 152.932H47.6108V160.146C46.9667 161.434 46.0005 162.078 44.7337 162.078C43.1019 162.078 42.3075 161.091 42.3075 159.115V152.932H39.8598V159.352C39.8598 161.069 40.2248 162.315 40.9978 163.13C41.7707 163.946 42.9301 164.354 44.4975 164.354C45.7428 164.354 46.7949 163.903 47.6108 162.98V164.161H50.0584V152.932Z" fill="black"/>
<path d="M53.7541 156.195C54.7847 155.422 55.8368 155.014 56.9533 155.014C57.8121 155.014 58.4347 155.229 58.8212 155.637C59.1862 156.067 59.358 156.689 59.358 157.527C58.7568 157.333 57.9839 157.226 57.0606 157.226C55.4718 157.226 54.205 157.527 53.2603 158.106C52.3156 158.707 51.8432 159.588 51.8432 160.769C51.8432 161.842 52.2082 162.701 52.9382 163.345C53.6682 163.989 54.6559 164.29 55.9012 164.29C57.3827 164.29 58.5421 163.839 59.358 162.937V164.161H61.8057V157.333C61.8057 155.873 61.3977 154.757 60.6033 153.941C59.8089 153.146 58.6924 152.739 57.2324 152.739C56.3091 152.739 55.4288 152.889 54.5915 153.189C53.7541 153.49 53.067 153.876 52.5517 154.392L53.7541 156.195ZM56.438 162.164C55.7938 162.164 55.3 162.057 54.935 161.799C54.5485 161.542 54.3768 161.198 54.3768 160.747C54.3768 159.759 55.343 159.266 57.3183 159.266C58.0697 159.266 58.7568 159.373 59.358 159.566V160.64C58.6709 161.67 57.7047 162.164 56.438 162.164Z" fill="black"/>
<path d="M64.2357 164.161H66.6834V148.487H64.2357V164.161Z" fill="black"/>
<path d="M74.822 164.161H77.42V153.726L82.1006 159.717H82.7662L87.3395 153.748V164.161H89.9374V149.131H87.6615L82.4871 156.109L77.1194 149.131H74.822V164.161Z" fill="black"/>
<path d="M93.99 156.195C95.0206 155.422 96.0727 155.014 97.1892 155.014C98.048 155.014 98.6707 155.229 99.0572 155.637C99.4222 156.067 99.5939 156.689 99.5939 157.527C98.9928 157.333 98.2198 157.226 97.2966 157.226C95.7077 157.226 94.4409 157.527 93.4962 158.106C92.5515 158.707 92.0792 159.588 92.0792 160.769C92.0792 161.842 92.4442 162.701 93.1742 163.345C93.9042 163.989 94.8918 164.29 96.1371 164.29C97.6186 164.29 98.778 163.839 99.5939 162.937V164.161H102.042V157.333C102.042 155.873 101.634 154.757 100.839 153.941C100.045 153.146 98.9283 152.739 97.4683 152.739C96.5451 152.739 95.6648 152.889 94.8274 153.189C93.9901 153.49 93.303 153.876 92.7877 154.392L93.99 156.195ZM96.6739 162.164C96.0298 162.164 95.536 162.057 95.171 161.799C94.7845 161.542 94.6127 161.198 94.6127 160.747C94.6127 159.759 95.5789 159.266 97.5542 159.266C98.3057 159.266 98.9928 159.373 99.5939 159.566V160.64C98.9069 161.67 97.9407 162.164 96.6739 162.164Z" fill="black"/>
<path d="M113.017 160.489C112.309 161.563 111.364 162.078 110.204 162.078C109.088 162.078 108.186 161.756 107.499 161.091C106.812 160.425 106.49 159.588 106.49 158.557C106.49 157.527 106.812 156.668 107.456 156.002C108.1 155.358 108.916 155.014 109.947 155.014C111.106 155.014 112.072 155.508 112.802 156.474L114.627 155.272C114.241 154.521 113.64 153.919 112.781 153.447C111.922 152.975 110.956 152.739 109.839 152.739C108.079 152.739 106.662 153.297 105.588 154.392C104.493 155.508 103.956 156.882 103.956 158.557C103.956 160.318 104.493 161.713 105.61 162.765C106.705 163.839 108.165 164.354 109.968 164.354C110.956 164.354 111.901 164.118 112.781 163.646C113.64 163.173 114.305 162.486 114.756 161.606L113.017 160.489Z" fill="black"/>
<path d="M116.24 164.161H118.687V156.882C118.945 156.324 119.331 155.873 119.804 155.53C120.276 155.208 120.813 155.036 121.414 155.036C122.337 155.036 123.024 155.272 123.454 155.744C123.883 156.217 124.119 156.99 124.119 158.02V164.161H126.567V157.87C126.567 154.478 125.021 152.76 121.929 152.76C120.555 152.76 119.482 153.168 118.687 153.962V148.487H116.24V164.161Z" fill="black"/>
<path d="M129.208 164.161H131.655V152.996H129.208V164.161ZM128.993 149.797C128.993 150.184 129.122 150.506 129.379 150.763C129.637 151.021 130.002 151.128 130.431 151.128C130.818 151.128 131.161 151.021 131.44 150.763C131.698 150.506 131.848 150.184 131.848 149.797C131.848 149.454 131.698 149.153 131.44 148.895C131.161 148.638 130.818 148.509 130.431 148.509C130.023 148.509 129.68 148.638 129.401 148.874C129.122 149.131 128.993 149.432 128.993 149.797Z" fill="black"/>
<path d="M134.345 164.161H136.792V156.925C137.028 156.346 137.393 155.895 137.887 155.551C138.36 155.208 138.918 155.036 139.519 155.036C140.464 155.036 141.151 155.272 141.602 155.744C142.031 156.217 142.267 156.99 142.267 158.042V164.161H144.715V157.849C144.715 154.456 143.212 152.76 140.228 152.76C138.768 152.76 137.63 153.189 136.792 154.005V152.996H134.345V164.161Z" fill="black"/>
<path d="M155.642 160.597C154.912 161.585 153.903 162.078 152.658 162.078C151.692 162.078 150.897 161.864 150.275 161.391C149.63 160.94 149.265 160.275 149.18 159.416H157.467C157.553 158.75 157.596 158.235 157.596 157.849C157.596 156.324 157.102 155.1 156.115 154.156C155.127 153.211 153.86 152.739 152.357 152.739C150.554 152.739 149.137 153.297 148.128 154.37C147.118 155.465 146.625 156.861 146.625 158.557C146.625 160.318 147.161 161.735 148.256 162.787C149.351 163.839 150.811 164.354 152.615 164.354C154.504 164.354 156.007 163.603 157.145 162.078L155.642 160.597ZM152.25 154.95C153.044 154.95 153.688 155.165 154.182 155.551C154.655 155.959 154.955 156.539 155.063 157.29H149.201C149.351 156.56 149.695 156.002 150.232 155.573C150.747 155.165 151.434 154.95 152.25 154.95Z" fill="black"/>
<path d="M41.0966 143.137H43.6946V137.254H51.5959V134.807H43.6946V130.555H52.1541V128.108H41.0966V143.137Z" fill="black"/>
<path d="M54.3706 143.137H56.8183V131.973H54.3706V143.137ZM54.1559 128.773C54.1559 129.16 54.2848 129.482 54.5424 129.74C54.8 129.997 55.1651 130.105 55.5945 130.105C55.9809 130.105 56.3245 129.997 56.6036 129.74C56.8612 129.482 57.0115 129.16 57.0115 128.773C57.0115 128.43 56.8612 128.129 56.6036 127.872C56.3245 127.614 55.9809 127.485 55.5945 127.485C55.1865 127.485 54.843 127.614 54.5639 127.85C54.2848 128.108 54.1559 128.408 54.1559 128.773Z" fill="black"/>
<path d="M59.5077 143.137H61.9554V127.464H59.5077V143.137Z" fill="black"/>
<path d="M72.9425 139.573C72.2125 140.561 71.2034 141.055 69.9581 141.055C68.9919 141.055 68.1975 140.84 67.5748 140.368C66.9307 139.917 66.5657 139.251 66.4798 138.392H74.7676C74.8534 137.727 74.8964 137.211 74.8964 136.825C74.8964 135.3 74.4026 134.077 73.4149 133.132C72.4272 132.187 71.1605 131.715 69.6575 131.715C67.854 131.715 66.4369 132.273 65.4278 133.347C64.4186 134.442 63.9248 135.837 63.9248 137.533C63.9248 139.294 64.4616 140.711 65.5566 141.763C66.6516 142.815 68.1116 143.331 69.9152 143.331C71.8046 143.331 73.3075 142.579 74.4455 141.055L72.9425 139.573ZM69.5502 133.926C70.3446 133.926 70.9887 134.141 71.4825 134.528C71.9549 134.935 72.2555 135.515 72.3628 136.267H66.5013C66.6516 135.537 66.9951 134.978 67.5319 134.549C68.0472 134.141 68.7343 133.926 69.5502 133.926Z" fill="black"/>
<path d="M85.2146 139.466C84.5061 140.539 83.5614 141.055 82.4019 141.055C81.2854 141.055 80.3837 140.733 79.6966 140.067C79.0095 139.401 78.6875 138.564 78.6875 137.533C78.6875 136.503 79.0095 135.644 79.6537 134.978C80.2978 134.334 81.1137 133.991 82.1443 133.991C83.3037 133.991 84.2699 134.485 84.9999 135.451L86.8249 134.248C86.4384 133.497 85.8373 132.896 84.9784 132.423C84.1196 131.951 83.1534 131.715 82.0369 131.715C80.2763 131.715 78.8593 132.273 77.7857 133.368C76.6907 134.485 76.1539 135.859 76.1539 137.533C76.1539 139.294 76.6907 140.69 77.8072 141.742C78.9022 142.815 80.3622 143.331 82.1658 143.331C83.1534 143.331 84.0981 143.094 84.9784 142.622C85.8373 142.15 86.5029 141.463 86.9537 140.582L85.2146 139.466Z" fill="black"/>
<path d="M87.3137 137.533C87.3137 139.208 87.872 140.604 88.9884 141.699C90.1049 142.794 91.5435 143.331 93.2826 143.331C95.0432 143.331 96.4817 142.794 97.5982 141.699C98.7147 140.604 99.2729 139.208 99.2729 137.533C99.2729 135.859 98.7147 134.463 97.5982 133.368C96.4817 132.273 95.0432 131.715 93.2826 131.715C91.522 131.715 90.0834 132.273 88.967 133.368C87.8505 134.463 87.3137 135.859 87.3137 137.533ZM89.8473 137.533C89.8473 136.46 90.1693 135.601 90.8135 134.957C91.4576 134.313 92.2735 133.991 93.2826 133.991C94.2703 133.991 95.0861 134.334 95.7517 134.978C96.3959 135.623 96.7394 136.481 96.7394 137.533C96.7394 138.607 96.4173 139.444 95.7732 140.088C95.1291 140.733 94.3132 141.055 93.2826 141.055C92.252 141.055 91.4361 140.733 90.792 140.067C90.1479 139.401 89.8473 138.564 89.8473 137.533Z" fill="black"/>
<path d="M101.468 143.137H103.916V131.973H101.468V143.137ZM101.253 128.773C101.253 129.16 101.382 129.482 101.64 129.74C101.897 129.997 102.262 130.105 102.692 130.105C103.078 130.105 103.422 129.997 103.701 129.74C103.959 129.482 104.109 129.16 104.109 128.773C104.109 128.43 103.959 128.129 103.701 127.872C103.422 127.614 103.078 127.485 102.692 127.485C102.284 127.485 101.94 127.614 101.661 127.85C101.382 128.108 101.253 128.408 101.253 128.773Z" fill="black"/>
<path d="M106.605 143.137H109.053V135.902C109.289 135.322 109.654 134.871 110.148 134.528C110.62 134.184 111.178 134.012 111.78 134.012C112.724 134.012 113.411 134.248 113.862 134.721C114.292 135.193 114.528 135.966 114.528 137.018V143.137H116.975V136.825C116.975 133.433 115.472 131.736 112.488 131.736C111.028 131.736 109.89 132.166 109.053 132.982V131.973H106.605V143.137Z" fill="black"/>
<defs>
<linearGradient id="paint0_linear_149_158" x1="45.3905" y1="68.6823" x2="112.681" y2="68.6823" gradientUnits="userSpaceOnUse">
<stop offset="0.53" stop-color="#5A92ED"/>
<stop offset="1" stop-color="#72EA9A"/>
</linearGradient>
<linearGradient id="paint1_linear_149_158" x1="112.284" y1="45.6685" x2="45.3905" y2="45.6685" gradientUnits="userSpaceOnUse">
<stop stop-color="#72EA9A"/>
<stop offset="0.43" stop-color="#5D8FE6"/>
</linearGradient>
<linearGradient id="paint2_linear_149_158" x1="58.6975" y1="79.9271" x2="45.4833" y2="57.0526" gradientUnits="userSpaceOnUse">
<stop stop-color="#5A92ED"/>
<stop offset="1" stop-color="#72EA9A"/>
</linearGradient>
<linearGradient id="paint3_linear_149_158" x1="112.284" y1="19.9296" x2="45.3905" y2="19.9296" gradientUnits="userSpaceOnUse">
<stop offset="0.62" stop-color="#5C99E9"/>
<stop offset="1" stop-color="#72EA9A"/>
</linearGradient>
</defs>
</svg>
