<svg width="1000" height="995" viewBox="0 0 1000 995" fill="none" xmlns="http://www.w3.org/2000/svg">
<path d="M148.649 697.879C139.259 697.879 131.295 696.232 124.781 692.963C118.267 689.694 113.301 684.999 109.86 678.878C106.419 672.782 104.501 665.432 104.108 656.829C104.01 652.699 103.96 648.25 103.96 643.506C103.96 638.762 104.01 634.214 104.108 629.863C104.501 621.383 106.443 614.058 109.934 607.888C113.424 601.742 118.414 596.998 124.928 593.729C131.442 590.46 139.333 588.813 148.624 588.813C155.483 588.813 161.652 589.722 167.109 591.541C172.566 593.36 177.212 595.868 181.047 599.038C184.882 602.209 187.856 605.921 189.995 610.174C192.108 614.402 193.239 619.023 193.338 623.964C193.436 624.873 193.165 625.635 192.502 626.25C191.838 626.864 191.052 627.159 190.142 627.159H175.762C174.656 627.159 173.746 626.889 173.033 626.324C172.321 625.758 171.829 624.824 171.509 623.521C169.887 616.86 167.109 612.312 163.176 609.879C159.243 607.445 154.327 606.241 148.477 606.241C141.717 606.241 136.309 608.134 132.278 611.919C128.247 615.705 126.059 621.948 125.764 630.625C125.469 638.909 125.469 647.39 125.764 656.067C126.059 664.744 128.247 670.988 132.278 674.773C136.309 678.559 141.717 680.451 148.477 680.451C154.327 680.451 159.219 679.222 163.176 676.74C167.109 674.257 169.887 669.759 171.509 663.171C171.804 661.77 172.321 660.786 173.033 660.295C173.746 659.803 174.656 659.533 175.762 659.533H190.142C191.052 659.533 191.838 659.828 192.502 660.442C193.165 661.057 193.436 661.819 193.338 662.728C193.239 667.669 192.133 672.266 189.995 676.518C187.856 680.771 184.906 684.458 181.047 687.654C177.212 690.825 172.566 693.332 167.109 695.151C161.652 696.97 155.507 697.879 148.624 697.879H148.649Z" fill="white"/>
<path d="M244.393 697.879C236.305 697.879 229.521 696.454 224.015 693.651C218.509 690.825 214.305 686.842 211.429 681.68C208.553 676.543 206.906 670.521 206.513 663.662C206.415 661.843 206.365 659.631 206.365 657.001C206.365 654.371 206.415 652.158 206.513 650.339C206.906 643.358 208.602 637.336 211.601 632.248C214.576 627.159 218.828 623.177 224.334 620.35C229.841 617.524 236.527 616.122 244.417 616.122C252.308 616.122 258.969 617.548 264.5 620.35C270.006 623.177 274.234 627.135 277.233 632.248C280.207 637.336 281.903 643.383 282.297 650.339C282.395 652.158 282.444 654.371 282.444 657.001C282.444 659.631 282.395 661.843 282.297 663.662C281.903 670.521 280.256 676.543 277.381 681.68C274.505 686.842 270.301 690.825 264.82 693.651C259.313 696.478 252.529 697.879 244.442 697.879H244.393ZM244.393 682.885C249.751 682.885 253.881 681.189 256.806 677.797C259.731 674.429 261.354 669.439 261.649 662.876C261.747 661.352 261.796 659.385 261.796 656.976C261.796 654.567 261.747 652.576 261.649 651.077C261.354 644.612 259.731 639.671 256.806 636.23C253.881 632.788 249.727 631.092 244.393 631.092C239.058 631.092 234.904 632.813 231.979 636.23C229.054 639.671 227.432 644.612 227.137 651.077C227.038 652.601 226.989 654.567 226.989 656.976C226.989 659.385 227.038 661.376 227.137 662.876C227.432 669.439 229.054 674.404 231.979 677.797C234.904 681.189 239.034 682.885 244.393 682.885V682.885Z" fill="white"/>
<path d="M302.847 696.38C301.839 696.38 300.978 696.036 300.266 695.323C299.553 694.61 299.209 693.75 299.209 692.742V621.235C299.209 620.227 299.553 619.367 300.266 618.654C300.978 617.941 301.839 617.597 302.847 617.597H315.26C316.268 617.597 317.128 617.941 317.841 618.654C318.554 619.367 318.898 620.227 318.898 621.235V627.454C321.528 624.21 324.871 621.53 328.976 619.343C333.057 617.179 338.145 616.098 344.192 616.098C350.239 616.098 355.696 617.474 360.244 620.252C364.791 623.03 368.306 626.938 370.764 632.002C373.247 637.041 374.476 643.112 374.476 650.167V692.742C374.476 693.75 374.132 694.61 373.419 695.323C372.706 696.036 371.846 696.38 370.838 696.38H357.515C356.507 696.38 355.647 696.036 354.934 695.323C354.221 694.61 353.877 693.75 353.877 692.742V651.077C353.877 645.226 352.427 640.63 349.551 637.287C346.675 633.968 342.521 632.297 337.064 632.297C331.607 632.297 327.624 633.968 324.503 637.287C321.381 640.63 319.808 645.226 319.808 651.077V692.742C319.808 693.75 319.463 694.61 318.751 695.323C318.038 696.036 317.177 696.38 316.17 696.38H302.847V696.38Z" fill="white"/>
<path d="M508.37 697.879C497.161 697.879 488.262 694.659 481.699 688.194C475.136 681.73 471.596 672.536 471.105 660.614C471.006 659.606 470.957 658.328 470.957 656.755C470.957 655.182 471.006 653.953 471.105 653.043C471.498 645.472 473.243 638.909 476.341 633.354C479.413 627.798 483.69 623.546 489.147 620.547C494.604 617.573 501.02 616.073 508.394 616.073C516.58 616.073 523.438 617.769 528.993 621.137C534.549 624.529 538.752 629.224 541.554 635.222C544.381 641.22 545.807 648.176 545.807 656.042V659.213C545.807 660.221 545.463 661.081 544.75 661.794C544.037 662.507 543.128 662.851 542.021 662.851H491.728V664.056C491.827 667.595 492.515 670.84 493.769 673.814C495.022 676.789 496.89 679.198 499.373 681.017C501.856 682.836 504.806 683.745 508.247 683.745C511.074 683.745 513.434 683.327 515.375 682.467C517.293 681.607 518.866 680.623 520.07 679.517C521.275 678.411 522.135 677.502 522.651 676.789C523.561 675.584 524.298 674.847 524.839 674.601C525.405 674.355 526.216 674.232 527.346 674.232H540.374C541.382 674.232 542.218 674.527 542.882 675.142C543.545 675.756 543.816 676.494 543.718 677.403C543.619 679.026 542.783 680.992 541.21 683.303C539.637 685.638 537.4 687.899 534.475 690.112C531.55 692.324 527.887 694.168 523.487 695.642C519.087 697.117 514.073 697.83 508.419 697.83L508.37 697.879ZM491.704 650.167H525.183V649.7C525.183 645.767 524.52 642.326 523.217 639.401C521.914 636.476 519.972 634.165 517.465 632.444C514.933 630.724 511.91 629.863 508.37 629.863C504.83 629.863 501.807 630.724 499.275 632.444C496.743 634.165 494.85 636.476 493.597 639.401C492.343 642.326 491.704 645.767 491.704 649.7V650.167Z" fill="white"/>
<path d="M565.472 696.38C564.464 696.38 563.604 696.036 562.891 695.323C562.178 694.61 561.834 693.75 561.834 692.742V621.235C561.834 620.227 562.178 619.367 562.891 618.654C563.604 617.941 564.464 617.597 565.472 617.597H577.885C578.893 617.597 579.754 617.941 580.467 618.654C581.179 619.367 581.523 620.227 581.523 621.235V627.454C584.154 624.21 587.497 621.53 591.602 619.343C595.682 617.179 600.771 616.098 606.818 616.098C612.865 616.098 618.322 617.474 622.869 620.252C627.417 623.03 630.932 626.938 633.39 632.002C635.872 637.041 637.102 643.112 637.102 650.167V692.742C637.102 693.75 636.757 694.61 636.045 695.323C635.332 696.036 634.471 696.38 633.464 696.38H620.141C619.133 696.38 618.272 696.036 617.559 695.323C616.847 694.61 616.502 693.75 616.502 692.742V651.077C616.502 645.226 615.052 640.63 612.176 637.287C609.3 633.968 605.146 632.297 599.689 632.297C594.232 632.297 590.25 633.968 587.128 637.287C584.006 640.63 582.433 645.226 582.433 651.077V692.742C582.433 693.75 582.089 694.61 581.376 695.323C580.663 696.036 579.803 696.38 578.795 696.38H565.472V696.38Z" fill="white"/>
<path d="M686.215 697.879C680.143 697.879 674.981 697.167 670.679 695.765C666.378 694.364 662.887 692.594 660.159 690.456C657.43 688.342 655.414 686.203 654.112 684.089C652.809 681.975 652.096 680.206 651.998 678.78C651.899 677.674 652.219 676.789 652.981 676.125C653.743 675.461 654.579 675.142 655.488 675.142H667.459C667.853 675.142 668.221 675.191 668.516 675.289C668.811 675.388 669.229 675.683 669.721 676.199C671.024 677.305 672.425 678.46 673.899 679.689C675.35 680.894 677.095 681.926 679.135 682.787C681.151 683.647 683.683 684.065 686.706 684.065C690.639 684.065 693.958 683.278 696.637 681.705C699.316 680.132 700.644 677.895 700.644 674.97C700.644 672.856 700.054 671.135 698.899 669.832C697.743 668.529 695.58 667.325 692.458 666.268C689.336 665.211 684.887 664.08 679.135 662.851C673.482 661.548 668.787 659.877 665.05 657.861C661.314 655.846 658.536 653.314 656.717 650.29C654.898 647.267 653.989 643.727 653.989 639.696C653.989 635.664 655.169 632.002 657.553 628.413C659.913 624.824 663.453 621.874 668.148 619.564C672.843 617.229 678.668 616.073 685.649 616.073C691.106 616.073 695.85 616.762 699.882 618.113C703.913 619.49 707.281 621.162 709.96 623.177C712.639 625.193 714.68 627.233 716.105 629.322C717.506 631.387 718.269 633.182 718.367 634.706C718.465 635.812 718.17 636.697 717.457 637.361C716.744 638.024 715.933 638.344 715.024 638.344H703.815C703.299 638.344 702.856 638.245 702.438 638.049C702.045 637.852 701.627 637.582 701.234 637.287C700.128 636.279 698.899 635.222 697.596 634.116C696.293 633.01 694.695 632.026 692.827 631.166C690.959 630.306 688.501 629.888 685.477 629.888C681.643 629.888 678.717 630.724 676.702 632.395C674.686 634.067 673.678 636.156 673.678 638.688C673.678 640.409 674.145 641.883 675.129 643.162C676.087 644.415 678.029 645.62 680.954 646.726C683.879 647.832 688.329 648.987 694.277 650.216C701.037 651.421 706.42 653.215 710.403 655.6C714.385 657.984 717.212 660.688 718.883 663.785C720.555 666.858 721.39 670.275 721.39 674.011C721.39 678.559 720.063 682.639 717.384 686.277C714.704 689.915 710.771 692.766 705.56 694.831C700.349 696.896 693.909 697.929 686.239 697.929L686.215 697.879Z" fill="white"/>
<path d="M422.705 697.879C416.633 697.879 411.471 697.167 407.169 695.765C402.868 694.364 399.377 692.594 396.648 690.456C393.92 688.342 391.904 686.203 390.602 684.089C389.299 681.975 388.586 680.206 388.488 678.78C388.389 677.674 388.709 676.789 389.471 676.125C390.233 675.461 391.069 675.142 391.978 675.142H403.949C404.342 675.142 404.711 675.191 405.006 675.289C405.301 675.388 405.719 675.683 406.211 676.199C407.513 677.305 408.914 678.46 410.389 679.689C411.84 680.894 413.585 681.926 415.625 682.787C417.641 683.647 420.173 684.065 423.196 684.065C427.129 684.065 430.448 683.278 433.127 681.705C435.806 680.132 437.134 677.895 437.134 674.97C437.134 672.856 436.544 671.135 435.388 669.832C434.233 668.529 432.07 667.325 428.948 666.268C425.826 665.211 421.377 664.08 415.625 662.851C409.971 661.548 405.276 659.877 401.54 657.861C397.804 655.846 395.026 653.314 393.207 650.29C391.388 647.267 390.479 643.727 390.479 639.696C390.479 635.664 391.659 632.002 394.043 628.413C396.403 624.824 399.942 621.874 404.637 619.564C409.332 617.253 415.158 616.073 422.139 616.073C427.596 616.073 432.34 616.762 436.372 618.113C440.403 619.49 443.771 621.162 446.45 623.177C449.129 625.193 451.17 627.233 452.595 629.322C453.996 631.387 454.758 633.182 454.857 634.706C454.955 635.812 454.66 636.697 453.947 637.361C453.234 638.024 452.423 638.344 451.514 638.344H440.305C439.788 638.344 439.346 638.245 438.928 638.049C438.535 637.852 438.117 637.582 437.724 637.287C436.617 636.279 435.388 635.222 434.086 634.116C432.783 633.01 431.185 632.026 429.317 631.166C427.449 630.306 424.991 629.888 421.967 629.888C418.132 629.888 415.207 630.724 413.192 632.395C411.176 634.067 410.168 636.156 410.168 638.688C410.168 640.409 410.635 641.883 411.618 643.162C412.577 644.415 414.519 645.62 417.444 646.726C420.369 647.832 424.818 648.987 430.767 650.216C437.527 651.421 442.91 653.215 446.892 655.6C450.875 657.984 453.701 660.688 455.373 663.785C457.044 666.858 457.88 670.275 457.88 674.011C457.88 678.559 456.553 682.639 453.873 686.277C451.194 689.915 447.261 692.766 442.05 694.831C436.839 696.896 430.398 697.929 422.729 697.929L422.705 697.879Z" fill="white"/>
<path d="M766.202 697.879C760.032 697.879 754.722 696.503 750.224 693.725C745.726 690.947 742.284 687.014 739.851 681.902C737.417 676.813 736.213 670.766 736.213 663.81V621.235C736.213 620.227 736.557 619.367 737.27 618.654C737.983 617.941 738.843 617.597 739.851 617.597H753.174C754.28 617.597 755.165 617.941 755.829 618.654C756.492 619.367 756.812 620.227 756.812 621.235V662.9C756.812 675.412 762.318 681.68 773.33 681.68C778.591 681.68 782.745 680.009 785.818 676.69C788.89 673.372 790.439 668.775 790.439 662.9V621.235C790.439 620.227 790.783 619.367 791.496 618.654C792.209 617.941 793.069 617.597 794.077 617.597H807.4C808.408 617.597 809.268 617.941 809.981 618.654C810.694 619.367 811.038 620.227 811.038 621.235V692.742C811.038 693.75 810.694 694.61 809.981 695.323C809.268 696.036 808.408 696.38 807.4 696.38H795.134C794.028 696.38 793.143 696.036 792.479 695.323C791.815 694.61 791.496 693.75 791.496 692.742V686.523C788.767 690.062 785.375 692.84 781.344 694.856C777.313 696.871 772.249 697.879 766.202 697.879V697.879Z" fill="white"/>
<path d="M860.864 697.879C854.792 697.879 849.63 697.167 845.329 695.765C841.027 694.364 837.536 692.594 834.808 690.456C832.079 688.342 830.064 686.203 828.761 684.089C827.458 681.975 826.745 680.206 826.647 678.78C826.549 677.674 826.868 676.789 827.63 676.125C828.392 675.461 829.228 675.142 830.138 675.142H842.109C842.502 675.142 842.871 675.191 843.166 675.289C843.46 675.388 843.878 675.683 844.37 676.199C845.673 677.305 847.074 678.46 848.549 679.689C849.999 680.894 851.744 681.926 853.785 682.787C855.8 683.647 858.332 684.065 861.356 684.065C865.289 684.065 868.607 683.278 871.286 681.705C873.966 680.132 875.293 677.895 875.293 674.97C875.293 672.856 874.703 671.135 873.548 669.832C872.392 668.529 870.229 667.325 867.108 666.268C863.986 665.211 859.537 664.08 853.785 662.851C848.131 661.548 843.436 659.877 839.7 657.861C835.963 655.846 833.186 653.314 831.367 650.29C829.548 647.267 828.638 643.727 828.638 639.696C828.638 635.664 829.818 632.002 832.202 628.413C834.562 624.824 838.102 621.874 842.797 619.564C847.492 617.253 853.318 616.073 860.299 616.073C865.756 616.073 870.5 616.762 874.531 618.113C878.562 619.49 881.93 621.162 884.609 623.177C887.289 625.193 889.329 627.233 890.755 629.322C892.156 631.387 892.918 633.182 893.016 634.706C893.114 635.812 892.819 636.697 892.107 637.361C891.394 638.024 890.583 638.344 889.673 638.344H878.464C877.948 638.344 877.505 638.245 877.087 638.049C876.694 637.852 876.276 637.582 875.883 637.287C874.777 636.279 873.548 635.222 872.245 634.116C870.942 633.01 869.344 632.026 867.476 631.166C865.608 630.306 863.15 629.888 860.126 629.888C856.292 629.888 853.367 630.724 851.351 632.395C849.335 634.067 848.328 636.156 848.328 638.688C848.328 640.409 848.795 641.883 849.778 643.162C850.737 644.415 852.678 645.62 855.604 646.726C858.529 647.832 862.978 648.987 868.927 650.216C875.686 651.421 881.07 653.215 885.052 655.6C889.034 657.984 891.861 660.688 893.532 663.785C895.204 666.858 896.04 670.275 896.04 674.011C896.04 678.559 894.712 682.639 892.033 686.277C889.354 689.915 885.421 692.766 880.209 694.831C874.998 696.896 868.558 697.929 860.889 697.929L860.864 697.879Z" fill="white"/>
<path d="M380.572 852.249C379.565 852.249 378.704 851.905 377.991 851.192C377.279 850.479 376.934 849.619 376.934 848.611V749.844C376.934 748.836 377.279 747.976 377.991 747.263C378.704 746.55 379.565 746.206 380.572 746.206H394.657C395.665 746.206 396.526 746.55 397.238 747.263C397.951 747.976 398.295 748.836 398.295 749.844V834.207H446.303C447.409 834.207 448.318 834.551 449.031 835.264C449.744 835.976 450.088 836.886 450.088 837.992V848.587C450.088 849.594 449.744 850.455 449.031 851.168C448.318 851.881 447.409 852.225 446.303 852.225H380.548L380.572 852.249Z" fill="white"/>
<path d="M485.829 853.749C480.569 853.749 475.824 852.716 471.596 850.651C467.368 848.587 464.001 845.809 461.518 842.318C459.035 838.828 457.806 834.919 457.806 830.569C457.806 823.514 460.658 817.86 466.361 813.681C472.063 809.503 479.61 806.676 489 805.275L509.746 802.251V799.056C509.746 794.828 508.689 791.534 506.575 789.199C504.461 786.863 500.823 785.708 495.661 785.708C492.023 785.708 489.074 786.445 486.788 787.896C484.526 789.371 482.83 791.313 481.724 793.721C480.913 795.024 479.757 795.688 478.233 795.688H466.262C465.156 795.688 464.32 795.393 463.755 794.778C463.19 794.164 462.919 793.353 462.919 792.345C463.018 790.723 463.681 788.756 464.886 786.445C466.09 784.135 468.008 781.873 470.638 779.71C473.268 777.547 476.636 775.703 480.79 774.179C484.919 772.655 489.934 771.918 495.784 771.918C502.151 771.918 507.534 772.705 511.91 774.253C516.31 775.826 519.8 777.916 522.43 780.546C525.061 783.176 526.978 786.249 528.182 789.788C529.387 793.328 530.001 797.064 530.001 800.997V848.562C530.001 849.57 529.657 850.43 528.944 851.143C528.231 851.856 527.371 852.2 526.363 852.2H514.097C512.991 852.2 512.106 851.856 511.443 851.143C510.779 850.43 510.459 849.57 510.459 848.562V842.663C509.156 844.58 507.387 846.374 505.15 848.046C502.913 849.717 500.234 851.069 497.038 852.126C493.842 853.183 490.082 853.724 485.755 853.724L485.829 853.749ZM490.991 839.369C494.531 839.369 497.726 838.607 500.602 837.107C503.478 835.583 505.74 833.248 507.411 830.077C509.083 826.881 509.918 822.875 509.918 818.032V814.861L494.777 817.295C488.828 818.204 484.379 819.679 481.454 821.695C478.528 823.711 477.053 826.193 477.053 829.118C477.053 831.331 477.742 833.223 479.094 834.797C480.47 836.37 482.191 837.525 484.33 838.287C486.468 839.049 488.68 839.418 490.991 839.418V839.369Z" fill="white"/>
<path d="M590.618 853.749C584.768 853.749 579.877 852.741 575.993 850.725C572.109 848.71 568.889 846.129 566.381 843.007V848.611C566.381 849.619 566.037 850.479 565.398 851.192C564.735 851.905 563.85 852.249 562.743 852.249H550.772C549.765 852.249 548.904 851.905 548.191 851.192C547.479 850.479 547.134 849.619 547.134 848.611V748.32C547.134 747.312 547.479 746.452 548.191 745.739C548.904 745.026 549.765 744.682 550.772 744.682H563.653C564.759 744.682 565.644 745.051 566.308 745.739C566.971 746.452 567.291 747.312 567.291 748.32V781.947C569.823 779.022 572.969 776.613 576.755 774.745C580.54 772.877 585.161 771.943 590.618 771.943C596.076 771.943 600.623 772.852 604.556 774.671C608.489 776.49 611.807 779.046 614.487 782.316C617.166 785.61 619.206 789.42 620.632 793.746C622.058 798.072 622.795 802.792 622.918 807.831C623.016 809.65 623.066 811.297 623.066 812.747C623.066 814.198 623.016 815.845 622.918 817.664C622.722 822.924 621.91 827.742 620.485 832.117C619.059 836.517 617.043 840.327 614.438 843.547C611.807 846.792 608.538 849.275 604.581 851.045C600.648 852.815 596.002 853.7 590.643 853.7L590.618 853.749ZM585.014 837.55C589.365 837.55 592.732 836.616 595.166 834.747C597.6 832.879 599.32 830.421 600.402 827.398C601.483 824.374 602.098 821.031 602.295 817.393C602.491 814.37 602.491 811.346 602.295 808.298C602.098 804.66 601.459 801.342 600.402 798.294C599.345 795.27 597.6 792.812 595.166 790.944C592.732 789.076 589.365 788.142 585.014 788.142C580.983 788.142 577.689 789.051 575.157 790.87C572.625 792.689 570.708 794.975 569.405 797.753C568.102 800.53 567.389 803.431 567.291 806.455C567.193 808.274 567.143 810.215 567.143 812.28C567.143 814.345 567.193 816.287 567.291 818.106C567.488 821.228 568.176 824.3 569.331 827.275C570.487 830.249 572.355 832.707 574.936 834.625C577.517 836.542 580.86 837.501 585.014 837.501V837.55Z" fill="white"/>
<path d="M582.138 141.14L517.809 167.786C515.351 168.794 515.351 172.285 517.809 173.317L582.138 199.963C584.817 201.069 587.841 201.069 590.545 199.963L654.874 173.317C657.332 172.309 657.332 168.819 654.874 167.786L590.545 141.14C587.865 140.034 584.842 140.034 582.138 141.14Z" fill="white"/>
<path d="M489.664 400.546L423.589 373.162C421.623 372.351 419.46 373.801 419.46 375.915V425.348C419.46 426.552 420.173 427.634 421.303 428.101L487.377 455.853C489.344 456.689 491.532 455.239 491.532 453.1V403.299C491.532 402.094 490.794 400.988 489.688 400.546H489.664Z" fill="white"/>
<path d="M506.698 331.055V380.856C506.698 382.995 508.886 384.445 510.853 383.609L576.927 355.857C578.033 355.39 578.77 354.308 578.77 353.104V303.671C578.77 301.533 576.607 300.082 574.641 300.918L508.567 328.301C507.46 328.769 506.723 329.85 506.723 331.055H506.698Z" fill="white"/>
<path d="M506.698 475.518V525.32C506.698 527.458 508.886 528.908 510.853 528.073L576.927 500.321C578.033 499.854 578.77 498.772 578.77 497.567V448.135C578.77 445.996 576.607 444.546 574.641 445.382L508.567 472.765C507.46 473.232 506.723 474.314 506.723 475.518H506.698Z" fill="white"/>
<path d="M507.067 189.221V238.654C507.067 239.858 507.78 240.94 508.911 241.407L574.985 269.159C576.951 269.995 579.139 268.545 579.139 266.406V216.605C579.139 215.4 578.402 214.294 577.295 213.851L511.221 186.468C509.255 185.657 507.092 187.107 507.092 189.221H507.067Z" fill="white"/>
<path d="M567.635 282.187L422.483 222.135C419.804 221.029 416.78 221.029 414.101 222.135L349.772 248.781C347.314 249.789 347.314 253.28 349.772 254.312L494.924 314.364C497.603 315.47 500.627 315.47 503.306 314.364L567.635 287.718C570.093 286.71 570.093 283.22 567.635 282.187Z" fill="white"/>
<path d="M593.937 216.605V363.158C593.937 364.362 593.2 365.468 592.093 365.911L508.542 400.521C507.436 400.988 506.698 402.07 506.698 403.274V453.076C506.698 455.214 508.862 456.664 510.828 455.829L664.165 392.311C665.272 391.844 666.009 390.762 666.009 389.558V189.221C666.009 187.083 663.846 185.632 661.879 186.468L595.805 213.852C594.699 214.319 593.962 215.4 593.962 216.605H593.937Z" fill="white"/>
<path d="M491.507 380.881V331.079C491.507 329.875 490.77 328.768 489.663 328.326L338.096 265.546C336.129 264.735 333.966 266.185 333.966 268.299V461.728C333.966 462.933 334.679 464.014 335.81 464.481L487.377 528.097C489.344 528.933 491.532 527.483 491.532 525.344V475.543C491.532 474.338 490.794 473.232 489.688 472.79L407.906 438.892C406.8 438.425 406.063 437.344 406.063 436.139V354.48C406.063 352.342 408.226 350.892 410.193 351.727L487.402 383.658C489.369 384.469 491.532 383.019 491.532 380.905L491.507 380.881Z" fill="white"/>
</svg>
