<svg width="41" height="41" viewBox="0 0 41 41" fill="none" xmlns="http://www.w3.org/2000/svg">
<path fill-rule="evenodd" clip-rule="evenodd" d="M20.7652 18.376L24.8224 16.1C25.1192 15.9021 25.1192 15.4073 24.8224 15.2094L14.1352 9.07422C13.9373 8.97526 13.8383 8.97526 13.6404 9.07422L9.58327 11.3502C9.28641 11.5481 9.28641 12.0429 9.58327 12.2408L20.2705 18.376C20.4684 18.4749 20.5673 18.4749 20.7652 18.376ZM27.2962 14.6157L31.3534 12.3397C31.6502 12.1418 31.6502 11.6471 31.3534 11.4491L27.1973 9.07422C26.9994 8.97526 26.9004 8.97526 26.7025 9.07422L22.6454 11.3502C22.3485 11.5481 22.3485 12.0429 22.6454 12.2408L26.8015 14.6157C26.9994 14.7147 27.0983 14.7147 27.2962 14.6157ZM26.0097 23.1258L21.9526 25.4018C21.6558 25.5997 21.26 25.3028 21.26 25.006V20.2561C21.26 20.0582 21.3589 19.9593 21.5568 19.8603L25.614 17.4854C25.9109 17.2875 26.4056 17.5843 26.4056 17.8812V22.631C26.3066 22.829 26.2077 23.0269 26.0097 23.1258ZM27.791 16.5948V23.5216C27.791 23.6665 27.738 23.7584 27.6707 23.8749C27.6461 23.9175 27.6196 23.9634 27.5931 24.0164L21.5568 27.4798C21.3589 27.5788 21.26 27.6777 21.26 27.8757V32.5265C21.26 32.9224 21.7547 33.1203 22.0515 32.9224L32.6398 26.8861C32.8377 26.7871 32.9366 26.6882 32.9366 26.4903V14.3188C32.9366 14.022 32.4419 13.7251 32.145 13.923L28.0879 16.199C27.89 16.2979 27.791 16.3969 27.791 16.5948ZM19.6767 20.0582V25.5007C19.6767 25.5997 19.4788 25.6986 19.3798 25.6986L13.3436 22.2352C13.2446 22.1363 13.0467 22.2352 13.0467 22.4331V29.36C13.0467 29.4589 12.8488 29.5579 12.7499 29.5579L8.09893 26.8861C8 26.8861 8 26.7872 8 26.6883V26.6882V13.6261C8 13.5272 8.19796 13.4282 8.29691 13.4282L19.5777 19.8603L19.578 19.8606C19.6766 19.9593 19.6767 19.9594 19.6767 20.0582ZM19.6767 32.5265V27.7767C19.6767 27.5788 19.5777 27.4798 19.3798 27.4798L15.3227 25.1049C14.9269 24.907 14.531 25.1049 14.531 25.5007V30.1516C14.531 30.2506 14.63 30.4485 14.8279 30.5474L18.885 32.9224C19.2809 33.1203 19.6767 32.9224 19.6767 32.5265Z" fill="black"/>
</svg>
