<svg width="597" height="160" viewBox="0 0 597 160" fill="none" xmlns="http://www.w3.org/2000/svg">
<path fill-rule="evenodd" clip-rule="evenodd" d="M388.478 54.2378V99.9741H397.493V54.2378H388.478ZM264.242 90.7387V87.6603V71.8286H271.278V65.8916H264.242V54.4575H255.227V65.8916H250.169V71.8286H255.227V88.7597C255.227 90.7387 255.227 92.278 255.446 93.8172C255.886 98.6547 258.305 100.853 264.902 100.853C266.881 100.853 268.859 100.634 270.838 100.414V94.4768C265.781 94.9166 264.462 94.037 264.242 90.7387ZM174.088 82.8229C180.685 81.9434 186.182 77.3257 186.182 69.19C186.182 60.8343 180.905 56.2167 174.308 55.3372C171.89 55.1173 170.35 55.1172 167.712 55.1172H152.1V99.974H160.895V83.0428H167.492H167.494C170.131 83.0428 171.89 83.0428 174.088 82.8229ZM171.45 62.5934C174.528 63.0331 176.727 65.0121 176.727 69.19C176.727 73.3678 174.528 75.3467 171.45 76.0064C170.57 76.2263 169.031 76.2263 167.492 76.2263H161.115V62.3734H167.492C169.031 62.3734 170.57 62.3735 171.45 62.5934ZM210.59 72.0485V64.7922C209.71 64.5723 209.05 64.5723 207.951 64.5723C205.972 64.5723 203.773 65.4519 202.014 66.9911L199.375 71.8286V65.4519H190.36V99.974H199.375V84.1422C199.375 74.907 203.114 71.6087 210.59 72.0485ZM247.97 82.6029C247.97 93.1575 241.594 100.853 230.159 100.853C218.725 100.853 212.349 93.1575 212.349 82.6029C212.349 72.0484 218.725 64.3524 230.159 64.3524C241.594 64.5723 247.97 72.2683 247.97 82.6029ZM238.735 82.6029C238.735 75.1268 235.437 70.7292 230.159 70.7292C224.882 70.7292 221.584 75.1268 221.584 82.6029C221.584 90.0791 224.882 94.4769 230.159 94.4769C235.437 94.4769 238.735 90.0791 238.735 82.6029ZM309.538 82.6029C309.538 93.1575 303.162 100.853 291.728 100.853C280.293 100.853 273.917 93.1575 273.917 82.6029C273.917 72.0484 280.293 64.3524 291.728 64.3524C302.942 64.5723 309.538 72.2683 309.538 82.6029ZM300.083 82.6029C300.083 75.1268 296.785 70.7292 291.508 70.7292C286.23 70.7292 282.932 75.1268 282.932 82.6029C282.932 90.0791 286.23 94.4769 291.508 94.4769C297.005 94.4769 300.083 90.0791 300.083 82.6029ZM336.804 77.9854H345.6C344.94 70.2894 339.223 64.5723 329.988 64.5723C320.533 64.5723 312.837 71.1689 312.837 83.0428C312.837 94.9166 319.873 100.853 329.328 100.853C337.904 100.853 344.28 96.6757 345.82 88.1001H336.804C335.925 92.4978 333.286 94.6967 329.768 94.6967C325.37 94.6967 322.072 91.1785 322.072 82.603C322.072 74.6871 325.15 70.949 329.768 70.949C333.286 70.949 335.925 72.928 336.804 77.9854ZM384.52 82.6029C384.52 93.1575 378.143 100.853 366.709 100.853C355.275 100.853 348.898 93.1575 348.898 82.6029C348.898 72.0484 355.275 64.3524 366.709 64.3524C378.143 64.5723 384.52 72.2683 384.52 82.6029ZM375.284 82.6029C375.284 75.1268 371.986 70.7292 366.709 70.7292C361.432 70.7292 358.133 75.1268 358.133 82.6029C358.133 90.0791 361.432 94.4769 366.709 94.4769C371.986 94.4769 375.284 90.0791 375.284 82.6029ZM452.904 99.9741H420.581V54.2378H429.596V92.4979H452.904V99.9741ZM475.333 98.6546L477.092 94.9167L477.531 99.974H486.327C485.887 96.0161 485.667 93.8172 485.667 91.1786V79.9643C485.667 78.2052 485.667 76.2263 485.447 74.6871C484.788 68.7502 481.27 64.5723 471.594 64.5723C463.459 64.5723 457.082 68.97 456.862 76.666H465.658C465.878 72.7081 467.856 70.7292 471.375 70.7292C474.893 70.7292 476.432 72.4882 476.652 74.9069C476.872 76.2263 476.872 77.1058 476.872 78.2052V78.8649H474.673C462.359 78.8649 455.763 83.0428 455.763 90.7388C455.763 97.3354 460.82 100.853 466.757 100.853C470.055 100.853 472.914 100.194 475.333 98.6546ZM477.092 84.362V87.2207C477.092 92.0582 474.013 94.4769 470.495 94.4769C467.197 94.4769 465.218 93.1576 465.218 90.0791C465.218 85.4615 470.055 83.9223 477.092 84.362ZM528.545 81.9434C528.545 94.4769 520.849 100.854 512.054 100.854C509.195 100.854 505.677 100.194 503.918 98.8747L501.719 95.3564V99.9741H492.704V54.2378H501.719V70.7293L504.358 66.9912C506.337 65.452 509.855 64.5723 513.373 64.5723C522.828 64.5723 528.545 71.8286 528.545 81.9434ZM519.09 82.603C519.09 75.5667 515.792 70.7293 510.295 70.7293C505.457 70.7293 501.279 73.8076 501.279 82.1632V83.7025C501.279 91.6184 505.677 94.257 509.855 94.257C515.352 94.4769 519.09 90.5189 519.09 82.603ZM550.974 75.3467H559.989C559.109 69.1899 554.492 64.3524 546.356 64.3524C538.22 64.3524 532.723 68.3103 532.723 74.9069C532.723 80.8439 537.121 83.7024 543.497 85.2416C549.434 86.7808 551.633 88.32 551.633 90.9586C551.633 93.3773 549.434 94.6967 546.576 94.6967C543.497 94.6967 540.859 92.9376 540.199 89.1995H531.184C532.063 96.8955 538 100.634 546.356 100.634C554.272 100.634 560.649 97.3353 560.649 90.299C560.649 83.9223 556.471 81.0637 549.434 79.3046C543.717 77.9853 541.519 76.6661 541.519 74.0275C541.519 71.8286 543.058 70.2894 545.696 70.2894C548.555 70.2894 550.314 72.2683 550.974 75.3467Z" fill="black"/>
<path fill-rule="evenodd" clip-rule="evenodd" d="M39.0784 49.62L55.7897 40.1649C56.2295 39.945 56.6693 39.945 57.1091 40.1649L96.2488 62.5933C96.6886 63.0331 96.6886 63.6927 96.2488 63.9126L79.5374 73.3677C79.0977 73.5876 78.6579 73.5876 78.2181 73.3677L39.0784 50.9394C38.6386 50.4996 38.6386 49.8399 39.0784 49.62ZM83.4954 49.62L100.207 40.1649C100.647 39.945 101.306 39.945 101.526 40.1649L118.457 49.84C118.897 50.2797 118.897 50.9393 118.457 51.1592L101.746 60.6143C101.306 60.8342 100.866 60.8342 100.427 60.6143L83.4954 50.9394C83.0556 50.4996 83.0556 49.8399 83.4954 49.62ZM80.6369 78.2053V97.5552C80.6369 97.995 81.2965 98.4349 81.7363 98.215L98.6675 88.54L98.6676 88.5398C98.8875 88.32 99.1073 88.1002 99.1073 87.8803V68.3104C99.1073 67.8706 98.4476 67.4309 98.0079 67.6508L81.5164 77.1059C81.0766 77.3257 80.6369 77.7655 80.6369 78.2053ZM120.436 54.8975L103.725 64.3526C103.065 64.5725 102.845 65.0123 102.845 65.2322V89.1997C102.845 89.8594 102.625 90.2992 102.186 90.5191L81.2965 102.393C80.8568 102.833 80.6369 103.273 80.6369 103.712V123.062C80.6369 123.722 81.2965 123.942 81.7363 123.722L120.876 101.733C121.316 101.293 121.536 100.854 121.536 100.414V55.5572C121.536 54.8975 120.876 54.6776 120.436 54.8975ZM76.8988 78.2051V97.775C76.8988 98.2148 76.4591 98.4347 76.0193 98.2148L55.5699 86.5607C55.1301 86.3409 54.4704 86.5609 54.4704 87.2205V110.309C54.4704 110.748 53.8108 111.188 53.371 110.968L36.6597 101.513C36.2199 101.293 36 100.853 36 100.194V55.117C36 54.6773 36.6597 54.2375 37.0994 54.4574L76.2392 76.8858C76.679 77.1057 76.8988 77.7653 76.8988 78.2051ZM76.0193 102.613L59.3079 92.9376C58.8682 92.7178 58.2085 93.1575 58.2085 93.5973V112.947C58.2085 113.607 58.4284 114.047 58.8682 114.267L75.5795 123.942C76.0193 124.161 76.6789 123.722 76.6789 123.282V103.932C76.6789 103.272 76.4591 102.833 76.0193 102.613Z" fill="black"/>
</svg>
