<svg width="352" height="354" viewBox="0 0 352 354" fill="none" xmlns="http://www.w3.org/2000/svg">
<path fill-rule="evenodd" clip-rule="evenodd" d="M81.823 103L121.564 80.4694C122.816 79.8435 124.067 79.8435 125.006 80.4694L217.944 134.292C219.196 134.918 219.196 136.482 217.944 137.108L178.203 159.639C176.951 160.264 175.7 160.264 174.761 159.639L81.823 105.816C80.5713 105.19 80.5713 103.626 81.823 103ZM187.904 103.626L227.645 81.0954C228.583 80.4695 229.835 80.4695 231.087 81.0954L271.141 104.251C272.393 104.877 272.393 106.442 271.141 107.068L231.4 129.598C230.148 130.224 228.896 130.224 227.958 129.598L187.904 106.442C186.652 105.816 186.652 104.252 187.904 103.626ZM180.706 171.53L180.393 217.216C180.393 218.468 181.645 219.407 182.897 218.781L223.264 195.938C223.89 195.625 224.203 194.999 224.203 194.373L224.515 147.748C224.515 146.496 223.264 145.557 222.012 146.183L182.584 168.4C181.332 169.026 180.706 170.278 180.706 171.53ZM274.896 116.143L235.155 138.673C234.216 138.986 233.59 140.238 233.277 141.802V198.754C233.277 200.006 232.651 200.945 231.713 201.57L181.958 229.733C181.019 230.359 180.394 231.298 180.394 232.549L180.081 278.236C180.081 279.488 181.332 280.427 182.584 279.801L275.209 227.23C276.148 226.604 276.774 225.665 276.774 224.414L277.399 117.707C277.399 116.456 276.148 115.517 274.896 116.143ZM171.632 171.217L171.319 217.842C171.319 218.781 170.38 219.407 169.441 218.781L120.625 190.618C119.374 189.992 118.122 190.931 118.122 192.183L117.809 247.257C117.809 248.508 116.244 249.447 115.306 248.821L75.5646 225.978C74.6258 225.352 74 224.101 74 223.162L74.6258 116.143C74.6258 114.891 76.1905 113.952 77.1292 114.578L170.067 168.4C171.006 168.713 171.632 169.965 171.632 171.217ZM169.441 229.42L129.7 206.264C128.449 205.638 127.197 206.264 127.197 207.829L126.884 253.828C126.884 254.767 127.51 256.019 128.449 256.644L168.19 279.801C169.128 280.427 170.693 279.488 170.693 278.236L171.006 232.237C171.006 231.298 170.38 230.046 169.441 229.42Z" fill="black"/>
</svg>
