<svg width="372" height="307" viewBox="0 0 372 307" fill="none" xmlns="http://www.w3.org/2000/svg">
<path fill-rule="evenodd" clip-rule="evenodd" d="M114.876 269.91V267.626H114.685V255.252H120.222V250.683H114.685V241.926H107.811V250.683H103.993V255.252H107.811V268.387C107.811 269.91 107.811 271.052 108.002 272.194C108.193 276.002 110.103 277.715 115.258 277.715C116.785 277.715 118.313 277.525 119.84 277.334V272.765C116.022 273.146 115.067 272.575 114.876 269.91ZM44.9934 264.009C49.9577 263.438 54.3493 259.821 54.3493 253.539C54.3493 247.066 50.3396 243.64 44.9934 242.878C43.2751 242.688 42.1295 242.688 40.0295 242.688H40.029H28V277.144H34.8737V264.199H40.029H40.0299C41.9388 264.199 43.2752 264.199 44.9934 264.009ZM42.8931 248.399C45.3752 248.78 47.0937 250.302 47.0937 253.539C47.0937 256.775 45.3752 258.298 42.8931 258.678C42.1293 258.869 41.1746 258.869 39.8381 258.869H34.8737V248.208H39.8381C41.1746 248.208 42.1293 248.208 42.8931 248.399ZM73.252 255.633V250.112C72.9862 250.112 72.7205 250.071 72.4357 250.027L72.4354 250.027C72.1064 249.976 71.7519 249.922 71.3426 249.922C69.8151 249.922 68.0967 250.493 66.7601 251.635L64.6598 255.252V250.493H57.7861V277.144H64.6598V264.96C64.6598 257.727 67.5239 255.252 73.252 255.633ZM102.274 264.009C102.274 272.004 97.31 278.096 88.336 278.096C79.3619 278.096 74.3976 272.194 74.3976 264.009C74.3976 255.823 79.3619 249.922 88.336 249.922C97.31 249.922 102.274 255.823 102.274 264.009ZM95.0187 264.009C95.0187 258.298 92.5366 254.871 88.336 254.871C84.1354 254.871 81.6532 258.298 81.6532 264.009C81.6532 269.72 84.1354 273.146 88.336 273.146C92.5366 273.146 95.0187 269.72 95.0187 264.009ZM149.818 264.009C149.818 272.004 144.853 278.096 135.879 278.096C126.905 278.096 121.941 272.194 121.941 264.009C121.941 255.823 126.905 249.922 135.879 249.922C144.853 249.922 149.818 255.823 149.818 264.009ZM142.562 264.009C142.562 258.298 140.08 254.871 135.879 254.871C131.679 254.871 129.196 258.298 129.196 264.009C129.196 269.72 131.679 273.146 135.879 273.146C140.08 273.146 142.562 269.72 142.562 264.009ZM171.011 260.201H177.885C177.312 254.3 172.921 249.922 165.283 249.541C158.028 249.541 151.918 254.681 151.918 263.818C151.918 273.146 157.455 277.715 164.71 277.715C171.393 277.715 176.358 274.288 177.503 267.816H170.63C170.057 271.243 167.956 272.956 165.283 272.956C161.846 272.956 159.364 270.291 159.364 263.628C159.364 257.536 162.037 254.681 165.474 254.681C168.338 254.681 170.439 256.394 171.011 260.201ZM207.862 264.009C207.862 272.004 202.898 278.096 193.924 278.096C184.95 278.096 179.985 272.194 179.985 264.009C179.985 255.823 184.95 249.922 193.924 249.922C202.898 249.922 207.862 255.823 207.862 264.009ZM200.607 264.009C200.607 258.298 198.124 254.871 193.924 254.871C189.723 254.871 187.241 258.298 187.241 264.009C187.241 269.72 189.723 273.146 193.924 273.146C198.124 273.146 200.607 269.72 200.607 264.009ZM210.917 241.926V277.144H217.791V241.926H210.917ZM260.752 277.144H235.739V241.926H242.613V271.433H260.752V277.144ZM278.127 276.192L279.463 273.336L280.036 277.144H286.719C286.337 274.288 286.146 272.575 286.146 270.481V261.915V261.914C286.146 260.391 286.146 259.059 285.955 257.727C285.573 253.158 282.709 249.922 275.263 249.922C268.962 249.922 263.998 253.158 263.807 259.25H270.489C270.68 256.204 272.208 254.681 274.881 254.681C277.745 254.681 278.891 256.013 279.082 257.917C279.272 258.869 279.272 259.63 279.272 260.392V260.963H277.554C267.816 260.963 262.852 264.199 262.852 270.1C262.852 275.24 266.862 277.905 271.444 277.905C273.926 277.905 276.217 277.524 278.127 276.192ZM279.463 265.341V267.435C279.463 271.052 276.981 273.146 274.308 273.146C271.826 273.146 270.298 272.004 270.298 269.72C270.298 266.103 273.926 264.96 279.463 265.341ZM319.178 263.438C319.178 272.956 313.259 277.905 306.385 277.905C304.094 277.905 301.421 277.334 300.085 276.382L298.366 273.717V277.334H291.492V242.117H298.366V254.871L300.466 252.016C301.994 250.873 304.667 250.112 307.34 250.112C314.787 249.922 319.178 255.633 319.178 263.438ZM311.923 263.818C311.923 258.298 309.25 254.681 305.24 254.681C301.421 254.681 298.366 256.965 298.366 263.628V264.96C298.366 271.052 301.803 273.146 305.049 273.146C309.059 273.146 311.923 270.1 311.923 263.818ZM336.744 258.298H343.618C343.045 253.539 339.418 249.922 332.544 250.112C326.243 250.112 322.042 253.158 322.042 258.298C322.042 262.867 325.479 264.96 330.444 266.293C335.026 267.435 336.744 268.577 336.744 270.671C336.744 272.575 335.217 273.527 332.926 273.527C330.443 273.527 328.534 272.194 327.961 269.339H321.088C321.851 275.24 326.434 278.096 332.926 278.096C339.227 278.096 344 275.431 344 270.1C344 265.151 340.945 262.866 335.408 261.534C331.016 260.392 329.298 259.44 329.298 257.346C329.298 255.633 330.444 254.49 332.544 254.49C335.026 254.49 336.363 255.823 336.744 258.298Z" fill="black"/>
<path fill-rule="evenodd" clip-rule="evenodd" d="M196.788 54.9882L232.875 34.4288C233.829 33.8577 234.975 33.8577 235.93 34.4288L272.399 55.1786C273.353 55.7497 273.353 57.2726 272.399 57.8437L236.312 78.4031C235.357 78.9742 234.211 78.9742 233.257 78.4031L196.788 57.6533C195.833 57.0822 195.833 55.5593 196.788 54.9882ZM100.938 54.9883L136.643 34.4289C137.598 34.0481 138.743 34.0481 139.889 34.4289L224.474 82.5911C225.428 83.1622 225.428 84.6852 224.474 85.2563L188.578 105.816C187.623 106.387 186.477 106.387 185.523 105.816L100.938 57.6534C99.983 57.0823 99.983 55.5594 100.938 54.9883ZM190.487 116.476V157.976C190.487 159.118 191.823 159.879 192.778 159.308L229.438 138.368C229.82 138.178 230.202 137.607 230.202 137.035V94.7745C230.202 93.6323 228.865 92.8708 227.91 93.4419L192.014 113.811C191.06 114.382 190.487 115.334 190.487 116.476ZM275.836 66.0294L239.939 86.3984C238.985 86.9695 238.412 87.9214 238.221 89.0635L238.412 140.652C238.412 141.795 237.839 142.746 236.885 143.317L192.014 169.017C191.06 169.588 190.487 170.54 190.487 171.682V213.181C190.487 214.324 191.823 215.085 192.778 214.514L276.599 166.732C277.554 166.161 278.127 165.209 278.127 164.067V67.362C278.127 66.2198 276.79 65.4583 275.836 66.0294ZM182.468 116.286L182.277 158.547C182.277 159.498 181.322 159.879 180.558 159.498L136.261 134.18C135.306 133.609 133.97 134.37 133.97 135.513V185.388C133.97 186.53 132.633 187.292 131.678 186.721L95.5915 166.161C94.6368 165.59 94.064 164.638 94.064 163.496V66.6005C94.064 65.4583 95.4005 64.6968 96.3552 65.2679L180.94 113.43C181.704 114.192 182.468 115.144 182.468 116.286ZM180.749 169.017L144.471 148.267C143.517 147.506 142.18 148.267 142.18 149.6V191.289C142.18 192.432 142.753 193.383 143.707 193.955L179.985 214.704C180.94 215.275 182.277 214.514 182.277 213.372V171.682C182.277 170.54 181.704 169.588 180.749 169.017Z" fill="black"/>
</svg>
