<svg width="120" height="139" viewBox="0 0 120 139" fill="none" xmlns="http://www.w3.org/2000/svg">
<path d="M89.9097 69.1883C73.7005 69.1883 60.5431 51.9785 60.5431 51.9785C60.5431 51.9785 73.6505 34.7188 89.9097 34.7188C106.169 34.7188 119.276 51.9285 119.276 51.9285C119.276 51.9285 106.119 69.1883 89.9097 69.1883Z" fill="#716EE0"/>
<path d="M29.5755 69.1883C13.3663 69.1883 0.208862 51.9785 0.208862 51.9785C0.208862 51.9785 13.3663 34.7188 29.5755 34.7188C45.7847 34.7188 58.9422 51.9285 58.9422 51.9285C58.9422 51.9285 45.7847 69.1883 29.5755 69.1883Z" fill="#2CDBBE"/>
<path d="M29.5755 34.7688C38.0803 48.8768 59.3424 51.2782 59.3424 51.2782C59.3424 51.2782 66.8466 30.8166 58.3918 16.7086C49.937 2.60058 28.5749 0.199219 28.5749 0.199219C28.5749 0.199219 21.0707 20.6608 29.5755 34.7688Z" fill="#4DF4E0"/>
<path d="M61.0934 87.1985C69.5982 101.306 90.8602 103.708 90.8602 103.708C90.8602 103.708 98.3645 83.2463 89.9097 69.1383C81.4549 55.0303 60.1428 52.6289 60.1428 52.6289C60.1428 52.6289 52.6386 73.0905 61.0934 87.1985Z" fill="#807CF7"/>
<path d="M89.9097 34.7688C81.4049 48.8768 60.1429 51.2782 60.1429 51.2782C60.1429 51.2782 52.6386 30.8166 61.0934 16.7086C69.5482 2.60058 90.8603 0.199219 90.8603 0.199219C90.8603 0.199219 98.3645 20.6608 89.9097 34.7688Z" fill="#5C57BC"/>
<path d="M58.3418 87.1985C49.837 101.306 28.575 103.708 28.575 103.708C28.575 103.708 21.0707 83.2463 29.5255 69.1383C37.9803 55.0303 59.2924 52.6289 59.2924 52.6289C59.2924 52.6289 66.7966 73.0905 58.3418 87.1985Z" fill="#18B4C4"/>
<path d="M59.9927 49.9274C61.2935 45.575 64.9956 30.9667 59.6926 19.3601C54.6397 31.0667 57.8915 45.4249 59.9927 49.9274Z" fill="#27BA9E"/>
<path d="M29.5755 69.1884C43.6335 69.0383 55.19 56.0309 58.0917 52.5289C53.6391 53.2794 36.7796 56.9314 29.5755 69.1884Z" fill="#169FA5"/>
<path d="M29.5755 34.7188C37.0297 46.8757 53.7392 50.6779 58.3918 50.7779C55.4402 47.376 43.5834 34.5688 29.5755 34.7188Z" fill="#27BABA"/>
<path d="M61.0934 53.1293C64.045 56.5812 75.9017 69.3385 89.9097 69.1884C82.4555 57.0815 65.9461 53.1293 61.0934 53.1293Z" fill="#5D5DCE"/>
<path d="M61.3935 51.3782C65.796 50.6278 82.6556 46.9757 89.9097 34.7188C75.9017 34.8688 64.2952 47.8762 61.3935 51.3782Z" fill="#4545A3"/>
<path d="M59.7426 84.5471C64.8455 72.8404 61.2935 57.982 59.4424 53.9797C58.0917 58.2822 54.3896 72.9405 59.7426 84.5471Z" fill="#6969E2"/>
<path d="M59.6425 31.7671C48.4362 31.717 39.381 40.7722 39.331 51.8284C39.281 63.0348 48.3861 72.1399 59.4924 72.0899C70.5987 72.1399 79.6038 63.0848 79.6539 52.0786C79.7539 40.9222 70.6988 31.8671 59.6425 31.7671Z" fill="white"/>
<path d="M68.6476 41.2225C68.3975 41.4727 67.9973 41.4227 67.6971 41.2726C67.597 41.2225 67.497 41.1225 67.3969 41.0725C67.0968 40.8223 66.8966 40.4721 66.6465 40.1719C66.2963 39.7217 65.796 39.4715 65.3458 39.5216C65.0456 39.5716 64.7955 39.6717 64.5453 39.9718C64.045 40.4721 63.5447 41.1225 63.3446 41.8229C62.6943 43.874 62.144 45.9752 61.5436 48.1265C63.3947 48.3766 65.0956 48.6267 66.8966 48.9269C66.7466 49.4272 66.6465 49.8774 66.4964 50.4278C64.7454 50.1776 63.0445 49.9275 61.3435 49.6773C61.1434 50.7279 60.9433 51.6785 60.6931 52.7291C62.5442 52.9792 64.3452 53.2794 66.2463 53.5295C66.0962 54.0298 65.9461 54.4801 65.796 55.0304C65.4959 54.9803 65.1957 54.9303 64.8955 54.8803C63.6948 54.7302 62.4942 54.5301 61.2935 54.38C60.9933 54.33 60.6931 54.2799 60.393 54.2299C60.0428 55.5307 59.7926 56.8314 59.3424 58.0321C58.8921 59.3828 58.4419 60.7836 57.7915 62.0343C56.991 63.6853 55.6903 64.8359 53.8392 65.1861C53.5391 65.2361 53.2889 65.2862 53.0388 65.2862C52.2383 65.3362 51.4379 65.1361 50.7375 64.5858C50.4873 64.3857 50.1872 63.9854 50.1371 63.6853C50.1371 63.3351 50.2872 62.8348 50.5874 62.6347C50.6374 62.5847 50.6875 62.5846 50.7875 62.5846C51.0377 62.5846 51.3879 62.6347 51.588 62.7848C51.9382 63.0349 52.1383 63.4351 52.3884 63.7853C52.7386 64.2856 53.1889 64.4857 53.6892 64.4357C53.9893 64.3857 54.2395 64.2856 54.5396 64.0355C55.4402 63.285 55.9404 62.2345 56.1906 61.1338C56.7909 58.8325 57.2912 56.5312 57.8415 54.2299C57.8415 54.1299 57.8415 54.0298 57.8415 53.8297C56.1405 53.5795 54.4396 53.3294 52.6886 53.0292C52.7386 52.5289 52.7886 52.0787 52.8887 51.5284C54.6397 51.7785 56.3407 52.0287 58.1917 52.2788C58.4419 51.2782 58.642 50.2777 58.8921 49.2271C57.0411 48.9269 55.24 48.6768 53.339 48.3766C53.389 47.8763 53.489 47.376 53.5391 46.8757C55.4402 47.1259 57.2912 47.4261 59.1923 47.6762C59.3424 47.1259 59.4924 46.5756 59.6425 46.0753C60.1928 44.3243 60.6431 42.5233 61.7437 41.0224C62.8443 39.5216 64.2952 38.471 66.2463 38.571C67.1468 38.6211 67.9973 38.8712 68.5976 39.5716C68.7477 39.7217 68.8978 39.9218 68.8978 40.0719C68.8978 40.5221 68.8978 41.0224 68.6476 41.2225Z" fill="#5C57BC" stroke="#5C57BC" stroke-miterlimit="10"/>
<path d="M36.044 138.224C34.953 138.224 34.1513 137.951 33.6389 137.406C33.1265 136.86 32.8703 136.092 32.8703 135.1V119.876H36.044V135.695H37.7549V138.224H36.044Z" fill="black"/>
<path d="M45.2911 138.522C44.3655 138.522 43.5307 138.365 42.7869 138.05C42.0595 137.736 41.4314 137.282 40.9024 136.687C40.39 136.092 39.9933 135.381 39.7123 134.554C39.4313 133.711 39.2908 132.769 39.2908 131.728C39.2908 130.686 39.4313 129.752 39.7123 128.926C39.9933 128.099 40.39 127.397 40.9024 126.818C41.4314 126.223 42.0595 125.769 42.7869 125.455C43.5307 125.141 44.3655 124.984 45.2911 124.984C46.2168 124.984 47.0516 125.141 47.7954 125.455C48.5393 125.769 49.1674 126.223 49.6798 126.818C50.2088 127.397 50.6138 128.099 50.8948 128.926C51.1758 129.752 51.3163 130.686 51.3163 131.728C51.3163 132.769 51.1758 133.711 50.8948 134.554C50.6138 135.381 50.2088 136.092 49.6798 136.687C49.1674 137.282 48.5393 137.736 47.7954 138.05C47.0516 138.365 46.2168 138.522 45.2911 138.522ZM45.2911 135.968C46.1342 135.968 46.7954 135.712 47.2747 135.199C47.7541 134.687 47.9938 133.935 47.9938 132.943V130.538C47.9938 129.562 47.7541 128.819 47.2747 128.306C46.7954 127.794 46.1342 127.537 45.2911 127.537C44.4646 127.537 43.8117 127.794 43.3323 128.306C42.853 128.819 42.6133 129.562 42.6133 130.538V132.943C42.6133 133.935 42.853 134.687 43.3323 135.199C43.8117 135.712 44.4646 135.968 45.2911 135.968Z" fill="black"/>
<path d="M58.0746 138.224C56.9837 138.224 56.1489 137.943 55.5703 137.381C55.0083 136.802 54.7273 135.984 54.7273 134.926V127.81H52.8181V125.281H53.8099C54.2893 125.281 54.6116 125.174 54.7769 124.959C54.9587 124.727 55.0497 124.389 55.0497 123.942V121.735H57.9011V125.281H60.5541V127.81H57.9011V135.695H60.3558V138.224H58.0746Z" fill="black"/>
<path d="M71.0429 136.067H70.9189C70.8032 136.397 70.6462 136.712 70.4478 137.009C70.266 137.29 70.0263 137.546 69.7288 137.778C69.4478 138.009 69.1007 138.191 68.6874 138.323C68.2907 138.455 67.8278 138.522 67.2989 138.522C65.96 138.522 64.9351 138.084 64.2243 137.207C63.5135 136.331 63.1581 135.083 63.1581 133.463V125.281H66.3319V133.141C66.3319 134.034 66.5055 134.72 66.8526 135.199C67.1997 135.662 67.7535 135.893 68.5138 135.893C68.8279 135.893 69.1337 135.852 69.4312 135.769C69.7453 135.687 70.0181 135.563 70.2495 135.397C70.4809 135.216 70.671 135.001 70.8198 134.753C70.9685 134.488 71.0429 134.182 71.0429 133.835V125.281H74.2167V138.224H71.0429V136.067Z" fill="black"/>
<path d="M82.1235 138.522C80.8838 138.522 79.8424 138.315 78.9993 137.902C78.1563 137.472 77.4125 136.885 76.7678 136.141L78.7018 134.257C79.1812 134.802 79.7019 135.232 80.2639 135.546C80.8424 135.86 81.5036 136.017 82.2475 136.017C83.0079 136.017 83.5533 135.885 83.8839 135.621C84.2311 135.356 84.4046 134.992 84.4046 134.53C84.4046 134.149 84.2807 133.852 84.0327 133.637C83.8013 133.406 83.3963 133.249 82.8178 133.166L81.5284 132.992C80.1234 132.811 79.0489 132.414 78.3051 131.802C77.5778 131.174 77.2141 130.265 77.2141 129.075C77.2141 128.447 77.3298 127.885 77.5612 127.389C77.7927 126.876 78.1233 126.446 78.553 126.099C78.9828 125.736 79.4952 125.463 80.0903 125.281C80.7019 125.083 81.3797 124.984 82.1235 124.984C82.7516 124.984 83.3054 125.033 83.7848 125.132C84.2807 125.215 84.727 125.347 85.1237 125.529C85.5204 125.694 85.8841 125.909 86.2147 126.174C86.5453 126.422 86.8676 126.703 87.1817 127.017L85.322 128.876C84.9418 128.48 84.4873 128.149 83.9583 127.885C83.4294 127.62 82.8508 127.488 82.2227 127.488C81.5284 127.488 81.0243 127.612 80.7102 127.86C80.4127 128.108 80.2639 128.43 80.2639 128.827C80.2639 129.257 80.3879 129.587 80.6358 129.819C80.9003 130.033 81.3383 130.191 81.9499 130.29L83.2641 130.463C86.0576 130.86 87.4544 132.133 87.4544 134.282C87.4544 134.91 87.3222 135.488 87.0577 136.017C86.8097 136.53 86.4543 136.976 85.9915 137.356C85.5287 137.72 84.9666 138.009 84.3055 138.224C83.6608 138.422 82.9335 138.522 82.1235 138.522Z" fill="black"/>
</svg>
