<svg width="248" height="120" viewBox="0 0 248 120" fill="none" xmlns="http://www.w3.org/2000/svg">
<path d="M162.936 67.5518C161.412 67.5518 160.292 67.1707 159.576 66.4085C158.86 65.6463 158.502 64.5722 158.502 63.1864V41.9141H162.936V64.0179H165.327V67.5518H162.936ZM175.857 67.9675C174.564 67.9675 173.397 67.7481 172.358 67.3092C171.342 66.8704 170.464 66.2352 169.725 65.4037C169.009 64.5722 168.454 63.5791 168.062 62.4242C167.669 61.2463 167.473 59.9297 167.473 58.4746C167.473 57.0195 167.669 55.7145 168.062 54.5597C168.454 53.4048 169.009 52.4232 169.725 51.6148C170.464 50.7833 171.342 50.1482 172.358 49.7093C173.397 49.2705 174.564 49.0511 175.857 49.0511C177.151 49.0511 178.317 49.2705 179.356 49.7093C180.396 50.1482 181.273 50.7833 181.989 51.6148C182.728 52.4232 183.294 53.4048 183.687 54.5597C184.08 55.7145 184.276 57.0195 184.276 58.4746C184.276 59.9297 184.08 61.2463 183.687 62.4242C183.294 63.5791 182.728 64.5722 181.989 65.4037C181.273 66.2352 180.396 66.8704 179.356 67.3092C178.317 67.7481 177.151 67.9675 175.857 67.9675ZM175.857 64.399C177.035 64.399 177.959 64.041 178.629 63.325C179.299 62.609 179.633 61.5581 179.633 60.1723V56.8117C179.633 55.4489 179.299 54.4096 178.629 53.6936C177.959 52.9776 177.035 52.6195 175.857 52.6195C174.702 52.6195 173.79 52.9776 173.12 53.6936C172.45 54.4096 172.115 55.4489 172.115 56.8117V60.1723C172.115 61.5581 172.45 62.609 173.12 63.325C173.79 64.041 174.702 64.399 175.857 64.399ZM193.719 67.5518C192.195 67.5518 191.028 67.1591 190.22 66.3738C189.435 65.5654 189.042 64.4221 189.042 62.9439V53.0006H186.374V49.4668H187.76C188.43 49.4668 188.88 49.3167 189.111 49.0164C189.365 48.6931 189.493 48.2196 189.493 47.5959V44.5125H193.477V49.4668H197.184V53.0006H193.477V64.0179H196.907V67.5518H193.719ZM211.84 64.5376H211.666C211.505 64.9995 211.285 65.4384 211.008 65.8541C210.754 66.2468 210.419 66.6048 210.003 66.9281C209.611 67.2515 209.126 67.5056 208.548 67.6903C207.994 67.8751 207.347 67.9675 206.608 67.9675C204.737 67.9675 203.305 67.3554 202.312 66.1313C201.319 64.9072 200.822 63.1633 200.822 60.8998V49.4668H205.257V60.4494C205.257 61.6967 205.5 62.6552 205.985 63.325C206.47 63.9717 207.243 64.2951 208.306 64.2951C208.745 64.2951 209.172 64.2373 209.588 64.1219C210.027 64.0064 210.408 63.8331 210.731 63.6022C211.054 63.3481 211.32 63.0478 211.528 62.7014C211.736 62.3318 211.84 61.9045 211.84 61.4195V49.4668H216.274V67.5518H211.84V64.5376ZM227.322 67.9675C225.59 67.9675 224.135 67.6788 222.957 67.1014C221.779 66.5008 220.74 65.6809 219.839 64.6415L222.541 62.0085C223.211 62.7707 223.939 63.3712 224.724 63.81C225.532 64.2489 226.456 64.4683 227.496 64.4683C228.558 64.4683 229.32 64.2835 229.782 63.914C230.267 63.5444 230.51 63.0363 230.51 62.3896C230.51 61.8583 230.337 61.4426 229.99 61.1423C229.667 60.819 229.101 60.5996 228.292 60.4841L226.491 60.2416C224.528 59.9875 223.026 59.4332 221.987 58.5786C220.971 57.7009 220.463 56.4306 220.463 54.7676C220.463 53.8899 220.624 53.1046 220.948 52.4117C221.271 51.6957 221.733 51.0951 222.333 50.6101C222.934 50.102 223.65 49.7209 224.481 49.4668C225.336 49.1896 226.283 49.0511 227.322 49.0511C228.2 49.0511 228.974 49.1204 229.644 49.2589C230.337 49.3744 230.96 49.5592 231.515 49.8133C232.069 50.0442 232.577 50.3445 233.039 50.714C233.501 51.0605 233.951 51.4531 234.39 51.892L231.792 54.4904C231.26 53.9361 230.625 53.4741 229.886 53.1046C229.147 52.735 228.339 52.5503 227.461 52.5503C226.491 52.5503 225.786 52.7235 225.348 53.0699C224.932 53.4164 224.724 53.8668 224.724 54.4211C224.724 55.0216 224.897 55.4836 225.244 55.8069C225.613 56.1072 226.225 56.3266 227.08 56.4652L228.916 56.7077C232.82 57.262 234.771 59.0405 234.771 62.0431C234.771 62.9208 234.586 63.7292 234.217 64.4683C233.87 65.1843 233.374 65.8079 232.727 66.3392C232.08 66.8473 231.295 67.2515 230.371 67.5518C229.47 67.8289 228.454 67.9675 227.322 67.9675Z" fill="white"/>
<path d="M104.197 79.8747C85.4606 79.8747 70.3581 60.0029 70.3581 60.0029C70.3581 60.0029 85.5742 40.1311 104.197 40.1311C122.82 40.1311 138.149 60.0029 138.149 60.0029C138.149 60.0029 122.933 79.8747 104.197 79.8747Z" fill="#716EE0"/>
<path d="M34.5888 79.8747C15.9661 79.8747 0.75 60.0029 0.75 60.0029C0.75 60.0029 15.9661 40.1311 34.5888 40.1311C53.2116 40.1311 68.5412 60.0029 68.5412 60.0029C68.5412 60.0029 53.3251 79.8747 34.5888 79.8747Z" fill="#2CDBBE"/>
<path d="M34.5888 40.1311C44.3544 56.3692 68.8819 59.208 68.8819 59.208C68.8819 59.208 77.5119 35.589 67.7464 19.3509C57.9808 3.11277 33.4533 0.273926 33.4533 0.273926C33.4533 0.273926 24.8233 23.893 34.5888 40.1311Z" fill="#4DF4E0"/>
<path d="M71.0394 100.655C80.805 116.893 105.332 119.732 105.332 119.732C105.332 119.732 113.962 96.1129 104.197 79.8748C94.4313 63.6367 69.9039 60.7979 69.9039 60.7979C69.9039 60.7979 61.2738 84.4169 71.0394 100.655Z" fill="#807CF7"/>
<path d="M104.31 40.1311C94.5449 56.3692 70.0174 59.208 70.0174 59.208C70.0174 59.208 61.3874 35.589 71.1529 19.3509C80.9185 3.11277 105.446 0.273926 105.446 0.273926C105.446 0.273926 114.076 23.893 104.31 40.1311Z" fill="#5C57BC"/>
<path d="M67.8599 100.655C58.0943 116.893 33.5669 119.732 33.5669 119.732C33.5669 119.732 24.9368 96.1129 34.7024 79.8748C44.468 63.6367 68.9954 60.7979 68.9954 60.7979C68.9954 60.7979 77.6255 84.4169 67.8599 100.655Z" fill="#18B4C4"/>
<path d="M69.7903 57.6183C71.2665 52.6219 75.5815 35.7025 69.4497 22.3032C63.5449 35.816 67.2921 52.5084 69.7903 57.6183Z" fill="#27BA9E"/>
<path d="M34.5888 79.8748C50.8269 79.7612 64.1127 64.6587 67.5192 60.6843C62.4094 61.4792 42.9918 65.6807 34.5888 79.8748Z" fill="#169FA5"/>
<path d="M34.5888 40.1313C43.2189 54.0983 62.5229 58.5269 67.8599 58.6404C64.4533 54.6661 50.8269 40.0177 34.5888 40.1313Z" fill="#27BABA"/>
<path d="M71.0394 61.3655C74.446 65.3398 88.0724 80.1017 104.31 79.8746C95.6804 65.9076 76.6035 61.3655 71.0394 61.3655Z" fill="#5D5DCE"/>
<path d="M71.3801 59.3216C76.4899 58.4132 95.9075 54.2117 104.31 40.1311C88.0724 40.2447 74.6731 55.3472 71.3801 59.3216Z" fill="#4545A3"/>
<path d="M69.4497 97.5892C75.3544 84.0763 71.2665 66.9298 69.109 62.2742C67.6328 67.2705 63.3178 84.1899 69.4497 97.5892Z" fill="#6969E2"/>
<path d="M69.3361 36.7245C56.391 36.611 45.9442 47.1714 45.9442 59.8894C45.8306 72.8344 56.391 83.2813 69.2225 83.2813C82.0541 83.2813 92.3874 72.948 92.5009 60.2301C92.6145 47.285 82.0541 36.8381 69.3361 36.7245Z" fill="white"/>
<path d="M79.8965 45.6951C79.2666 44.8586 78.1932 44.446 76.9442 44.446C74.7866 44.3325 72.9698 45.3545 71.4936 47.3984C70.2445 49.1017 69.6768 51.0321 69.109 52.9625L68.9954 53.3032C68.8819 53.7574 68.7683 54.0981 68.6548 54.5523L68.5412 54.8929L61.9551 53.9845L61.6145 56.2556L67.9735 57.2776L67.2921 60.2299L61.1603 59.3215L60.8196 61.5926L66.8379 62.501C66.8379 62.6146 66.8379 62.6145 66.8379 62.7281C66.7244 63.4094 66.4973 64.2043 66.3837 64.8856C65.9295 66.816 65.4753 68.7464 65.0211 70.6768C64.6804 72.153 63.9991 73.175 63.2042 73.8563C62.9771 74.0834 62.6365 74.197 62.4094 74.3105C61.9551 74.3105 61.5009 74.0834 61.1603 73.6292C61.0467 73.5156 61.0467 73.4021 60.9332 73.2886C60.7061 72.9479 60.479 72.6072 60.1383 72.3801C59.9112 72.153 59.457 72.0395 59.0028 72.0395C58.8892 72.0395 58.7757 72.153 58.6621 72.153C58.3214 72.4937 57.9808 73.0614 58.0943 73.6292C58.0943 74.0834 58.5486 74.5376 58.8892 74.8783C59.6841 75.4461 60.479 75.7867 61.5009 75.7867C61.6145 75.7867 61.6145 75.7867 61.728 75.7867C62.0687 75.7867 62.4094 75.7867 62.75 75.6731C64.794 75.2189 66.4973 73.9699 67.5192 71.9259C68.3141 70.4497 68.8819 68.7464 69.3361 67.2702C69.6768 66.2482 69.9039 65.2263 70.131 64.2043C70.2445 63.8636 70.3581 63.4094 70.4716 63.0688L76.7171 63.9772L77.3984 61.7061L70.9258 60.7977L71.4936 57.7318L77.3984 58.5266L77.9661 56.2556L71.8343 55.3471C72.0614 54.7794 72.1749 54.098 72.2885 53.5303C72.7427 51.7134 73.1969 50.0101 73.7647 48.4204C73.9918 47.8526 74.446 47.1713 75.1273 46.3764C75.3544 46.1493 75.5815 46.0358 75.9222 45.9222C76.3764 45.9222 76.8306 46.1494 77.1713 46.6036L77.2848 46.8307C77.5119 47.1713 77.739 47.3984 77.9661 47.7391C78.0797 47.8527 78.1932 47.9662 78.3068 48.0797C78.8746 48.4204 79.3288 48.3068 79.6694 47.9662C80.0101 47.6255 80.0101 47.1713 80.0101 46.6036V46.49C80.0101 46.1946 80.0101 45.929 79.8965 45.6951Z" fill="#5C57BC"/>
</svg>
