<svg width="263" height="128" viewBox="0 0 263 128" fill="none" xmlns="http://www.w3.org/2000/svg">
<path d="M178.86 74.6296C177.08 74.6296 175.771 74.1845 174.935 73.2944C174.099 72.4042 173.681 71.1499 173.681 69.5314V44.688H178.86V70.5025H181.652V74.6296H178.86Z" fill="white"/>
<path d="M193.95 75.1151C192.439 75.1151 191.077 74.8589 189.863 74.3464C188.676 73.8339 187.651 73.0921 186.788 72.121C185.952 71.1499 185.304 69.99 184.846 68.6413C184.387 67.2656 184.158 65.728 184.158 64.0287C184.158 62.3293 184.387 60.8052 184.846 59.4565C185.304 58.1078 185.952 56.9614 186.788 56.0172C187.651 55.0462 188.676 54.3044 189.863 53.7919C191.077 53.2793 192.439 53.0231 193.95 53.0231C195.46 53.0231 196.823 53.2793 198.036 53.7919C199.25 54.3044 200.275 55.0462 201.112 56.0172C201.975 56.9614 202.636 58.1078 203.094 59.4565C203.553 60.8052 203.782 62.3293 203.782 64.0287C203.782 65.728 203.553 67.2656 203.094 68.6413C202.636 69.99 201.975 71.1499 201.112 72.121C200.275 73.0921 199.25 73.8339 198.036 74.3464C196.823 74.8589 195.46 75.1151 193.95 75.1151ZM193.95 70.9476C195.325 70.9476 196.404 70.5295 197.187 69.6933C197.969 68.8571 198.36 67.6297 198.36 66.0113V62.0865C198.36 60.495 197.969 59.2812 197.187 58.4449C196.404 57.6087 195.325 57.1906 193.95 57.1906C192.601 57.1906 191.536 57.6087 190.753 58.4449C189.971 59.2812 189.58 60.495 189.58 62.0865V66.0113C189.58 67.6297 189.971 68.8571 190.753 69.6933C191.536 70.5295 192.601 70.9476 193.95 70.9476Z" fill="white"/>
<path d="M214.811 74.6296C213.03 74.6296 211.668 74.171 210.724 73.2539C209.807 72.3098 209.348 70.9746 209.348 69.2482V57.6357H206.233V53.5086H207.851C208.633 53.5086 209.159 53.3333 209.429 52.9826C209.726 52.605 209.874 52.052 209.874 51.3237V47.7226H214.527V53.5086H218.857V57.6357H214.527V70.5025H218.533V74.6296H214.811Z" fill="white"/>
<path d="M235.973 71.1094H235.771C235.582 71.6489 235.326 72.1614 235.002 72.647C234.705 73.1055 234.314 73.5237 233.829 73.9013C233.37 74.2789 232.804 74.5757 232.129 74.7915C231.482 75.0072 230.726 75.1151 229.863 75.1151C227.678 75.1151 226.006 74.4003 224.846 72.9707C223.686 71.541 223.106 69.5045 223.106 66.861V53.5086H228.285V66.335C228.285 67.7916 228.569 68.911 229.135 69.6933C229.701 70.4486 230.605 70.8262 231.846 70.8262C232.358 70.8262 232.857 70.7588 233.343 70.6239C233.856 70.489 234.301 70.2867 234.678 70.017C235.056 69.7203 235.366 69.3696 235.609 68.965C235.852 68.5334 235.973 68.0344 235.973 67.4679V53.5086H241.152V74.6296H235.973V71.1094Z" fill="white"/>
<path d="M254.055 75.1151C252.032 75.1151 250.332 74.778 248.957 74.1036C247.581 73.4023 246.367 72.4447 245.315 71.2308L248.471 68.1557C249.253 69.0459 250.103 69.7472 251.02 70.2597C251.964 70.7723 253.043 71.0285 254.257 71.0285C255.498 71.0285 256.388 70.8127 256.928 70.3811C257.494 69.9495 257.777 69.3561 257.777 68.6008C257.777 67.9804 257.575 67.4949 257.17 67.1442C256.793 66.7666 256.132 66.5103 255.188 66.3754L253.084 66.0922C250.791 65.7955 249.038 65.1481 247.824 64.15C246.637 63.125 246.044 61.6414 246.044 59.6993C246.044 58.6742 246.232 57.7571 246.61 56.9479C246.988 56.1117 247.527 55.4103 248.228 54.8439C248.93 54.2504 249.766 53.8053 250.737 53.5086C251.735 53.1849 252.841 53.0231 254.055 53.0231C255.08 53.0231 255.984 53.104 256.766 53.2659C257.575 53.4007 258.303 53.6165 258.951 53.9132C259.598 54.183 260.192 54.5337 260.731 54.9652C261.271 55.3699 261.797 55.8284 262.309 56.3409L259.274 59.3756C258.654 58.7282 257.912 58.1887 257.049 57.7571C256.186 57.3255 255.242 57.1097 254.217 57.1097C253.084 57.1097 252.261 57.312 251.749 57.7166C251.263 58.1213 251.02 58.6473 251.02 59.2946C251.02 59.996 251.223 60.5355 251.627 60.9131C252.059 61.2638 252.774 61.52 253.772 61.6819L255.916 61.9651C260.475 62.6125 262.754 64.6895 262.754 68.1962C262.754 69.2212 262.538 70.1653 262.107 71.0285C261.702 71.8647 261.122 72.593 260.367 73.2134C259.612 73.8069 258.695 74.2789 257.616 74.6296C256.564 74.9533 255.377 75.1151 254.055 75.1151Z" fill="white"/>
<path d="M145.683 61.118C145.099 60.3005 132.603 44.1838 115.552 40.4466C121.392 23.746 114.501 4.35922 114.151 3.42492L112.866 0.0380859L109.246 0.505229C108.195 0.622017 86.1217 3.30813 74.3262 18.0234C62.6474 3.30813 40.4578 0.622017 39.4067 0.505229L35.7863 0.0380859L34.5016 3.42492C34.1513 4.35922 27.2608 23.6292 33.1002 40.4466C16.0492 44.1838 3.5529 60.3005 2.96897 61.118L0.75 63.9209L2.96897 66.7238C3.5529 67.5413 16.0492 83.658 33.1002 87.3952C27.2608 104.096 34.1513 123.483 34.5016 124.417L35.7863 127.804L39.4067 127.337C40.4578 127.22 62.5306 124.534 74.3262 109.818C86.0049 124.534 108.195 127.22 109.246 127.337L112.866 127.804L114.151 124.417C114.501 123.483 121.392 104.213 115.552 87.3952C132.603 83.658 145.099 67.5413 145.683 66.7238L147.902 63.9209L145.683 61.118ZM109.713 5.05994C109.713 5.05994 116.72 24.2131 110.881 39.7459C110.18 39.7459 109.362 39.6291 108.662 39.6291C103.056 39.6291 97.6837 41.1473 93.0122 43.483C89.7422 40.5634 85.8882 38.4612 81.8006 37.2933C81.3334 32.1547 79.932 26.8992 77.1291 21.9941C87.4064 7.62926 109.713 5.05994 109.713 5.05994ZM74.3262 100.943C72.9247 97.9061 72.1072 94.636 71.7569 91.4828C72.5744 91.5995 73.3919 91.5995 74.2094 91.5995H74.3262C75.1437 91.5995 75.9612 91.5995 76.8955 91.4828C76.4284 94.636 75.6108 97.9061 74.3262 100.943ZM74.443 86.928C74.3262 86.928 74.3262 86.928 74.443 86.928C74.3262 86.928 74.3262 86.928 74.3262 86.928C61.7131 86.928 51.4358 76.5339 51.4358 63.9209C51.4358 51.4246 61.7131 41.1473 74.443 41.1473H74.5598C87.1728 41.2641 97.4501 51.5414 97.3333 64.2713C97.2166 76.6507 86.9392 86.928 74.443 86.928ZM48.7497 53.6436C45.3629 51.191 42.3264 48.1546 39.9906 44.4174C44.4286 44.4174 48.5161 45.5852 52.3701 47.2203C50.9687 49.0889 49.684 51.3078 48.7497 53.6436ZM52.3701 80.7383C48.5161 82.3733 44.4286 83.5412 39.9906 83.5412C42.2096 79.804 45.3629 76.7675 48.6329 74.315C49.684 76.6508 50.8519 78.7529 52.3701 80.7383ZM74.3262 27.016C75.7276 30.0525 76.5452 33.3225 76.8955 36.4758C76.078 36.359 75.2605 36.359 74.443 36.359H74.3262C73.3919 36.359 72.5744 36.359 71.7569 36.4758C72.1072 33.2057 72.9247 30.0525 74.3262 27.016ZM99.9027 74.315C103.29 76.7675 106.326 79.804 108.662 83.5412C104.341 83.5412 100.136 82.3733 96.2822 80.7383C97.6837 78.7529 98.9684 76.6508 99.9027 74.315ZM96.2822 47.2203C100.136 45.5852 104.224 44.4174 108.662 44.4174C106.443 48.1546 103.29 51.191 100.019 53.6436C98.9684 51.3078 97.8005 49.2057 96.2822 47.2203ZM38.9395 5.05994C38.9395 5.05994 61.246 7.62927 71.5233 22.1109C68.7204 26.8992 67.4357 32.1547 66.8518 37.4101C62.6474 38.578 58.7934 40.6802 55.6402 43.5998C50.8519 41.2641 45.5964 39.7459 39.8738 39.7459C39.1731 39.7459 38.3556 39.7459 37.6549 39.8627C31.9323 24.2131 38.9395 5.05994 38.9395 5.05994ZM6.70617 63.9209C6.70617 63.9209 18.9689 47.8042 34.9688 44.7677C35.3191 45.4684 35.6695 46.0524 36.0199 46.7531C38.9395 51.6582 42.9103 55.3954 47.2315 58.1983C46.8811 59.9501 46.6475 61.8187 46.6475 63.6873C46.6475 65.6727 46.8811 67.6581 47.2315 69.5267C42.9103 72.4464 38.8228 76.1836 35.9031 80.9719C35.5527 81.5558 35.2023 82.2565 34.852 82.9573C18.9689 80.0376 6.70617 63.9209 6.70617 63.9209ZM38.9395 122.782C38.9395 122.782 31.9323 103.629 37.7717 88.0959C38.4724 88.0959 39.2899 88.2127 39.9906 88.2127C45.5964 88.2127 50.9687 86.6945 55.6402 84.3587C58.9102 87.2784 62.7642 89.3806 66.8518 90.5485C67.3189 95.6871 68.7204 100.943 71.5233 105.731C61.246 120.212 38.9395 122.782 38.9395 122.782ZM109.713 122.782C109.713 122.782 87.4064 120.213 77.1291 105.848C79.932 101.059 81.2167 95.8039 81.8006 90.5485C86.0049 89.3806 89.8589 87.1616 93.0122 84.3587C97.8005 86.6945 103.056 88.2127 108.662 88.2127C109.362 88.2127 110.18 88.2127 110.881 88.0959C116.72 103.629 109.713 122.782 109.713 122.782ZM113.684 83.0741C113.333 82.3733 112.983 81.7894 112.633 81.0887C109.713 76.1836 105.742 72.4464 101.304 69.6435C101.654 67.8917 101.888 66.0231 101.888 64.1545C101.888 62.1691 101.654 60.1837 101.304 58.1983C105.625 55.2786 109.713 51.5414 112.633 46.7531C112.983 46.1692 113.333 45.4684 113.684 44.7677C129.684 47.8042 141.946 63.9209 141.946 63.9209C141.946 63.9209 129.684 80.0376 113.684 83.0741Z" fill="white"/>
<path d="M84.2531 49.7895L84.4867 49.5559C83.786 48.7384 82.7349 48.2712 81.4502 48.2712C79.2313 48.1544 77.3627 49.2055 75.8444 51.3077C74.5598 52.9427 73.9758 54.9281 73.5087 56.7967L73.3919 57.1471C73.2751 57.4975 73.1583 57.9646 73.0415 58.4318V58.5486L66.5014 57.6142L66.1511 60.4171L72.3408 61.3514L71.7569 63.6872L65.6839 62.8697L65.3335 65.6726L71.1729 66.6069C71.0561 67.1908 70.9393 67.7748 70.7058 68.4755V68.5923C70.2386 70.4609 69.7715 72.4463 69.3043 74.3149C68.954 75.7163 68.37 76.6506 67.5525 77.3513C67.3189 77.5849 67.0854 77.7017 66.8518 77.7017C66.5014 77.7017 66.1511 77.5849 65.9175 77.2346C65.9175 77.1178 65.8007 77.1178 65.8007 77.001V76.8842C65.5671 76.5338 65.3335 76.1835 64.9832 75.9499C64.6328 75.7163 64.1657 75.5995 63.6985 75.5995C63.4649 75.5995 63.3482 75.7163 63.2314 75.8331C62.7642 76.1835 62.5306 76.8842 62.5306 77.4681C62.5306 78.0521 62.9978 78.5192 63.4649 78.8696C64.2825 79.4535 65.2168 79.8039 66.2678 79.8039H66.5014C66.8518 79.8039 67.2021 79.8039 67.5525 79.6871C69.6547 79.2199 71.4065 77.9353 72.4576 75.8331C73.1583 74.3149 73.7422 72.6798 74.2094 71.1616C74.5598 70.1105 74.7933 69.1762 75.0269 68.1251V68.0083C75.1437 67.7747 75.1437 67.5412 75.2605 67.3076L81.4502 68.2419L82.2677 65.439L75.9612 64.5047L76.4284 62.0522L81.8006 62.8697H82.2677L82.9685 60.1836L76.8955 59.2493C77.0123 58.7821 77.1291 58.1982 77.3627 57.731C77.8298 56.096 78.297 54.3442 78.8809 52.7092C79.1145 52.1252 79.4648 51.5413 80.1656 50.8406C80.3991 50.607 80.5159 50.4902 80.7495 50.4902C81.0999 50.4902 81.4502 50.607 81.6838 50.9574L81.8006 51.1909C82.0342 51.5413 82.2677 51.7749 82.5013 52.1252C82.6181 52.242 82.7349 52.3588 82.9685 52.4756C83.5524 52.8259 84.2531 52.7092 84.7203 52.3588C85.0706 52.0084 85.1874 51.4245 85.1874 50.8406V50.7238C85.1874 50.3734 84.9539 50.0231 84.7203 49.7895H84.2531Z" fill="white"/>
</svg>
