<svg width="163" height="142" viewBox="0 0 163 142" fill="none" xmlns="http://www.w3.org/2000/svg">
<path d="M122.374 94.8104C100.319 94.8104 82.4164 71.3942 82.4164 71.3942C82.4164 71.3942 100.251 47.91 122.374 47.91C144.496 47.91 162.331 71.3262 162.331 71.3262C162.331 71.3262 144.428 94.8104 122.374 94.8104Z" fill="#716EE0"/>
<path d="M40.2809 94.8104C18.2262 94.8104 0.323761 71.3942 0.323761 71.3942C0.323761 71.3942 18.2262 47.91 40.2809 47.91C62.3357 47.91 80.2381 71.3262 80.2381 71.3262C80.2381 71.3262 62.3357 94.8104 40.2809 94.8104Z" fill="#2CDBBE"/>
<path d="M40.2809 47.978C51.8529 67.1738 80.7827 70.4412 80.7827 70.4412C80.7827 70.4412 90.9932 42.6005 79.4893 23.4047C67.9855 4.2089 38.9195 0.941528 38.9195 0.941528C38.9195 0.941528 28.709 28.7822 40.2809 47.978Z" fill="#4DF4E0"/>
<path d="M83.1651 119.316C94.737 138.511 123.667 141.779 123.667 141.779C123.667 141.779 133.877 113.938 122.374 94.7423C110.87 75.5465 81.8718 72.2792 81.8718 72.2792C81.8718 72.2792 71.6613 100.12 83.1651 119.316Z" fill="#807CF7"/>
<path d="M122.374 47.978C110.802 67.1738 81.8718 70.4412 81.8718 70.4412C81.8718 70.4412 71.6613 42.6005 83.1652 23.4047C94.669 4.2089 123.667 0.941528 123.667 0.941528C123.667 0.941528 133.877 28.7822 122.374 47.978Z" fill="#5C57BC"/>
<path d="M79.4213 119.316C67.8493 138.511 38.9195 141.779 38.9195 141.779C38.9195 141.779 28.709 113.938 40.2129 94.7423C51.7167 75.5465 80.7146 72.2792 80.7146 72.2792C80.7146 72.2792 90.9251 100.12 79.4213 119.316Z" fill="#18B4C4"/>
<path d="M81.6676 68.6034C83.4374 62.6813 88.4746 42.8048 81.2592 27.0126C74.3841 42.941 78.8086 62.4771 81.6676 68.6034Z" fill="#27BA9E"/>
<path d="M40.2809 94.8104C59.4087 94.6062 75.1329 76.908 79.0809 72.1431C73.0227 73.1641 50.083 78.1332 40.2809 94.8104Z" fill="#169FA5"/>
<path d="M40.2809 47.91C50.4234 64.451 73.1588 69.6244 79.4894 69.7605C75.4732 65.1317 59.3406 47.7058 40.2809 47.91Z" fill="#27BABA"/>
<path d="M83.1651 72.9598C87.1813 77.6567 103.314 95.0146 122.374 94.8104C112.231 78.3374 89.768 72.9598 83.1651 72.9598Z" fill="#5D5DCE"/>
<path d="M83.5736 70.5774C89.5637 69.5563 112.503 64.5872 122.374 47.91C103.314 48.1142 87.5216 65.8125 83.5736 70.5774Z" fill="#4545A3"/>
<path d="M81.3272 115.708C88.2704 99.7795 83.4374 79.5627 80.9188 74.1171C79.0809 79.9711 74.0437 99.9157 81.3272 115.708Z" fill="#6969E2"/>
<path d="M81.1911 43.8938C65.9434 43.8258 53.6227 56.1465 53.5546 71.19C53.4865 86.4377 65.8753 98.8264 80.9869 98.7584C96.0984 98.8264 108.351 86.5058 108.419 71.5303C108.555 56.3507 96.2346 44.03 81.1911 43.8938Z" fill="white"/>
<path d="M93.4437 56.7591C93.1034 57.0995 92.5588 57.0314 92.1504 56.8272C92.0142 56.7591 91.8781 56.623 91.742 56.5549C91.3335 56.2146 91.0613 55.7381 90.7209 55.3297C90.2444 54.717 89.5637 54.3767 88.9511 54.4447C88.5427 54.5128 88.2023 54.649 87.862 55.0574C87.1813 55.7381 86.5005 56.623 86.2283 57.576C85.3434 60.3669 84.5946 63.2258 83.7777 66.1528C86.2963 66.4932 88.6107 66.8335 91.0613 67.2419C90.857 67.9226 90.7209 68.5353 90.5167 69.284C88.1342 68.9437 85.8198 68.6033 83.5055 68.263C83.2332 69.6925 82.9609 70.9858 82.6206 72.4153C85.1392 72.7556 87.5897 73.164 90.1763 73.5044C89.9721 74.1851 89.7679 74.7977 89.5637 75.5465C89.1553 75.4784 88.7469 75.4104 88.3384 75.3423C86.7048 75.1381 85.0711 74.8658 83.4374 74.6616C83.029 74.5935 82.6206 74.5254 82.2121 74.4574C81.7356 76.2272 81.3953 77.997 80.7827 79.6307C80.17 81.4686 79.5574 83.3746 78.6725 85.0763C77.5834 87.3226 75.8135 88.8882 73.2949 89.3647C72.8865 89.4328 72.5462 89.5009 72.2058 89.5009C71.1167 89.569 70.0276 89.2967 69.0746 88.5479C68.7342 88.2756 68.3258 87.7311 68.2578 87.3226C68.2578 86.8461 68.462 86.1654 68.8704 85.8932C68.9385 85.8251 69.0065 85.8251 69.1427 85.8251C69.483 85.8251 69.9595 85.8932 70.2318 86.0974C70.7083 86.4377 70.9806 86.9823 71.3209 87.4588C71.7974 88.1395 72.41 88.4118 73.0907 88.3437C73.4992 88.2756 73.8395 88.1395 74.2479 87.7991C75.4732 86.7781 76.1539 85.3486 76.4942 83.8511C77.3111 80.7198 77.9918 77.5886 78.7406 74.4574C78.7406 74.3212 78.7406 74.1851 78.7406 73.9128C76.4262 73.5725 74.1118 73.2321 71.7293 72.8237C71.7974 72.143 71.8655 71.5304 72.0016 70.7816C74.3841 71.1219 76.6985 71.4623 79.2171 71.8026C79.5574 70.4412 79.8297 69.0798 80.17 67.6504C77.6514 67.2419 75.2009 66.9016 72.6142 66.4932C72.6823 65.8125 72.8185 65.1318 72.8865 64.4511C75.4732 64.7914 77.9918 65.1998 80.5785 65.5402C80.7827 64.7914 80.9869 64.0426 81.1911 63.3619C81.9399 60.9795 82.5525 58.529 84.05 56.4869C85.5476 54.4447 87.5216 53.0153 90.1763 53.1514C91.4016 53.2195 92.5588 53.5598 93.3756 54.5128C93.5798 54.717 93.7841 54.9893 93.7841 55.1935C93.7841 55.8062 93.7841 56.4869 93.4437 56.7591Z" fill="#5C57BC" stroke="#5C57BC" stroke-miterlimit="10"/>
</svg>
