<svg width="120" height="140" viewBox="0 0 120 140" fill="none" xmlns="http://www.w3.org/2000/svg">
<path d="M89.9097 69.8309C73.7005 69.8309 60.5431 52.6211 60.5431 52.6211C60.5431 52.6211 73.6505 35.3613 89.9097 35.3613C106.169 35.3613 119.276 52.5711 119.276 52.5711C119.276 52.5711 106.119 69.8309 89.9097 69.8309Z" fill="#716EE0"/>
<path d="M29.5755 69.8309C13.3663 69.8309 0.208862 52.6211 0.208862 52.6211C0.208862 52.6211 13.3663 35.3613 29.5755 35.3613C45.7847 35.3613 58.9422 52.5711 58.9422 52.5711C58.9422 52.5711 45.7847 69.8309 29.5755 69.8309Z" fill="#2CDBBE"/>
<path d="M29.5755 35.4114C38.0803 49.5194 59.3424 51.9207 59.3424 51.9207C59.3424 51.9207 66.8466 31.4591 58.3918 17.3512C49.937 3.24316 28.5749 0.841797 28.5749 0.841797C28.5749 0.841797 21.0707 21.3034 29.5755 35.4114Z" fill="#4DF4E0"/>
<path d="M61.0934 87.8411C69.5982 101.949 90.8602 104.35 90.8602 104.35C90.8602 104.35 98.3645 83.8888 89.9097 69.7808C81.4549 55.6728 60.1428 53.2715 60.1428 53.2715C60.1428 53.2715 52.6386 73.7331 61.0934 87.8411Z" fill="#807CF7"/>
<path d="M89.9097 35.4114C81.4049 49.5194 60.1429 51.9207 60.1429 51.9207C60.1429 51.9207 52.6386 31.4591 61.0934 17.3512C69.5482 3.24316 90.8603 0.841797 90.8603 0.841797C90.8603 0.841797 98.3645 21.3034 89.9097 35.4114Z" fill="#5C57BC"/>
<path d="M58.3418 87.8411C49.837 101.949 28.575 104.35 28.575 104.35C28.575 104.35 21.0707 83.8888 29.5255 69.7808C37.9803 55.6728 59.2924 53.2715 59.2924 53.2715C59.2924 53.2715 66.7966 73.7331 58.3418 87.8411Z" fill="#18B4C4"/>
<path d="M59.9927 50.57C61.2935 46.2175 64.9956 31.6093 59.6926 20.0027C54.6397 31.7093 57.8915 46.0675 59.9927 50.57Z" fill="#27BA9E"/>
<path d="M29.5755 69.8308C43.6335 69.6807 55.19 56.6734 58.0917 53.1714C53.6391 53.9218 36.7796 57.5739 29.5755 69.8308Z" fill="#169FA5"/>
<path d="M29.5755 35.3614C37.0297 47.5183 53.7392 51.3205 58.3918 51.4205C55.4402 48.0186 43.5834 35.2113 29.5755 35.3614Z" fill="#27BABA"/>
<path d="M61.0934 53.7717C64.045 57.2237 75.9017 69.9809 89.9097 69.8308C82.4555 57.724 65.9461 53.7717 61.0934 53.7717Z" fill="#5D5DCE"/>
<path d="M61.3935 52.0208C65.796 51.2703 82.6556 47.6183 89.9097 35.3613C75.9017 35.5114 64.2952 48.5188 61.3935 52.0208Z" fill="#4545A3"/>
<path d="M59.7426 85.1896C64.8455 73.483 61.2935 58.6246 59.4424 54.6223C58.0917 58.9248 54.3896 73.5831 59.7426 85.1896Z" fill="#6969E2"/>
<path d="M59.6425 32.4096C48.4362 32.3596 39.381 41.4147 39.331 52.471C39.281 63.6774 48.3861 72.7825 59.4924 72.7325C70.5987 72.7825 79.6038 63.7274 79.6539 52.7211C79.7539 41.5648 70.6988 32.5097 59.6425 32.4096Z" fill="white"/>
<path d="M68.6476 41.8651C68.3975 42.1153 67.9973 42.0652 67.6971 41.9151C67.597 41.8651 67.497 41.7651 67.3969 41.715C67.0968 41.4649 66.8966 41.1147 66.6465 40.8145C66.2963 40.3643 65.796 40.1141 65.3458 40.1642C65.0456 40.2142 64.7955 40.3142 64.5453 40.6144C64.045 41.1147 63.5447 41.7651 63.3446 42.4655C62.6943 44.5166 62.144 46.6178 61.5436 48.769C63.3947 49.0192 65.0956 49.2693 66.8966 49.5695C66.7466 50.0698 66.6465 50.52 66.4964 51.0703C64.7454 50.8202 63.0445 50.5701 61.3435 50.3199C61.1434 51.3705 60.9433 52.321 60.6931 53.3716C62.5442 53.6218 64.3452 53.922 66.2463 54.1721C66.0962 54.6724 65.9461 55.1226 65.796 55.6729C65.4959 55.6229 65.1957 55.5729 64.8955 55.5229C63.6948 55.3728 62.4942 55.1727 61.2935 55.0226C60.9933 54.9725 60.6931 54.9225 60.393 54.8725C60.0428 56.1732 59.7926 57.474 59.3424 58.6746C58.8921 60.0254 58.4419 61.4262 57.7915 62.6769C56.991 64.3278 55.6903 65.4785 53.8392 65.8287C53.5391 65.8787 53.2889 65.9288 53.0388 65.9288C52.2383 65.9788 51.4379 65.7787 50.7375 65.2284C50.4873 65.0282 50.1872 64.628 50.1371 64.3279C50.1371 63.9777 50.2872 63.4774 50.5874 63.2773C50.6374 63.2272 50.6875 63.2272 50.7875 63.2272C51.0377 63.2272 51.3879 63.2773 51.588 63.4273C51.9382 63.6775 52.1383 64.0777 52.3884 64.4279C52.7386 64.9282 53.1889 65.1283 53.6892 65.0783C53.9893 65.0282 54.2395 64.9282 54.5396 64.678C55.4402 63.9276 55.9404 62.877 56.1906 61.7764C56.7909 59.4751 57.2912 57.1738 57.8415 54.8725C57.8415 54.7724 57.8415 54.6724 57.8415 54.4723C56.1405 54.2221 54.4396 53.972 52.6886 53.6718C52.7386 53.1715 52.7886 52.7213 52.8887 52.171C54.6397 52.4211 56.3407 52.6712 58.1917 52.9214C58.4419 51.9208 58.642 50.9203 58.8921 49.8697C57.0411 49.5695 55.24 49.3193 53.339 49.0192C53.389 48.5189 53.489 48.0186 53.5391 47.5183C55.4402 47.7685 57.2912 48.0686 59.1923 48.3188C59.3424 47.7685 59.4924 47.2182 59.6425 46.7179C60.1928 44.9669 60.6431 43.1659 61.7437 41.665C62.8443 40.1642 64.2952 39.1136 66.2463 39.2136C67.1468 39.2636 67.9973 39.5138 68.5976 40.2142C68.7477 40.3643 68.8978 40.5644 68.8978 40.7145C68.8978 41.1647 68.8978 41.665 68.6476 41.8651Z" fill="#5C57BC" stroke="#5C57BC" stroke-miterlimit="10"/>
<path d="M36.044 138.867C34.953 138.867 34.1513 138.594 33.6389 138.048C33.1265 137.503 32.8703 136.734 32.8703 135.742V120.518H36.044V136.337H37.7549V138.867H36.044Z" fill="white"/>
<path d="M45.2911 139.164C44.3655 139.164 43.5307 139.007 42.7869 138.693C42.0595 138.379 41.4314 137.924 40.9024 137.329C40.39 136.734 39.9933 136.023 39.7123 135.197C39.4313 134.354 39.2908 133.412 39.2908 132.37C39.2908 131.329 39.4313 130.395 39.7123 129.568C39.9933 128.742 40.39 128.039 40.9024 127.461C41.4314 126.866 42.0595 126.411 42.7869 126.097C43.5307 125.783 44.3655 125.626 45.2911 125.626C46.2168 125.626 47.0516 125.783 47.7954 126.097C48.5393 126.411 49.1674 126.866 49.6798 127.461C50.2088 128.039 50.6138 128.742 50.8948 129.568C51.1758 130.395 51.3163 131.329 51.3163 132.37C51.3163 133.412 51.1758 134.354 50.8948 135.197C50.6138 136.023 50.2088 136.734 49.6798 137.329C49.1674 137.924 48.5393 138.379 47.7954 138.693C47.0516 139.007 46.2168 139.164 45.2911 139.164ZM45.2911 136.61C46.1342 136.61 46.7954 136.354 47.2747 135.842C47.7541 135.329 47.9938 134.577 47.9938 133.585V131.18C47.9938 130.205 47.7541 129.461 47.2747 128.949C46.7954 128.436 46.1342 128.18 45.2911 128.18C44.4646 128.18 43.8117 128.436 43.3323 128.949C42.853 129.461 42.6133 130.205 42.6133 131.18V133.585C42.6133 134.577 42.853 135.329 43.3323 135.842C43.8117 136.354 44.4646 136.61 45.2911 136.61Z" fill="white"/>
<path d="M58.0746 138.867C56.9837 138.867 56.1489 138.585 55.5703 138.023C55.0083 137.445 54.7273 136.627 54.7273 135.569V128.453H52.8181V125.924H53.8099C54.2893 125.924 54.6116 125.816 54.7769 125.601C54.9587 125.37 55.0497 125.031 55.0497 124.585V122.378H57.9011V125.924H60.5541V128.453H57.9011V136.337H60.3558V138.867H58.0746Z" fill="white"/>
<path d="M71.0429 136.709H70.9189C70.8032 137.04 70.6462 137.354 70.4478 137.652C70.266 137.933 70.0263 138.189 69.7288 138.42C69.4478 138.652 69.1007 138.833 68.6874 138.966C68.2907 139.098 67.8278 139.164 67.2989 139.164C65.96 139.164 64.9351 138.726 64.2243 137.85C63.5135 136.974 63.1581 135.726 63.1581 134.106V125.924H66.3319V133.784C66.3319 134.676 66.5055 135.362 66.8526 135.842C67.1997 136.304 67.7535 136.536 68.5138 136.536C68.8279 136.536 69.1337 136.494 69.4312 136.412C69.7453 136.329 70.0181 136.205 70.2495 136.04C70.4809 135.858 70.671 135.643 70.8198 135.395C70.9685 135.131 71.0429 134.825 71.0429 134.478V125.924H74.2167V138.867H71.0429V136.709Z" fill="white"/>
<path d="M82.1235 139.164C80.8838 139.164 79.8424 138.957 78.9993 138.544C78.1563 138.114 77.4125 137.528 76.7678 136.784L78.7018 134.899C79.1812 135.445 79.7019 135.875 80.2639 136.189C80.8424 136.503 81.5036 136.66 82.2475 136.66C83.0079 136.66 83.5533 136.528 83.8839 136.263C84.2311 135.999 84.4046 135.635 84.4046 135.172C84.4046 134.792 84.2807 134.494 84.0327 134.279C83.8013 134.048 83.3963 133.891 82.8178 133.808L81.5284 133.635C80.1234 133.453 79.0489 133.056 78.3051 132.445C77.5778 131.816 77.2141 130.907 77.2141 129.717C77.2141 129.089 77.3298 128.527 77.5612 128.031C77.7927 127.519 78.1233 127.089 78.553 126.742C78.9828 126.378 79.4952 126.105 80.0903 125.924C80.7019 125.725 81.3797 125.626 82.1235 125.626C82.7516 125.626 83.3054 125.676 83.7848 125.775C84.2807 125.857 84.727 125.99 85.1237 126.172C85.5204 126.337 85.8841 126.552 86.2147 126.816C86.5453 127.064 86.8676 127.345 87.1817 127.659L85.322 129.519C84.9418 129.122 84.4873 128.792 83.9583 128.527C83.4294 128.263 82.8508 128.13 82.2227 128.13C81.5284 128.13 81.0243 128.254 80.7102 128.502C80.4127 128.75 80.2639 129.073 80.2639 129.469C80.2639 129.899 80.3879 130.23 80.6358 130.461C80.9003 130.676 81.3383 130.833 81.9499 130.932L83.2641 131.106C86.0576 131.502 87.4544 132.775 87.4544 134.924C87.4544 135.552 87.3222 136.131 87.0577 136.66C86.8097 137.172 86.4543 137.618 85.9915 137.999C85.5287 138.362 84.9666 138.652 84.3054 138.867C83.6608 139.065 82.9335 139.164 82.1235 139.164Z" fill="white"/>
</svg>
