<svg width="130" height="150" viewBox="0 0 130 150" fill="none" xmlns="http://www.w3.org/2000/svg">
<path d="M39.1135 149.432C37.9305 149.432 37.0612 149.137 36.5056 148.545C35.95 147.954 35.6722 147.12 35.6722 146.045V129.537H39.1135V146.69H40.9685V149.432H39.1135Z" fill="white"/>
<path d="M49.1401 149.755C48.1364 149.755 47.2313 149.585 46.4247 149.244C45.6361 148.904 44.955 148.411 44.3815 147.765C43.8258 147.12 43.3957 146.349 43.091 145.453C42.7863 144.539 42.6339 143.518 42.6339 142.388C42.6339 141.259 42.7863 140.247 43.091 139.35C43.3957 138.454 43.8258 137.692 44.3815 137.065C44.955 136.42 45.6361 135.927 46.4247 135.586C47.2313 135.246 48.1364 135.076 49.1401 135.076C50.1438 135.076 51.049 135.246 51.8555 135.586C52.6621 135.927 53.3431 136.42 53.8988 137.065C54.4723 137.692 54.9114 138.454 55.2161 139.35C55.5208 140.247 55.6732 141.259 55.6732 142.388C55.6732 143.518 55.5208 144.539 55.2161 145.453C54.9114 146.349 54.4723 147.12 53.8988 147.765C53.3431 148.411 52.6621 148.904 51.8555 149.244C51.049 149.585 50.1438 149.755 49.1401 149.755ZM49.1401 146.986C50.0542 146.986 50.7711 146.708 51.2909 146.152C51.8107 145.597 52.0706 144.781 52.0706 143.706V141.098C52.0706 140.04 51.8107 139.234 51.2909 138.678C50.7711 138.123 50.0542 137.845 49.1401 137.845C48.2439 137.845 47.536 138.123 47.0162 138.678C46.4964 139.234 46.2365 140.04 46.2365 141.098V143.706C46.2365 144.781 46.4964 145.597 47.0162 146.152C47.536 146.708 48.2439 146.986 49.1401 146.986Z" fill="white"/>
<path d="M63.0012 149.432C61.8183 149.432 60.9132 149.128 60.2859 148.518C59.6765 147.891 59.3718 147.004 59.3718 145.857V138.141H57.3016V135.398H58.377C58.8968 135.398 59.2463 135.282 59.4255 135.049C59.6227 134.798 59.7213 134.43 59.7213 133.946V131.554H62.8131V135.398H65.6898V138.141H62.8131V146.69H65.4747V149.432H63.0012Z" fill="white"/>
<path d="M77.0628 147.093H76.9283C76.8029 147.452 76.6326 147.792 76.4175 148.115C76.2204 148.42 75.9605 148.697 75.6378 148.948C75.3332 149.199 74.9568 149.396 74.5087 149.54C74.0785 149.683 73.5767 149.755 73.0031 149.755C71.5513 149.755 70.4401 149.28 69.6694 148.33C68.8987 147.38 68.5133 146.027 68.5133 144.27V135.398H71.9546V143.921C71.9546 144.889 72.1428 145.633 72.5192 146.152C72.8956 146.654 73.496 146.905 74.3205 146.905C74.661 146.905 74.9926 146.86 75.3152 146.771C75.6558 146.681 75.9515 146.547 76.2024 146.367C76.4534 146.17 76.6595 145.937 76.8208 145.668C76.9821 145.382 77.0628 145.05 77.0628 144.674V135.398H80.5041V149.432H77.0628V147.093Z" fill="white"/>
<path d="M89.0774 149.755C87.7332 149.755 86.604 149.531 85.6899 149.083C84.7758 148.617 83.9693 147.98 83.2703 147.174L85.3673 145.131C85.8871 145.722 86.4517 146.188 87.0611 146.529C87.6884 146.869 88.4053 147.039 89.2119 147.039C90.0363 147.039 90.6278 146.896 90.9863 146.609C91.3627 146.323 91.5509 145.928 91.5509 145.426C91.5509 145.014 91.4164 144.692 91.1476 144.459C90.8967 144.208 90.4575 144.037 89.8302 143.948L88.4322 143.76C86.9087 143.562 85.7437 143.132 84.9371 142.469C84.1485 141.788 83.7542 140.802 83.7542 139.512C83.7542 138.831 83.8797 138.221 84.1306 137.683C84.3815 137.128 84.74 136.662 85.206 136.285C85.672 135.891 86.2276 135.595 86.8729 135.398C87.536 135.183 88.2709 135.076 89.0774 135.076C89.7585 135.076 90.359 135.129 90.8787 135.237C91.4165 135.327 91.9004 135.47 92.3305 135.667C92.7607 135.846 93.155 136.079 93.5135 136.366C93.8719 136.635 94.2215 136.94 94.562 137.28L92.5456 139.297C92.1334 138.866 91.6405 138.508 91.0669 138.221C90.4934 137.934 89.8661 137.791 89.185 137.791C88.4322 137.791 87.8855 137.925 87.545 138.194C87.2224 138.463 87.0611 138.813 87.0611 139.243C87.0611 139.709 87.1955 140.067 87.4643 140.318C87.7511 140.551 88.2261 140.721 88.8892 140.829L90.3142 141.017C93.3432 141.447 94.8577 142.827 94.8577 145.158C94.8577 145.839 94.7143 146.466 94.4276 147.039C94.1587 147.595 93.7734 148.079 93.2715 148.491C92.7697 148.886 92.1603 149.199 91.4433 149.432C90.7443 149.647 89.9557 149.755 89.0774 149.755Z" fill="white"/>
<path d="M127.396 53.6817C126.854 53.0307 115.896 38.8726 100.979 35.5636C106.078 20.863 100.002 3.93836 99.7311 3.12468L98.6462 0.0869141L95.4457 0.466634C94.5778 0.575126 75.1036 2.90769 64.8511 15.8182C54.5444 2.96194 35.0702 0.629371 34.2023 0.52088L31.0018 0.14116L29.9169 3.17892C29.5914 3.99261 23.5159 20.9173 28.615 35.6179C13.6432 38.8726 2.68552 53.0308 2.19731 53.7359L0.298706 56.177L2.19731 58.6723C2.73976 59.3233 13.6974 73.4814 28.615 76.7904C23.5159 91.491 29.5914 108.416 29.8626 109.229L30.9475 112.267L34.148 111.887C35.016 111.779 54.4902 109.446 64.7426 96.5358C74.9951 109.446 94.4151 111.833 95.3372 111.887L98.5377 112.267L99.6227 109.229C99.8939 108.416 106.024 91.491 100.87 76.7904C115.842 73.5356 126.8 59.3775 127.288 58.6723L129.187 56.177L127.396 53.6817ZM95.8255 4.58931C95.8255 4.58931 102.009 21.4055 96.8019 35.0212C96.1509 34.9669 95.5 34.9669 94.849 34.9669C89.9127 34.9669 85.2475 36.3231 81.0706 38.3302C78.2498 35.7264 74.8866 33.882 71.2521 32.9056C70.8182 28.4032 69.6248 23.7381 67.1837 19.5069C76.2427 6.81339 95.8255 4.58931 95.8255 4.58931ZM64.7969 88.6702C63.6035 86.0122 62.8983 83.1371 62.5186 80.3164C63.2238 80.3706 63.9832 80.4249 64.6884 80.4249H64.8511C65.6106 80.4249 66.3158 80.3706 67.0752 80.3164C66.6955 83.1371 65.9903 85.9579 64.7969 88.6702ZM64.8511 76.3022H64.7426C53.6765 76.3022 44.6717 67.2431 44.6717 56.0685C44.726 45.0566 53.6765 36.0518 64.7969 36.0518C64.8511 36.0518 64.9054 36.0518 64.9054 36.0518C75.9173 36.1061 84.9763 45.1109 84.8678 56.3397C84.8136 67.2974 75.9173 76.3022 64.8511 76.3022ZM42.3392 47.118C39.4099 45.0024 36.6976 42.3443 34.6905 39.0353C38.542 39.0353 42.1764 40.0118 45.5397 41.4764C44.292 43.158 43.1528 45.0566 42.3392 47.118ZM45.5397 70.9318C42.1764 72.3965 38.542 73.3729 34.6905 73.3729C36.6976 70.0639 39.3556 67.4601 42.3392 65.2903C43.1528 67.2974 44.2378 69.196 45.5397 70.9318ZM64.7969 23.7381C65.9903 26.3961 66.6955 29.2711 67.0752 32.0919C66.37 32.0377 65.6648 31.9834 64.9596 31.9834H64.7969C64.0375 31.9834 63.278 32.0377 62.5186 32.0919C62.8983 29.2711 63.6035 26.3961 64.7969 23.7381ZM87.2004 65.2903C90.1297 67.4059 92.8419 70.0639 94.849 73.3729C90.9976 73.3729 87.3631 72.3965 83.9999 70.9318C85.3018 69.196 86.3867 67.2974 87.2004 65.2903ZM83.9999 41.4764C87.3631 40.0118 90.9976 39.0353 94.849 39.0353C92.8419 42.3443 90.1839 44.9481 87.2004 47.118C86.4409 45.0566 85.356 43.2123 83.9999 41.4764ZM33.7683 4.58931C33.7683 4.58931 53.351 6.81338 62.3558 19.4526C59.9148 23.6838 58.7214 28.3489 58.2874 32.8513C54.5987 33.882 51.2355 35.7806 48.5232 38.2759C44.3462 36.2688 39.7354 34.9127 34.7448 34.9127C34.0938 34.9127 33.4429 34.9669 32.7919 34.9669C27.5843 21.3512 33.7683 4.58931 33.7683 4.58931ZM5.45205 56.177C5.45205 56.177 16.1927 42.0731 30.2424 39.4151C30.5136 40.0118 30.8391 40.5542 31.1645 41.0967C33.7141 45.3279 37.2401 48.6368 41.0373 51.1864C40.7118 52.7595 40.549 54.3869 40.549 56.0143C40.549 57.7501 40.7118 59.4317 41.0373 61.1134C37.2401 63.6629 33.7141 66.9177 31.1645 71.2031C30.8391 71.7455 30.5136 72.3422 30.2424 72.8847C16.1927 70.2809 5.45205 56.177 5.45205 56.177ZM33.7683 107.765C33.7683 107.765 27.5843 90.9485 32.7919 77.3328C33.4429 77.3871 34.0938 77.3871 34.7448 77.3871C39.6811 77.3871 44.3462 76.0309 48.5232 74.0238C51.3439 76.6276 54.7072 78.472 58.3416 79.4484C58.7756 83.9508 59.969 88.616 62.4101 92.8471C53.351 105.541 33.7683 107.765 33.7683 107.765ZM95.8255 107.765C95.8255 107.765 76.2427 105.541 67.238 92.9014C69.679 88.6702 70.8724 84.0593 71.3064 79.5027C74.9951 78.472 78.3583 76.5734 81.1249 74.0238C85.2475 76.0309 89.9127 77.4413 94.9033 77.4413C95.5542 77.4413 96.2052 77.3871 96.8561 77.3871C102.009 91.0028 95.8255 107.765 95.8255 107.765ZM99.2972 72.9389C99.026 72.3422 98.7005 71.7998 98.375 71.2573C95.8255 67.0262 92.2995 63.7172 88.5023 61.1676C88.8278 59.6487 88.9905 58.0214 88.9905 56.394C88.9905 54.6039 88.8278 52.9223 88.448 51.1864C92.2452 48.6368 95.7712 45.3821 98.3208 41.0967C98.6462 40.5542 98.9717 39.9575 99.2429 39.4151C113.293 42.0731 124.033 56.177 124.033 56.177C124.033 56.177 113.347 70.2809 99.2972 72.9389Z" fill="white"/>
<path d="M74.0729 43.809L74.2899 43.6462L74.2356 43.592C73.5847 42.8868 72.7168 42.5071 71.5234 42.4528C69.5705 42.3986 67.9431 43.2123 66.587 45.1109C65.5021 46.5755 65.0139 48.3114 64.5257 49.9387L64.4172 50.2642C64.3087 50.5897 64.2002 50.9694 64.0917 51.3491V51.4576L58.3959 50.5897L58.0704 53.0308L63.5492 53.8987L63.061 55.96L57.7449 55.2006L57.4195 57.6416L62.5728 58.4553C62.4643 58.9978 62.3016 59.5402 62.1931 60.0827L62.1389 60.1912C61.7591 61.8186 61.3794 63.5544 60.9454 65.236C60.62 66.4837 60.1318 67.2974 59.4266 67.8941C59.2096 68.0568 59.0468 68.1653 58.8299 68.1653C58.5044 68.2196 58.2332 68.0568 58.0162 67.7313C57.9619 67.6771 57.9077 67.5686 57.8534 67.5144L57.7992 67.4601C57.5822 67.1889 57.4195 66.8634 57.094 66.5922C56.8228 66.3752 56.3346 66.2667 56.0091 66.2667C55.8463 66.2667 55.6836 66.321 55.5751 66.4294C55.1954 66.7549 54.9242 67.3516 54.9784 67.8941C55.0327 68.3823 55.4124 68.8705 55.7379 69.1417C56.443 69.6842 57.2567 69.9554 58.1789 69.9554H58.3416C58.6129 69.9554 58.9384 69.9012 59.2638 69.8469C61.1624 69.4672 62.6271 68.2738 63.5492 66.4294C64.2002 65.0733 64.6884 63.6629 65.1224 62.361C65.3936 61.4931 65.6106 60.5709 65.8276 59.703L65.8818 59.5945C65.9361 59.3775 65.9903 59.1605 66.0445 58.9435L71.4149 59.703L72.1201 57.2619L66.5328 56.4482L66.9667 54.3326L71.6861 54.9836H72.0658L72.7168 52.5968L67.4007 51.7831C67.5092 51.3491 67.6177 50.9152 67.7804 50.4812C68.1601 49.0166 68.5941 47.4977 69.0823 46.0331C69.245 45.5448 69.6248 45.0024 70.1672 44.4057C70.33 44.2429 70.4927 44.1344 70.7097 44.1344C71.0352 44.0802 71.3064 44.2429 71.5776 44.5684L71.6861 44.7312C71.9031 45.0024 72.0658 45.2736 72.3371 45.5448C72.4455 45.6533 72.6083 45.7618 72.7168 45.8161C73.2592 46.1415 73.8559 46.0873 74.2356 45.7076C74.5611 45.3821 74.6154 44.8396 74.6154 44.4057V44.2429C74.6154 43.9175 74.3984 43.6462 74.2356 43.4835L74.0729 43.809Z" fill="white"/>
</svg>
