<svg width="115" height="175" viewBox="0 0 115 175" fill="none" xmlns="http://www.w3.org/2000/svg">
<path d="M63.3375 22.4715C63.0212 22.1886 62.7027 21.9147 62.3887 21.6252C62.1481 21.81 62.6983 21.8301 63.3152 22.5338L63.8609 22.9459L63.9232 22.9147C63.9232 22.9147 64.0168 22.9726 64.1549 23.0528C63.95 22.7966 63.7941 22.5249 63.676 22.2221L63.6582 22.2042C63.2796 22.1062 62.6804 21.8078 63.3375 22.4715Z" fill="#156FF7"/>
<path d="M44.4149 73.7465L45.2657 74.8756C45.5396 74.7464 44.9761 74.5861 44.4483 73.6886L43.9048 73.0627C43.887 73.0761 43.838 73.1073 43.7734 73.1451C43.8848 73.3946 43.9694 73.6485 44.0273 73.9113L44.0429 73.9358C44.4193 74.1407 44.9917 74.6106 44.4149 73.7465Z" fill="#156FF7"/>
<path d="M43.8243 73.0269C43.8066 73.0314 43.7732 73.0469 43.7333 73.0647C43.7422 73.0846 43.7533 73.1046 43.7621 73.1268L43.7999 73.098L43.8332 73.0691C43.8332 73.0691 43.8443 73.058 43.8465 73.0513C43.8599 73.0314 43.8599 73.018 43.8221 73.0269H43.8243Z" fill="#156FF7"/>
<path d="M44.1201 72.8998C44.1025 72.9152 44.0804 72.9351 44.0474 72.9593L44.1576 72.9086C44.1553 72.8976 44.1531 72.8844 44.1509 72.8734C44.1399 72.8822 44.1311 72.891 44.1201 72.8998Z" fill="#156FF7"/>
<path d="M54.9006 64.8379C54.8494 65.1363 54.8271 65.4548 54.8338 65.8735C54.8873 65.6352 54.8917 65.2254 54.9006 64.8379Z" fill="#156FF7"/>
<path d="M86.2513 64.8379C86.2001 65.1363 86.1778 65.4548 86.1845 65.8735C86.238 65.6352 86.2424 65.2254 86.2513 64.8379Z" fill="#156FF7"/>
<path d="M75.5494 46.3597C75.2153 46.1637 74.6941 45.8586 74.0059 45.4532C72.723 46.1815 70.6628 47.3508 68.7452 48.4398C67.0614 49.3997 65.5045 50.2928 64.8854 50.6692C65.0992 50.6046 65.5357 50.3128 65.7495 50.2839C65.3843 50.5467 65.1705 50.6001 65.0235 50.7404C64.8141 50.7226 64.1548 51.2081 63.8007 51.2727L63.7228 51.3952L63.5089 51.4709C63.3464 51.5734 63.2127 51.658 63.1014 51.727C63.0457 51.7627 62.9944 51.7938 62.9499 51.8228L62.7294 51.9564C62.4465 52.1257 62.3018 52.2148 62.2105 52.2704C62.0256 52.3796 62.0545 52.3573 61.6247 52.5956C61.6247 52.8406 61.618 53.2838 61.6113 54.0477C61.6136 54.1835 61.6158 54.3127 61.618 54.4308C61.6225 54.5421 61.6269 54.6446 61.6314 54.7448L61.6626 55.2726C61.6826 55.5889 61.6982 55.8494 61.6804 56.1323C61.6804 56.0476 61.7227 55.8249 61.7405 56.0877C61.6804 56.1323 61.7828 56.7848 61.7227 56.914C61.7294 57.1701 61.7227 58.003 61.8051 57.7202C61.765 57.8605 61.7472 58.6044 61.7116 58.1612C61.7093 58.4106 61.696 58.6534 61.716 58.8338L61.7383 58.5131C61.7494 59.3594 61.6871 59.8181 61.7606 60.3705L61.794 60.0587C61.7984 60.5642 61.8051 60.9874 61.7249 61.1856L61.7004 60.6667C61.7004 61.5041 61.7071 62.0096 61.7516 62.7089V62.4595C61.7761 62.7089 61.7984 63.2524 61.8207 63.9249C61.8318 64.2612 61.8407 64.6287 61.8541 65.0073C61.8652 65.2523 61.8764 66.1187 61.8875 66.7467C62.3263 66.9895 62.7584 67.2278 63.1659 67.4527C63.4109 67.5819 63.6426 67.7044 63.8519 67.8157C64.2707 68.034 64.5981 68.201 64.7651 68.27L64.4689 68.0273L65.1059 68.3346C65.0346 68.2923 64.7094 68.3413 64.6582 68.2901C65.2596 68.6331 67.0213 69.6397 68.8632 70.6909C69.7831 71.2187 70.723 71.7577 71.547 72.2321C72.5649 72.8245 73.4402 73.3323 74.0081 73.6619C74.3868 73.4481 74.6229 73.3145 74.7944 73.2165C75.0037 73.1051 75.1329 73.0428 75.1797 73.0294C75.2153 73.0205 75.2175 73.0338 75.2042 73.0539C75.1997 73.0583 75.1975 73.065 75.1908 73.0717L75.1574 73.1007L75.0794 73.1608C75.0282 73.1987 74.9837 73.2321 74.9814 73.2365C75.1106 73.1586 75.2331 73.0828 75.2599 73.065L75.3712 72.9893C75.4269 72.9492 75.4536 72.9247 75.4759 72.9047C75.5227 72.8624 75.5583 72.8312 75.8122 72.6864C75.9548 72.6174 75.8078 72.7466 75.7365 72.7978C75.9548 72.6642 76.1708 72.5639 76.173 72.5283C75.8857 72.6686 75.9637 72.5327 75.8211 72.5572L76.4737 72.1875L76.4693 72.2477C76.614 72.1653 76.7677 71.9181 77.4203 71.5729C78.5072 70.9693 79.6653 70.2811 80.7545 69.6665C80.7545 69.7021 80.534 69.8491 80.3157 69.9938C80.4605 69.9114 80.6787 69.7778 80.8235 69.7177C80.5362 69.8223 81.26 69.4259 81.044 69.5239C81.7768 68.9627 82.857 68.466 83.514 67.9917C83.5162 67.936 83.6209 67.4727 83.7345 66.9516L85.0709 66.181C85.5118 66.2812 85.9707 66.1209 86.1377 65.1699L86.1867 65.2033L86.18 64.798C86.2045 64.3125 86.1466 64.0875 86.1956 64.1209L86.1889 64.7846C86.2023 64.2969 86.229 64.6376 86.258 64.8225C86.2624 64.6198 86.2691 64.4216 86.2847 64.259C86.2646 64.1632 86.2647 64.3303 86.2535 64.406C86.2357 64.1432 86.1889 63.778 86.2134 63.4595C86.2179 62.9606 86.2936 63.4283 86.2981 62.8448C86.3181 61.3081 86.3382 59.7959 86.3582 58.2814C86.3649 57.5242 86.3716 56.7648 86.3782 56.0009C86.3782 55.1078 86.3782 54.2125 86.3805 53.3061C86.4005 53.1613 86.4005 53.3261 86.4094 53.4998C86.4072 53.1813 86.4027 52.8695 86.4005 52.5889C85.8482 52.2749 85.3203 51.9742 84.8014 51.678C84.4918 51.5043 84.1866 51.3351 83.8793 51.1636C83.6855 51.0255 83.6454 50.9676 83.5942 50.9141C83.6454 50.9676 82.6209 50.3885 81.5763 49.7917C81.0551 49.491 80.5273 49.1881 80.1264 48.9587C79.7255 48.7271 79.4515 48.5668 79.4359 48.5556L79.3402 48.6024C78.5428 48.1436 79.1598 48.3797 78.4114 47.9743C78.0595 47.9164 77.1931 47.255 76.9058 47.1659C76.9169 47.1614 76.5583 46.9499 76.6007 46.9276C76.4559 46.9231 76.222 46.7272 75.9859 46.6113C75.8946 46.5802 76.0372 46.6648 76.0884 46.7183L75.5539 46.4376C75.3601 46.3018 75.3311 46.2372 75.5561 46.3575L75.5494 46.3597Z" fill="#156FF7"/>
<path d="M70.743 39.1972C70.6918 39.4956 70.6695 39.8141 70.6762 40.2328C70.7297 39.9945 70.7341 39.5847 70.743 39.1972Z" fill="#156FF7"/>
<path d="M44.0293 73.9283C44.0293 73.9283 44.0378 73.9326 44.04 73.9347L44.025 73.9113C44.025 73.9113 44.0293 73.9219 44.0293 73.9283Z" fill="#156FF7"/>
<path d="M62.4354 11.7455C62.5824 11.7455 62.7472 11.7455 62.9164 11.7455C62.7561 11.7299 62.5913 11.7232 62.4354 11.7455Z" fill="#156FF7"/>
<path d="M112.847 56.7483C112.856 56.7263 112.862 56.7042 112.864 56.6865C112.858 56.7064 112.853 56.7285 112.847 56.7483Z" fill="#156FF7"/>
<path d="M107.158 26.5159C107.167 26.5312 107.178 26.5508 107.187 26.5661C107.187 26.5465 107.176 26.5312 107.158 26.5159Z" fill="#156FF7"/>
<path d="M113.172 50.8827C113.208 48.8316 113.593 47.7002 113.116 46.3639C113.056 46.6178 113.003 46.8739 112.936 47.1256C112.885 45.8985 112.809 44.8807 113.257 44.3662C113.332 44.7871 113.413 45.2081 113.468 45.629C113.368 43.5756 113.228 42.3306 112.747 40.6625L112.813 41.2705C112.718 41.0077 112.604 40.6002 112.475 40.0901C112.352 39.5801 112.174 38.9655 112.005 38.284C111.923 37.9432 111.811 37.5869 111.707 37.2172C111.597 36.8497 111.497 36.4666 111.375 36.0791C111.123 35.3063 110.878 34.5001 110.577 33.7072C110.504 33.509 110.433 33.3108 110.359 33.1126L110.25 32.8164L110.118 32.5001C109.943 32.0814 109.769 31.6672 109.597 31.2641C109.424 30.8632 109.225 30.498 109.045 30.1349C108.858 29.7786 108.691 29.4223 108.499 29.1149C108.314 28.8031 108.136 28.5091 107.967 28.2374C107.8 27.968 107.642 27.7163 107.484 27.5092C107.174 27.086 106.913 26.7653 106.724 26.5805L106.842 27.5827L106.288 26.8989L106.009 26.5604L105.72 26.2353C105.769 26.3243 106.145 26.3377 106.497 26.3733C106.787 26.4023 107.067 26.4379 107.152 26.5092C106.68 25.6629 105.68 24.0482 104.288 22.1997C102.873 20.3111 101.036 18.2132 99.0803 16.2934C97.1315 14.367 95.0713 12.6142 93.3296 11.2379C92.893 10.8971 92.4788 10.572 92.0934 10.2713C91.7037 9.97954 91.3406 9.70784 91.0154 9.46285C90.3695 8.96398 89.8462 8.60096 89.5321 8.34261C88.5677 7.43172 89.6702 7.71011 89.7192 7.67002C89.0198 7.2736 88.8105 7.27805 88.6501 7.26246C88.4875 7.25133 88.3628 7.23796 87.7993 6.85935C87.5231 6.60101 88.022 6.65001 88.2269 6.71682C87.9641 6.57428 87.7325 6.40057 87.5499 6.27808C87.365 6.16004 87.2291 6.09323 87.1646 6.15559C87.7325 6.65669 87.2113 6.89722 87.3138 7.32037C86.8371 6.99521 86.3427 6.699 85.8572 6.38721L86.0754 6.17118C85.9106 6.06873 85.5988 6.11327 85.1534 6.06873C84.7035 6.02641 84.1266 5.89279 83.4272 5.4095C80.9706 3.93292 78.0774 2.72137 75.3468 1.65681C75.4493 1.5076 76.0684 1.61672 76.6854 1.74144C76.3224 1.58777 75.7366 1.42742 75.4381 1.18021C75.9994 1.71917 74.2065 0.953044 74.6853 1.26707C74.1107 1.26707 73.5316 1.17798 72.9525 1.0399C72.369 0.908501 71.7743 0.748149 71.1952 0.572207C70.6095 0.405173 70.0215 0.258184 69.4624 0.140147C68.9012 0.0265637 68.3488 -0.0179786 67.8499 0.0065197C67.7764 0.162418 67.3599 0.861732 66.8009 1.88621C66.2419 2.90622 65.567 4.22245 64.9634 5.55426C64.3554 6.9039 63.8275 8.27135 63.4645 9.34704C63.097 10.4161 62.8965 11.2223 62.8832 11.4138C62.5001 11.3849 62.1192 11.3514 62.0034 11.2802C62.0524 11.3737 62.264 11.4539 62.5112 11.4962C62.7607 11.543 63.0413 11.5363 63.2574 11.514L63.3643 11.1087C63.8565 11.0864 63.9077 11.151 63.9523 11.2334C63.999 11.3203 64.0324 11.3938 64.5158 11.4606C64.5202 11.6387 64.2908 11.6922 63.9857 11.7301C63.6805 11.7701 63.273 11.7434 62.9099 11.7367C63.5736 11.8347 64.2017 12.1398 64.5403 11.828C65.1661 12.0641 64.4111 12.2289 65.1572 12.485C65.7251 12.4962 66.5381 12.3024 67.155 12.6744L67.1283 12.73C67.3176 12.8213 67.498 12.8904 67.674 12.9416C67.8499 13.0017 68.0214 13.0485 68.1907 13.0819C68.527 13.1532 68.8477 13.1688 69.1685 13.2044C69.8077 13.2824 70.4447 13.3358 71.1284 13.7857L70.9302 13.8325C71.3846 14.1999 72.5138 14.3581 73.3713 14.9594C73.1329 14.7768 72.9949 14.4471 73.5762 14.6632C74.574 15.3313 75.3958 15.5028 76.0595 16.1264L76.9593 16.2199C77.4248 16.4582 78.0462 16.8257 78.8057 17.2377C79.1799 17.456 79.5853 17.6943 80.0173 17.9482C80.4494 18.1998 80.8971 18.4916 81.3715 18.7789C81.8459 19.0706 82.3225 19.4002 82.8281 19.7254C83.3248 20.0617 83.8281 20.418 84.3449 20.7788C85.356 21.5227 86.4028 22.3066 87.394 23.144C89.3873 24.8032 91.236 26.5961 92.6191 28.2085C94.0089 29.8165 94.9911 31.2084 95.4766 32.0213L95.3519 31.9211C96.1515 33.1393 97.0112 34.725 97.5992 36.4265L97.6593 36.5869C97.6794 36.6381 97.6994 36.6938 97.7172 36.7606C97.7551 36.8898 97.7952 37.019 97.833 37.1481C97.911 37.4087 97.9912 37.6715 98.0691 37.9365C98.1382 38.206 98.2094 38.4777 98.2785 38.7516C98.3141 38.8875 98.3498 39.0256 98.3854 39.1637L98.4767 39.5846C98.5391 39.8652 98.6014 40.1481 98.6638 40.4309C98.7173 40.7182 98.7685 41.0055 98.8219 41.295C98.94 41.8696 99.0046 42.4643 99.1003 43.05C99.401 45.413 99.5057 47.8316 99.43 50.0587C99.3565 52.2881 99.1337 54.3214 98.9177 55.9517C98.7863 56.1833 98.6749 56.4439 98.5769 56.7178C98.47 56.9895 98.3743 57.279 98.2874 57.5686C98.2451 57.7133 98.2028 57.8603 98.1627 58.0051L98.029 58.4327C97.9399 58.7133 97.8531 58.9828 97.7618 59.23C98.0468 58.7044 98.2183 58.9583 98.0847 59.3992C97.8375 60.1654 97.7217 60.5663 97.6749 60.7867C97.6215 61.0028 97.6437 61.0406 97.6727 61.0807C97.6994 61.1208 97.7328 61.1653 97.6994 61.3947C97.6615 61.6219 97.5791 62.0473 97.3074 62.8201C97.049 63.7332 96.4544 65.2365 95.5702 66.9536C95.1314 67.8133 94.6013 68.713 94.0289 69.6284C93.7305 70.076 93.4276 70.5348 93.1091 70.9825C92.7772 71.4212 92.4632 71.88 92.109 72.3032C90.7371 74.0336 89.2003 75.5815 87.8082 76.7373C87.4496 77.0113 87.1089 77.2741 86.7904 77.5213C86.63 77.6438 86.4763 77.7618 86.3271 77.8776C86.1801 77.9934 86.0353 78.1026 85.8883 78.1916C85.3093 78.5636 84.8349 78.8642 84.4963 79.0714C84.3627 79.254 84.1934 79.3943 84.0264 79.548C83.8549 79.6972 83.6745 79.8419 83.4874 79.9822C83.3003 80.1226 83.1065 80.2606 82.9083 80.3943C82.7079 80.5212 82.494 80.6326 82.2847 80.7484C82.0753 80.8642 81.8659 80.98 81.6566 81.0936C81.4472 81.2049 81.249 81.3363 81.0374 81.4321C80.6231 81.6392 80.2312 81.8597 79.8793 82.1091L79.9862 81.9332C79.8882 81.9911 79.7612 82.0624 79.6053 82.1425C79.4449 82.2138 79.2556 82.2895 79.044 82.3764C78.8325 82.461 78.5964 82.5546 78.3402 82.657C78.211 82.706 78.0819 82.7639 77.9416 82.8107L77.5072 82.9488C77.2088 83.0423 76.8947 83.1425 76.5696 83.2472C76.2422 83.3474 75.8925 83.4231 75.5406 83.5167L75.0061 83.6525C74.8256 83.6993 74.6386 83.7283 74.4537 83.7661C74.0817 83.8374 73.7098 83.922 73.3312 83.9844C72.9525 84.0423 72.5717 84.1002 72.1975 84.1581C71.8211 84.2071 71.4447 84.2427 71.0794 84.285C70.8968 84.3095 70.7142 84.3229 70.536 84.334L70.2687 84.3541L70.1373 84.363H70.0883C70.0193 84.3697 69.9859 84.3697 69.9391 84.3697H69.8099C69.6406 84.3719 69.4892 84.3741 69.3622 84.3763C69.2976 84.3786 69.2397 84.3808 69.1863 84.3875L69.1105 84.3964C69.0905 84.3919 69.0794 84.3763 69.0638 84.3697C69.0705 84.4075 69.0682 84.4677 69.0883 84.481L69.0593 84.4944L69.0393 84.4877C69.0259 84.4832 69.0126 84.4788 69.0014 84.4743C68.9769 84.4654 68.9569 84.4521 68.9368 84.4409C68.899 84.4142 68.87 84.3853 68.85 84.3496C68.8099 84.2828 68.801 84.2026 68.8076 84.118C68.8188 83.9487 68.8878 83.755 68.85 83.5768C68.7542 83.6748 68.6562 83.7461 68.5537 83.7862C68.527 83.7973 68.5025 83.804 68.4758 83.8107L68.4357 83.8196H68.4156L68.4067 83.824L68.3867 83.8129C68.282 83.7528 68.1707 83.6793 68.0593 83.5991C67.6094 83.2739 67.135 82.8174 66.8944 82.5479L67.0036 82.4967C66.2552 81.7016 64.3554 80.0646 63.1816 78.7039L63.4578 78.5747C62.2774 77.5992 60.6292 75.312 59.9343 74.4902C58.5 72.4858 56.5422 69.1919 54.188 66.8578L53.9854 66.1875C54.3284 66.163 54.6424 65.9046 54.776 65.1541L54.825 65.1875L54.8183 64.7822C54.8428 64.2967 54.7849 64.0717 54.8339 64.1051L54.8273 64.7688C54.8406 64.2811 54.8673 64.6218 54.8963 64.8067C54.9008 64.604 54.9074 64.4058 54.923 64.2432C54.903 64.1475 54.903 64.3145 54.8918 64.3902C54.874 64.1274 54.8273 63.7622 54.8518 63.4437C54.8562 62.9448 54.9319 63.4125 54.9364 62.829C54.9564 61.2923 54.9765 59.7801 54.9965 58.2656C55.0032 57.5084 55.0099 56.749 55.0166 55.9851C55.0166 55.092 55.0166 54.1967 55.0188 53.2903C55.0388 53.1455 55.0388 53.3103 55.0478 53.484C55.0455 53.1655 55.0411 52.8537 55.0388 52.5731C54.4865 52.2591 53.9586 51.9584 53.4397 51.6622C53.1301 51.4885 52.825 51.3193 52.5176 51.1478C52.3238 51.0097 52.2838 50.9518 52.2325 50.8983C52.2838 50.9518 51.2592 50.3727 50.2146 49.7759C49.6935 49.4752 49.1656 49.1723 48.7647 48.9429C48.3638 48.7113 48.0899 48.551 48.0743 48.5398L47.9785 48.5866C47.1811 48.1278 47.7981 48.3639 47.0497 47.9585C46.6978 47.9006 45.8314 47.2392 45.5441 47.1501C45.5553 47.1456 45.1967 46.9341 45.239 46.9118C45.0942 46.9073 44.8604 46.7114 44.6243 46.5956C44.533 46.5644 44.6755 46.649 44.7267 46.7024L44.1922 46.4218C43.9984 46.286 43.9695 46.2214 44.1944 46.3417C43.8603 46.1457 43.3392 45.8406 42.6509 45.4352C41.368 46.1635 39.3078 47.3327 37.3902 48.4218C35.7064 49.3817 34.1496 50.2747 33.5304 50.6511C33.7442 50.5865 34.1807 50.2948 34.3946 50.2658C34.0293 50.5286 33.8155 50.5821 33.6685 50.7224C33.4591 50.7046 32.7999 51.1901 32.4457 51.2547L32.3678 51.3772L32.154 51.4529L31.7464 51.709L31.5949 51.8048C31.5125 51.8538 31.439 51.8983 31.3744 51.9384C31.0916 52.1077 30.9468 52.1967 30.8555 52.2524C30.6706 52.3616 30.6996 52.3393 30.2697 52.5776C30.2697 52.8226 30.263 53.2658 30.2563 54.0297C30.2586 54.1655 30.2608 54.2947 30.263 54.4127C30.2675 54.5241 30.2719 54.6265 30.2764 54.7267C30.2875 54.9227 30.2987 55.0942 30.3076 55.2546C30.3276 55.5708 30.3432 55.8314 30.3254 56.1142C30.3254 56.0296 30.3677 55.8069 30.3855 56.0697C30.3254 56.1142 30.4278 56.7668 30.3677 56.896C30.3744 57.1521 30.3677 57.985 30.4501 57.7022C30.41 57.8425 30.3922 58.5863 30.3566 58.1431C30.3543 58.3926 30.341 58.6353 30.361 58.8157L30.3833 58.495C30.3944 59.3413 30.3321 59.8001 30.4056 60.3524L30.439 60.0407C30.4434 60.5462 30.4501 60.9694 30.3699 61.1676L30.3454 60.6487C30.3454 61.486 30.3521 61.9916 30.3967 62.6909V62.4415C30.4212 62.6909 30.4434 63.2343 30.4657 63.9069C30.4768 64.2432 30.4858 64.6107 30.4991 64.9893C30.5103 65.2343 30.5214 66.1006 30.5325 66.7287C30.9713 66.9714 31.4034 67.2097 31.811 67.4347C32.056 67.5638 32.2876 67.6863 32.497 67.7977C32.9157 68.016 33.2431 68.183 33.4101 68.252L33.1139 68.0093L33.7509 68.3166C33.6796 68.2743 33.3544 68.3233 33.3032 68.2721C33.9046 68.615 35.6663 69.6217 37.5082 70.6729C38.4281 71.2007 39.368 71.7397 40.1921 72.2141C41.2099 72.8065 42.0852 73.3143 42.6532 73.6439C43.0318 73.4301 43.2679 73.2964 43.4394 73.1984C43.4683 73.1829 43.4928 73.1695 43.5196 73.1561C43.6777 73.4011 43.8536 73.6506 44.0251 73.8955C43.9672 73.6305 43.8826 73.3788 43.7712 73.1294C43.8358 73.0893 43.8848 73.0581 43.9026 73.047L44.4461 73.6728C44.9739 74.5704 45.5397 74.7307 45.2635 74.8599L44.4127 73.7307C44.9895 74.5949 44.4171 74.1272 44.0407 73.92C44.288 74.2764 44.5218 74.6283 44.6644 74.9534C44.8804 75.0425 44.6666 74.7597 44.6176 74.5926C45.0452 74.9646 45.7468 75.3988 46.0608 76.0157C46.7001 76.8643 45.729 76.3676 46.4729 77.3565C48.4084 79.9889 50.3126 82.5813 52.2236 85.1803C53.1836 86.4743 54.1546 87.766 55.1435 89.0533C55.6424 89.6947 56.1413 90.3361 56.6425 90.982C57.2995 91.8038 57.9588 92.63 58.6202 93.4607C58.7138 93.7748 58.5 93.5008 58.226 93.2425C58.8586 93.9863 59.4621 94.7146 60.0501 95.4273C60.6537 96.0999 61.2462 96.7591 61.8297 97.4094C61.9745 97.572 62.1215 97.7346 62.2662 97.8949L62.4823 98.1377L62.5914 98.258C62.5981 98.2713 62.6115 98.2713 62.627 98.2713H62.7518C63.1928 98.278 63.6315 98.2847 64.0703 98.2891C64.9412 98.2958 65.8076 98.3025 66.6829 98.278C67.6205 98.4205 67.8655 98.621 68.1462 98.7234C68.0749 98.6945 68.3332 98.6588 68.8366 98.6143C69.086 98.5965 69.4001 98.572 69.7631 98.5452C69.9458 98.5341 70.1395 98.5208 70.3444 98.5074C70.5516 98.4918 70.7698 98.474 70.9837 98.4495C71.3066 98.4116 71.6585 98.3693 72.0305 98.327C72.3534 98.2936 72.6942 98.2401 73.0461 98.1867C73.4002 98.1332 73.7655 98.0798 74.1397 98.0241C74.5116 97.9617 74.8902 97.8883 75.2689 97.8192C75.6475 97.7457 76.0306 97.6878 76.4025 97.601C76.7745 97.5163 77.142 97.4339 77.5006 97.3515C78.2155 97.2001 78.8792 97.0085 79.4516 96.8549C80.6031 96.5587 81.3737 96.2803 81.4294 96.287L81.4071 95.7324C81.9639 95.5453 82.2936 95.4741 82.5096 95.4585C82.7257 95.4407 82.8237 95.4741 82.9172 95.5142C83.1043 95.5876 83.2669 95.6567 84.2647 95.1912C84.3916 94.9351 84.67 94.7369 85.0175 94.5498C85.3605 94.356 85.777 94.1868 86.1957 94.0264C86.6144 93.8661 87.0376 93.7191 87.3851 93.561C87.7258 93.3895 87.9931 93.2202 88.1134 93.0421C88.1267 93.1044 89.08 92.6144 89.1357 92.8527C89.1802 92.5944 89.4096 92.443 89.6969 92.3004C89.9798 92.1512 90.3116 91.9998 90.5722 91.7771C90.7192 91.5499 90.3562 91.7681 90.1379 91.7592L91.3629 90.8194C91.942 90.61 92.2048 90.7281 91.6725 91.1178C92.1202 90.8751 92.7327 90.4519 93.4988 89.9263C93.8797 89.6613 94.3029 89.3762 94.7461 89.0577C95.1737 88.7192 95.6303 88.3562 96.1091 87.9754C98.0424 86.4587 100.152 84.4142 102.047 82.1938C103.947 79.9778 105.606 77.577 106.831 75.4701C108.069 73.3677 108.871 71.5637 109.272 70.5883C108.758 70.9491 108.41 72.223 107.735 72.439C107.871 71.8867 108.056 71.5303 108.219 71.2408C108.379 70.9535 108.504 70.733 108.477 70.4524C109.321 70.3633 109.604 68.3055 110.573 67.7843L110.303 67.3411C110.446 67.1986 110.595 67.0583 110.733 66.9135C111.038 65.7265 111.196 65.065 111.272 64.6708C111.355 64.2788 111.381 64.1608 111.419 64.0628C111.49 63.8668 111.631 63.7644 112.241 61.6976C112.375 61.0874 112.455 60.5507 112.508 60.0696C112.562 59.5886 112.571 59.1565 112.591 58.7645C112.633 58.0051 112.646 57.3792 112.847 56.7401C112.767 56.9605 112.486 57.3124 112.49 56.7267C112.673 56.7022 112.693 56.2746 112.689 55.8203C112.689 55.3659 112.689 54.8893 112.891 54.7579C112.943 54.1343 113.179 52.1255 112.622 52.7602C112.911 52.4484 113.13 50.6511 113.268 51.7402C113.326 51.1322 113.444 50.5465 113.346 50.101C113.288 50.3594 113.237 50.6199 113.17 50.8761L113.172 50.8827ZM43.847 73.0515C43.847 73.0515 43.8403 73.0626 43.8336 73.0693L43.8002 73.0982L43.7623 73.1272C43.7534 73.1071 43.7423 73.0871 43.7334 73.0648C43.7757 73.0448 43.8091 73.0314 43.8247 73.027C43.8603 73.0181 43.8626 73.0314 43.8492 73.0515H43.847ZM44.0452 72.9601C44.0786 72.9356 44.1009 72.9156 44.1187 72.9C44.1276 72.8911 44.1387 72.8822 44.1499 72.8733C44.1521 72.8844 44.1543 72.8978 44.1565 72.9089L44.0452 72.9601Z" fill="#156FF7"/>
<path d="M63.6691 22.2085C63.6691 22.2085 63.6604 22.2063 63.6582 22.2041L63.6757 22.2216C63.6757 22.2216 63.6713 22.2129 63.6691 22.2063V22.2085Z" fill="#156FF7"/>
<path d="M47.199 86.1758C47.3638 86.1491 47.5285 86.1157 47.68 86.0511C47.5352 86.089 47.3682 86.1313 47.199 86.1758Z" fill="#156FF7"/>
<path d="M0.887867 46.8472C0.883453 46.867 0.879038 46.8891 0.876831 46.9046C0.881245 46.8847 0.883453 46.8648 0.887867 46.8472Z" fill="#156FF7"/>
<path d="M7.71389 74.5628C7.70513 74.5475 7.69638 74.53 7.68982 74.5147C7.68544 74.5322 7.69857 74.5475 7.71389 74.5628Z" fill="#156FF7"/>
<path d="M46.9227 86.4809L46.9272 86.8996C46.4728 87.0488 46.406 86.9975 46.3437 86.9307C46.3125 86.8973 46.2813 86.8595 46.2011 86.8439C46.1209 86.8283 45.994 86.8283 45.769 86.8595C45.6777 86.5388 46.484 86.345 47.1989 86.1757C46.5374 86.2559 45.867 86.1223 45.6554 86.512C45.034 86.4452 45.6688 86.0911 44.936 86.0354C44.6888 86.1045 44.406 86.2314 44.1053 86.3272C43.8046 86.4252 43.495 86.4497 43.201 86.3628L43.2099 86.3027C42.5084 86.1357 41.985 86.2492 41.4616 86.3361C41.3301 86.3606 41.1987 86.3851 41.0673 86.4029C40.9359 86.414 40.8045 86.4207 40.6687 86.4185C40.3969 86.414 40.1141 86.3784 39.8179 86.2314L39.9693 86.1423C39.5662 85.8773 38.653 85.9953 37.9358 85.57C38.1363 85.6947 38.2721 85.9842 37.7911 85.8996C37.6864 85.8439 37.5817 85.7994 37.4837 85.7548C37.3857 85.7058 37.2899 85.6657 37.1964 85.6279C37.0093 85.5544 36.8311 85.4965 36.6596 85.4408C36.3233 85.3049 36.0137 85.1891 35.7465 84.9375L35.007 84.9865C34.2564 84.6323 32.9401 84.0221 31.4056 83.0177C30.6394 82.5166 29.822 81.913 28.9868 81.2404C28.1583 80.5545 27.3186 79.7839 26.5034 78.9643C25.6905 78.1403 24.9109 77.2539 24.1782 76.372C23.824 75.9176 23.461 75.4856 23.1336 75.0357C22.9666 74.813 22.804 74.5947 22.6436 74.3809C22.4877 74.1604 22.3362 73.9444 22.187 73.7306C21.5901 72.8821 21.0712 72.0736 20.6391 71.3721C20.5856 71.2852 20.5322 71.2006 20.4787 71.116L20.3429 70.8799C20.2538 70.7262 20.1691 70.5815 20.089 70.4434C19.9286 70.1672 19.7861 69.9267 19.6792 69.7129L19.7927 69.822C19.08 68.5637 18.2827 66.8934 17.5633 64.9602C16.8483 63.0271 16.2202 60.8312 15.7637 58.5795C15.2959 56.3302 15.0331 54.0229 14.895 51.8982C14.7592 49.7713 14.7703 47.8226 14.8037 46.2591C14.9084 46.0275 14.9908 45.7692 15.0554 45.4997C15.1267 45.2302 15.1913 44.9496 15.2447 44.6668C15.3427 44.0988 15.4474 43.5287 15.5721 43.0454C15.3472 43.5688 15.1489 43.3461 15.2336 42.9185C15.5276 41.4196 15.4986 41.3617 15.4274 41.2882C15.3605 41.2169 15.2692 41.1368 15.5632 39.609C15.7213 38.7293 16.0822 37.2416 16.7125 35.5289C17.3383 33.8162 18.2404 31.892 19.3183 30.1103C19.4542 29.8876 19.5901 29.6671 19.7237 29.4444C19.8573 29.2239 20.0088 29.0146 20.1491 28.8008C20.2916 28.5892 20.4342 28.3776 20.5745 28.1705C20.7282 27.9723 20.8796 27.7741 21.0289 27.5781C21.3273 27.1883 21.6191 26.8053 21.9019 26.4356C22.2115 26.0904 22.5077 25.7563 22.7928 25.4356C23.3407 24.7786 23.9287 24.2753 24.3942 23.8187C24.5123 23.7074 24.6236 23.6005 24.7305 23.498C24.8397 23.4 24.9533 23.3154 25.0535 23.233C25.2584 23.0704 25.4366 22.9301 25.5858 22.8121C25.9934 22.0638 26.7061 21.4825 27.3988 20.8923C28.1338 20.3533 28.8554 19.8099 29.4612 19.2687L29.3877 19.4513C29.9133 19.0037 31.6216 17.977 33.6952 17.1017C34.2074 16.8701 34.7553 16.6808 35.2943 16.4737C35.428 16.4202 35.5661 16.3779 35.7041 16.3334L35.909 16.2666L35.9603 16.2488L35.9848 16.2398H35.9915L36.0204 16.2332C36.0917 16.2087 36.1674 16.1931 36.2409 16.1753C36.3879 16.1396 36.5282 16.1129 36.6596 16.0862L36.8512 16.0505L36.9403 16.0349C36.967 16.0349 37.0026 16.0082 37.0204 16.0394C37.2075 16.1975 37.3523 16.3 37.4503 16.3401L37.4258 16.2309C37.6842 16.2532 37.751 16.3802 37.7487 16.5316V16.594C37.7554 16.6185 37.7376 16.6229 37.7732 16.6786C37.8245 16.7677 37.8779 16.859 37.9425 16.9592C38.0695 17.1596 38.2387 17.389 38.5105 17.6763C38.7087 17.1307 40.2121 18.0394 40.7355 18.4536L40.6375 18.5249C41.446 19.1217 43.4572 20.3043 44.749 21.3956L44.4995 21.5693C45.749 22.2842 47.6199 24.1884 48.4039 24.861C48.5598 25.0191 48.7224 25.1906 48.8916 25.3666C48.6756 25.4846 48.4484 25.6004 48.288 25.6294L48.2101 25.7519L47.9963 25.8276C47.8337 25.93 47.7001 26.0147 47.5887 26.0837C47.533 26.1193 47.4818 26.1505 47.4372 26.1795C47.3548 26.2285 47.2813 26.273 47.2167 26.3131C46.9339 26.4824 46.7891 26.5714 46.6978 26.6271C46.5129 26.7362 46.5419 26.714 46.112 26.9523C46.112 27.1973 46.1053 27.6405 46.0987 28.4044C46.1009 28.5402 46.1031 28.6694 46.1053 28.7874C46.1098 28.8988 46.1143 29.0012 46.1187 29.1014L46.1499 29.6293C46.1699 29.9455 46.1855 30.2061 46.1677 30.4889C46.1677 30.4043 46.21 30.1816 46.2278 30.4444C46.1677 30.4889 46.2702 31.1415 46.21 31.2707C46.2167 31.5268 46.21 32.3597 46.2924 32.0769C46.2523 32.2172 46.2345 32.961 46.1989 32.5178C46.1967 32.7673 46.1833 33.01 46.2033 33.1904L46.2256 32.8697C46.2368 33.716 46.1744 34.1748 46.2479 34.7271L46.2813 34.4153C46.2858 34.9209 46.2924 35.344 46.2123 35.5423L46.1878 35.0233C46.1878 35.8607 46.1944 36.3663 46.239 37.0656V36.8162C46.2635 37.0656 46.2858 37.609 46.308 38.2816C46.3192 38.6179 46.3281 38.9854 46.3414 39.364C46.3526 39.609 46.3637 40.4753 46.3748 41.1034C46.8136 41.3461 47.2457 41.5844 47.6533 41.8094C47.8983 41.9385 48.1299 42.061 48.3393 42.1724C48.758 42.3906 49.0854 42.5577 49.2524 42.6267L48.9562 42.384L49.5932 42.6913C49.5219 42.649 49.1968 42.698 49.1455 42.6468C49.7469 42.9897 51.5086 43.9964 53.3506 45.0476C54.2704 45.5754 55.2103 46.1144 56.0344 46.5888C57.0522 47.1812 57.9275 47.6889 58.4955 48.0186C58.8741 47.8048 59.1102 47.6711 59.2817 47.5731C59.4911 47.4618 59.6202 47.3994 59.667 47.3861C59.7026 47.3772 59.7049 47.3905 59.6915 47.4106C59.6871 47.415 59.6848 47.4217 59.6781 47.4284L59.6447 47.4573L59.5668 47.5175C59.5156 47.5553 59.471 47.5887 59.4688 47.5932C59.598 47.5152 59.7205 47.4395 59.7472 47.4217L59.8586 47.346C59.9142 47.3059 59.941 47.2814 59.9632 47.2613C60.01 47.219 60.0456 47.1878 60.2995 47.0431C60.4421 46.974 60.2951 47.1032 60.2238 47.1544C60.4421 47.0208 60.6581 46.9206 60.6604 46.885C60.373 47.0253 60.451 46.8894 60.3085 46.9139L60.961 46.5442L60.9566 46.6043C61.1013 46.5219 61.255 46.2747 61.9076 45.9295C62.9945 45.326 64.1527 44.6378 65.2418 44.0231C65.2418 44.0588 65.0213 44.2057 64.803 44.3505C64.9478 44.2681 65.1661 44.1345 65.3108 44.0743C65.0235 44.179 65.7474 43.7826 65.5313 43.8806C66.2641 43.3193 67.3443 42.8227 68.0013 42.3483C68.0036 42.2926 68.1083 41.8294 68.2218 41.3083L69.5582 40.5377C69.9992 40.6379 70.458 40.4775 70.625 39.5266L70.674 39.56L70.6673 39.1546C70.6918 38.6691 70.6339 38.4442 70.6829 38.4776L70.6763 39.1413C70.6896 38.6535 70.7163 38.9943 70.7453 39.1791C70.7498 38.9765 70.7564 38.7783 70.772 38.6157C70.752 38.5199 70.752 38.6869 70.7408 38.7627C70.723 38.4999 70.6763 38.1346 70.7008 37.8161C70.7052 37.3173 70.7809 37.785 70.7854 37.2015C70.8054 35.6648 70.8255 34.1548 70.8455 32.6381C70.8522 31.8809 70.8589 31.1214 70.8656 30.3575C70.8656 29.4667 70.8656 28.5692 70.8678 27.6627C70.8878 27.518 70.8878 27.6828 70.8968 27.8565C70.8945 27.538 70.8901 27.2262 70.8878 26.9456C70.3355 26.6316 69.8076 26.3309 69.2887 26.0347C68.9791 25.861 68.674 25.6917 68.3666 25.5202C68.1728 25.3822 68.1328 25.3243 68.0815 25.2708C68.1328 25.3243 67.1082 24.7452 66.0636 24.1483C65.6026 23.8833 65.1438 23.6183 64.7652 23.4C64.5157 23.0014 64.0836 22.6161 63.6783 22.2174C63.7963 22.5203 63.9522 22.792 64.1571 23.0481C64.019 22.968 63.9322 22.9167 63.9255 22.9101L63.8631 22.9412L63.3175 22.5292C62.7005 21.8255 62.1504 21.8054 62.3909 21.6206C62.705 21.9101 63.0235 22.184 63.3397 22.4669C62.6805 21.8032 63.2818 22.1016 63.6605 22.1996C63.382 21.9279 63.117 21.6606 62.9388 21.3934C62.725 21.36 62.9611 21.576 63.0324 21.7163C62.5825 21.4758 61.8698 21.2219 61.4911 20.7208C60.7829 20.066 61.7584 20.3199 60.9343 19.5538C56.6201 15.4581 52.551 11.0284 47.5798 6.7991C47.5464 6.6098 47.6778 6.72783 47.8582 6.81024C47.6622 6.65879 47.4684 6.5118 47.2769 6.36481C47.1833 6.29132 47.0876 6.2156 46.994 6.1421L46.8559 6.03075L46.6243 5.83921C45.965 5.29134 45.279 4.75906 44.6265 4.23124C43.3146 3.17558 42.0206 2.15779 40.7132 1.18454C40.5929 1.0576 40.4883 0.941786 40.4148 0.848247C39.8624 0.839339 39.6775 0.741346 39.4749 0.681213C39.5974 0.716847 38.5238 1.00192 36.869 1.41171C36.0405 1.63219 35.0605 1.84154 34.0092 2.18452C33.4836 2.3471 32.9379 2.50299 32.3833 2.68116C32.1071 2.77025 31.8287 2.87047 31.5481 2.97292C31.3432 3.04864 31.1383 3.12436 30.9334 3.20008C30.5882 3.32257 30.2496 3.46065 29.9155 3.59874C29.5815 3.73459 29.2518 3.87044 28.9311 4.00184C28.2963 4.27578 27.7083 4.55194 27.1961 4.77911C26.1827 5.26239 25.4989 5.6165 25.4477 5.62096L25.5702 6.15769C25.323 6.28018 25.1292 6.3804 24.9733 6.4539C24.8152 6.52517 24.6927 6.56971 24.5947 6.59421C24.3964 6.6432 24.2962 6.6187 24.2004 6.59421C24.0111 6.54744 23.8419 6.49621 22.9821 7.07526C22.8374 7.61645 22.1135 8.05742 21.3696 8.46276C20.6391 8.88368 19.9063 9.30015 19.7371 9.66763C19.7126 9.60749 18.8863 10.1865 18.7994 9.97274C18.8105 10.4917 18.051 10.7055 17.6234 11.1932C17.5187 11.427 17.8328 11.1798 18.0444 11.1642L17.5321 11.6809L17.276 11.9393L17.0332 12.211C16.5298 12.4961 16.2626 12.4159 16.688 11.9593C16.3249 12.2689 15.7926 12.7321 15.1378 13.3134C14.9708 13.456 14.806 13.6163 14.6389 13.7856C14.4696 13.9548 14.2937 14.1308 14.1111 14.3134C13.748 14.6809 13.3582 15.0728 12.9507 15.4871C12.5564 15.9125 12.1667 16.3779 11.7524 16.8523C11.347 17.3334 10.8971 17.8122 10.5118 18.3534C10.1132 18.8857 9.7078 19.4291 9.29576 19.9792L8.9884 20.3934C8.88818 20.5337 8.79686 20.6785 8.69886 20.821C8.50732 21.1083 8.318 21.3978 8.12646 21.6851C6.61862 24.0058 5.35355 26.4645 4.45374 28.5914C4.21543 29.1193 4.03057 29.6359 3.83902 30.1148C3.74771 30.3553 3.65416 30.5869 3.57175 30.8119C3.4938 31.039 3.4203 31.2551 3.3468 31.4644C3.20649 31.8809 3.07953 32.2595 2.97485 32.5958C2.87908 32.9343 2.7989 33.2261 2.73654 33.4688C2.96372 33.2706 3.10849 32.8608 3.29112 32.4688C3.47821 32.0769 3.68312 31.6983 3.99048 31.5624C3.94593 32.1014 3.79671 32.4555 3.67421 32.7428C3.55839 33.0323 3.4693 33.255 3.53835 33.5156C3.13744 33.598 2.91472 34.1347 2.70313 34.7227C2.496 35.3129 2.2755 35.9476 1.81669 36.2438L2.14632 36.6358L1.78328 37.0834C1.61401 38.2304 1.56947 38.8718 1.5316 39.2482C1.49597 39.6246 1.4826 39.7381 1.4581 39.8339C1.40688 40.0254 1.29774 40.1368 0.93693 42.139C0.870113 42.7247 0.852295 43.2369 0.852295 43.6935C0.858977 44.1523 0.894612 44.5554 0.921339 44.9251C0.965884 45.6422 1.01711 46.2302 0.887931 46.8471C0.943612 46.6333 1.18193 46.2747 1.24206 46.8248C1.05943 46.8649 1.09729 47.268 1.13738 47.6934C1.18638 48.1188 1.23761 48.5642 1.05052 48.7045C1.05943 49.2925 1.02825 51.1922 1.51601 50.5486C1.39574 50.7089 1.3022 51.2122 1.2287 51.5508C1.15743 51.8893 1.08393 52.063 0.96143 51.5597C0.963657 52.132 0.910203 52.6911 1.0327 53.0964L1.14629 52.357C1.28215 54.2768 1.00375 55.3614 1.57169 56.5685L1.69865 55.8424C1.82783 56.9827 2.00155 57.9225 1.57392 58.4392L1.27324 57.2789C1.40242 58.2321 1.50488 58.9938 1.67415 59.7087C1.75433 60.065 1.83673 60.4125 1.93696 60.7621C2.0461 61.1118 2.16637 61.4681 2.30668 61.8467L2.21091 61.2855C2.6274 62.2409 3.48266 65.2898 4.7121 68.1829C4.86578 68.5437 5.01946 68.9045 5.17314 69.2608C5.32682 69.6149 5.49832 69.9601 5.65645 70.2986C5.96826 70.9779 6.30458 71.6082 6.61416 72.1739C6.91484 72.7418 7.22666 73.2317 7.48501 73.6304C7.74337 74.029 7.9661 74.3297 8.14205 74.5012C8.12423 74.1939 8.11978 73.8821 8.11532 73.5725C8.42491 74.0068 8.7679 74.4255 9.09531 74.8464C9.02404 74.6972 7.89037 74.7105 7.71442 74.5636C7.91487 74.9444 8.19773 75.5123 8.58304 76.2072C8.78795 76.5657 9.01513 76.9622 9.2579 77.3898C9.50289 77.8107 9.77016 78.2316 10.0508 78.6926C11.1845 80.51 12.65 82.6547 14.3026 84.688C15.9463 86.7281 17.7615 88.659 19.3852 90.16C19.7972 90.532 20.187 90.8816 20.55 91.209C20.9242 91.5275 21.2694 91.8215 21.5812 92.0865C22.2204 92.6054 22.7171 93.0197 23.0334 93.2847C24.0022 94.2245 22.8841 93.915 22.8307 93.9506C24.2606 94.7813 23.6303 94.0375 24.784 94.8259C25.0691 95.0909 24.559 95.033 24.3474 94.9617C24.6192 95.1109 24.8575 95.2891 25.0468 95.416C25.2383 95.5385 25.3809 95.6053 25.4455 95.543C25.1448 95.2891 25.1337 95.0998 25.1804 94.9216C25.225 94.7457 25.3274 94.5809 25.274 94.3671C25.5145 94.5341 25.7662 94.6922 26.0179 94.8459L26.7729 95.3114L26.5591 95.5296C26.7261 95.6365 27.0535 95.5764 27.5101 95.6143C27.7395 95.6321 28.0023 95.6722 28.2986 95.7679C28.5992 95.857 28.9378 95.9929 29.3142 96.2156C30.6238 96.8882 32.0604 97.4761 33.5526 97.9126C35.0404 98.3536 36.5616 98.7099 38.0405 98.9549C37.9692 99.122 37.3256 99.1309 36.6797 99.1153C37.0783 99.2021 37.6975 99.2511 38.0472 99.4404C37.7087 99.2266 38.0316 99.2266 38.3679 99.2489C38.7065 99.26 39.0606 99.2934 38.7866 99.1955C39.3568 99.0774 39.9448 99.0618 40.5484 99.044C40.8491 99.0396 41.152 99.0485 41.4571 99.0618C41.76 99.0641 42.0651 99.0707 42.368 99.0819C42.9739 99.1108 43.5685 99.0997 44.132 99.0663C44.6955 99.0418 45.2189 98.9327 45.6799 98.779C45.7067 98.6097 45.9183 97.8235 46.1655 96.6922C46.4127 95.563 46.6889 94.1154 46.8938 92.6745C47.0987 91.2135 47.2323 89.7614 47.2925 88.63C47.3548 87.5031 47.3504 86.6702 47.3147 86.4831C47.7023 86.414 48.0898 86.3472 48.2212 86.3851C48.0787 86.2247 47.3081 86.3094 46.9294 86.4831L46.9227 86.4809Z" fill="#156FF7"/>
<g clip-path="url(#clip0_61_1314)">
<path d="M14.2627 116.399C13.075 115.831 11.7207 115.542 10.2367 115.542C7.40566 115.542 4.79996 116.571 2.90202 118.435C1.03101 120.275 0 122.764 0 125.439C0 128.115 1.03101 130.628 2.90202 132.478C4.79996 134.354 7.40566 135.388 10.2367 135.388C11.755 135.388 13.1093 135.109 14.2603 134.555C14.346 134.514 14.3999 134.428 14.3999 134.335V130.145C14.3999 130.055 14.3509 129.974 14.2725 129.93C14.2358 129.91 14.1966 129.901 14.155 129.901C14.1085 129.901 14.0619 129.913 14.0227 129.94C13.0652 130.555 11.8481 130.88 10.506 130.88C7.40076 130.88 4.87343 128.431 4.87343 125.417C4.87343 122.404 7.40076 120.052 10.506 120.052C11.8481 120.052 13.0652 120.378 14.0227 120.993C14.0619 121.02 14.1085 121.032 14.155 121.032C14.1942 121.032 14.2358 121.022 14.2725 121.003C14.3509 120.959 14.3999 120.878 14.3999 120.787V116.62C14.3999 116.527 14.346 116.439 14.2603 116.399H14.2627Z" fill="black"/>
<path d="M25.5672 115.493C22.7558 115.493 20.1329 116.525 18.1885 118.401C16.2513 120.268 15.1836 122.767 15.1836 125.439C15.1836 128.112 16.2513 130.636 18.1885 132.512C20.1354 134.396 22.7558 135.435 25.5672 135.435C28.3786 135.435 30.9696 134.396 32.9165 132.512C34.8585 130.633 35.9263 128.12 35.9263 125.439C35.9263 122.759 34.8561 120.27 32.9165 118.401C30.9696 116.525 28.3615 115.493 25.5672 115.493ZM25.5672 130.952C22.4766 130.952 20.057 128.541 20.057 125.464C20.057 122.387 22.4766 119.976 25.5672 119.976C28.6578 119.976 31.0529 122.387 31.0529 125.464C31.0529 128.541 28.6431 130.952 25.5672 130.952Z" fill="black"/>
<path d="M57.0853 116.081H52.6527C52.5719 116.081 52.4935 116.123 52.4494 116.191L47.3825 123.805L42.0291 116.186C41.9826 116.12 41.9091 116.084 41.8283 116.084H37.3467C37.212 116.084 37.1018 116.194 37.1018 116.329V134.602C37.1018 134.737 37.212 134.847 37.3467 134.847H41.6569C41.7916 134.847 41.9018 134.737 41.9018 134.602V124.224L46.9197 131.243C46.9662 131.307 47.0397 131.346 47.1181 131.346H47.5344C47.6152 131.346 47.6887 131.307 47.7352 131.241L52.5303 124.322V134.604C52.5303 134.739 52.638 134.849 52.7752 134.849H57.0853C57.22 134.849 57.3302 134.739 57.3302 134.604V116.326C57.3302 116.191 57.22 116.081 57.0853 116.081Z" fill="black"/>
<path d="M70.2362 117.455C68.8991 116.544 67.0526 116.081 64.7506 116.081H59.3874C59.2527 116.081 59.1425 116.191 59.1425 116.326V134.602C59.1425 134.737 59.2527 134.847 59.3874 134.847H63.7465C63.8812 134.847 63.9914 134.737 63.9914 134.602V129.678H64.6771C66.6853 129.678 68.6518 129.097 70.0746 128.085C71.8134 126.848 72.7342 125.018 72.7342 122.794C72.7342 120.381 71.8942 118.585 70.2362 117.455ZM64.7506 125.39H63.9914V120.442H64.7506C66.8591 120.442 67.8853 121.211 67.8853 122.794C67.8853 124.376 66.7122 125.39 64.7506 125.39Z" fill="black"/>
<path d="M89.1176 116.081H84.7585C84.6238 116.081 84.5136 116.191 84.5136 116.326V127.497C84.5136 129.185 83.5854 131.001 81.5503 131.001C80.1226 131.001 78.5871 129.903 78.5871 127.497V116.326C78.5871 116.191 78.4769 116.081 78.3422 116.081H73.9831C73.8484 116.081 73.7382 116.191 73.7382 116.326V126.713C73.7382 132.257 76.5863 135.435 81.5503 135.435C84.0434 135.435 85.9928 134.663 87.3446 133.144C88.6842 131.638 89.3625 129.474 89.3625 126.713V116.326C89.3625 116.191 89.2523 116.081 89.1176 116.081Z" fill="black"/>
<path d="M101.803 116.081H90.489C90.3543 116.081 90.2441 116.191 90.2441 116.326V120.246C90.2441 120.381 90.3543 120.491 90.489 120.491H93.7217V134.602C93.7217 134.737 93.8319 134.847 93.9666 134.847H98.3257C98.4604 134.847 98.5706 134.737 98.5706 134.602V120.491H101.803C101.938 120.491 102.048 120.381 102.048 120.246V116.326C102.048 116.191 101.938 116.081 101.803 116.081Z" fill="black"/>
<path d="M113.95 130.511H107.779V127.277H113.117C113.252 127.277 113.362 127.167 113.362 127.032V123.529C113.362 123.394 113.252 123.284 113.117 123.284H107.779V120.417H113.754C113.889 120.417 113.999 120.307 113.999 120.172V116.326C113.999 116.191 113.889 116.081 113.754 116.081H103.175C103.04 116.081 102.93 116.191 102.93 116.326V134.602C102.93 134.737 103.04 134.847 103.175 134.847H113.95C114.085 134.847 114.195 134.737 114.195 134.602V130.756C114.195 130.621 114.085 130.511 113.95 130.511Z" fill="black"/>
<path d="M9.22279 140.239C4.18283 140.239 0.235107 144.024 0.235107 148.855C0.235107 153.686 4.18283 157.51 9.22035 157.51C14.2579 157.51 18.186 153.627 18.186 148.855C18.186 144.083 14.1648 140.241 9.22035 140.241L9.22279 140.239ZM9.22279 153.38C6.68567 153.38 4.69711 151.4 4.69711 148.875C4.69711 146.349 6.68567 144.369 9.22279 144.369C11.7599 144.369 13.7264 146.349 13.7264 148.875C13.7264 151.4 11.7477 153.38 9.22279 153.38Z" fill="black"/>
<path d="M33.203 140.739H29.3924C29.2381 140.739 29.0985 140.837 29.0471 140.984L25.4594 151.05L21.8716 140.984C21.8202 140.837 21.6806 140.739 21.5263 140.739H17.5296C17.4096 140.739 17.297 140.797 17.2284 140.898C17.1598 140.998 17.1451 141.123 17.1868 141.236L23.0153 156.773C23.0692 156.915 23.2063 157.01 23.3582 157.01H27.3549C27.5067 157.01 27.6438 156.915 27.6977 156.773L33.5483 141.236C33.5899 141.123 33.5752 140.996 33.5067 140.898C33.4381 140.797 33.3254 140.739 33.2054 140.739H33.203Z" fill="black"/>
<path d="M43.3809 153.005H38.2945V150.575H42.6732C42.8765 150.575 43.0405 150.411 43.0405 150.207V147.228C43.0405 147.025 42.8765 146.861 42.6732 146.861H38.2945V144.742H43.2144C43.4177 144.742 43.5818 144.578 43.5818 144.374V141.104C43.5818 140.9 43.4177 140.736 43.2144 140.736H34.2218C34.0186 140.736 33.8545 140.9 33.8545 141.104V156.64C33.8545 156.844 34.0186 157.008 34.2218 157.008H43.3809C43.5842 157.008 43.7483 156.844 43.7483 156.64V153.37C43.7483 153.167 43.5842 153.003 43.3809 153.003V153.005Z" fill="black"/>
<path d="M53.3947 151.131C55.4738 150.136 56.6542 148.424 56.6542 146.376C56.6542 142.74 54.1147 140.739 49.5008 140.739H45.1711C44.9678 140.739 44.8037 140.903 44.8037 141.106V156.643C44.8037 156.846 44.9678 157.01 45.1711 157.01H48.8763C49.0796 157.01 49.2437 156.846 49.2437 156.643V152.735L52.1775 156.856C52.2461 156.954 52.3588 157.01 52.4763 157.01H56.9114C57.0485 157.01 57.1759 156.932 57.2371 156.81C57.3008 156.687 57.2885 156.54 57.2077 156.427L53.3922 151.131H53.3947ZM52.2559 146.439C52.2559 147.645 51.3498 148.363 49.8339 148.363H49.2437V144.766H49.7922C52.2559 144.766 52.2559 146.025 52.2559 146.439Z" fill="black"/>
<path d="M66.4232 140.739H61.7383C61.5351 140.739 61.371 140.903 61.371 141.106V156.643C61.371 156.846 61.5351 157.01 61.7383 157.01H66.4648C70.6084 157.01 75.0337 154.867 75.0337 148.855C75.0337 142.843 70.3954 140.741 66.4232 140.741V140.739ZM66.6313 152.922H65.8134V144.827H66.6289C69.5554 144.854 70.5962 147.013 70.5962 148.855C70.5962 150.697 69.5578 152.924 66.6338 152.924L66.6313 152.922Z" fill="black"/>
<path d="M84.5846 140.974C84.5308 140.832 84.3936 140.739 84.2418 140.739H80.5781C80.4263 140.739 80.2916 140.832 80.2353 140.974L74.2182 156.511C74.1741 156.623 74.1888 156.751 74.2574 156.851C74.3259 156.952 74.4386 157.01 74.561 157.01H78.4132C78.5675 157.01 78.7071 156.912 78.7586 156.768L79.503 154.7H85.1895L85.934 156.768C85.9854 156.912 86.125 157.01 86.2793 157.01H90.2564C90.3789 157.01 90.4915 156.952 90.5601 156.851C90.6287 156.751 90.6434 156.623 90.5993 156.511L84.5822 140.974H84.5846ZM83.8867 151.048H80.8304L82.3659 146.812L83.8867 151.048Z" fill="black"/>
<path d="M99.4523 144.44V141.109C99.4523 140.905 99.2883 140.741 99.085 140.741H89.4679C89.2647 140.741 89.1006 140.905 89.1006 141.109V144.44C89.1006 144.644 89.2647 144.808 89.4679 144.808H92.0565V156.643C92.0565 156.846 92.2206 157.01 92.4238 157.01H96.1291C96.3324 157.01 96.4965 156.846 96.4965 156.643V144.808H99.085C99.2883 144.808 99.4523 144.644 99.4523 144.44Z" fill="black"/>
<path d="M114.332 156.511L108.315 140.974C108.261 140.832 108.124 140.739 107.972 140.739H104.309C104.157 140.739 104.022 140.832 103.966 140.974L97.9486 156.511C97.9046 156.623 97.9193 156.751 97.9878 156.851C98.0564 156.952 98.169 157.01 98.2915 157.01H102.144C102.298 157.01 102.438 156.912 102.489 156.768L103.234 154.7H108.92L109.664 156.768C109.716 156.912 109.855 157.01 110.01 157.01H113.987C114.109 157.01 114.222 156.952 114.291 156.851C114.359 156.751 114.374 156.623 114.33 156.511H114.332ZM107.617 151.05H104.563L106.099 146.814L107.62 151.05H107.617Z" fill="black"/>
</g>
<g clip-path="url(#clip1_61_1314)">
<path d="M12.9337 164.756H11.6118C11.5599 164.756 11.5128 164.791 11.4987 164.841L9.41095 172.194L7.39629 164.843C7.38216 164.791 7.33503 164.756 7.28319 164.756H5.94951C5.89767 164.756 5.85055 164.791 5.83641 164.843L3.80997 172.197L1.72227 164.841C1.70813 164.791 1.66101 164.756 1.60917 164.756H0.221292C0.183591 164.756 0.148246 164.773 0.127039 164.803C0.103476 164.834 0.0987636 164.872 0.108189 164.907L2.95934 174.605C2.97348 174.655 3.0206 174.69 3.07244 174.69H4.43204C4.48388 174.69 4.53101 174.655 4.54514 174.605L6.59514 167.413L8.60744 174.603C8.62158 174.655 8.66871 174.688 8.72055 174.688H10.0801C10.132 174.688 10.1791 174.653 10.1932 174.603L13.0468 164.907C13.0562 164.872 13.0515 164.834 13.0279 164.803C13.0067 164.773 12.9714 164.756 12.9337 164.756Z" fill="black"/>
<path d="M18.6878 164.444C15.6505 164.444 13.2706 166.758 13.2706 169.71C13.2706 172.662 15.6505 175.002 18.6878 175.002C21.7251 175.002 24.0932 172.629 24.0932 169.71C24.0932 166.791 21.6686 164.444 18.6878 164.444ZM18.6878 173.556C16.6025 173.556 14.8399 171.788 14.8399 169.696C14.8399 167.604 16.6025 165.888 18.6878 165.888C20.7732 165.888 22.5216 167.633 22.5216 169.696C22.5216 171.759 20.7661 173.556 18.6878 173.556Z" fill="black"/>
<path d="M28.7399 170.623C30.2267 170.228 31.1434 169.133 31.1434 167.732C31.1434 165.867 29.8639 164.754 27.722 164.754H25.5188C25.4528 164.754 25.401 164.806 25.401 164.872V174.57C25.401 174.636 25.4528 174.688 25.5188 174.688H26.8407C26.9067 174.688 26.9585 174.636 26.9585 174.57V170.868L30.2904 174.648C30.3116 174.674 30.3446 174.688 30.3776 174.688H32.0105C32.0576 174.688 32.0977 174.662 32.1189 174.619C32.1377 174.577 32.1307 174.527 32.1 174.492L28.7423 170.623H28.7399ZM26.9562 169.382V166.2H27.7314C29.0957 166.2 29.5835 166.999 29.5835 167.746C29.5835 168.71 28.8106 169.382 27.7055 169.382H26.9562Z" fill="black"/>
<path d="M36.4286 169.089L40.055 164.952C40.0856 164.917 40.0927 164.867 40.0738 164.825C40.055 164.782 40.0125 164.756 39.9654 164.756H38.3466C38.3136 164.756 38.2806 164.77 38.2594 164.796L34.798 168.722V164.874C34.798 164.808 34.7462 164.756 34.6802 164.756H33.3583C33.2923 164.756 33.2405 164.808 33.2405 164.874V174.57C33.2405 174.636 33.2923 174.688 33.3583 174.688H34.6802C34.7462 174.688 34.798 174.636 34.798 174.57V170.935L35.4036 170.242L38.9946 174.645C39.0158 174.674 39.0512 174.688 39.0865 174.688H40.7454C40.7901 174.688 40.8325 174.662 40.8514 174.619C40.8702 174.579 40.8655 174.53 40.8373 174.494L36.4309 169.086L36.4286 169.089Z" fill="black"/>
<path d="M43.3515 164.756H42.0296C41.9645 164.756 41.9117 164.809 41.9117 164.874V174.57C41.9117 174.635 41.9645 174.688 42.0296 174.688H43.3515C43.4165 174.688 43.4693 174.635 43.4693 174.57V164.874C43.4693 164.809 43.4165 164.756 43.3515 164.756Z" fill="black"/>
<path d="M53.1727 164.756H51.8508C51.7848 164.756 51.7329 164.808 51.7329 164.874V171.925L46.6857 164.806C46.6645 164.775 46.6268 164.756 46.5891 164.756H45.2154C45.1494 164.756 45.0975 164.808 45.0975 164.874V174.57C45.0975 174.636 45.1494 174.688 45.2154 174.688H46.5372C46.6032 174.688 46.6551 174.636 46.6551 174.57V167.401L51.7918 174.638C51.8131 174.669 51.8508 174.688 51.8885 174.688H53.1703C53.2363 174.688 53.2881 174.636 53.2881 174.57V164.874C53.2881 164.808 53.2363 164.756 53.1703 164.756H53.1727Z" fill="black"/>
<path d="M64.9282 169.084H60.8848C60.8377 169.084 60.7953 169.112 60.7764 169.155L60.258 170.351C60.2415 170.386 60.2462 170.429 60.2674 170.462C60.2886 170.495 60.3264 170.516 60.3664 170.516L63.432 170.504C63.1704 172.253 61.7284 173.556 60.0295 173.556C57.9441 173.556 56.1816 171.788 56.1816 169.696C56.1816 167.604 57.9441 165.888 60.0295 165.888C61.005 165.888 61.8957 166.238 62.6732 166.923C62.7204 166.966 62.7934 166.964 62.8358 166.916L63.7171 165.995C63.7383 165.971 63.7501 165.94 63.7501 165.909C63.7501 165.879 63.736 165.848 63.7124 165.827C62.7534 164.947 61.4103 164.444 60.0318 164.444C56.9945 164.444 54.6146 166.758 54.6146 169.71C54.6146 172.662 56.9945 175.002 60.0318 175.002C62.7981 175.002 65.0484 172.641 65.0484 169.736V169.204C65.0484 169.138 64.9966 169.086 64.9306 169.086L64.9282 169.084Z" fill="black"/>
<path d="M78.9248 169.084H74.8814C74.8343 169.084 74.7918 169.112 74.773 169.155L74.2546 170.351C74.2381 170.386 74.2428 170.429 74.264 170.462C74.2852 170.495 74.3276 170.504 74.363 170.516L77.4286 170.504C77.1647 172.253 75.7249 173.556 74.026 173.556C71.9407 173.556 70.1782 171.788 70.1782 169.696C70.1782 167.604 71.9407 165.888 74.026 165.888C75.0016 165.888 75.8922 166.238 76.6698 166.923C76.717 166.966 76.79 166.964 76.8324 166.916L77.7137 165.995C77.7349 165.971 77.7467 165.94 77.7467 165.909C77.7467 165.879 77.7325 165.848 77.709 165.827C76.7499 164.947 75.4068 164.444 74.0284 164.444C70.9911 164.444 68.6112 166.758 68.6112 169.71C68.6112 172.662 70.9911 175.002 74.0284 175.002C76.7947 175.002 79.045 172.641 79.045 169.736V169.204C79.045 169.138 78.9932 169.086 78.9272 169.086L78.9248 169.084Z" fill="black"/>
<path d="M83.6634 170.623C85.1502 170.228 86.0668 169.133 86.0668 167.732C86.0668 165.867 84.7873 164.754 82.6454 164.754H80.4423C80.3763 164.754 80.3245 164.806 80.3245 164.872V174.57C80.3245 174.636 80.3763 174.688 80.4423 174.688H81.7642C81.8301 174.688 81.882 174.636 81.882 174.57V170.868L85.2138 174.648C85.2374 174.674 85.268 174.688 85.3034 174.688H86.9363C86.9834 174.688 87.0235 174.662 87.0447 174.619C87.0635 174.577 87.0565 174.527 87.0258 174.492L83.6681 170.623H83.6634ZM81.8796 169.382V166.2H82.6549C84.0192 166.2 84.5069 166.999 84.5069 167.746C84.5069 168.71 83.7341 169.382 82.6289 169.382H81.8796Z" fill="black"/>
<path d="M92.5844 164.444C89.5471 164.444 87.1672 166.758 87.1672 169.71C87.1672 172.662 89.5471 175.002 92.5844 175.002C95.6217 175.002 97.9898 172.629 97.9898 169.71C97.9898 166.791 95.5652 164.444 92.5844 164.444ZM92.5844 173.556C90.4991 173.556 88.7365 171.788 88.7365 169.696C88.7365 167.604 90.4991 165.888 92.5844 165.888C94.6698 165.888 96.4182 167.633 96.4182 169.696C96.4182 171.759 94.6627 173.556 92.5844 173.556Z" fill="black"/>
<path d="M106.607 164.756H105.285C105.219 164.756 105.167 164.808 105.167 164.874V171.126C105.167 172.804 104.081 173.556 103.004 173.556C101.927 173.556 100.855 172.795 100.855 171.126V164.874C100.855 164.808 100.803 164.756 100.737 164.756H99.4154C99.3494 164.756 99.2976 164.808 99.2976 164.874V170.736C99.2976 173.447 100.648 175 103.004 175C105.36 175 106.725 173.445 106.725 170.736V164.874C106.725 164.808 106.673 164.756 106.607 164.756Z" fill="black"/>
<path d="M110.766 164.756H108.447C108.381 164.756 108.329 164.808 108.329 164.874V174.57C108.329 174.636 108.381 174.688 108.447 174.688H109.769C109.835 174.688 109.887 174.636 109.887 174.57V170.892H110.688C113.136 170.892 114.241 169.332 114.253 167.784C114.241 165.803 113.035 164.756 110.766 164.756ZM110.844 169.448H109.887V166.2H110.844C112.076 166.2 112.681 166.72 112.696 167.784C112.696 168.779 111.951 169.445 110.844 169.445V169.448Z" fill="black"/>
</g>
<defs>
<clipPath id="clip0_61_1314">
<rect width="114.357" height="42.017" fill="white" transform="translate(0 115.493)"/>
</clipPath>
<clipPath id="clip1_61_1314">
<rect width="114.15" height="10.556" fill="white" transform="translate(0.103516 164.444)"/>
</clipPath>
</defs>
</svg>
