<svg width="248" height="121" viewBox="0 0 248 121" fill="none" xmlns="http://www.w3.org/2000/svg">
<path d="M162.936 67.9092C161.412 67.9092 160.292 67.5281 159.576 66.7659C158.86 66.0037 158.502 64.9297 158.502 63.5438V42.2715H162.936V64.3753H165.327V67.9092H162.936ZM175.857 68.3249C174.564 68.3249 173.397 68.1055 172.358 67.6667C171.342 67.2278 170.464 66.5927 169.725 65.7612C169.009 64.9297 168.454 63.9365 168.062 62.7816C167.669 61.6037 167.473 60.2872 167.473 58.8321C167.473 57.3769 167.669 56.072 168.062 54.9171C168.454 53.7623 169.009 52.7806 169.725 51.9722C170.464 51.1408 171.342 50.5056 172.358 50.0667C173.397 49.6279 174.564 49.4085 175.857 49.4085C177.151 49.4085 178.317 49.6279 179.356 50.0667C180.396 50.5056 181.273 51.1408 181.989 51.9722C182.728 52.7806 183.294 53.7623 183.687 54.9171C184.08 56.072 184.276 57.3769 184.276 58.8321C184.276 60.2872 184.08 61.6037 183.687 62.7816C183.294 63.9365 182.728 64.9297 181.989 65.7612C181.273 66.5927 180.396 67.2278 179.356 67.6667C178.317 68.1055 177.151 68.3249 175.857 68.3249ZM175.857 64.7564C177.035 64.7564 177.959 64.3984 178.629 63.6824C179.299 62.9664 179.633 61.9155 179.633 60.5297V57.1691C179.633 55.8064 179.299 54.767 178.629 54.051C177.959 53.335 177.035 52.977 175.857 52.977C174.702 52.977 173.79 53.335 173.12 54.051C172.45 54.767 172.115 55.8064 172.115 57.1691V60.5297C172.115 61.9155 172.45 62.9664 173.12 63.6824C173.79 64.3984 174.702 64.7564 175.857 64.7564ZM193.719 67.9092C192.195 67.9092 191.028 67.5165 190.22 66.7312C189.435 65.9228 189.042 64.7795 189.042 63.3013V53.3581H186.374V49.8242H187.76C188.43 49.8242 188.88 49.6741 189.111 49.3738C189.365 49.0505 189.493 48.577 189.493 47.9534V44.8699H193.477V49.8242H197.184V53.3581H193.477V64.3753H196.907V67.9092H193.719ZM211.84 64.895H211.666C211.505 65.357 211.285 65.7958 211.008 66.2116C210.754 66.6042 210.419 66.9622 210.003 67.2856C209.611 67.6089 209.126 67.863 208.548 68.0478C207.994 68.2325 207.347 68.3249 206.608 68.3249C204.737 68.3249 203.305 67.7129 202.312 66.4887C201.319 65.2646 200.822 63.5207 200.822 61.2572V49.8242H205.257V60.8069C205.257 62.0541 205.5 63.0126 205.985 63.6824C206.47 64.3291 207.243 64.6525 208.306 64.6525C208.745 64.6525 209.172 64.5948 209.588 64.4793C210.027 64.3638 210.408 64.1906 210.731 63.9596C211.054 63.7055 211.32 63.4053 211.528 63.0588C211.736 62.6893 211.84 62.262 211.84 61.7769V49.8242H216.274V67.9092H211.84V64.895ZM227.322 68.3249C225.59 68.3249 224.135 68.0362 222.957 67.4588C221.779 66.8583 220.74 66.0383 219.839 64.999L222.541 62.3659C223.211 63.1281 223.939 63.7286 224.724 64.1675C225.532 64.6063 226.456 64.8257 227.496 64.8257C228.558 64.8257 229.32 64.641 229.782 64.2714C230.267 63.9018 230.51 63.3937 230.51 62.747C230.51 62.2158 230.337 61.8 229.99 61.4998C229.667 61.1764 229.101 60.957 228.292 60.8415L226.491 60.599C224.528 60.3449 223.026 59.7906 221.987 58.936C220.971 58.0583 220.463 56.788 220.463 55.125C220.463 54.2473 220.624 53.462 220.948 52.7691C221.271 52.0531 221.733 51.4526 222.333 50.9675C222.934 50.4594 223.65 50.0783 224.481 49.8242C225.336 49.5471 226.283 49.4085 227.322 49.4085C228.2 49.4085 228.974 49.4778 229.644 49.6164C230.337 49.7318 230.96 49.9166 231.515 50.1707C232.069 50.4017 232.577 50.7019 233.039 51.0715C233.501 51.4179 233.951 51.8106 234.39 52.2494L231.792 54.8478C231.26 54.2935 230.625 53.8316 229.886 53.462C229.147 53.0925 228.339 52.9077 227.461 52.9077C226.491 52.9077 225.786 53.0809 225.348 53.4274C224.932 53.7738 224.724 54.2242 224.724 54.7785C224.724 55.3791 224.897 55.841 225.244 56.1644C225.613 56.4646 226.225 56.684 227.08 56.8226L228.916 57.0651C232.82 57.6195 234.771 59.3979 234.771 62.4005C234.771 63.2782 234.586 64.0866 234.217 64.8257C233.87 65.5417 233.374 66.1654 232.727 66.6966C232.08 67.2047 231.295 67.6089 230.371 67.9092C229.47 68.1863 228.454 68.3249 227.322 68.3249Z" fill="black"/>
<path d="M104.197 80.2321C85.4606 80.2321 70.3581 60.3603 70.3581 60.3603C70.3581 60.3603 85.5742 40.4885 104.197 40.4885C122.82 40.4885 138.149 60.3603 138.149 60.3603C138.149 60.3603 122.933 80.2321 104.197 80.2321Z" fill="#716EE0"/>
<path d="M34.5888 80.2321C15.9661 80.2321 0.75 60.3603 0.75 60.3603C0.75 60.3603 15.9661 40.4885 34.5888 40.4885C53.2116 40.4885 68.5412 60.3603 68.5412 60.3603C68.5412 60.3603 53.3251 80.2321 34.5888 80.2321Z" fill="#2CDBBE"/>
<path d="M34.5888 40.4885C44.3544 56.7266 68.8819 59.5654 68.8819 59.5654C68.8819 59.5654 77.5119 35.9464 67.7464 19.7083C57.9808 3.4702 33.4533 0.631348 33.4533 0.631348C33.4533 0.631348 24.8233 24.2504 34.5888 40.4885Z" fill="#4DF4E0"/>
<path d="M71.0394 101.012C80.805 117.25 105.332 120.089 105.332 120.089C105.332 120.089 113.962 96.4703 104.197 80.2322C94.4313 63.9941 69.9039 61.1553 69.9039 61.1553C69.9039 61.1553 61.2738 84.7743 71.0394 101.012Z" fill="#807CF7"/>
<path d="M104.31 40.4885C94.5449 56.7266 70.0174 59.5654 70.0174 59.5654C70.0174 59.5654 61.3874 35.9464 71.1529 19.7083C80.9185 3.4702 105.446 0.631348 105.446 0.631348C105.446 0.631348 114.076 24.2504 104.31 40.4885Z" fill="#5C57BC"/>
<path d="M67.8599 101.012C58.0943 117.25 33.5669 120.089 33.5669 120.089C33.5669 120.089 24.9368 96.4703 34.7024 80.2322C44.468 63.9941 68.9954 61.1553 68.9954 61.1553C68.9954 61.1553 77.6255 84.7743 67.8599 101.012Z" fill="#18B4C4"/>
<path d="M69.7903 57.9757C71.2665 52.9793 75.5815 36.0599 69.4497 22.6606C63.5449 36.1735 67.2921 52.8658 69.7903 57.9757Z" fill="#27BA9E"/>
<path d="M34.5888 80.2322C50.8269 80.1187 64.1127 65.0161 67.5192 61.0417C62.4094 61.8366 42.9918 66.0381 34.5888 80.2322Z" fill="#169FA5"/>
<path d="M34.5888 40.4886C43.2189 54.4556 62.5229 58.8842 67.8599 58.9977C64.4533 55.0234 50.8269 40.375 34.5888 40.4886Z" fill="#27BABA"/>
<path d="M71.0394 61.723C74.446 65.6974 88.0724 80.4593 104.31 80.2322C95.6804 66.2651 76.6035 61.723 71.0394 61.723Z" fill="#5D5DCE"/>
<path d="M71.3801 59.6791C76.4899 58.7707 95.9075 54.5692 104.31 40.4886C88.0724 40.6022 74.6731 55.7048 71.3801 59.6791Z" fill="#4545A3"/>
<path d="M69.4497 97.9465C75.3544 84.4336 71.2665 67.2871 69.109 62.6315C67.6328 67.6278 63.3178 84.5472 69.4497 97.9465Z" fill="#6969E2"/>
<path d="M69.3361 37.082C56.391 36.9684 45.9442 47.5288 45.9442 60.2468C45.8306 73.1919 56.391 83.6387 69.2225 83.6387C82.0541 83.6387 92.3874 73.3054 92.5009 60.5875C92.6145 47.6424 82.0541 37.1955 69.3361 37.082Z" fill="white"/>
<path d="M79.8965 46.0525C79.2666 45.2161 78.1932 44.8035 76.9442 44.8035C74.7866 44.6899 72.9698 45.7119 71.4936 47.7558C70.2445 49.4591 69.6768 51.3895 69.109 53.3199L68.9954 53.6606C68.8819 54.1148 68.7683 54.4555 68.6548 54.9097L68.5412 55.2504L61.9551 54.3419L61.6145 56.613L67.9735 57.635L67.2921 60.5874L61.1603 59.6789L60.8196 61.95L66.8379 62.8584C66.8379 62.972 66.8379 62.972 66.8379 63.0855C66.7244 63.7668 66.4973 64.5617 66.3837 65.243C65.9295 67.1734 65.4753 69.1038 65.0211 71.0342C64.6804 72.5104 63.9991 73.5324 63.2042 74.2137C62.9771 74.4409 62.6365 74.5544 62.4094 74.6679C61.9551 74.6679 61.5009 74.4408 61.1603 73.9866C61.0467 73.8731 61.0467 73.7595 60.9332 73.646C60.7061 73.3053 60.479 72.9646 60.1383 72.7375C59.9112 72.5104 59.457 72.3969 59.0028 72.3969C58.8892 72.3969 58.7757 72.5104 58.6621 72.5104C58.3214 72.8511 57.9808 73.4189 58.0943 73.9866C58.0943 74.4408 58.5486 74.8951 58.8892 75.2357C59.6841 75.8035 60.479 76.1441 61.5009 76.1441C61.6145 76.1441 61.6145 76.1441 61.728 76.1441C62.0687 76.1441 62.4094 76.1441 62.75 76.0306C64.794 75.5764 66.4973 74.3273 67.5192 72.2833C68.3141 70.8071 68.8819 69.1038 69.3361 67.6276C69.6768 66.6057 69.9039 65.5837 70.131 64.5617C70.2445 64.2211 70.3581 63.7669 70.4716 63.4262L76.7171 64.3346L77.3984 62.0635L70.9258 61.1551L71.4936 58.0892L77.3984 58.8841L77.9661 56.613L71.8343 55.7046C72.0614 55.1368 72.1749 54.4555 72.2885 53.8877C72.7427 52.0709 73.1969 50.3676 73.7647 48.7778C73.9918 48.21 74.446 47.5287 75.1273 46.7339C75.3544 46.5068 75.5815 46.3932 75.9222 46.2797C76.3764 46.2797 76.8306 46.5068 77.1713 46.961L77.2848 47.1881C77.5119 47.5287 77.739 47.7559 77.9661 48.0965C78.0797 48.2101 78.1932 48.3236 78.3068 48.4372C78.8746 48.7778 79.3288 48.6643 79.6694 48.3236C80.0101 47.9829 80.0101 47.5288 80.0101 46.961V46.8474C80.0101 46.552 80.0101 46.2864 79.8965 46.0525Z" fill="#5C57BC"/>
</svg>
