<?xml version="1.0" encoding="UTF-8"?><svg id="Layer_1" xmlns="http://www.w3.org/2000/svg" xmlns:xlink="http://www.w3.org/1999/xlink" viewBox="0 0 850 632"><defs><style>.cls-1{fill:url(#linear-gradient);}.cls-2,.cls-3{fill:#fff;}.cls-3{fill-rule:evenodd;}</style><linearGradient id="linear-gradient" x1="245.7" y1="-1143.93" x2="597.52" y2="-1143.93" gradientTransform="translate(1.3 -901.5) scale(1 -1)" gradientUnits="userSpaceOnUse"><stop offset="0" stop-color="#0090ff"/><stop offset="1" stop-color="#0ed1ff"/></linearGradient></defs><g><path d="M75.44,537.06v28.37h-9.61v-65.54h26.21c13.62,0,20.89,7.41,20.89,17.62,0,8.57-4.87,13.65-10.86,15.43,4.95,1.39,9.65,5.27,9.65,16.71v2.89c0,4.49-.17,10.08,.89,12.88h-9.39c-1.18-2.83-1.16-7.9-1.16-14.21v-1.31c0-8.92-2.48-12.85-14.01-12.85h-12.63Zm0-8.06h13.8c9.59,0,13.72-3.61,13.72-10.62s-4.34-10.42-12.86-10.42h-14.66v21.04Z"/><path d="M131.24,543.18c.05,9.04,4.6,15.77,12.46,15.77,7.2,0,9.49-3.58,10.97-6.98h9.32c-1.85,6.1-7.03,14.59-20.56,14.59-15.24,0-21.54-12.19-21.54-24.6,0-14.44,7.3-25.7,22.06-25.7,15.69,0,20.87,12.34,20.87,22.92,0,1.49,0,2.68-.14,4h-33.44Zm24.21-6.3c-.1-7.45-3.73-13.49-11.61-13.49s-11.54,5.59-12.32,13.49h23.92Z"/><path d="M169.59,517.4h8.13v-13.95h9.26v13.95h10.37v7.39h-10.37v27.28c0,4.47,1.13,6.68,5.41,6.68,1.07,0,2.71-.05,3.96-.35v6.81c-2.16,.79-5.15,.89-7.52,.89-7.84,0-11.11-4.09-11.11-12.15v-29.15h-8.13v-7.39Z"/><path d="M205.66,530.44c0-6.34-.05-10.21-.09-13.05h9.08c.14,1.3,.27,5.26,.27,9.54,2.44-6.3,8.05-10.47,16.03-10.67v9.13c-9.81,.19-16.03,4.84-16.03,17.18v22.86h-9.26v-34.99Z"/><path d="M239.05,496.23h9.26v10.65h-9.26v-10.65Zm0,21.16h9.26v48.04h-9.26v-48.04Z"/><path d="M268.12,543.18c.05,9.04,4.6,15.77,12.46,15.77,7.2,0,9.49-3.58,10.97-6.98h9.32c-1.85,6.1-7.03,14.59-20.56,14.59-15.24,0-21.54-12.19-21.54-24.6,0-14.44,7.3-25.7,22.06-25.7,15.69,0,20.87,12.34,20.87,22.92,0,1.49,0,2.68-.14,4h-33.44Zm24.21-6.3c-.1-7.45-3.73-13.49-11.61-13.49s-11.54,5.59-12.32,13.49h23.92Z"/><path d="M317.01,517.4c6.1,18.99,10.65,33.58,12.02,39.54h.1c1.21-5.85,6.24-20.25,12.86-39.54h9.38l-17.53,48.04h-10.08l-16.67-48.04h9.93Z"/><path d="M394.58,554.58c0,4.41,.37,9.51,.66,10.85h-8.86c-.38-1.05-.66-3.38-.76-5.98-1.69,3.11-5.41,7.11-14.57,7.11-11.38,0-16.22-7.42-16.22-14.75,0-10.76,8.49-15.69,22.73-15.69h7.94v-3.87c0-4.07-1.33-8.89-9.77-8.89-7.56,0-8.88,3.67-9.71,7.37h-8.92c.65-6.99,4.97-14.5,18.94-14.45,11.96,.04,18.56,4.87,18.56,15.9v22.42Zm-9.04-12.27h-7.32c-9.27,0-13.98,2.61-13.98,8.96,0,4.7,3.17,8.2,8.88,8.2,10.96,0,12.42-7.42,12.42-15.68v-1.48Z"/><path d="M408.39,565.43v-69.2h9.26v69.2h-9.26Z"/><path d="M512.48,538.13c0-11.98,.14-24.39,.42-31.38h-.37c-2.85,11.14-12.69,38.08-19.98,58.68h-8.6c-5.51-16.99-15.69-47.27-18.62-58.81h-.32c.51,7.59,.74,21.94,.74,33.18v25.63h-9.08v-65.54h14.5c7,19.73,15.46,45.07,17.65,53.68h.15c1.55-6.74,11.63-34.44,18.91-53.68h14.07v65.54h-9.47v-27.3Z"/><path d="M572.21,554.58c0,4.41,.37,9.51,.66,10.85h-8.86c-.38-1.05-.66-3.38-.76-5.98-1.69,3.11-5.41,7.11-14.57,7.11-11.38,0-16.22-7.42-16.22-14.75,0-10.76,8.49-15.69,22.73-15.69h7.94v-3.87c0-4.07-1.33-8.89-9.77-8.89-7.56,0-8.88,3.67-9.71,7.37h-8.92c.65-6.99,4.97-14.5,18.94-14.45,11.96,.04,18.56,4.87,18.56,15.9v22.42Zm-9.04-12.27h-7.32c-9.27,0-13.98,2.61-13.98,8.96,0,4.7,3.17,8.2,8.88,8.2,10.96,0,12.42-7.42,12.42-15.68v-1.48Z"/><path d="M586.02,530.44c0-6.34-.05-10.21-.09-13.05h9.08c.14,1.3,.27,5.26,.27,9.54,2.44-6.3,8.05-10.47,16.03-10.67v9.13c-9.81,.19-16.03,4.84-16.03,17.18v22.86h-9.26v-34.99Z"/><path d="M629.05,539.81c3.96-4.75,13.69-15.15,20.23-22.42h10.92l-17.82,18.61,19.8,29.43h-10.74l-15.37-23.5-7.02,6.78v16.72h-9.26v-69.2h9.26v43.58Z"/><path d="M673.39,543.18c.05,9.04,4.6,15.77,12.46,15.77,7.2,0,9.49-3.58,10.97-6.98h9.32c-1.85,6.1-7.03,14.59-20.56,14.59-15.24,0-21.54-12.19-21.54-24.6,0-14.44,7.3-25.7,22.06-25.7,15.69,0,20.87,12.34,20.87,22.92,0,1.49,0,2.68-.14,4h-33.44Zm24.21-6.3c-.1-7.45-3.73-13.49-11.61-13.49s-11.54,5.59-12.32,13.49h23.92Z"/><path d="M711.74,517.4h8.13v-13.95h9.26v13.95h10.37v7.39h-10.37v27.28c0,4.47,1.13,6.68,5.41,6.68,1.07,0,2.71-.05,3.96-.35v6.81c-2.16,.79-5.15,.89-7.52,.89-7.84,0-11.11-4.09-11.11-12.15v-29.15h-8.13v-7.39Z"/><path d="M754.18,551.55c1.31,4.97,5.04,7.88,11.26,7.88,6.64,0,9.22-2.8,9.22-6.88s-2.18-6.14-10.9-8.25c-14.1-3.44-16.91-7.76-16.91-14.33s4.99-13.71,17.75-13.71,17.86,7.33,18.44,13.98h-8.92c-.63-2.85-2.76-6.98-9.92-6.98-6.28,0-8.17,2.99-8.17,5.95,0,3.35,1.88,5.01,10.49,7.06,14.85,3.51,17.64,8.49,17.64,15.61,0,8.33-6.56,14.68-19.03,14.68s-18.94-6.43-20.13-15.01h9.19Z"/></g><g><path class="cls-1" d="M422.45,65.44c-97.05,0-175.72,78.67-175.72,175.72s78.67,175.72,175.72,175.72,175.72-78.67,175.72-175.72c-.12-97-78.72-175.6-175.72-175.72Z"/><path class="cls-3" d="M432.99,237.05c5.9,.76,11.55,1.62,17.45,2.44,.5-1.8,.89-3.35,1.4-5-6.03-.89-11.79-1.8-18.06-2.7,2.05-7.44,3.83-14.49,6.14-21.41,.91-2.32,2.3-4.42,4.06-6.17,2.18-2.31,5.26-1.79,7.18,.78,.74,1.08,1.55,2.1,2.44,3.07,1.01,1.32,2.88,1.6,4.22,.63,.78-.76,.78-2.44,.91-3.83,0-.52-.65-1.15-1.04-1.62-2.06-2.17-4.95-3.35-7.94-3.25-6.66-.26-11.53,3.07-15.25,8.33-3.72,5.26-5.39,11.14-7.18,17.06-.52,1.79-1.02,3.46-1.62,5.38-6.5-.89-12.82-1.79-19.23-2.83-.24,1.8-.37,3.35-.63,5.13,6.5,1.02,12.44,1.92,18.71,2.96-.89,3.59-1.62,6.92-2.44,10.25-6.16-.89-12.05-1.62-17.87-2.57-.24,1.92-.37,3.33-.63,5,5.9,.89,11.66,1.79,17.43,2.7,.07,.46,.07,.93,0,1.4-1.79,7.83-3.59,15.64-5.64,23.47-.81,3.79-2.78,7.24-5.64,9.86-1.68,1.8-4.51,1.9-6.31,.22-.35-.32-.64-.7-.87-1.11-.75-1.26-1.66-2.42-2.7-3.46-.94-.68-2.14-.88-3.25-.52-.99,.94-1.57,2.23-1.62,3.59,.26,1.22,1,2.29,2.05,2.96,3.01,2.25,6.89,3.01,10.53,2.05,5.92-1.2,10.92-5.15,13.45-10.64,2.07-4.4,3.83-8.93,5.26-13.58,1.41-4.24,2.31-8.46,3.46-12.99l18.32,2.68c.52-1.79,1.04-3.25,1.41-5-6.4-.89-12.56-1.79-18.71-2.81,.89-3.59,1.62-6.92,2.18-10.38l.05-.06Z"/><polygon class="cls-2" points="326.32 270.12 325.62 262.27 281.47 276.55 282.27 284.36 326.32 270.12"/><polygon class="cls-2" points="300.62 301.08 326.32 292.68 325.62 284.83 300.62 293 300.62 301.08"/><path class="cls-2" d="M470.35,167.59l-35.56-15.9-102.51,34.35,15.24,160.25,181.31-60.77-12.62-132.72-45.85,14.78Zm46.55,110.29l-159.99,53.6-10.82-112.47,63.45-20.34-10.79-4.65-53.47,17.09-1.62-17.22,90.64-30.31h.32l34.11,14.62,38.63-12.7,10.28,112.08-.73,.29Z"/></g></svg>