<?xml version="1.0" encoding="UTF-8"?><svg id="Layer_1" xmlns="http://www.w3.org/2000/svg" viewBox="0 0 1200 356"><defs><style>.cls-1{fill:#fff;}</style></defs><g><path class="cls-1" d="M364.61,184.11v30.61h-10.36v-70.71h28.28c14.7,0,22.55,8,22.55,19.01,0,9.25-5.26,14.74-11.72,16.65,5.34,1.5,10.41,5.68,10.41,18.03v3.12c0,4.85-.17,10.88,.96,13.9h-10.14c-1.28-3.05-1.25-8.52-1.25-15.33v-1.42c0-9.62-2.68-13.86-15.12-13.86h-13.62Zm0-8.7h14.89c10.35,0,14.81-3.9,14.81-11.46s-4.69-11.25-13.89-11.25h-15.82v22.7Z"/><path class="cls-1" d="M424.81,190.71c.05,9.75,4.96,17.02,13.44,17.02,7.76,0,10.23-3.87,11.84-7.53h10.05c-2,6.58-7.58,15.74-22.19,15.74-16.45,0-23.24-13.15-23.24-26.54,0-15.58,7.88-27.73,23.8-27.73,16.93,0,22.52,13.31,22.52,24.73,0,1.61,0,2.9-.15,4.31h-36.08Zm26.12-6.79c-.1-8.04-4.03-14.55-12.52-14.55s-12.45,6.03-13.29,14.55h25.81Z"/><path class="cls-1" d="M466.19,162.89h8.77v-15.05h9.99v15.05h11.19v7.98h-11.19v29.43c0,4.82,1.22,7.2,5.83,7.2,1.16,0,2.93-.06,4.28-.38v7.35c-2.33,.85-5.56,.96-8.12,.96-8.46,0-11.99-4.41-11.99-13.12v-31.45h-8.77v-7.98Z"/><path class="cls-1" d="M505.1,176.97c0-6.84-.05-11.01-.1-14.08h9.8c.15,1.4,.29,5.67,.29,10.29,2.63-6.8,8.68-11.29,17.3-11.51v9.85c-10.59,.2-17.3,5.22-17.3,18.54v24.67h-9.99v-37.75Z"/><path class="cls-1" d="M541.13,140.06h9.99v11.49h-9.99v-11.49Zm0,22.83h9.99v51.83h-9.99v-51.83Z"/><path class="cls-1" d="M572.5,190.71c.05,9.75,4.96,17.02,13.44,17.02,7.76,0,10.23-3.87,11.84-7.53h10.05c-2,6.58-7.58,15.74-22.19,15.74-16.45,0-23.24-13.15-23.24-26.54,0-15.58,7.88-27.73,23.8-27.73,16.93,0,22.52,13.31,22.52,24.73,0,1.61,0,2.9-.15,4.31h-36.08Zm26.12-6.79c-.1-8.04-4.03-14.55-12.52-14.55s-12.45,6.03-13.29,14.55h25.81Z"/><path class="cls-1" d="M625.24,162.89c6.58,20.49,11.5,36.23,12.97,42.66h.1c1.31-6.31,6.73-21.85,13.87-42.66h10.11l-18.92,51.83h-10.88l-17.98-51.83h10.71Z"/><path class="cls-1" d="M708.94,203.01c0,4.76,.4,10.27,.71,11.71h-9.56c-.41-1.13-.71-3.65-.82-6.45-1.82,3.35-5.84,7.67-15.73,7.67-12.27,0-17.5-8.01-17.5-15.92,0-11.62,9.16-16.94,24.53-16.94h8.56v-4.17c0-4.4-1.43-9.6-10.54-9.6-8.15,0-9.59,3.96-10.48,7.95h-9.62c.7-7.54,5.37-15.64,20.44-15.6,12.9,.05,20.02,5.26,20.02,17.15v24.19Zm-9.75-13.24h-7.9c-10.01,0-15.08,2.81-15.08,9.67,0,5.07,3.42,8.85,9.58,8.85,11.83,0,13.41-8.01,13.41-16.92v-1.6Z"/><path class="cls-1" d="M723.84,214.72v-74.66h9.99v74.66h-9.99Z"/><path class="cls-1" d="M836.15,185.27c0-12.93,.15-26.31,.46-33.86h-.4c-3.08,12.02-13.7,41.08-21.56,63.31h-9.28c-5.94-18.33-16.93-51-20.09-63.46h-.34c.56,8.19,.81,23.68,.81,35.8v27.66h-9.8v-70.71h15.65c7.55,21.29,16.68,48.63,19.05,57.92h.16c1.68-7.28,12.55-37.16,20.4-57.92h15.18v70.71h-10.22v-29.45Z"/><path class="cls-1" d="M900.6,203.01c0,4.76,.41,10.27,.71,11.71h-9.56c-.41-1.13-.71-3.65-.83-6.45-1.82,3.35-5.84,7.67-15.72,7.67-12.27,0-17.5-8.01-17.5-15.92,0-11.62,9.17-16.94,24.53-16.94h8.56v-4.17c0-4.4-1.44-9.6-10.54-9.6-8.15,0-9.59,3.96-10.48,7.95h-9.62c.7-7.54,5.37-15.64,20.44-15.6,12.9,.05,20.02,5.26,20.02,17.15v24.19Zm-9.75-13.24h-7.89c-10.01,0-15.09,2.81-15.09,9.67,0,5.07,3.42,8.85,9.58,8.85,11.83,0,13.4-8.01,13.4-16.92v-1.6Z"/><path class="cls-1" d="M915.49,176.97c0-6.84-.05-11.01-.1-14.08h9.8c.15,1.4,.29,5.67,.29,10.29,2.63-6.8,8.68-11.29,17.3-11.51v9.85c-10.59,.2-17.3,5.22-17.3,18.54v24.67h-9.99v-37.75Z"/><path class="cls-1" d="M961.92,187.08c4.27-5.13,14.77-16.35,21.82-24.18h11.79l-19.23,20.08,21.36,31.75h-11.59l-16.59-25.35-7.57,7.31v18.04h-9.99v-74.66h9.99v47.02Z"/><path class="cls-1" d="M1009.76,190.71c.05,9.75,4.96,17.02,13.44,17.02,7.77,0,10.24-3.87,11.84-7.53h10.05c-2,6.58-7.58,15.74-22.18,15.74-16.45,0-23.24-13.15-23.24-26.54,0-15.58,7.88-27.73,23.8-27.73,16.93,0,22.52,13.31,22.52,24.73,0,1.61,0,2.9-.15,4.31h-36.08Zm26.12-6.79c-.1-8.04-4.03-14.55-12.52-14.55s-12.45,6.03-13.29,14.55h25.82Z"/><path class="cls-1" d="M1051.14,162.89h8.77v-15.05h9.99v15.05h11.19v7.98h-11.19v29.43c0,4.82,1.22,7.2,5.83,7.2,1.16,0,2.92-.06,4.27-.38v7.35c-2.33,.85-5.56,.96-8.12,.96-8.46,0-11.98-4.41-11.98-13.12v-31.45h-8.77v-7.98Z"/><path class="cls-1" d="M1096.93,199.75c1.41,5.37,5.44,8.51,12.14,8.51,7.16,0,9.95-3.02,9.95-7.42s-2.35-6.62-11.77-8.9c-15.21-3.71-18.24-8.38-18.24-15.47s5.39-14.79,19.16-14.79,19.27,7.9,19.9,15.09h-9.62c-.69-3.07-2.98-7.53-10.71-7.53-6.78,0-8.81,3.22-8.81,6.41,0,3.62,2.03,5.41,11.32,7.62,16.02,3.79,19.03,9.16,19.03,16.84,0,8.99-7.07,15.85-20.54,15.85s-20.44-6.94-21.72-16.2h9.91Z"/></g><g><path class="cls-1" d="M204.81,139.13l-20.61-8.83-.18-.08-54.72,18.38,.98,10.4,32.39-10.28,6.52,2.82-38.41,12.28,6.54,67.99,96.68-32.44,.36-.13-6.21-67.73-23.34,7.62Zm-6.46,19.91c-.82,.58-1.95,.41-2.56-.38-.54-.58-1.03-1.21-1.47-1.86-1.16-1.54-3.02-1.86-4.34-.46-1.07,1.06-1.92,2.32-2.47,3.72-1.39,4.18-2.48,8.44-3.72,12.94,3.8,.54,7.28,1.08,10.92,1.63-.31,.98-.55,1.96-.85,3.01-3.56-.46-6.98-.98-10.54-1.46-.38,2.09-.77,4.1-1.32,6.27,3.72,.62,7.44,1.16,11.31,1.7-.23,.98-.54,1.96-.84,3.02l-11.08-1.63c-.7,2.72-1.24,5.27-2.09,7.85-.86,2.81-1.92,5.55-3.18,8.21-1.53,3.32-4.55,5.7-8.13,6.43-2.19,.58-4.54,.13-6.35-1.24-.64-.41-1.09-1.05-1.25-1.79,.03-.82,.38-1.6,.98-2.17,.67-.22,1.4-.1,1.96,.31,.63,.63,1.18,1.33,1.63,2.09,.72,1.31,2.36,1.78,3.67,1.06,.25-.14,.48-.31,.67-.52,1.72-1.59,2.91-3.67,3.41-5.96,1.24-4.73,2.33-9.45,3.41-14.18,.04-.28,.04-.56,0-.84-3.48-.55-6.97-1.09-10.53-1.63,.16-.98,.24-1.86,.39-3.02,3.56,.54,7.13,.98,10.8,1.55,.47-1.96,.93-4.03,1.47-6.2-3.79-.62-7.43-1.16-11.31-1.78,.16-1.09,.24-1.96,.39-3.1,3.87,.62,7.67,1.17,11.61,1.71,.31-1.16,.63-2.17,.98-3.26,1.09-3.56,2.09-7.2,4.34-10.3,2.25-3.09,5.19-5.19,9.22-5.04,1.81-.06,3.56,.65,4.81,1.96,.23,.31,.62,.7,.62,.98-.09,.9-.09,1.91-.55,2.38h0Z"/><path class="cls-1" d="M176.91,71.81c-58.65,0-106.19,47.54-106.19,106.19s47.54,106.19,106.19,106.19,106.19-47.54,106.19-106.19c0-.02,0-.03,0-.05-.1-58.6-47.59-106.07-106.19-106.14ZM92.2,200.79l-.48-4.72,26.68-8.63,.42,4.74-26.62,8.61Zm11.09,10.1v-4.91l15.11-4.91,.42,4.74-15.53,5.07Zm28.33,29.75l-9.2-96.79,61.97-20.77,21.47,9.59,27.71-8.93,7.63,80.23-109.57,36.67Z"/></g></svg>