<?xml version="1.0" encoding="UTF-8"?><svg id="Layer_1" xmlns="http://www.w3.org/2000/svg" xmlns:xlink="http://www.w3.org/1999/xlink" viewBox="0 0 1200 356"><defs><style>.cls-1{fill:url(#linear-gradient);}.cls-2,.cls-3{fill:#fff;}.cls-3{fill-rule:evenodd;}</style><linearGradient id="linear-gradient" x1="69.31" y1="1938.41" x2="281.92" y2="1938.41" gradientTransform="translate(1.5 2114.26) scale(1 -1)" gradientUnits="userSpaceOnUse"><stop offset="0" stop-color="#0090ff"/><stop offset="1" stop-color="#0ed1ff"/></linearGradient></defs><g><path d="M364.61,184.11v30.61h-10.36v-70.71h28.28c14.7,0,22.55,8,22.55,19.01,0,9.25-5.26,14.74-11.72,16.65,5.34,1.5,10.41,5.68,10.41,18.03v3.12c0,4.85-.17,10.88,.96,13.9h-10.14c-1.28-3.05-1.25-8.52-1.25-15.33v-1.42c0-9.62-2.68-13.86-15.12-13.86h-13.62Zm0-8.7h14.89c10.35,0,14.81-3.9,14.81-11.46s-4.69-11.25-13.89-11.25h-15.82v22.7Z"/><path d="M424.81,190.71c.05,9.75,4.96,17.02,13.44,17.02,7.76,0,10.23-3.87,11.84-7.53h10.05c-2,6.58-7.58,15.74-22.19,15.74-16.45,0-23.24-13.15-23.24-26.54,0-15.58,7.88-27.73,23.8-27.73,16.93,0,22.52,13.31,22.52,24.73,0,1.61,0,2.9-.15,4.31h-36.08Zm26.12-6.79c-.1-8.04-4.03-14.55-12.52-14.55s-12.45,6.03-13.29,14.55h25.81Z"/><path d="M466.19,162.89h8.77v-15.05h9.99v15.05h11.19v7.98h-11.19v29.43c0,4.82,1.22,7.2,5.83,7.2,1.16,0,2.93-.06,4.28-.38v7.35c-2.33,.85-5.56,.96-8.12,.96-8.46,0-11.99-4.41-11.99-13.12v-31.45h-8.77v-7.98Z"/><path d="M505.1,176.97c0-6.84-.05-11.01-.1-14.08h9.8c.15,1.4,.29,5.67,.29,10.29,2.63-6.8,8.68-11.29,17.3-11.51v9.85c-10.59,.2-17.3,5.22-17.3,18.54v24.67h-9.99v-37.75Z"/><path d="M541.13,140.06h9.99v11.49h-9.99v-11.49Zm0,22.83h9.99v51.83h-9.99v-51.83Z"/><path d="M572.5,190.71c.05,9.75,4.96,17.02,13.44,17.02,7.76,0,10.23-3.87,11.84-7.53h10.05c-2,6.58-7.58,15.74-22.19,15.74-16.45,0-23.24-13.15-23.24-26.54,0-15.58,7.88-27.73,23.8-27.73,16.93,0,22.52,13.31,22.52,24.73,0,1.61,0,2.9-.15,4.31h-36.08Zm26.12-6.79c-.1-8.04-4.03-14.55-12.52-14.55s-12.45,6.03-13.29,14.55h25.81Z"/><path d="M625.24,162.89c6.58,20.49,11.5,36.23,12.97,42.66h.1c1.31-6.31,6.73-21.85,13.87-42.66h10.11l-18.92,51.83h-10.88l-17.98-51.83h10.71Z"/><path d="M708.94,203.01c0,4.76,.4,10.27,.71,11.71h-9.56c-.41-1.13-.71-3.65-.82-6.45-1.82,3.35-5.84,7.67-15.73,7.67-12.27,0-17.5-8.01-17.5-15.92,0-11.62,9.16-16.94,24.53-16.94h8.56v-4.17c0-4.4-1.43-9.6-10.54-9.6-8.15,0-9.59,3.96-10.48,7.95h-9.62c.7-7.54,5.37-15.64,20.44-15.6,12.9,.05,20.02,5.26,20.02,17.15v24.19Zm-9.75-13.24h-7.9c-10.01,0-15.08,2.81-15.08,9.67,0,5.07,3.42,8.85,9.58,8.85,11.83,0,13.41-8.01,13.41-16.92v-1.6Z"/><path d="M723.84,214.72v-74.66h9.99v74.66h-9.99Z"/><path d="M836.15,185.27c0-12.93,.15-26.31,.46-33.86h-.4c-3.08,12.02-13.7,41.08-21.56,63.31h-9.28c-5.94-18.33-16.93-51-20.09-63.46h-.34c.56,8.19,.81,23.68,.81,35.8v27.66h-9.8v-70.71h15.65c7.55,21.29,16.68,48.63,19.05,57.92h.16c1.68-7.28,12.55-37.16,20.4-57.92h15.18v70.71h-10.22v-29.45Z"/><path d="M900.6,203.01c0,4.76,.41,10.27,.71,11.71h-9.56c-.41-1.13-.71-3.65-.83-6.45-1.82,3.35-5.84,7.67-15.72,7.67-12.27,0-17.5-8.01-17.5-15.92,0-11.62,9.17-16.94,24.53-16.94h8.56v-4.17c0-4.4-1.44-9.6-10.54-9.6-8.15,0-9.59,3.96-10.48,7.95h-9.62c.7-7.54,5.37-15.64,20.44-15.6,12.9,.05,20.02,5.26,20.02,17.15v24.19Zm-9.75-13.24h-7.89c-10.01,0-15.09,2.81-15.09,9.67,0,5.07,3.42,8.85,9.58,8.85,11.83,0,13.4-8.01,13.4-16.92v-1.6Z"/><path d="M915.49,176.97c0-6.84-.05-11.01-.1-14.08h9.8c.15,1.4,.29,5.67,.29,10.29,2.63-6.8,8.68-11.29,17.3-11.51v9.85c-10.59,.2-17.3,5.22-17.3,18.54v24.67h-9.99v-37.75Z"/><path d="M961.92,187.08c4.27-5.13,14.77-16.35,21.82-24.18h11.79l-19.23,20.08,21.36,31.75h-11.59l-16.59-25.35-7.57,7.31v18.04h-9.99v-74.66h9.99v47.02Z"/><path d="M1009.76,190.71c.05,9.75,4.96,17.02,13.44,17.02,7.77,0,10.24-3.87,11.84-7.53h10.05c-2,6.58-7.58,15.74-22.18,15.74-16.45,0-23.24-13.15-23.24-26.54,0-15.58,7.88-27.73,23.8-27.73,16.93,0,22.52,13.31,22.52,24.73,0,1.61,0,2.9-.15,4.31h-36.08Zm26.12-6.79c-.1-8.04-4.03-14.55-12.52-14.55s-12.45,6.03-13.29,14.55h25.82Z"/><path d="M1051.14,162.89h8.77v-15.05h9.99v15.05h11.19v7.98h-11.19v29.43c0,4.82,1.22,7.2,5.83,7.2,1.16,0,2.92-.06,4.27-.38v7.35c-2.33,.85-5.56,.96-8.12,.96-8.46,0-11.98-4.41-11.98-13.12v-31.45h-8.77v-7.98Z"/><path d="M1096.93,199.75c1.41,5.37,5.44,8.51,12.14,8.51,7.16,0,9.95-3.02,9.95-7.42s-2.35-6.62-11.77-8.9c-15.21-3.71-18.24-8.38-18.24-15.47s5.39-14.79,19.16-14.79,19.27,7.9,19.9,15.09h-9.62c-.69-3.07-2.98-7.53-10.71-7.53-6.78,0-8.81,3.22-8.81,6.41,0,3.62,2.03,5.41,11.32,7.62,16.02,3.79,19.03,9.16,19.03,16.84,0,8.99-7.07,15.85-20.54,15.85s-20.44-6.94-21.72-16.2h9.91Z"/></g><g><path class="cls-1" d="M176.91,71.81c-58.65,0-106.19,47.54-106.19,106.19s47.54,106.19,106.19,106.19,106.19-47.54,106.19-106.19c-.07-58.62-47.57-106.12-106.19-106.19Z"/><path class="cls-3" d="M183.28,175.52c3.56,.46,6.98,.98,10.54,1.47,.3-1.09,.54-2.02,.84-3.02-3.64-.54-7.13-1.09-10.92-1.63,1.24-4.5,2.32-8.76,3.71-12.94,.55-1.4,1.39-2.67,2.45-3.73,1.32-1.39,3.18-1.08,4.34,.47,.45,.65,.94,1.27,1.47,1.86,.61,.8,1.74,.96,2.55,.38,.47-.46,.47-1.47,.55-2.32,0-.31-.39-.7-.63-.98-1.24-1.31-2.99-2.03-4.8-1.96-4.02-.16-6.97,1.86-9.22,5.04-2.25,3.18-3.26,6.73-4.34,10.31-.31,1.08-.62,2.09-.98,3.25-3.93-.54-7.74-1.08-11.62-1.71-.15,1.09-.23,2.02-.38,3.1,3.93,.62,7.52,1.16,11.31,1.79-.54,2.17-.98,4.18-1.47,6.19-3.72-.54-7.28-.98-10.8-1.55-.15,1.16-.23,2.01-.38,3.02,3.56,.54,7.05,1.08,10.53,1.63,.04,.28,.04,.56,0,.84-1.08,4.73-2.17,9.45-3.41,14.18-.49,2.29-1.68,4.37-3.41,5.96-1.02,1.09-2.73,1.15-3.82,.13-.21-.19-.39-.42-.52-.67-.45-.76-1-1.46-1.63-2.09-.57-.41-1.3-.53-1.96-.31-.6,.57-.95,1.35-.98,2.17,.16,.74,.6,1.38,1.24,1.79,1.82,1.36,4.16,1.82,6.36,1.24,3.58-.72,6.6-3.11,8.13-6.43,1.25-2.66,2.31-5.4,3.18-8.21,.85-2.56,1.39-5.11,2.09-7.85l11.07,1.62c.31-1.08,.63-1.96,.85-3.02-3.87-.54-7.59-1.08-11.31-1.7,.54-2.17,.98-4.18,1.32-6.27l.03-.04Z"/><polygon class="cls-2" points="118.83 195.5 118.4 190.76 91.72 199.39 92.2 204.11 118.83 195.5"/><polygon class="cls-2" points="103.3 214.21 118.83 209.14 118.4 204.39 103.3 209.33 103.3 214.21"/><path class="cls-2" d="M205.86,133.54l-21.49-9.61-61.95,20.76,9.21,96.84,109.56-36.72-7.63-80.2-27.71,8.93Zm28.13,66.65l-96.69,32.39-6.54-67.96,38.34-12.29-6.52-2.81-32.31,10.33-.98-10.4,54.77-18.32h.2l20.61,8.83,23.34-7.68,6.21,67.73-.44,.18Z"/></g></svg>