<?xml version="1.0" encoding="UTF-8"?><svg id="Layer_1" xmlns="http://www.w3.org/2000/svg" viewBox="0 0 850 632"><defs><style>.cls-1{fill:#fff;}</style></defs><g><path class="cls-1" d="M75.44,536.74v28.37h-9.61v-65.54h26.21c13.62,0,20.89,7.41,20.89,17.62,0,8.57-4.87,13.66-10.86,15.43,4.95,1.39,9.65,5.27,9.65,16.71v2.89c0,4.49-.17,10.08,.89,12.88h-9.39c-1.18-2.83-1.16-7.9-1.16-14.21v-1.31c0-8.92-2.48-12.85-14.01-12.85h-12.63Zm0-8.06h13.8c9.59,0,13.72-3.61,13.72-10.62s-4.34-10.42-12.86-10.42h-14.66v21.04Z"/><path class="cls-1" d="M131.24,542.85c.05,9.04,4.6,15.78,12.46,15.78,7.2,0,9.49-3.59,10.97-6.98h9.32c-1.85,6.1-7.03,14.59-20.56,14.59-15.24,0-21.54-12.19-21.54-24.6,0-14.44,7.3-25.7,22.06-25.7,15.69,0,20.87,12.33,20.87,22.92,0,1.49,0,2.68-.14,4h-33.44Zm24.21-6.3c-.1-7.45-3.73-13.49-11.61-13.49s-11.54,5.6-12.32,13.49h23.92Z"/><path class="cls-1" d="M169.59,517.07h8.13v-13.95h9.26v13.95h10.37v7.4h-10.37v27.27c0,4.47,1.13,6.68,5.41,6.68,1.07,0,2.71-.05,3.96-.35v6.81c-2.16,.79-5.15,.89-7.52,.89-7.84,0-11.11-4.09-11.11-12.15v-29.14h-8.13v-7.4Z"/><path class="cls-1" d="M205.66,530.12c0-6.34-.05-10.21-.09-13.05h9.08c.14,1.3,.27,5.26,.27,9.54,2.44-6.3,8.05-10.47,16.03-10.67v9.12c-9.81,.19-16.03,4.84-16.03,17.18v22.86h-9.26v-34.99Z"/><path class="cls-1" d="M239.05,495.91h9.26v10.65h-9.26v-10.65Zm0,21.16h9.26v48.04h-9.26v-48.04Z"/><path class="cls-1" d="M268.12,542.85c.05,9.04,4.6,15.78,12.46,15.78,7.2,0,9.49-3.59,10.97-6.98h9.32c-1.85,6.1-7.03,14.59-20.56,14.59-15.24,0-21.54-12.19-21.54-24.6,0-14.44,7.3-25.7,22.06-25.7,15.69,0,20.87,12.33,20.87,22.92,0,1.49,0,2.68-.14,4h-33.44Zm24.21-6.3c-.1-7.45-3.73-13.49-11.61-13.49s-11.54,5.6-12.32,13.49h23.92Z"/><path class="cls-1" d="M317.01,517.07c6.1,18.99,10.65,33.58,12.02,39.54h.1c1.21-5.85,6.24-20.25,12.86-39.54h9.38l-17.53,48.04h-10.08l-16.67-48.04h9.93Z"/><path class="cls-1" d="M394.58,554.25c0,4.41,.37,9.51,.66,10.85h-8.86c-.38-1.05-.66-3.38-.76-5.98-1.69,3.1-5.41,7.11-14.57,7.11-11.38,0-16.22-7.42-16.22-14.75,0-10.77,8.49-15.7,22.73-15.7h7.94v-3.87c0-4.08-1.33-8.9-9.77-8.9-7.56,0-8.88,3.67-9.71,7.37h-8.92c.65-6.99,4.97-14.5,18.94-14.45,11.96,.04,18.56,4.87,18.56,15.89v22.42Zm-9.04-12.27h-7.32c-9.27,0-13.98,2.61-13.98,8.97,0,4.7,3.17,8.2,8.88,8.2,10.96,0,12.42-7.42,12.42-15.68v-1.48Z"/><path class="cls-1" d="M408.39,565.1v-69.2h9.26v69.2h-9.26Z"/><path class="cls-1" d="M512.48,537.81c0-11.98,.14-24.39,.42-31.38h-.37c-2.85,11.14-12.69,38.08-19.98,58.67h-8.6c-5.51-16.99-15.69-47.27-18.62-58.81h-.32c.51,7.59,.74,21.94,.74,33.18v25.63h-9.08v-65.54h14.5c7,19.73,15.46,45.07,17.65,53.68h.15c1.55-6.74,11.63-34.44,18.91-53.68h14.07v65.54h-9.47v-27.29Z"/><path class="cls-1" d="M572.21,554.25c0,4.41,.37,9.51,.66,10.85h-8.86c-.38-1.05-.66-3.38-.76-5.98-1.69,3.1-5.41,7.11-14.57,7.11-11.38,0-16.22-7.42-16.22-14.75,0-10.77,8.49-15.7,22.73-15.7h7.94v-3.87c0-4.08-1.33-8.9-9.77-8.9-7.56,0-8.88,3.67-9.71,7.37h-8.92c.65-6.99,4.97-14.5,18.94-14.45,11.96,.04,18.56,4.87,18.56,15.89v22.42Zm-9.04-12.27h-7.32c-9.27,0-13.98,2.61-13.98,8.97,0,4.7,3.17,8.2,8.88,8.2,10.96,0,12.42-7.42,12.42-15.68v-1.48Z"/><path class="cls-1" d="M586.02,530.12c0-6.34-.05-10.21-.09-13.05h9.08c.14,1.3,.27,5.26,.27,9.54,2.44-6.3,8.05-10.47,16.03-10.67v9.12c-9.81,.19-16.03,4.84-16.03,17.18v22.86h-9.26v-34.99Z"/><path class="cls-1" d="M629.05,539.48c3.96-4.75,13.69-15.15,20.23-22.42h10.92l-17.82,18.61,19.8,29.43h-10.74l-15.37-23.5-7.02,6.78v16.72h-9.26v-69.2h9.26v43.58Z"/><path class="cls-1" d="M673.39,542.85c.05,9.04,4.6,15.78,12.46,15.78,7.2,0,9.49-3.59,10.97-6.98h9.32c-1.85,6.1-7.03,14.59-20.56,14.59-15.24,0-21.54-12.19-21.54-24.6,0-14.44,7.3-25.7,22.06-25.7,15.69,0,20.87,12.33,20.87,22.92,0,1.49,0,2.68-.14,4h-33.44Zm24.21-6.3c-.1-7.45-3.73-13.49-11.61-13.49s-11.54,5.6-12.32,13.49h23.92Z"/><path class="cls-1" d="M711.74,517.07h8.13v-13.95h9.26v13.95h10.37v7.4h-10.37v27.27c0,4.47,1.13,6.68,5.41,6.68,1.07,0,2.71-.05,3.96-.35v6.81c-2.16,.79-5.15,.89-7.52,.89-7.84,0-11.11-4.09-11.11-12.15v-29.14h-8.13v-7.4Z"/><path class="cls-1" d="M754.18,551.23c1.31,4.97,5.04,7.88,11.26,7.88,6.64,0,9.22-2.8,9.22-6.88s-2.18-6.13-10.9-8.25c-14.1-3.44-16.91-7.76-16.91-14.33s4.99-13.7,17.75-13.7,17.86,7.32,18.44,13.98h-8.92c-.63-2.85-2.76-6.98-9.92-6.98-6.28,0-8.17,2.98-8.17,5.94,0,3.35,1.88,5.01,10.49,7.06,14.85,3.51,17.64,8.49,17.64,15.61,0,8.33-6.56,14.69-19.03,14.69s-18.94-6.44-20.13-15.01h9.19Z"/></g><g><path class="cls-1" d="M468.61,177.16l-34.11-14.62-.29-.13-90.56,30.41,1.62,17.22,53.6-17.01,10.79,4.66-63.56,20.32,10.82,112.52,159.99-53.68,.6-.21-10.28-112.08-38.63,12.6Zm-10.69,32.94c-1.35,.96-3.23,.68-4.24-.63-.89-.97-1.7-2-2.44-3.09-1.92-2.55-5-3.07-7.18-.76-1.78,1.75-3.17,3.84-4.09,6.16-2.31,6.92-4.11,13.97-6.16,21.41,6.29,.89,12.05,1.79,18.08,2.7-.52,1.62-.91,3.25-1.41,4.99-5.9-.76-11.55-1.62-17.45-2.42-.63,3.46-1.27,6.79-2.18,10.38,6.16,1.02,12.31,1.92,18.71,2.81-.37,1.62-.89,3.25-1.4,5l-18.34-2.7c-1.15,4.5-2.05,8.72-3.46,12.99-1.43,4.65-3.18,9.19-5.26,13.58-2.53,5.49-7.53,9.44-13.45,10.64-3.63,.96-7.5,.21-10.51-2.05-1.05-.67-1.8-1.73-2.06-2.96,.05-1.36,.63-2.65,1.62-3.59,1.1-.36,2.31-.16,3.25,.52,1.04,1.04,1.94,2.2,2.7,3.46,1.19,2.16,3.91,2.95,6.07,1.76,.41-.23,.79-.52,1.11-.87,2.85-2.63,4.82-6.07,5.64-9.86,2.05-7.83,3.85-15.64,5.64-23.47,.07-.46,.07-.93,0-1.4-5.77-.91-11.53-1.8-17.43-2.7,.26-1.62,.39-3.09,.65-5,5.9,.89,11.79,1.62,17.87,2.57,.78-3.25,1.54-6.68,2.44-10.27-6.27-1.02-12.3-1.92-18.71-2.94,.26-1.8,.39-3.25,.65-5.13,6.4,1.02,12.69,1.93,19.22,2.83,.52-1.92,1.04-3.59,1.62-5.39,1.8-5.9,3.46-11.92,7.18-17.04,3.72-5.12,8.59-8.59,15.25-8.33,3-.1,5.89,1.08,7.96,3.25,.37,.52,1.02,1.15,1.02,1.62-.15,1.49-.15,3.17-.91,3.93h0Z"/><path class="cls-1" d="M422.45,65.76c-97.05,0-175.72,78.67-175.72,175.72s78.67,175.72,175.72,175.72,175.72-78.67,175.72-175.72c0-.03,0-.05,0-.08-.16-96.97-78.75-175.52-175.72-175.64Zm-140.18,213.43l-.8-7.81,44.15-14.28,.7,7.85-44.05,14.25Zm18.35,16.71v-8.12l25-8.12,.7,7.85-25.7,8.4Zm46.88,49.23l-15.22-160.17,102.54-34.37,35.52,15.87,45.85-14.78,12.62,132.77-181.32,60.68Z"/></g></svg>