<?xml version="1.0" encoding="UTF-8"?><svg id="Layer_1" xmlns="http://www.w3.org/2000/svg" xmlns:xlink="http://www.w3.org/1999/xlink" viewBox="0 0 1200 356"><defs><style>.cls-1{fill:url(#linear-gradient);}.cls-2{fill:url(#linear-gradient-3);}.cls-3{fill:url(#linear-gradient-4);}.cls-4{fill:url(#linear-gradient-5);}.cls-5{fill:url(#linear-gradient-2);fill-rule:evenodd;}</style><linearGradient id="linear-gradient" x1="67.78" y1="1938.28" x2="280.44" y2="1938.28" gradientTransform="translate(3.02 2114.26) scale(1 -1)" gradientUnits="userSpaceOnUse"><stop offset="0" stop-color="#0090ff"/><stop offset="1" stop-color="#0ed1ff"/></linearGradient><linearGradient id="linear-gradient-2" x1="156.45" y1="1935.23" x2="195.02" y2="1935.23" gradientTransform="translate(3.02 2114.26) scale(1 -1)" gradientUnits="userSpaceOnUse"><stop offset="0" stop-color="#0090ff"/><stop offset="1" stop-color="#08b3ff"/></linearGradient><linearGradient id="linear-gradient-3" x1="90.46" y1="1922.19" x2="117.61" y2="1922.19" gradientTransform="translate(3.02 2114.26) scale(1 -1)" gradientUnits="userSpaceOnUse"><stop offset="0" stop-color="#0090ff"/><stop offset="1" stop-color="#05a8ff"/></linearGradient><linearGradient id="linear-gradient-4" x1="96.37" y1="1910.31" x2="117.61" y2="1910.31" xlink:href="#linear-gradient-3"/><linearGradient id="linear-gradient-5" x1="118.44" y1="1934.42" x2="237.37" y2="1934.42" xlink:href="#linear-gradient"/></defs><g><path class="cls-1" d="M176.93,71.91c-58.66,0-106.21,47.56-106.2,106.22,0,58.66,47.56,106.21,106.22,106.2,58.66,0,106.21-47.56,106.2-106.22,0-.01,0-.03,0-.04-.09-58.62-47.61-106.1-106.22-106.16Zm0,205.2c-54.65,0-98.95-44.31-98.95-98.97,0-54.65,44.31-98.95,98.97-98.95,54.65,0,98.95,44.31,98.95,98.96-.11,54.6-44.37,98.82-98.97,98.88v.08Z"/><path class="cls-5" d="M182.2,176.29c3.56,.46,6.98,.98,10.54,1.46,.3-1.08,.54-1.96,.85-3.01-3.64-.55-7.13-1.09-10.93-1.63,1.24-4.5,2.33-8.76,3.72-12.94,.56-1.4,1.4-2.67,2.47-3.72,1.32-1.39,3.18-1.08,4.34,.46,.44,.66,.94,1.28,1.47,1.87,.61,.8,1.74,.97,2.56,.38,.46-.46,.46-1.47,.54-2.32,0-.31-.39-.7-.62-.98-1.25-1.31-3-2.03-4.81-1.96-4.03-.16-6.97,1.86-9.22,5.04-2.25,3.18-3.25,6.74-4.34,10.3-.3,1.09-.62,2.1-.98,3.26-3.93-.54-7.75-1.09-11.61-1.71-.16,1.09-.24,1.96-.39,3.1,3.93,.62,7.52,1.16,11.31,1.78-.54,2.17-.98,4.19-1.47,6.21-3.71-.54-7.28-.98-10.8-1.55-.16,1.16-.24,1.96-.39,3.02,3.56,.54,7.05,1.08,10.53,1.63,.04,.28,.04,.56,0,.84-1.08,4.73-2.17,9.45-3.41,14.19-.49,2.29-1.68,4.37-3.41,5.96-1.02,1.09-2.73,1.15-3.82,.13-.21-.19-.39-.42-.52-.67-.45-.76-1-1.46-1.63-2.09-.57-.41-1.3-.53-1.96-.31-.6,.57-.95,1.35-.98,2.17,.16,.74,.61,1.38,1.25,1.79,1.82,1.36,4.16,1.82,6.35,1.24,3.58-.73,6.6-3.11,8.13-6.43,1.26-2.66,2.32-5.4,3.18-8.21,.85-2.56,1.39-5.12,2.09-7.85l11.08,1.63c.3-1.08,.62-2.01,.85-3.02-3.88-.54-7.6-1.08-11.32-1.7,.55-2.17,.98-4.18,1.32-6.27v-.06Z"/><polygon class="cls-2" points="120.5 192.26 120.06 187.52 93.38 196.15 93.87 200.87 120.5 192.26"/><polygon class="cls-3" points="104.95 210.98 120.5 205.9 120.06 201.16 104.95 206.1 104.95 210.98"/><path class="cls-4" d="M204.78,132.79l-21.49-9.61-61.96,20.79,9.2,96.82,109.6-36.68-7.63-80.23-27.72,8.91Zm28.14,66.67l-96.7,32.5-6.54-67.98,38.35-12.28-6.52-2.82-32.33,10.25-.98-10.41,54.81-18.36,.18,.08,20.62,8.84,23.35-7.68,6.21,67.75-.45,.12Z"/></g><g><path d="M364.43,184.24v30.62h-10.37v-70.73h28.29c14.7,0,22.55,8,22.55,19.01,0,9.25-5.26,14.74-11.72,16.66,5.34,1.5,10.42,5.68,10.42,18.03v3.12c0,4.85-.18,10.88,.96,13.91h-10.14c-1.28-3.05-1.25-8.53-1.25-15.33v-1.42c0-9.63-2.68-13.87-15.12-13.87h-13.63Zm0-8.7h14.9c10.35,0,14.81-3.9,14.81-11.46s-4.68-11.25-13.89-11.25h-15.82v22.71Z"/><path d="M424.64,190.84c.05,9.76,4.96,17.03,13.44,17.03,7.77,0,10.24-3.87,11.84-7.54h10.05c-2,6.58-7.58,15.75-22.19,15.75-16.45,0-23.25-13.15-23.25-26.55,0-15.58,7.88-27.74,23.81-27.74,16.93,0,22.52,13.31,22.52,24.74,0,1.61,0,2.9-.15,4.31h-36.09Zm26.13-6.8c-.1-8.04-4.03-14.55-12.53-14.55s-12.45,6.04-13.29,14.55h25.82Z"/><path d="M466.03,163.01h8.78v-15.05h10v15.05h11.19v7.98h-11.19v29.44c0,4.82,1.22,7.2,5.83,7.2,1.16,0,2.93-.06,4.28-.38v7.35c-2.33,.85-5.56,.96-8.12,.96-8.46,0-11.99-4.42-11.99-13.12v-31.46h-8.78v-7.98Z"/><path d="M504.95,177.09c0-6.84-.05-11.02-.1-14.08h9.8c.15,1.4,.29,5.67,.29,10.29,2.63-6.8,8.68-11.29,17.3-11.52v9.85c-10.59,.2-17.3,5.22-17.3,18.54v24.67h-10v-37.76Z"/><path d="M540.99,140.17h10v11.5h-10v-11.5Zm0,22.84h10v51.84h-10v-51.84Z"/><path d="M572.36,190.84c.05,9.76,4.96,17.03,13.44,17.03,7.77,0,10.24-3.87,11.84-7.54h10.05c-2,6.58-7.58,15.75-22.19,15.75-16.45,0-23.25-13.15-23.25-26.55,0-15.58,7.88-27.74,23.81-27.74,16.93,0,22.52,13.31,22.52,24.74,0,1.61,0,2.9-.15,4.31h-36.09Zm26.13-6.8c-.1-8.04-4.03-14.55-12.53-14.55s-12.45,6.04-13.29,14.55h25.82Z"/><path d="M625.12,163.01c6.58,20.5,11.5,36.24,12.97,42.67h.1c1.3-6.31,6.73-21.86,13.88-42.67h10.12l-18.92,51.84h-10.88l-17.99-51.84h10.72Z"/><path d="M708.83,203.14c0,4.76,.41,10.27,.71,11.71h-9.56c-.41-1.13-.71-3.65-.82-6.45-1.82,3.35-5.84,7.67-15.73,7.67-12.28,0-17.51-8.01-17.51-15.92,0-11.62,9.17-16.94,24.53-16.94h8.56v-4.18c0-4.4-1.43-9.6-10.54-9.6-8.16,0-9.59,3.96-10.48,7.95h-9.63c.7-7.54,5.37-15.65,20.44-15.6,12.91,.05,20.03,5.26,20.03,17.15v24.2Zm-9.76-13.24h-7.9c-10.01,0-15.09,2.81-15.09,9.67,0,5.07,3.42,8.85,9.58,8.85,11.83,0,13.41-8.01,13.41-16.92v-1.6Z"/><path d="M723.73,214.86v-74.68h10v74.68h-10Z"/><path d="M836.08,185.4c0-12.93,.15-26.32,.45-33.86h-.4c-3.08,12.03-13.7,41.09-21.56,63.32h-9.28c-5.94-18.34-16.93-51.01-20.1-63.47h-.34c.56,8.19,.81,23.68,.81,35.81v27.66h-9.8v-70.73h15.65c7.56,21.29,16.68,48.64,19.05,57.93h.16c1.68-7.28,12.55-37.17,20.41-57.93h15.18v70.73h-10.22v-29.46Z"/><path d="M900.54,203.14c0,4.76,.41,10.27,.71,11.71h-9.56c-.41-1.13-.71-3.65-.82-6.45-1.82,3.35-5.84,7.67-15.73,7.67-12.28,0-17.51-8.01-17.51-15.92,0-11.62,9.17-16.94,24.53-16.94h8.56v-4.18c0-4.4-1.43-9.6-10.54-9.6-8.16,0-9.59,3.96-10.48,7.95h-9.63c.7-7.54,5.37-15.65,20.44-15.6,12.91,.05,20.03,5.26,20.03,17.15v24.2Zm-9.76-13.24h-7.9c-10.01,0-15.09,2.81-15.09,9.67,0,5.07,3.42,8.85,9.58,8.85,11.83,0,13.41-8.01,13.41-16.92v-1.6Z"/><path d="M915.44,177.09c0-6.84-.05-11.02-.1-14.08h9.8c.15,1.4,.29,5.67,.29,10.29,2.63-6.8,8.68-11.29,17.3-11.52v9.85c-10.59,.2-17.3,5.22-17.3,18.54v24.67h-10v-37.76Z"/><path d="M961.88,187.2c4.27-5.13,14.78-16.35,21.83-24.19h11.79l-19.24,20.08,21.37,31.76h-11.59l-16.59-25.36-7.57,7.31v18.04h-10v-74.68h10v47.03Z"/><path d="M1009.73,190.84c.05,9.76,4.96,17.03,13.44,17.03,7.77,0,10.24-3.87,11.84-7.54h10.05c-2,6.58-7.58,15.75-22.19,15.75-16.45,0-23.25-13.15-23.25-26.55,0-15.58,7.88-27.74,23.81-27.74,16.93,0,22.52,13.31,22.52,24.74,0,1.61,0,2.9-.15,4.31h-36.09Zm26.13-6.8c-.1-8.04-4.03-14.55-12.53-14.55s-12.45,6.04-13.29,14.55h25.82Z"/><path d="M1051.12,163.01h8.78v-15.05h10v15.05h11.19v7.98h-11.19v29.44c0,4.82,1.22,7.2,5.83,7.2,1.16,0,2.93-.06,4.28-.38v7.35c-2.33,.85-5.56,.96-8.12,.96-8.46,0-11.99-4.42-11.99-13.12v-31.46h-8.78v-7.98Z"/><path d="M1096.92,199.88c1.41,5.37,5.44,8.51,12.15,8.51,7.17,0,9.95-3.02,9.95-7.42s-2.35-6.62-11.77-8.91c-15.22-3.71-18.25-8.38-18.25-15.47s5.39-14.79,19.16-14.79,19.27,7.91,19.9,15.09h-9.63c-.69-3.07-2.98-7.54-10.71-7.54-6.78,0-8.81,3.22-8.81,6.41,0,3.62,2.03,5.41,11.32,7.62,16.02,3.79,19.03,9.17,19.03,16.85,0,8.99-7.07,15.85-20.54,15.85s-20.44-6.94-21.73-16.2h9.91Z"/></g></svg>